<?xml version="1.0" encoding="UTF-8" standalone="no"?><!DOCTYPE svg PUBLIC "-//W3C//DTD SVG 1.1//EN" "http://www.w3.org/Graphics/SVG/1.1/DTD/svg11.dtd"><svg width="128px" height="128px" version="1.1" xmlns="http://www.w3.org/2000/svg" xmlns:xlink="http://www.w3.org/1999/xlink" xml:space="preserve" xmlns:serif="http://www.serif.com/" style="fill-rule:evenodd;clip-rule:evenodd;stroke-linejoin:round;stroke-miterlimit:2;"><path d="M98.294,43.109C97.152,40.918 96.93,34.283 93.852,31.585C86.996,25.572 78.839,34.02 77.394,40.478C74.236,54.588 90.779,66.942 102.973,68.582C107.249,69.157 111.929,69.307 115.713,66.912C123.157,62.203 123.643,51.545 115.378,47.505C110.806,45.27 103.551,45.464 100.704,44.732C99.766,44.491 98.742,43.968 98.294,43.109Z" style="fill:#db4437;"/><path d="M40.063,69.298C50.422,64.011 59.985,49.532 58.694,37.84C58.039,31.904 54.355,26.382 48.746,24.098C46.433,23.156 43.315,22.537 41.076,24.05C35.238,27.996 36.201,36.169 31.551,40.769C29.461,42.835 26.225,42.555 23.523,43.052C18.083,44.053 11.996,47.411 10.665,53.186C7.135,68.499 26.574,76.181 40.063,69.298Z" style="fill:#db4437;"/><g transform="matrix(-0.953025,-0.302891,0.302891,-0.953025,93.2231,198.793)"><path d="M59.521,100.897C62.961,101.869 69.137,106.72 74.981,106.541C83.996,106.266 86.636,94.801 82.465,88.291C73.811,74.781 48.972,67.798 32.668,82.848C24.31,90.564 29.466,106.528 39.545,108.038C45.166,108.88 51.01,101.902 54.339,100.712C55.966,100.13 57.857,100.428 59.521,100.897Z" style="fill:#db4437;"/></g><path d="M35.549,37.68C34.33,38.633 33.049,42.103 30.751,43.346C29.881,43.817 28.175,43.587 27.511,44.234C26.366,45.347 30.746,47.049 31.039,47.103C35.581,47.952 37.659,40.027 37.386,38.248C37.074,36.221 36.057,37.284 35.549,37.68Z" style="fill:#ffcc80;"/><path d="M97.76,43.913C97.205,42.738 95.2,40.606 94.802,42.894C94.576,44.195 95.865,45.46 96.793,46.322C97.836,47.29 101.487,49.361 102.681,47.352C102.785,47.176 102.192,46.383 102.098,46.252C101.255,45.082 98.358,45.181 97.76,43.913Z" style="fill:#ffcc80;"/><path d="M69.277,86.596C68.268,86.124 67.385,85.143 65.951,85.154C64.33,85.166 63.892,86.754 65.187,87.689C66.827,88.873 69.334,89.363 71.283,89.149C71.947,89.076 72.812,89.042 73.139,88.392C73.569,87.534 72.755,87.028 72.509,86.989C71.53,86.833 71.089,87.443 69.277,86.596Z" style="fill:#ffcc80;"/><path d="M17.908,47.731C17.906,47.732 17.905,47.732 17.904,47.733C15.726,48.983 13.383,50.049 12.607,52.647C12.268,53.782 12.048,55.157 12.1,56.345C12.106,56.485 12.785,56.712 12.899,56.753C13.098,56.824 13.652,57.088 13.855,56.992C14.237,56.81 14.472,56.296 14.618,55.928C15.014,54.935 15.03,53.83 15.425,52.828C15.903,51.615 16.663,50.677 17.694,49.889C18.393,49.355 19.467,48.814 19.907,48.022C20.113,47.653 18.59,47.361 17.908,47.731Z" style="fill:#ffebee;"/><path d="M84.561,32.323C84.508,32.299 84.447,32.307 84.402,32.343C82.389,33.925 80.615,36.17 79.722,38.57C79.555,39.019 78.926,40.291 79.086,40.753C79.244,41.21 81.086,41.351 81.501,41.164C81.938,40.967 81.873,39.047 82.102,38.546C82.979,36.631 83.46,34.107 85,32.67C85.025,32.647 85.036,32.613 85.031,32.58C85.026,32.547 85.004,32.518 84.973,32.505C84.847,32.449 84.666,32.369 84.561,32.323Z" style="fill:#ffebee;"/><path d="M48.071,76.313C46.334,77.534 44.966,79.722 44.22,81.673C43.993,82.267 43.747,83.064 43.982,83.693C44.409,84.833 46.122,84.675 46.927,84.065C47.811,83.397 48.077,82.276 48.337,81.259C48.656,80.012 49,78.598 49.788,77.53C49.989,77.285 50.037,76.95 49.916,76.658C49.794,76.366 49.521,76.165 49.207,76.135C48.817,76.1 48.406,76.077 48.071,76.313Z" style="fill:#ffebee;"/></svg>