<?xml version="1.0" encoding="UTF-8" standalone="no"?><!DOCTYPE svg PUBLIC "-//W3C//DTD SVG 1.1//EN" "http://www.w3.org/Graphics/SVG/1.1/DTD/svg11.dtd"><svg width="128px" height="128px" version="1.1" xmlns="http://www.w3.org/2000/svg" xmlns:xlink="http://www.w3.org/1999/xlink" xml:space="preserve" xmlns:serif="http://www.serif.com/" style="fill-rule:evenodd;clip-rule:evenodd;stroke-linejoin:round;stroke-miterlimit:2;"><g transform="matrix(1,0,0,1,0,-9.295)"><path d="M125.27,72.453C125.27,62.573 99.46,48.17 79.38,48.17C72.34,48.17 67.51,50.09 64.08,52.53C60.65,50.09 55.82,48.17 48.78,48.17C28.7,48.17 2.89,62.583 2.89,72.453C2.89,72.963 3.02,73.513 3.18,74.073L3.17,74.073C3.17,74.093 3.19,74.113 3.19,74.133C3.27,74.453 3.282,74.941 3.58,75.133C15.082,82.518 32.202,85.084 67.322,95.693C94.308,103.845 120.32,86.203 124.58,75.133C124.71,74.803 124.88,74.453 124.97,74.133C124.98,74.113 124.99,74.093 124.99,74.073L124.98,74.073C125.14,73.513 125.27,72.963 125.27,72.453Z" style="fill:#9f3621;fill-rule:nonzero;"/></g><path d="M56.257,67.796C56.257,67.796 67.778,80.027 87.513,78.012C105.76,76.148 102.196,63.262 102.196,63.262L80.317,66.274L56.257,67.796Z" style="fill:#2f2f2f;"/><path d="M26.185,62.264C25.897,62.452 25.729,62.778 25.744,63.122C25.758,63.466 25.953,63.776 26.256,63.939C38.253,70.203 53.741,70.624 68.018,68.824C82.995,66.934 95.999,64.568 101.077,63.602C101.462,63.526 101.765,63.227 101.846,62.843C101.926,62.458 101.769,62.063 101.446,61.839C93.489,56.659 61.695,39.08 26.185,62.264Z" style="fill:#fff;"/></svg>