<?xml version="1.0" encoding="UTF-8" standalone="no"?><!DOCTYPE svg PUBLIC "-//W3C//DTD SVG 1.1//EN" "http://www.w3.org/Graphics/SVG/1.1/DTD/svg11.dtd"><svg width="128px" height="128px" version="1.1" xmlns="http://www.w3.org/2000/svg" xmlns:xlink="http://www.w3.org/1999/xlink" xml:space="preserve" xmlns:serif="http://www.serif.com/" style="fill-rule:evenodd;clip-rule:evenodd;stroke-linejoin:round;stroke-miterlimit:2;"><g transform="matrix(1,0,0,1,-384,0)"><g id="High-Speed-Train" serif:id="High Speed Train"></g><g id="Steam-Locomotive" serif:id="Steam Locomotive"></g><g id="Mountain-Railway" serif:id="Mountain Railway"><clipPath id="_clip1"><rect x="256" y="0.024" width="128" height="127.977"/></clipPath><g clip-path="url(#_clip1)"><g id="Mountain" transform="matrix(1.04798,0,0,1.04798,-15.3524,-3.14393)"><clipPath id="_clip2"><rect x="258.93" y="3.023" width="122.14" height="122.118"/></clipPath><g clip-path="url(#_clip2)"><g transform="matrix(1.20326,0,0,1.20326,242.991,-26.0179)"><path d="M56.625,24.117C55.039,24.112 53.325,24.353 51.48,24.837C48.316,25.667 46.775,28.237 45.654,30.117C45.152,30.947 44.649,31.81 44.17,32.219L44.008,32.348C43.225,33.037 43.072,33.141 42.558,33.246C41.554,33.456 41.135,33.258 40.025,32.709C38.495,31.962 36.195,30.816 32.879,31.855C29.516,32.93 27.249,36.143 24.879,40.639C22.379,45.379 18.832,54.52 13.246,66.146L13.246,125.623L114.754,125.623L114.754,69.358C102.33,45.418 101.23,42.85 100.352,41.395C98.915,39.002 95.867,37.04 93.508,37.169C91.149,37.297 88.44,38.639 87.028,40.694C86.572,41.372 83.268,46.254 78.83,52.829C77.534,50.26 76.295,47.843 75.174,45.612C70.666,36.726 68.284,32.018 67.607,30.851C64.997,26.358 61.383,24.131 56.625,24.116L56.625,24.117Z" style="fill:#8d6b63;fill-rule:nonzero;"/></g><g transform="matrix(1,0,0,1,256,1.06068)"><path d="M119.06,106.566C118.57,107.206 118.21,107.906 117.41,108.036C115.77,108.306 114.28,109.036 113.09,110.086C112.3,110.786 111.14,110.886 110.25,110.306L110.23,110.286C108.32,106.676 104.7,105.026 100.33,105.026C96.22,105.026 92.45,106.386 90.45,109.656C89.89,110.556 88.77,110.856 87.81,110.396C86.614,109.823 85.295,109.555 83.97,109.616C83.01,109.656 82.16,109.066 81.8,108.176C79.74,102.976 74.85,100.776 68.91,100.776C62.8,100.776 57.44,103.166 55.49,108.606C55.31,109.106 54.99,109.546 54.52,109.816C54.3,109.946 54.08,110.086 53.88,110.246C53.27,110.736 52.44,110.766 51.73,110.436C50.589,109.909 49.347,109.636 48.09,109.636C46.75,109.636 45.48,109.946 44.34,110.496C43.48,110.906 42.46,110.736 41.8,110.046C40.17,108.326 37.9,107.352 35.53,107.356C33.01,107.356 30.75,108.436 29.16,110.146C28.4,110.976 27.16,111.016 26.29,110.296C25.387,109.55 24.251,109.143 23.08,109.146C22.03,109.146 21.06,109.476 20.26,110.026C19.87,110.296 18.8,110.436 17.79,110.086C16.96,109.806 16.2,109.136 15.69,108.426C12.12,103.376 7.68,101.466 6.39,100.866C3.99,99.736 2.93,100.056 2.93,100.056L2.93,118.866C2.93,119.086 125.07,118.866 125.07,118.866L125.07,100.966C125.07,99.246 121.19,103.776 119.06,106.566Z" style="fill:#bdcf46;fill-rule:nonzero;"/></g></g></g><g id="Railcar" transform="matrix(2.3251,0,0,2.3251,-389.309,-162.351)"><g transform="matrix(0.418985,0,0,0.419508,293.075,72.1842)"><g id="Bogie"><path d="M94.314,109.202C94.314,114.305 90.175,118.429 85.08,118.429C79.977,118.429 75.837,114.297 75.837,109.202C75.837,104.092 79.977,99.975 85.08,99.975C90.175,99.975 94.314,104.099 94.314,109.202Z" style="fill:#212121;"/></g></g><g id="Livery" transform="matrix(0.430089,0,0,0.430089,176.403,69.8774)"><clipPath id="_clip3"><path d="M312,40.879L384,40.879L384,113L289,113C281.554,112.896 268.666,110.992 264.409,110.333C263.457,110.185 262.617,109.625 262.114,108.802C260.947,106.875 259.047,102.976 259.154,98.111C259.154,98.111 258.536,89.384 258.272,85.656C258.193,84.551 258.385,83.443 258.831,82.428C260.645,78.376 265.763,67.408 271,61C285.658,43.065 303.753,41.108 312,40.879Z" clip-rule="nonzero"/></clipPath><g clip-path="url(#_clip3)"><clipPath id="_clip4"><rect x="235.154" y="-0.097" width="128" height="127.977"/></clipPath><g clip-path="url(#_clip4)"><g transform="matrix(0.838407,0,0,0.998322,41.2063,0.0685842)"><rect x="255" y="40.879" width="129" height="72.121" style="fill:#afc7cf;"/></g><g transform="matrix(26.7886,0,0,1,-10727.3,8.879)"><rect x="410" y="98" width="4" height="6" style="fill:#616161;"/></g><g transform="matrix(26.7886,0,0,1.66667,-10727.3,-66.4543)"><rect x="410" y="98" width="4" height="6" style="fill:#42ade7;"/></g><g transform="matrix(26.7886,0,0,2.66667,-10727.3,-180.454)"><rect x="410" y="98" width="4" height="6" style="fill:#81cdee;"/></g></g></g></g><g id="Windows"></g></g><g id="Rail" transform="matrix(1.99293,0,0,1.99293,-317.739,-123.096)"><g transform="matrix(0.501773,0,0,0.246233,287.887,94.4755)"><rect x="0" y="117.809" width="128" height="10.191" style="fill:#5d4037;fill-rule:nonzero;"/></g><g transform="matrix(0.501773,0,0,1,287.887,-0.62)"><rect x="0" y="122.611" width="128" height="2.004" style="fill:#383838;fill-rule:nonzero;"/></g></g></g></g><g id="Railcar1" serif:id="Railcar" transform="matrix(1,0,0,0.99849,109.626,0.182736)"><g id="Bogie1" serif:id="Bogie"></g><g id="Body" transform="matrix(1,0,0,1,18.3737,0)"><clipPath id="_clip5"><rect x="384.001" y="40.879" width="127.999" height="72.109"/></clipPath><g clip-path="url(#_clip5)"><g id="Livery1" serif:id="Livery"><rect x="384.001" y="40.879" width="127.999" height="72.121" style="fill:#afc7cf;"/><g transform="matrix(31.9997,0,0,1.00353,-12735.9,8.63297)"><rect x="410" y="98" width="4" height="6" style="fill:#616161;"/></g><g transform="matrix(31.9997,0,0,1.66919,-12735.9,-66.6167)"><rect x="410" y="98" width="4" height="6" style="fill:#42ade7;"/></g><g transform="matrix(32,0,0,2.6707,-12736,-180.789)"><rect x="410" y="98" width="4" height="6" style="fill:#81cdee;"/></g></g><g id="Windows1" serif:id="Windows"></g></g></g></g><g id="Bullet-Train" serif:id="Bullet Train" transform="matrix(-1,0,0,1,1024,0)"><g id="Bogie2" serif:id="Bogie" transform="matrix(-1,0,0,1,1004.06,0.227)"><g transform="matrix(1.02959,0,0,1.02959,359.032,-0.659968)"><path d="M94.314,109.202C94.314,114.305 90.175,118.429 85.08,118.429C79.977,118.429 75.837,114.297 75.837,109.202C75.837,104.092 79.977,99.975 85.08,99.975C90.175,99.975 94.314,104.099 94.314,109.202Z" style="fill:#212121;"/></g><g transform="matrix(1.02959,0,0,1.02959,383.545,-0.659968)"><path d="M33.551,109.202C33.551,114.305 29.411,118.429 24.316,118.429C19.213,118.429 15.074,114.297 15.074,109.202C15.074,104.092 19.214,99.975 24.316,99.975C29.412,99.975 33.551,104.099 33.551,109.202Z" style="fill:#212121;"/></g><g transform="matrix(1.02959,0,0,1.02959,383.387,-0.659968)"><path d="M52.18,109.202C52.18,114.305 48.041,118.429 42.946,118.429C37.843,118.429 33.704,114.297 33.704,109.202C33.704,104.092 37.843,99.975 42.946,99.975C48.049,99.975 52.181,104.099 52.181,109.202L52.18,109.202Z" style="fill:#212121;"/></g></g><g id="Body1" serif:id="Body"><g id="Cab" transform="matrix(1,0,0,1,5,0)"><clipPath id="_clip6"><path d="M531,51.667C531,51.667 547.088,50 561,53C578.14,56.696 602,76.939 602,76.939C567.468,75.662 540.783,65.245 531,51.667Z"/></clipPath><g clip-path="url(#_clip6)"><rect x="534" y="48" width="66" height="28.939" style="fill:#93b1bb;"/><g transform="matrix(1.10645,0,0,1,-55.5514,0)"><path d="M570.543,54C570.287,53.058 556.847,53.156 559.041,61C560.59,66.54 591.577,71 591.577,71L591,54L570.543,54Z" style="fill:#5a818e;"/></g></g></g><g id="Livery2" serif:id="Livery" transform="matrix(1,0,0,1,128,0)"><clipPath id="_clip7"><path d="M384,107L384,113L501.085,113.085L495,107L384,107L495,107C495,107 510,103.336 510,91C510,82 487.894,73.886 473.419,73C458.944,72.114 447.226,69 433,64C421.107,59.82 402,41 387,41L384.001,41L384,107Z"/></clipPath><g clip-path="url(#_clip7)"><g transform="matrix(1,0,0,0.998322,-1.09139e-11,0.189584)"><rect x="384.001" y="40.879" width="127.999" height="72.121" style="fill:#afc7cf;"/></g><g transform="matrix(31.9997,0,0,1,-12735.9,9)"><rect x="410" y="98" width="4" height="6" style="fill:#616161;"/></g><g transform="matrix(31.9997,0,0,1.66667,-12735.9,-66.3333)"><rect x="410" y="98" width="4" height="6" style="fill:#42ade7;"/></g><g transform="matrix(32,0,0,2.66667,-12736,-180.333)"><rect x="410" y="98" width="4" height="6" style="fill:#81cdee;"/></g></g></g></g></g></g></svg>