<?xml version="1.0" encoding="UTF-8" standalone="no"?><!DOCTYPE svg PUBLIC "-//W3C//DTD SVG 1.1//EN" "http://www.w3.org/Graphics/SVG/1.1/DTD/svg11.dtd"><svg width="128px" height="128px" version="1.1" xmlns="http://www.w3.org/2000/svg" xmlns:xlink="http://www.w3.org/1999/xlink" xml:space="preserve" xmlns:serif="http://www.serif.com/" style="fill-rule:evenodd;clip-rule:evenodd;stroke-linejoin:round;stroke-miterlimit:2;"><g id="Bullet-Train" serif:id="Bullet Train" transform="matrix(-1,0,0,1,640.001,0)"><g id="Bogie" transform="matrix(-1,0,0,1,1004.06,0.227)"><g transform="matrix(0.591791,0,0,0.833333,425.185,21.1167)"><rect x="52.18" y="109.66" width="23.657" height="1.2" style="fill:#2b2b2b;fill-rule:nonzero;"/></g><g transform="matrix(1.02959,0,0,1.02959,359.032,-0.659968)"><path d="M94.314,109.202C94.314,114.305 90.175,118.429 85.08,118.429C79.977,118.429 75.837,114.297 75.837,109.202C75.837,104.092 79.977,99.975 85.08,99.975C90.175,99.975 94.314,104.099 94.314,109.202Z" style="fill:#424242;"/></g><g transform="matrix(1.02959,0,0,1.02959,383.545,-0.659968)"><path d="M33.551,109.202C33.551,114.305 29.411,118.429 24.316,118.429C19.213,118.429 15.074,114.297 15.074,109.202C15.074,104.092 19.214,99.975 24.316,99.975C29.412,99.975 33.551,104.099 33.551,109.202Z" style="fill:#424242;"/></g><g transform="matrix(1.02959,0,0,1.02959,383.387,-0.659968)"><path d="M52.18,109.202C52.18,114.305 48.041,118.429 42.946,118.429C37.843,118.429 33.704,114.297 33.704,109.202C33.704,104.092 37.843,99.975 42.946,99.975C48.049,99.975 52.181,104.099 52.181,109.202L52.18,109.202Z" style="fill:#424242;"/></g></g><g id="Body"><g id="Cab"><clipPath id="_clip1"><path d="M531,51.667C531,51.667 547.088,50 561,53C578.14,56.696 602,76.939 602,76.939C567.468,75.662 540.783,65.245 531,51.667Z"/></clipPath><g clip-path="url(#_clip1)"><rect x="534" y="48" width="66" height="28.939" style="fill:#afc7cf;"/><g transform="matrix(1.10645,0,0,1,-55.5514,0)"><path d="M570.543,54C570.287,53.058 556.847,53.156 559.041,61C560.59,66.54 591.577,71 591.577,71L591,54L570.543,54Z" style="fill:#5a818e;"/></g></g></g><g id="Livery" transform="matrix(1,0,0,1,128,0)"><clipPath id="_clip2"><path d="M384,40.879L384,113L501.085,113.085L495,107L384,107L495,107C495,107 510,103.336 510,91C510,82 487.894,73.886 473.419,73C458.944,72.114 447.226,69 433,64C420.67,59.666 402.29,40.879 384,40.879Z"/></clipPath><g clip-path="url(#_clip2)"><rect x="384.001" y="40.879" width="127.999" height="72.121" style="fill:#cbdbe0;"/><g transform="matrix(31.9997,0,0,1,-12735.9,9)"><rect x="410" y="98" width="4" height="6" style="fill:#616161;"/></g><g transform="matrix(31.9997,0,0,1.66667,-12735.9,-66.3333)"><rect x="410" y="98" width="4" height="6" style="fill:#42ade7;"/></g><g transform="matrix(32,0,0,2.66667,-12736,-180.333)"><rect x="410" y="98" width="4" height="6" style="fill:#81cdee;"/></g></g></g></g></g></svg>