<?xml version="1.0" encoding="UTF-8" standalone="no"?><!DOCTYPE svg PUBLIC "-//W3C//DTD SVG 1.1//EN" "http://www.w3.org/Graphics/SVG/1.1/DTD/svg11.dtd"><svg width="128px" height="128px" version="1.1" xmlns="http://www.w3.org/2000/svg" xmlns:xlink="http://www.w3.org/1999/xlink" xml:space="preserve" xmlns:serif="http://www.serif.com/" style="fill-rule:evenodd;clip-rule:evenodd;stroke-linejoin:round;stroke-miterlimit:2;"><g transform="matrix(5.71429,0,0,7.05882,-18.8571,-24.2353)"><path d="M25,6.267C25,5.016 23.745,4 22.2,4L6.8,4C5.255,4 4,5.016 4,6.267L4,18.733C4,19.984 5.255,21 6.8,21L22.2,21C23.745,21 25,19.984 25,18.733L25,6.267Z" style="fill:#8ec54f;"/></g><g transform="matrix(1.00007,0,0,1.00007,-0.00460877,-0.00460926)"><path d="M48.3,102.32L12.65,66.87C12.235,66.457 12.001,65.895 12.001,65.31C12.001,64.725 12.235,64.163 12.65,63.75L21.65,54.74C22.51,53.88 23.9,53.88 24.76,54.74L48.23,78.07C49.09,78.93 50.49,78.92 51.35,78.06L103.21,25.7C104.07,24.83 105.47,24.83 106.34,25.69L115.35,34.7C116.21,35.56 116.21,36.95 115.36,37.81L58.86,94.82L58.87,94.83L51.42,102.32C50.56,103.18 49.16,103.18 48.3,102.32Z" style="fill:#f5f5f5;fill-rule:nonzero;"/></g><g transform="matrix(1,0,0,1,-2.27341,1.0471)"><path d="M30.915,7.958C25.554,8.085 15,8 12.066,18.857C11.485,21.007 10.488,24.427 12.351,26.28C13.784,27.705 16.283,27.265 17.724,26.118C19.258,24.897 20.01,22.913 20.969,21.261C22.083,19.344 23.568,17.606 25.309,16.227C26.936,14.938 28.791,14.175 30.753,13.544C32.115,13.106 34.05,12.912 34.722,11.565C36,9 32.576,7.869 30.915,7.958Z" style="fill:#a4d071;"/></g></svg>