<?xml version="1.0" encoding="UTF-8" standalone="no"?><!DOCTYPE svg PUBLIC "-//W3C//DTD SVG 1.1//EN" "http://www.w3.org/Graphics/SVG/1.1/DTD/svg11.dtd"><svg width="128px" height="128px" version="1.1" xmlns="http://www.w3.org/2000/svg" xmlns:xlink="http://www.w3.org/1999/xlink" xml:space="preserve" xmlns:serif="http://www.serif.com/" style="fill-rule:evenodd;clip-rule:evenodd;stroke-linecap:round;stroke-linejoin:round;stroke-miterlimit:1.5;"><g transform="matrix(1.49268,0,0,1.49268,-30.1316,-61.764)"><ellipse cx="64.174" cy="120.755" rx="15.872" ry="4.951" style="fill:#424242;"/></g><g transform="matrix(1.37671,0,0,1.37671,-22.6134,-44.8902)"><path d="M46.322,80.543L49.751,67.502" style="fill:none;stroke:#d84c15;stroke-width:10.9px;"/></g><g transform="matrix(1.37671,0,0,1.37671,-22.6134,-44.8902)"><path d="M79.698,80.543L91.291,85.615" style="fill:none;stroke:#d84c15;stroke-width:8.72px;"/></g><g transform="matrix(1.37671,0,0,1.37671,-22.6134,-44.8902)"><path d="M51.368,84.266L44.196,88.152" style="fill:none;stroke:#d84c15;stroke-width:8.72px;"/></g><g transform="matrix(1.91722,0.233194,0.233194,1.47732,-72.0018,-66.1979)"><path d="M70.142,49.211L75.592,51.562" style="fill:none;stroke:#d84c15;stroke-width:6.18px;"/></g><g transform="matrix(1.37671,0,0,1.37671,-22.6134,-44.8902)"><path d="M64,59.291L73.419,43.834" style="fill:none;stroke:#b22424;stroke-width:12.35px;"/></g><g transform="matrix(1.37671,0,0,1.37671,-22.6134,-44.8902)"><path d="M84.64,76.438L81.872,64" style="fill:none;stroke:#b22424;stroke-width:12.35px;"/></g><g transform="matrix(1.37671,0,0,1.37671,-22.6134,-44.8902)"><path d="M64,114.355L64,102.634C64,96.901 66.551,91.466 70.961,87.802C80.209,80.119 95.396,67.502 95.396,67.502" style="fill:none;stroke:#d3302c;stroke-width:12.35px;"/></g><g transform="matrix(1.37671,0,0,1.37671,-22.6134,-44.8902)"><path d="M64,93.585C64,93.585 49.597,82.96 40.931,76.567C36.771,73.498 33.673,69.208 32.066,64.295C31.196,61.633 30.43,59.291 30.43,59.291" style="fill:none;stroke:#d3302c;stroke-width:12.35px;"/></g><g transform="matrix(1.37671,0,0,1.37671,-22.6134,-44.8902)"><path d="M70.54,88.152C70.54,88.152 67.966,76.792 66.047,68.326C64.726,62.495 61.367,57.327 56.574,53.752C53.115,51.173 49.751,48.664 49.751,48.664" style="fill:none;stroke:#d3302c;stroke-width:12.35px;"/></g><g transform="matrix(0.295565,0,0,0.295565,11.2137,28.8559)"><circle cx="23.63" cy="19.197" r="3.662" style="fill:#e57373;"/></g><g transform="matrix(0.295565,0,0,0.295565,11.2137,41.2842)"><circle cx="23.63" cy="19.197" r="3.662" style="fill:#e57373;"/></g><g transform="matrix(0.295565,0,0,0.295565,21.3038,42.3666)"><circle cx="23.63" cy="19.197" r="3.662" style="fill:#e57373;"/></g><g transform="matrix(0.295565,0,0,0.295565,20.2214,53.5863)"><circle cx="23.63" cy="19.197" r="3.662" style="fill:#e57373;"/></g><g transform="matrix(0.295565,0,0,0.295565,29.9214,55.7511)"><circle cx="23.63" cy="19.197" r="3.662" style="fill:#e57373;"/></g><g transform="matrix(0.295565,0,0,0.295565,39.6215,57.916)"><circle cx="23.63" cy="19.197" r="3.662" style="fill:#e57373;"/></g><g transform="matrix(0.295565,0,0,0.295565,34.9779,63.9388)"><circle cx="23.63" cy="19.197" r="3.662" style="fill:#e57373;"/></g><g transform="matrix(0.295565,0,0,0.295565,43.8866,72.4347)"><circle cx="23.63" cy="19.197" r="3.662" style="fill:#e57373;"/></g><g transform="matrix(0.295565,0,0,0.295565,52.6964,68.961)"><circle cx="23.63" cy="19.197" r="3.662" style="fill:#e57373;"/></g><g transform="matrix(0.295565,0,0,0.295565,54.8613,92.9877)"><circle cx="23.63" cy="19.197" r="3.662" style="fill:#e57373;"/></g><g transform="matrix(0.295565,0,0,0.295565,69.8465,75.9419)"><circle cx="23.63" cy="19.197" r="3.662" style="fill:#e57373;"/></g><g transform="matrix(0.295565,0,0,0.295565,84.8316,58.896)"><circle cx="23.63" cy="19.197" r="3.662" style="fill:#e57373;"/></g><g transform="matrix(0.295565,0,0,0.295565,89.3063,48.0328)"><circle cx="23.63" cy="19.197" r="3.662" style="fill:#e57373;"/></g><g transform="matrix(0.295565,0,0,0.295565,99.3454,50.1977)"><circle cx="23.63" cy="19.197" r="3.662" style="fill:#e57373;"/></g><g transform="matrix(0.295565,0,0,0.295565,66.3533,62.9967)"><circle cx="23.63" cy="19.197" r="3.662" style="fill:#e57373;"/></g><g transform="matrix(0.295565,0,0,0.295565,58.5121,52.3626)"><circle cx="23.63" cy="19.197" r="3.662" style="fill:#e57373;"/></g><g transform="matrix(0.295565,0,0,0.295565,64.1885,45.868)"><circle cx="23.63" cy="19.197" r="3.662" style="fill:#e57373;"/></g><g transform="matrix(0.295565,0,0,0.295565,55.9335,36.9992)"><circle cx="23.63" cy="19.197" r="3.662" style="fill:#e57373;"/></g><g transform="matrix(0.295565,0,0,0.295565,47.6785,28.1305)"><circle cx="23.63" cy="19.197" r="3.662" style="fill:#e57373;"/></g><g transform="matrix(0.295565,0,0,0.295565,37.7419,17.3823)"><circle cx="23.63" cy="19.197" r="3.662" style="fill:#e57373;"/></g><g transform="matrix(0.295565,0,0,0.295565,48.761,18.4647)"><circle cx="23.63" cy="19.197" r="3.662" style="fill:#e57373;"/></g><g transform="matrix(0.295565,0,0,0.295565,59.78,19.5471)"><circle cx="23.63" cy="19.197" r="3.662" style="fill:#e57373;"/></g><g transform="matrix(0.295565,0,0,0.295565,70.7991,20.6296)"><circle cx="23.63" cy="19.197" r="3.662" style="fill:#e57373;"/></g><g transform="matrix(0.295565,0,0,0.295565,60.8625,28.1305)"><circle cx="23.63" cy="19.197" r="3.662" style="fill:#e57373;"/></g><g transform="matrix(0.295565,0,0,0.295565,67.6437,11.1977)"><circle cx="23.63" cy="19.197" r="3.662" style="fill:#e57373;"/></g><g transform="matrix(0.295565,0,0,0.295565,59.78,80.2422)"><circle cx="23.63" cy="19.197" r="3.662" style="fill:#e57373;"/></g><g transform="matrix(0.295565,0,0,0.295565,61.9449,105.042)"><circle cx="23.63" cy="19.197" r="3.662" style="fill:#e57373;"/></g></svg>