<?xml version="1.0" encoding="UTF-8" standalone="no"?><!DOCTYPE svg PUBLIC "-//W3C//DTD SVG 1.1//EN" "http://www.w3.org/Graphics/SVG/1.1/DTD/svg11.dtd"><svg width="128px" height="128px" version="1.1" xmlns="http://www.w3.org/2000/svg" xmlns:xlink="http://www.w3.org/1999/xlink" xml:space="preserve" xmlns:serif="http://www.serif.com/" style="fill-rule:evenodd;clip-rule:evenodd;stroke-linejoin:round;stroke-miterlimit:2;"><g transform="matrix(0.923607,0,0,0.923607,4.76917,4.88917)"><path d="M64,9.56C1.59,9.56 0.12,79.52 0.12,93.36C0.12,107.22 28.71,118.44 64,118.44C99.28,118.44 127.88,107.22 127.88,93.36C127.88,79.52 126.4,9.56 64,9.56Z" style="fill:#fbc746;fill-opacity:0.6;fill-rule:nonzero;"/><path d="M71.965,118.246C69.359,118.374 66.699,118.44 64,118.44C63.044,118.44 62.092,118.432 61.142,118.414L61.048,123.828C62.027,123.845 63.011,123.854 64,123.854C64.884,123.854 65.763,123.847 66.638,123.833L68.048,123.806C69.454,123.772 70.848,123.722 72.229,123.654L71.965,118.246ZM44.946,117.306L44.288,122.68C46.116,122.904 47.977,123.097 49.869,123.259C51.705,123.416 53.568,123.543 55.457,123.639L55.731,118.231C52.027,118.044 48.422,117.732 44.946,117.306ZM88.113,116.591C84.671,117.143 81.078,117.579 77.367,117.889L77.818,123.285C79.236,123.167 80.638,123.03 82.022,122.877L83.399,122.718C85.293,122.49 87.151,122.229 88.969,121.938L88.113,116.591ZM28.99,114.343L27.639,119.587C29.424,120.047 31.269,120.474 33.167,120.867C34.97,121.239 36.823,121.581 38.719,121.889L39.587,116.543C35.865,115.94 32.319,115.201 28.99,114.343ZM103.923,112.94C100.673,113.964 97.163,114.864 93.439,115.624L94.522,120.93C95.946,120.639 97.34,120.329 98.701,120L100.052,119.665C101.952,119.181 103.786,118.661 105.548,118.106L103.923,112.94ZM13.739,108.846L11.319,113.689C12.993,114.526 14.789,115.324 16.697,116.077C18.422,116.759 20.241,117.405 22.144,118.01L23.787,112.85C20.069,111.669 16.697,110.325 13.739,108.846ZM118.701,106.323C115.987,108.086 112.733,109.707 109.031,111.151L110.999,116.195C112.906,115.451 114.704,114.663 116.381,113.836C118.294,112.894 120.054,111.9 121.65,110.864L118.701,106.323ZM4.804,102.805L1.041,106.701C2.468,108.079 4.145,109.41 6.059,110.675L9.045,106.156C7.429,105.088 6.009,103.968 4.804,102.805ZM127.875,93.675C127.772,96.982 126.04,100.134 122.977,103.014L126.688,106.958C128.547,105.209 130.012,103.368 131.078,101.48L126.533,98.913L131.078,101.48C132.467,99.021 133.204,96.461 133.286,93.844L127.875,93.675ZM1.49,98.552L-3.283,101.109C-2.251,103.036 -0.808,104.915 1.041,106.701L4.804,102.805C3.392,101.444 2.277,100.022 1.49,98.552ZM0.504,82.554L-4.897,82.164C-5.008,83.706 -5.089,85.15 -5.147,86.479L-5.198,87.769C-5.28,90.088 -5.294,91.99 -5.294,93.36L-5.294,93.379L0.12,93.372L0.12,93.36C0.12,91.086 0.16,87.297 0.504,82.554ZM127.517,82.856C127.657,84.844 127.744,86.661 127.797,88.262L133.208,88.082C133.153,86.423 133.063,84.539 132.918,82.477C132.796,80.731 132.633,78.857 132.419,76.881L127.037,77.465C127.242,79.369 127.399,81.175 127.517,82.856ZM2.62,66.462L-2.696,65.425C-3.066,67.323 -3.384,69.182 -3.657,70.987C-3.949,72.916 -4.189,74.783 -4.386,76.569L0.996,77.164C1.363,73.844 1.883,70.232 2.62,66.462ZM124.29,61.469C125.176,65.139 125.843,68.718 126.345,72.096L131.702,71.298C131.433,69.494 131.12,67.634 130.754,65.735C130.405,63.921 130.007,62.072 129.556,60.2L124.29,61.469ZM6.878,50.807L1.786,48.97C1.133,50.78 0.54,52.594 0.001,54.401C-0.549,56.243 -1.042,58.078 -1.484,59.892L3.778,61.175C4.607,57.761 5.627,54.276 6.878,50.807ZM119.246,46.052C119.961,47.721 120.618,49.405 121.22,51.092L121.932,50.838L121.22,51.092C121.833,52.808 122.39,54.528 122.895,56.239L128.087,54.707C127.554,52.899 126.966,51.084 126.319,49.272C125.68,47.481 124.983,45.693 124.223,43.92L119.246,46.052ZM13.857,36.174L9.254,33.322C8.226,34.98 7.269,36.674 6.379,38.393C5.488,40.115 4.663,41.862 3.901,43.623L8.871,45.774C10.291,42.491 11.94,39.266 13.857,36.174ZM111.279,31.942C113.437,34.869 115.314,37.966 116.947,41.152L121.766,38.682C120.883,36.96 119.934,35.263 118.914,33.601C117.895,31.939 116.804,30.312 115.639,28.73L111.279,31.942ZM24.137,23.67L20.49,19.666C19.196,20.844 17.966,22.071 16.796,23.34L16.298,23.887C14.972,25.361 13.725,26.89 12.553,28.464L16.897,31.697C19.03,28.834 21.431,26.134 24.137,23.67ZM99.919,20.419C102.872,22.618 105.513,25.08 107.875,27.734L111.92,24.135C110.61,22.663 109.222,21.246 107.752,19.891L104.683,23.223L107.752,19.891C106.301,18.555 104.771,17.28 103.156,16.077L99.919,20.419ZM37.65,14.785L35.421,9.85C33.569,10.686 31.8,11.602 30.11,12.589L32.626,16.897L30.11,12.589C28.36,13.612 26.694,14.71 25.11,15.877L28.32,20.238C31.14,18.163 34.24,16.326 37.65,14.785ZM85.596,12.906C89.162,14.125 92.427,15.648 95.416,17.42L98.175,12.759C96.49,11.761 94.726,10.835 92.88,9.988L91.328,13.37L92.88,9.988C91.113,9.178 89.271,8.44 87.349,7.782L85.596,12.906ZM53.209,10.319L52.423,4.962C50.432,5.254 48.509,5.621 46.653,6.057L47.577,9.988L46.653,6.057C44.682,6.521 42.786,7.062 40.962,7.676L42.688,12.81C45.936,11.716 49.439,10.872 53.209,10.319ZM69.708,9.764C73.516,10.042 77.074,10.598 80.398,11.4L81.665,6.133C79.809,5.687 77.888,5.311 75.897,5.009L75.4,8.29L75.897,5.009C74.027,4.726 72.096,4.51 70.101,4.364L69.708,9.764ZM58.591,9.744C60.347,9.622 62.146,9.56 64,9.56L64.299,9.563L64.319,4.147L64,4.146C62.016,4.146 60.089,4.213 58.219,4.342L58.591,9.744Z" style="fill:#e65100;"/></g><g transform="matrix(0.923607,0,0,0.923607,4.76917,4.88917)"><path d="M42.21,62.3C37.72,62.34 34.04,58.03 33.99,52.68C33.94,47.31 37.54,42.93 42.03,42.89C46.51,42.85 50.2,47.16 50.25,52.53C50.3,57.88 46.7,62.25 42.21,62.3ZM86.32,62.3C90.8,62.29 94.43,57.94 94.42,52.59C94.41,47.22 90.76,42.89 86.28,42.9C81.79,42.91 78.15,47.26 78.16,52.63C78.18,57.98 81.83,62.31 86.32,62.3Z" style="fill:#2f2f2f;fill-rule:nonzero;"/></g><g transform="matrix(0.923607,0,0,0.923607,10.7532,4.88917)"><path d="M77.132,84.75L38.31,84.75C36.65,84.75 35.31,83.41 35.31,81.75C35.31,80.09 36.65,78.75 38.31,78.75L77.142,78.75C78.802,78.75 80.142,80.09 80.142,81.75C80.142,83.41 78.792,84.75 77.132,84.75Z" style="fill:#2f2f2f;fill-rule:nonzero;"/></g></svg>