<?xml version="1.0" encoding="UTF-8" standalone="no"?>
<svg
   width="128"
   height="128"
   version="1.1"
   id="svg5049"
   sodipodi:docname="emoji_u1f251.svg"
   inkscape:version="1.2.2 (b0a8486541, 2022-12-01)"
   xmlns:inkscape="http://www.inkscape.org/namespaces/inkscape"
   xmlns:sodipodi="http://sodipodi.sourceforge.net/DTD/sodipodi-0.dtd"
   xmlns="http://www.w3.org/2000/svg"
   xmlns:svg="http://www.w3.org/2000/svg">
  <defs
     id="defs5053" />
  <sodipodi:namedview
     id="namedview5051"
     pagecolor="#ffffff"
     bordercolor="#000000"
     borderopacity="0.25"
     inkscape:showpageshadow="2"
     inkscape:pageopacity="0.0"
     inkscape:pagecheckerboard="0"
     inkscape:deskcolor="#d1d1d1"
     showgrid="false"
     inkscape:zoom="1.84375"
     inkscape:cx="63.457627"
     inkscape:cy="64.271186"
     inkscape:current-layer="svg5049" />
  <g
     transform="matrix(5.71429,0,0,7.05882,-18.857205,-24.23525)"
     id="g4"
     style="clip-rule:evenodd;fill:#40c0e7;fill-rule:evenodd;stroke-linejoin:round;stroke-miterlimit:2">
    <path
       d="M 25,6.267 C 25,5.016 23.745,4 22.2,4 H 6.8 C 5.255,4 4,5.016 4,6.267 V 18.733 C 4,19.984 5.255,21 6.8,21 h 15.4 c 1.545,0 2.8,-1.016 2.8,-2.267 z"
       style="fill:#40c0e7"
       id="path2" />
  </g>
  <g
     transform="translate(-2.273514,1.047149)"
     id="g12"
     style="clip-rule:evenodd;fill:#94e0f1;fill-rule:evenodd;stroke-linejoin:round;stroke-miterlimit:2">
    <path
       d="M 30.915,7.958 C 25.554,8.085 15,8 12.066,18.857 c -0.581,2.15 -1.578,5.57 0.285,7.423 1.433,1.425 3.932,0.985 5.373,-0.162 1.534,-1.221 2.286,-3.205 3.245,-4.857 1.114,-1.917 2.599,-3.655 4.34,-5.034 1.627,-1.289 3.482,-2.052 5.444,-2.683 1.362,-0.438 3.297,-0.632 3.969,-1.979 C 36,9 32.576,7.869 30.915,7.958 Z"
       style="fill:#94e0f1"
       id="path10" />
  </g>
  <path
     d="M101.2 35.87H25.6c-.39 0-.77.16-1.04.43s-.43.66-.43 1.04V48.6c0 .38.15.76.43 1.04.27.28.65.43 1.04.43h48.56v42.25H68.9c-.43 0-.84.19-1.12.52-.28.33-.4.77-.33 1.2l1.9 11.25c.12.71.74 1.23 1.45 1.23h11.07c.08 0 1.09-.01 2.41-.33s3.01-.95 4.31-2.39c1.35-1.52 1.94-3.34 2.25-4.77.31-1.43.31-2.49.31-2.57V50.07h10.04c.39 0 .77-.16 1.04-.43s.43-.65.43-1.04V37.34c0-.38-.16-.77-.43-1.04-.26-.27-.64-.43-1.03-.43z"
     fill="#fff"
     id="path5045" />
  <path
     d="M65.96 57H34.44c-.39 0-.76.16-1.04.43-.27.27-.43.65-.43 1.04V87.7c0 .38.16.77.44 1.04.27.28.65.43 1.04.43h31.52c.39 0 .77-.15 1.04-.43.27-.27.43-.66.43-1.04V58.47c0-.39-.16-.77-.43-1.04-.28-.28-.66-.43-1.05-.43zm-9.28 10.52v11.12l-.15.38-.38.16H44.26l-.38-.16-.16-.38V67.52l.16-.38.38-.15h11.88l.38.15.16.38z"
     fill="#fff"
     id="path5047" />
</svg>
