<?xml version="1.0" encoding="UTF-8" standalone="no"?>
<svg
   width="128"
   height="128"
   version="1.1"
   id="svg822"
   sodipodi:docname="emoji_u1f21a.svg"
   inkscape:version="1.2.2 (b0a8486541, 2022-12-01)"
   xmlns:inkscape="http://www.inkscape.org/namespaces/inkscape"
   xmlns:sodipodi="http://sodipodi.sourceforge.net/DTD/sodipodi-0.dtd"
   xmlns="http://www.w3.org/2000/svg"
   xmlns:svg="http://www.w3.org/2000/svg">
  <defs
     id="defs826" />
  <sodipodi:namedview
     id="namedview824"
     pagecolor="#ffffff"
     bordercolor="#000000"
     borderopacity="0.25"
     inkscape:showpageshadow="2"
     inkscape:pageopacity="0.0"
     inkscape:pagecheckerboard="0"
     inkscape:deskcolor="#d1d1d1"
     showgrid="false"
     inkscape:zoom="1.84375"
     inkscape:cx="63.457627"
     inkscape:cy="64.271186"
     inkscape:current-layer="svg822" />
  <g
     transform="matrix(5.71429,0,0,7.05882,-18.857205,-24.23525)"
     id="g4"
     style="clip-rule:evenodd;fill:#f79329;fill-rule:evenodd;stroke-linejoin:round;stroke-miterlimit:2">
    <path
       d="M 25,6.267 C 25,5.016 23.745,4 22.2,4 H 6.8 C 5.255,4 4,5.016 4,6.267 V 18.733 C 4,19.984 5.255,21 6.8,21 h 15.4 c 1.545,0 2.8,-1.016 2.8,-2.267 z"
       style="fill:#f79329"
       id="path2" />
  </g>
  <g
     transform="translate(-2.273514,1.047149)"
     id="g12"
     style="clip-rule:evenodd;fill:#ffcc80;fill-rule:evenodd;stroke-linejoin:round;stroke-miterlimit:2">
    <path
       d="M 30.915,7.958 C 25.554,8.085 15,8 12.066,18.857 c -0.581,2.15 -1.578,5.57 0.285,7.423 1.433,1.425 3.932,0.985 5.373,-0.162 1.534,-1.221 2.286,-3.205 3.245,-4.857 1.114,-1.917 2.599,-3.655 4.34,-5.034 1.627,-1.289 3.482,-2.052 5.444,-2.683 1.362,-0.438 3.297,-0.632 3.969,-1.979 C 36,9 32.576,7.869 30.915,7.958 Z"
       style="fill:#ffcc80"
       id="path10" />
  </g>
  <path
     d="M106.24 52.2h-9.55V40.66h6.67c.42 0 .82-.17 1.11-.46.29-.29.46-.7.46-1.11v-8.61c0-.41-.17-.81-.46-1.11-.29-.29-.7-.47-1.11-.47H39.88l1.76-4.18c.16-.38.17-.82.01-1.21-.16-.38-.47-.69-.85-.85l-9.89-4.16a1.57 1.57 0 0 0-2.06.84l-9.82 23.31c-.16.39-.16.82-.01 1.21.16.38.47.69.85.85l9.9 4.17c.39.16.82.16 1.21.01.39-.16.69-.46.85-.84l3-7.14v11.3h-9.56c-.41 0-.81.17-1.11.46-.29.29-.46.7-.46 1.11v8.61c0 .41.17.82.46 1.11.3.29.7.46 1.11.46h9.56v9.9h-6.67c-.41 0-.82.17-1.11.46-.29.29-.46.7-.46 1.11v8.61c0 .41.18.82.46 1.11.29.29.7.46 1.11.46h75.19c.42 0 .82-.17 1.11-.46.29-.29.46-.7.46-1.11v-8.61c0-.41-.17-.82-.46-1.11-.29-.29-.7-.46-1.11-.46h-6.67v-9.9h9.55c.42 0 .82-.17 1.12-.46.29-.29.45-.7.45-1.11v-8.61c0-.41-.16-.82-.45-1.11-.29-.3-.69-.47-1.11-.47zM46.72 40.66h4.46V52.2h-4.46V40.66zM84.8 52.2H80V40.66h4.81V52.2zM63.06 63.95h5.05v9.9h-5.05v-9.9zm5.06-11.75h-5.05V40.66h5.05V52.2zm-21.4 11.75h4.46v9.9h-4.46v-9.9zm38.08 9.9H80v-9.9h4.81v9.9zM42.8 91.99l-8.04-3.38c-.8-.33-1.71.04-2.05.84l-5.58 13.24c-.17.39-.17.82-.01 1.21s.46.69.85.85l8.04 3.39c.39.17.83.17 1.21.01s.7-.47.85-.85l5.58-13.25c.16-.39.17-.81 0-1.2-.16-.39-.46-.69-.85-.86zM60.57 90.34c-.2-.85-1.05-1.37-1.89-1.16l-8.48 2.04c-.41.1-.75.35-.97.71-.22.36-.29.78-.19 1.19l3.37 13.98c.1.41.35.75.71.97.36.22.78.29 1.19.19l8.49-2.04a1.583 1.583 0 0 0 1.16-1.9l-3.39-13.98zM80.63 89.95a1.552 1.552 0 0 0-1.92-1.1l-8.42 2.27c-.41.11-.75.37-.97.73-.21.36-.26.79-.16 1.19l3.74 13.88c.11.4.37.74.74.95.37.21.79.27 1.2.15l8.43-2.27c.41-.11.74-.37.96-.73.21-.37.26-.79.16-1.2l-3.76-13.87zM100.66 89.55a1.579 1.579 0 0 0-1.99-1L90.4 91.3c-.4.13-.73.41-.91.78-.19.38-.22.81-.09 1.2l4.52 13.65c.14.4.42.72.79.91.37.19.8.22 1.2.09l8.28-2.75a1.578 1.578 0 0 0 1-1.99l-4.53-13.64z"
     fill="#fff"
     id="path820" />
</svg>
