<?xml version="1.0" encoding="UTF-8" standalone="no"?>
<svg
   width="128"
   height="128"
   version="1.1"
   id="svg4561"
   sodipodi:docname="emoji_u1f238.svg"
   inkscape:version="1.2.2 (b0a8486541, 2022-12-01)"
   xmlns:inkscape="http://www.inkscape.org/namespaces/inkscape"
   xmlns:sodipodi="http://sodipodi.sourceforge.net/DTD/sodipodi-0.dtd"
   xmlns="http://www.w3.org/2000/svg"
   xmlns:svg="http://www.w3.org/2000/svg">
  <defs
     id="defs4565" />
  <sodipodi:namedview
     id="namedview4563"
     pagecolor="#ffffff"
     bordercolor="#000000"
     borderopacity="0.25"
     inkscape:showpageshadow="2"
     inkscape:pageopacity="0.0"
     inkscape:pagecheckerboard="0"
     inkscape:deskcolor="#d1d1d1"
     showgrid="false"
     inkscape:zoom="1.84375"
     inkscape:cx="63.457627"
     inkscape:cy="64.271186"
     inkscape:current-layer="svg4561" />
  <g
     transform="matrix(5.71429,0,0,7.05882,-18.857205,-24.23525)"
     id="g4"
     style="clip-rule:evenodd;fill:#f79329;fill-rule:evenodd;stroke-linejoin:round;stroke-miterlimit:2">
    <path
       d="M 25,6.267 C 25,5.016 23.745,4 22.2,4 H 6.8 C 5.255,4 4,5.016 4,6.267 V 18.733 C 4,19.984 5.255,21 6.8,21 h 15.4 c 1.545,0 2.8,-1.016 2.8,-2.267 z"
       style="fill:#f79329"
       id="path2" />
  </g>
  <g
     transform="translate(-2.273514,1.047149)"
     id="g12"
     style="clip-rule:evenodd;fill:#ffcc80;fill-rule:evenodd;stroke-linejoin:round;stroke-miterlimit:2">
    <path
       d="M 30.915,7.958 C 25.554,8.085 15,8 12.066,18.857 c -0.581,2.15 -1.578,5.57 0.285,7.423 1.433,1.425 3.932,0.985 5.373,-0.162 1.534,-1.221 2.286,-3.205 3.245,-4.857 1.114,-1.917 2.599,-3.655 4.34,-5.034 1.627,-1.289 3.482,-2.052 5.444,-2.683 1.362,-0.438 3.297,-0.632 3.969,-1.979 C 36,9 32.576,7.869 30.915,7.958 Z"
       style="fill:#ffcc80"
       id="path10" />
  </g>
  <path
     d="M107.05 31H74.69V17.54c0-.41-.17-.82-.46-1.12-.29-.29-.7-.46-1.12-.46H56.13c-.42 0-.82.17-1.12.46-.29.29-.46.7-.46 1.12V31H22.18c-.42 0-.82.17-1.12.46-.29.29-.46.69-.46 1.11v54.18c0 .41.17.82.46 1.12.29.29.7.46 1.12.46h32.37v21.81c0 .42.17.82.46 1.12.29.29.7.46 1.12.46h16.98c.42 0 .82-.17 1.12-.46.29-.29.46-.7.46-1.12V88.33h32.37c.42 0 .82-.17 1.12-.46.29-.29.46-.71.46-1.12V32.57c0-.42-.17-.82-.46-1.11-.3-.29-.71-.46-1.13-.46zm-52.5 14.5v8.23H36.48c-.26 0-.52-.11-.71-.29-.19-.19-.29-.45-.29-.71V45.5c0-.27.11-.52.29-.71.19-.19.45-.29.71-.29h18.07v1zM35.48 66.62c0-.26.11-.52.29-.71.19-.19.45-.29.71-.29h18.07V74.85H36.48c-.26 0-.52-.11-.71-.29-.19-.19-.29-.45-.29-.71v-7.23zm39.21 7.22V65.62h18.07c.26 0 .52.11.71.29.19.19.29.44.29.71v7.22c0 .26-.11.53-.29.71a.99.99 0 0 1-.71.29H74.69v-1zm18.77-20.4a.99.99 0 0 1-.71.29H74.69V44.5h18.07c.26 0 .52.11.71.29.19.19.29.44.29.71v7.22c0 .27-.11.53-.3.72z"
     fill="#fff"
     id="path4559" />
</svg>
