<?xml version="1.0" encoding="UTF-8" standalone="no"?>
<svg
   width="128"
   height="128"
   version="1.1"
   id="svg1152"
   sodipodi:docname="emoji_u1f23a.svg"
   inkscape:version="1.2.2 (b0a8486541, 2022-12-01)"
   xmlns:inkscape="http://www.inkscape.org/namespaces/inkscape"
   xmlns:sodipodi="http://sodipodi.sourceforge.net/DTD/sodipodi-0.dtd"
   xmlns="http://www.w3.org/2000/svg"
   xmlns:svg="http://www.w3.org/2000/svg">
  <defs
     id="defs1156" />
  <sodipodi:namedview
     id="namedview1154"
     pagecolor="#ffffff"
     bordercolor="#000000"
     borderopacity="0.25"
     inkscape:showpageshadow="2"
     inkscape:pageopacity="0.0"
     inkscape:pagecheckerboard="0"
     inkscape:deskcolor="#d1d1d1"
     showgrid="false"
     inkscape:zoom="1.84375"
     inkscape:cx="63.457627"
     inkscape:cy="64.271186"
     inkscape:current-layer="svg1152" />
  <g
     transform="matrix(5.71429,0,0,7.05882,-18.857205,-24.23525)"
     id="g4"
     style="clip-rule:evenodd;fill:#fcc21b;fill-rule:evenodd;stroke-linejoin:round;stroke-miterlimit:2">
    <path
       d="M 25,6.267 C 25,5.016 23.745,4 22.2,4 H 6.8 C 5.255,4 4,5.016 4,6.267 V 18.733 C 4,19.984 5.255,21 6.8,21 h 15.4 c 1.545,0 2.8,-1.016 2.8,-2.267 z"
       style="fill:#fcc21b"
       id="path2" />
  </g>
  <g
     transform="translate(-2.2735137,1.0471494)"
     id="g12"
     style="clip-rule:evenodd;fill:#ffe082;fill-rule:evenodd;stroke-linejoin:round;stroke-miterlimit:2">
    <path
       d="M 30.915,7.958 C 25.554,8.085 15,8 12.066,18.857 c -0.581,2.15 -1.578,5.57 0.285,7.423 1.433,1.425 3.932,0.985 5.373,-0.162 1.534,-1.221 2.286,-3.205 3.245,-4.857 1.114,-1.917 2.599,-3.655 4.34,-5.034 1.627,-1.289 3.482,-2.052 5.444,-2.683 1.362,-0.438 3.297,-0.632 3.969,-1.979 C 36,9 32.576,7.869 30.915,7.958 Z"
       style="fill:#ffe082"
       id="path10" />
  </g>
  <path
     d="M105.48 29.13h-13.6l3.03-7.3c.33-.8-.05-1.73-.85-2.07l-9.82-4.08c-.39-.17-.83-.17-1.22 0s-.7.48-.86.87l-5 12.57h-6.52V17.06c0-.28-.12-.57-.32-.76-.2-.21-.48-.31-.76-.31H58.42c-.28 0-.56.11-.76.31-.2.2-.31.48-.31.76v12.07h-6.21V17.06c0-.28-.11-.57-.31-.76-.2-.21-.48-.31-.76-.31H38.9c-.28 0-.56.11-.76.31-.2.2-.32.48-.32.76v12.07H24.49c-.42 0-.82.17-1.12.46-.29.29-.46.7-.46 1.12v26.62c0 .41.17.82.46 1.12.29.29.7.46 1.12.46h12.19c.42 0 .82-.17 1.11-.46.29-.29.46-.7.46-1.12V40.92h53.46v16.41c0 .41.17.82.46 1.12.29.29.7.46 1.12.46h12.19c.42 0 .82-.17 1.12-.46.29-.29.46-.7.46-1.12V30.71c0-.42-.17-.82-.46-1.12-.3-.29-.71-.46-1.12-.46z"
     fill="#fff"
     id="path1148" />
  <path
     d="M100.54 80.49H64.3l2.23-6.62h18.55c.42 0 .82-.17 1.12-.46.29-.29.46-.7.46-1.12V48.41c0-.41-.17-.82-.46-1.12-.29-.29-.7-.46-1.12-.46H45.34c-.42 0-.82.17-1.12.46-.29.29-.46.7-.46 1.12V72.3c0 .41.17.82.46 1.12.29.29.7.46 1.12.46h6.45l-2.23 6.62H29.88c-.42 0-.82.17-1.12.46-.29.29-.46.69-.46 1.11v26.92c0 .42.17.82.46 1.12.29.29.7.46 1.12.46h70.66c.41 0 .82-.17 1.11-.46.29-.29.46-.69.46-1.12V82.07c0-.42-.17-.82-.46-1.11-.29-.3-.69-.47-1.11-.47zM55.17 57.06l.17-.4.41-.17h18.93l.41.17.17.4v6.59l-.17.4-.41.18H55.74l-.41-.18-.17-.4v-6.59zm33.02 41.98l-.17.41-.41.17h-44.8l-.41-.17-.17-.41V92l.17-.41.41-.17h44.8l.41.17.17.41v7.04z"
     fill="#fff"
     id="path1150" />
</svg>
