<?xml version="1.0" encoding="UTF-8" standalone="no"?><!DOCTYPE svg PUBLIC "-//W3C//DTD SVG 1.1//EN" "http://www.w3.org/Graphics/SVG/1.1/DTD/svg11.dtd"><svg width="128px" height="128px" version="1.1" xmlns="http://www.w3.org/2000/svg" xmlns:xlink="http://www.w3.org/1999/xlink" xml:space="preserve" xmlns:serif="http://www.serif.com/" style="fill-rule:evenodd;clip-rule:evenodd;stroke-linejoin:round;stroke-miterlimit:2;"><path d="M94.82,52.36C94.82,52.36 99.21,48.05 104.3,48.23C109.74,48.42 113.73,51.37 115.05,55.88C116.36,60.38 116.5,62.12 117.49,63.58C118.48,65.03 119.74,66.07 119.74,66.86C119.74,67.65 118.8,68.69 117.53,69.21C116.26,69.73 114.06,69.12 114.06,69.12C114.06,69.12 113.5,71.94 111.43,72.59C109.37,73.25 107.49,73.01 107.49,73.01L104.86,62.83C104.86,62.83 106.7,60.04 105.24,58.09C103.27,55.47 99.78,57.91 99.78,57.91L94.82,52.36Z" style="fill:#a1867f;fill-rule:nonzero;"/><path d="M68.43,93.82C68.43,93.82 67.68,98.84 66.74,100.48C65.8,102.12 65.38,102.45 65.38,102.45C65.38,102.45 65.33,110.71 65.33,113.01C65.33,114.8 65.79,117.42 64.77,118.22C63.5,119.21 58.48,119.25 57.78,118.22C57.08,117.19 59.66,114.89 59.75,114.18C59.84,113.48 59.47,106.48 59.42,105.12C59.37,103.76 57.06,94.82 57.06,94.82L68.43,93.82Z" style="fill:#a1867f;fill-rule:nonzero;"/><path d="M98.8,100.53C99.18,101.12 99.68,107.76 99.77,109.82C99.86,111.88 99.86,115.22 99.72,115.73C99.58,116.25 96.48,118.78 97.61,119.72C98.74,120.66 104.7,120.1 105.17,119.25C105.64,118.41 105.59,101.14 105.59,99.73C105.59,98.65 103.75,94.23 103.08,93.23C102.43,92.25 98.43,99.94 98.8,100.53Z" style="fill:#a1867f;fill-rule:nonzero;"/><path d="M20.63,16.9C20.63,16.9 19.44,14.96 18.13,13.2C16.62,11.18 14.96,9.4 15.03,8.73C15.11,7.97 16.33,8.24 16.33,8.24L20.83,11.69L24.49,16.76L20.63,16.9Z" style="fill:#a1867f;fill-rule:nonzero;"/><path d="M24.61,5.39C24.36,6.45 26.57,9 28.24,13.1C28.92,14.77 29.51,19.22 29.51,19.22L32.18,20.49C32.18,20.49 31.12,14.44 30.07,11.69C29.02,8.94 25.28,2.51 24.61,5.39Z" style="fill:#a1867f;fill-rule:nonzero;"/><path d="M24.22,15.07C24.22,15.07 21.4,10 19.15,8.81C16.9,7.61 15.21,8.07 15.38,8.49C15.69,9.23 18.48,10.39 19.81,12.43C21.14,14.47 23.36,17.96 23.36,17.96L24.22,15.07Z" style="fill:#ffe0b2;fill-rule:nonzero;"/><path d="M24.86,4.94C24.77,3.53 28.87,5.22 31.2,8.39C33.53,11.56 34.09,13.6 34.23,17.19C34.37,20.78 31.63,20.64 31.63,20.43C31.63,20.22 31.43,16 29.59,11.21C28.34,8 24.93,6.06 24.86,4.94Z" style="fill:#ffe0b2;fill-rule:nonzero;"/><path d="M19.79,19.6C19.79,19.6 17.21,21.15 14.72,22.09C12.69,22.85 8.28,24.37 8.63,26.34C8.77,27.13 7.75,28.09 8.24,29.54C8.67,30.82 9.49,30.92 9.79,31.09C10.28,31.37 11.3,33.34 13.59,33.54C16.16,33.76 17.67,32.79 17.67,32.79L23.73,38L32.32,29.88L32.93,20.92L26.74,18.57L19.79,19.6Z" style="fill:#ffe0b2;fill-rule:nonzero;"/><path d="M11.69,28.59C11.69,28.59 13.73,27.36 14.58,26.94C15.42,26.52 15.35,24.79 13.74,25.43C12.12,26.06 10.96,26.8 10.96,26.8C10.96,26.8 9.66,25.78 9.2,25.32C8.74,24.86 7.86,25.84 8.74,27C9.62,28.17 10,28.52 10,28.52C10,28.52 10,29.29 9.96,29.58C9.92,29.87 8.06,28.35 8.09,29.33C8.13,30.32 8.34,30.81 9.43,30.95C10.52,31.09 10.98,31.16 10.98,31.16C10.98,31.16 12.74,31.86 14.32,31.83C15.9,31.8 18.12,29.96 17.45,29.3C16.78,28.63 15.16,30 13.72,29.97C12.28,29.93 11.82,29.72 11.82,29.72L11.69,28.59Z" style="fill:#855c52;fill-rule:nonzero;"/><path d="M23.17,22.85C23.17,22.85 24.33,21.65 25.6,22.36C26.87,23.06 26.59,25.18 25.28,25.49C24.05,25.79 23.13,24.93 23.13,24.93C23.13,24.93 20.56,25.28 20.67,23.94C20.76,22.78 23.17,22.85 23.17,22.85Z" style="fill:#2b2a32;fill-rule:nonzero;"/><path d="M28.52,13.95C28.52,13.95 23.87,13.64 20.92,15.62C17.97,17.6 16.98,18.9 17.49,19.8C18,20.7 19.37,20.69 21.1,20.55C22.84,20.41 24.76,20.17 26.59,20.32C28.42,20.46 29.5,20.88 30.16,21.26C30.82,21.64 31.8,22.48 31.8,22.48C31.8,22.48 29.88,25.1 28.37,27.45C26.87,29.8 25.98,31.34 25.18,33.18C24.6,34.52 23.82,36.42 23.82,36.42C23.82,36.42 21.52,34.26 20.96,33.89C20.4,33.51 18.38,32.39 18.38,32.39L17.39,33C17.39,33 17.25,36.99 18.84,41.45C20.43,45.91 22.83,49.76 22.83,49.76C22.83,49.76 22.36,56.85 26.16,63.46C28.16,66.95 32.54,69.33 32.54,69.33C32.54,69.33 32.26,74.07 35.03,77.17C37.8,80.27 40.15,80.27 40.15,80.27C40.15,80.27 40.43,82.38 42.03,85.76C43.67,89.23 45.74,90.26 45.74,90.26C45.74,90.26 45.18,93.26 46.12,98.24C46.97,102.73 49.5,105.04 49.5,105.04C49.5,105.04 49.83,117.1 49.5,117.85C49.17,118.6 46.4,121.56 46.97,122.54C47.53,123.53 50.07,123.62 51.33,123.62C52.59,123.62 54.66,123.2 55.22,122.68C55.78,122.16 55.92,114.09 55.92,112.59C55.92,111.09 56.25,105.6 56.25,105.6C56.25,105.6 59.72,104.05 60.94,101.42C62.16,98.79 62.02,96.68 62.02,96.68C62.02,96.68 66.2,97.2 71.31,95.79C76.43,94.38 81.59,89.74 81.59,89.74C81.59,89.74 84.45,94.86 85.81,97.25C87.17,99.64 89.7,103.02 89.7,103.02C89.7,103.02 89.75,116.68 89.47,117.24C89.19,117.8 85.81,121.74 86.51,122.5C87.21,123.25 88.95,123.34 90.87,123.3C92.79,123.25 94.76,123.16 95.14,122.03C95.52,120.9 95.14,118.42 95.23,116.54C95.32,114.66 95.65,104.48 95.65,104.48C95.65,104.48 101.13,101.42 103.63,95.05C105.7,89.77 105.65,84.26 105.65,84.26C105.65,84.26 107.2,79.19 107.48,77.31C107.76,75.43 108.32,71.73 106.12,65.44C103.92,59.15 98.94,51.88 91.53,48.83C84.12,45.78 76.65,45.59 70.23,45.64C63.8,45.69 52.54,47.14 50.71,46.58C48.88,46.02 45.31,40.81 43.95,35.36C42.59,29.92 40.95,24 38.65,21.24C36.35,18.48 34.24,17.58 34.24,17.58C34.24,17.58 33.11,21.01 31,19.55C29.32,18.39 29.22,17 29.08,16.07C28.94,15.08 28.52,13.95 28.52,13.95Z" style="fill:#bca9a4;fill-rule:nonzero;"/><path d="M93.3,101.32C94.21,101.6 97.01,99.87 98.27,98.69C99.82,97.25 100.66,94.75 100.52,93.9C100.38,93.06 98.31,95.59 97.7,94.7C97.09,93.81 99.96,91.72 100.98,90.05C102.38,87.77 102.77,85.86 102.16,85.49C101.55,85.12 99.3,88.17 98.63,87.14C97.8,85.87 99.3,84.67 100.86,83.3C102.3,82.03 103.89,80.94 104.64,77.28C105.39,73.62 105.13,68.25 103.82,65.24C102.51,62.24 98.49,55.93 90.99,51.56C83.48,47.2 72.03,47.71 67.43,47.85C62.83,47.99 51.47,50.01 49.6,49.07C47.72,48.13 44.34,46.07 42.19,38.98C40.03,31.89 40.13,28.21 37.87,24.48C36.74,22.61 34.94,21.41 34.94,21.41C34.94,21.41 32.43,25.94 30.79,28.47C29.15,31 26.33,35.74 25.39,42.55C24.45,49.35 25.78,55.3 26.35,57.78C27.53,62.94 32.15,65.97 32.15,65.97C32.15,65.97 32.99,62.63 33.23,61.61C33.58,60.11 34.36,58.23 35.39,58.89C36.42,59.55 34.39,67.82 35.13,71.82C36.07,76.91 40.17,77.05 40.17,77.05C40.17,77.05 40.55,74.47 41.48,73.3C42.42,72.13 42.89,72.08 43.26,72.55C43.64,73.02 42.44,76.83 43.07,80.67C43.99,86.23 47.68,89.14 47.96,89.75C48.24,90.36 46.87,103.23 54,103.34C60.15,103.43 58.88,96.68 58.88,96.68C58.88,96.68 61.37,95.79 61.88,92.22C62.39,88.65 61.36,84.55 60.85,83.21C59.82,80.54 61.51,80.16 62.3,82.04C63.1,83.92 63.68,85.54 64.04,87.67C64.4,89.85 63.9,92.5 64.46,92.78C65.38,93.24 69.43,93.25 73.09,91.42C76.75,89.59 79.94,85.6 79.94,85.6C79.94,85.6 77.59,79.69 78.02,73.87C78.45,68.05 80.27,64.63 81.12,65.33C81.96,66.03 80.74,70.68 81.64,76.22C82.53,81.76 83.8,86.97 87.37,92.88C90.95,98.79 92.22,101 93.3,101.32Z" style="fill:#f8f9fc;fill-rule:nonzero;"/></svg>