<?xml version="1.0" encoding="UTF-8" standalone="no"?>
<svg
   width="128"
   height="128"
   version="1.1"
   id="svg4233"
   sodipodi:docname="emoji_u1f236.svg"
   inkscape:version="1.2.2 (b0a8486541, 2022-12-01)"
   xmlns:inkscape="http://www.inkscape.org/namespaces/inkscape"
   xmlns:sodipodi="http://sodipodi.sourceforge.net/DTD/sodipodi-0.dtd"
   xmlns="http://www.w3.org/2000/svg"
   xmlns:svg="http://www.w3.org/2000/svg">
  <defs
     id="defs4237" />
  <sodipodi:namedview
     id="namedview4235"
     pagecolor="#ffffff"
     bordercolor="#000000"
     borderopacity="0.25"
     inkscape:showpageshadow="2"
     inkscape:pageopacity="0.0"
     inkscape:pagecheckerboard="0"
     inkscape:deskcolor="#d1d1d1"
     showgrid="false"
     inkscape:zoom="1.84375"
     inkscape:cx="63.457627"
     inkscape:cy="64.271186"
     inkscape:current-layer="svg4233" />
  <g
     transform="matrix(5.71429,0,0,7.05882,-18.857205,-24.23525)"
     id="g4"
     style="clip-rule:evenodd;fill:#40c0e7;fill-rule:evenodd;stroke-linejoin:round;stroke-miterlimit:2">
    <path
       d="M 25,6.267 C 25,5.016 23.745,4 22.2,4 H 6.8 C 5.255,4 4,5.016 4,6.267 V 18.733 C 4,19.984 5.255,21 6.8,21 h 15.4 c 1.545,0 2.8,-1.016 2.8,-2.267 z"
       style="fill:#40c0e7"
       id="path2" />
  </g>
  <g
     transform="translate(-2.2735155,1.047149)"
     id="g12"
     style="clip-rule:evenodd;fill:#94e0f1;fill-rule:evenodd;stroke-linejoin:round;stroke-miterlimit:2">
    <path
       d="M 30.915,7.958 C 25.554,8.085 15,8 12.066,18.857 c -0.581,2.15 -1.578,5.57 0.285,7.423 1.433,1.425 3.932,0.985 5.373,-0.162 1.534,-1.221 2.286,-3.205 3.245,-4.857 1.114,-1.917 2.599,-3.655 4.34,-5.034 1.627,-1.289 3.482,-2.052 5.444,-2.683 1.362,-0.438 3.297,-0.632 3.969,-1.979 C 36,9 32.576,7.869 30.915,7.958 Z"
       style="fill:#94e0f1"
       id="path10" />
  </g>
  <path
     d="M103.28 28.84H70.85c1.96-6.27 2.4-10.32 2.41-10.4.05-.45-.1-.9-.4-1.23-.3-.34-.74-.53-1.19-.53H60.39c-.76 0-1.41.53-1.56 1.28 0 0-.02.1-.07.33-.26 1.15-1.27 5.18-3.46 10.56H28.33c-.42 0-.83.17-1.13.46-.3.3-.46.71-.46 1.13v12.2c0 .42.17.83.46 1.13.3.3.71.47 1.13.47h18.71a74.629 74.629 0 0 1-5.09 6.62c-.02.01-.03.01-.05.02-.03.03-.04.06-.06.09-4.67 5.41-10.48 10.57-17.79 14.63-.38.21-.65.55-.76.97-.11.42-.06.86.16 1.23l6.28 10.62c.22.38.58.64 1.01.74.42.1.87.02 1.24-.22 3.43-2.24 6.57-4.57 9.46-6.96v35.44c0 .42.17.83.46 1.13.3.3.71.46 1.13.46h11.42c.42 0 .83-.17 1.13-.46.3-.3.46-.71.46-1.13v-15.3h28.67v4.55h-3.87c-.47 0-.92.21-1.22.56-.3.36-.44.84-.36 1.29l1.55 9.15c.13.77.79 1.33 1.57 1.33h9.01c.08 0 .92 0 2.05-.28 1.11-.27 2.56-.8 3.7-2.06 1.17-1.32 1.67-2.86 1.93-4.06.25-1.21.25-2.1.26-2.17V51.99c0-.42-.17-.83-.47-1.13-.3-.3-.71-.46-1.13-.46H60.67c1.36-2.1 2.58-4.17 3.67-6.18h38.94c.42 0 .83-.17 1.13-.47.3-.3.46-.71.46-1.13v-12.2c0-.42-.17-.83-.46-1.13-.3-.29-.71-.45-1.13-.45zM56.05 77.41h28.67v4.79H56.05v-4.79zm28.67-9.92H56.05V62.7h28.67v4.79z"
     fill="#fff"
     id="path4231" />
</svg>
