<?xml version="1.0" encoding="UTF-8" standalone="no"?>
<svg
   width="128"
   height="128"
   version="1.1"
   id="svg4073"
   sodipodi:docname="emoji_u1f235.svg"
   inkscape:version="1.2.2 (b0a8486541, 2022-12-01)"
   xmlns:inkscape="http://www.inkscape.org/namespaces/inkscape"
   xmlns:sodipodi="http://sodipodi.sourceforge.net/DTD/sodipodi-0.dtd"
   xmlns="http://www.w3.org/2000/svg"
   xmlns:svg="http://www.w3.org/2000/svg">
  <defs
     id="defs4077" />
  <sodipodi:namedview
     id="namedview4075"
     pagecolor="#ffffff"
     bordercolor="#000000"
     borderopacity="0.25"
     inkscape:showpageshadow="2"
     inkscape:pageopacity="0.0"
     inkscape:pagecheckerboard="0"
     inkscape:deskcolor="#d1d1d1"
     showgrid="false"
     inkscape:zoom="1.84375"
     inkscape:cx="63.457627"
     inkscape:cy="64.271186"
     inkscape:current-layer="svg4073" />
  <g
     transform="matrix(5.71429,0,0,7.05882,-18.857205,-24.23525)"
     id="g4"
     style="clip-rule:evenodd;fill:#ed6c30;fill-rule:evenodd;stroke-linejoin:round;stroke-miterlimit:2">
    <path
       d="M 25,6.267 C 25,5.016 23.745,4 22.2,4 H 6.8 C 5.255,4 4,5.016 4,6.267 V 18.733 C 4,19.984 5.255,21 6.8,21 h 15.4 c 1.545,0 2.8,-1.016 2.8,-2.267 z"
       style="fill:#ed6c30"
       id="path2" />
  </g>
  <g
     transform="translate(-2.2735153,1.0471485)"
     id="g12"
     style="clip-rule:evenodd;fill:#ffb091;fill-rule:evenodd;stroke-linejoin:round;stroke-miterlimit:2">
    <path
       d="M 30.915,7.958 C 25.554,8.085 15,8 12.066,18.857 c -0.581,2.15 -1.578,5.57 0.285,7.423 1.433,1.425 3.932,0.985 5.373,-0.162 1.534,-1.221 2.286,-3.205 3.245,-4.857 1.114,-1.917 2.599,-3.655 4.34,-5.034 1.627,-1.289 3.482,-2.052 5.444,-2.683 1.362,-0.438 3.297,-0.632 3.969,-1.979 C 36,9 32.576,7.869 30.915,7.958 Z"
       style="fill:#ffb091"
       id="path10" />
  </g>
  <path
     d="M104.93 46.37h-10.7v-5.95h8.39c.41 0 .82-.17 1.11-.46.29-.29.46-.7.46-1.11v-8.27c0-.41-.17-.82-.46-1.11-.29-.29-.7-.46-1.11-.46h-8.39v-5.48c0-.42-.17-.82-.46-1.11-.29-.29-.7-.46-1.11-.46h-8.91a1.574 1.574 0 0 0-1.57 1.57v5.48h-15.1v-5.48c0-.42-.17-.82-.46-1.11-.29-.29-.7-.46-1.12-.46h-8.91c-.42 0-.82.17-1.12.46-.3.28-.47.68-.47 1.1V29h-8.39c-.41 0-.82.17-1.11.46-.29.29-.46.7-.46 1.11v8.27c0 .41.17.82.46 1.11.29.29.7.46 1.11.46H55v5.95H44.3c-.42 0-.82.17-1.11.46-.29.29-.46.7-.46 1.11v8.26c0 .42.17.82.46 1.11.29.29.7.46 1.11.46H69.4v3.64H44.3c-.42 0-.82.17-1.11.46-.29.29-.46.7-.46 1.11V107.24c0 .41.17.82.46 1.11.29.29.7.46 1.11.46h8.91c.42 0 .82-.17 1.11-.46.29-.29.46-.7.46-1.11v-34.4h14.61V87h-2.21v-7.19c0-.42-.17-.82-.46-1.11-.29-.29-.7-.46-1.11-.46h-7.02c-.42 0-.82.17-1.11.46-.29.29-.46.7-.46 1.11V95.6c0 .42.17.82.46 1.11.29.29.7.46 1.11.46h32.06c.42 0 .82-.17 1.11-.46.29-.29.46-.7.46-1.11V79.81c0-.42-.17-.82-.46-1.11-.29-.29-.7-.46-1.11-.46h-7.03c-.41 0-.82.17-1.11.46-.29.29-.46.7-.46 1.11V87h-2.48V72.84h14.87v25.52H87.7c-.46 0-.91.21-1.21.57-.3.36-.42.84-.33 1.3l1.39 7.33c.14.74.79 1.28 1.55 1.28h10.11c.08 0 .86 0 1.89-.25 1.02-.25 2.35-.73 3.41-1.91 1.07-1.22 1.53-2.63 1.76-3.72.24-1.1.24-1.92.24-1.99v-1.03c0-.1-.04-.2-.05-.29.02-.1.05-.19.05-.29V63c0-.42-.17-.82-.46-1.11-.29-.29-.7-.46-1.11-.46H79.57v-3.64h25.36c.41 0 .82-.17 1.11-.46.29-.29.46-.69.46-1.11v-8.26c0-.42-.17-.82-.46-1.11-.29-.31-.69-.48-1.11-.48zm-37.87-5.95h15.1v5.95h-15.1v-5.95zM36.76 81.66a1.579 1.579 0 0 0-2.43-.19L19.95 96.41c-.52.54-.59 1.38-.16 1.99l4.73 6.78a1.572 1.572 0 0 0 2.42.18l14.38-14.93c.52-.54.59-1.37.16-1.99l-4.72-6.78zM32.01 69.19c.69.51 1.65.39 2.18-.29l5.1-6.51a1.573 1.573 0 0 0-.3-2.23L26.6 50.9c-.68-.51-1.65-.38-2.18.29l-5.1 6.51c-.26.34-.38.76-.32 1.18.05.42.28.8.62 1.05l12.39 9.26zM33.34 43.38c.69.51 1.66.38 2.18-.29l5.1-6.51c.26-.34.38-.76.32-1.18-.06-.43-.28-.8-.62-1.06l-12.39-9.25c-.68-.51-1.66-.39-2.18.29l-5.1 6.5c-.26.34-.38.76-.32 1.18.05.42.27.8.62 1.05l12.39 9.27z"
     fill="#fff"
     id="path4071" />
</svg>
