<?xml version="1.0" encoding="UTF-8" standalone="no"?><!DOCTYPE svg PUBLIC "-//W3C//DTD SVG 1.1//EN" "http://www.w3.org/Graphics/SVG/1.1/DTD/svg11.dtd"><svg width="128px" height="128px" version="1.1" xmlns="http://www.w3.org/2000/svg" xmlns:xlink="http://www.w3.org/1999/xlink" xml:space="preserve" xmlns:serif="http://www.serif.com/" style="fill-rule:evenodd;clip-rule:evenodd;stroke-linecap:round;stroke-linejoin:round;"><path d="M67.71,9.64C5.4,9.64 0.21,79.5 0.21,93.33C0.21,107.16 28.77,118.36 64,118.36C99.24,118.36 127.79,107.15 127.79,93.33C127.79,79.5 130.03,9.64 67.71,9.64Z" style="fill:#fcc21b;fill-rule:nonzero;"/><path d="M40.86,60.293C36.37,60.333 33.94,58.273 33.89,52.923C33.84,47.553 37.44,43.173 41.93,43.133C46.41,43.093 50.1,47.403 50.15,52.773C50.2,58.123 45.35,60.243 40.86,60.293Z" style="fill:#2f2f2f;fill-rule:nonzero;"/><path d="M82.121,46.97C80.701,48.371 79.796,50.491 79.801,52.866C79.817,57.07 82.685,60.473 86.213,60.466C89.733,60.457 92.586,57.038 92.578,52.834C92.575,51.078 92.072,49.468 91.236,48.182C87.848,46.665 85.737,46.626 82.121,46.969L82.121,46.97Z" style="fill:#2f2f2f;fill-rule:nonzero;"/><path d="M26.872,76.647C28.286,79.263 29.795,81.833 31.694,84.126C35,88.119 38.498,89.14 39.839,89.501C44.435,90.739 49.392,88.099 52.689,85.115C56.39,81.766 58.542,78.348 64.114,77.799C71,77.119 75.984,81.047 78.315,82.576C82.879,85.569 88.828,87.322 93.775,84.042C101.341,79.027 102,70 102.513,66.454" style="fill:none;stroke:#2f2f2f;stroke-width:7px;"/></svg>