<?xml version="1.0" encoding="UTF-8" standalone="no"?><!DOCTYPE svg PUBLIC "-//W3C//DTD SVG 1.1//EN" "http://www.w3.org/Graphics/SVG/1.1/DTD/svg11.dtd"><svg width="128px" height="128px" version="1.1" xmlns="http://www.w3.org/2000/svg" xmlns:xlink="http://www.w3.org/1999/xlink" xml:space="preserve" xmlns:serif="http://www.serif.com/" style="fill-rule:evenodd;clip-rule:evenodd;stroke-linecap:round;stroke-linejoin:round;"><path d="M67.71,9.64C5.4,9.64 0.21,79.5 0.21,93.33C0.21,107.16 28.77,118.36 64,118.36C99.24,118.36 127.79,107.15 127.79,93.33C127.79,79.5 130.03,9.64 67.71,9.64Z" style="fill:#fcc21b;fill-rule:nonzero;"/><path d="M40.86,60.293C36.37,60.333 33.94,58.273 33.89,52.923C33.84,47.553 37.44,43.173 41.93,43.133C46.41,43.093 50.1,47.403 50.15,52.773C50.2,58.123 45.35,60.243 40.86,60.293Z" style="fill:#2f2f2f;fill-rule:nonzero;"/><path d="M82.121,46.97C80.701,48.371 79.796,50.491 79.801,52.866C79.817,57.07 82.685,60.473 86.213,60.466C89.733,60.457 92.586,57.038 92.578,52.834C92.575,51.078 92.072,49.468 91.236,48.182C87.848,46.665 85.737,46.626 82.121,46.969L82.121,46.97Z" style="fill:#2f2f2f;fill-rule:nonzero;"/><path d="M28.801,76.81C28.801,76.81 31.485,92.189 45.208,81.064C58.15,70.571 59.721,87.403 71.157,81.064C77.096,77.771 80.86,72.951 86.279,76.81C91.473,80.509 101.705,81.12 102.211,67.443" style="fill:none;stroke:#2f2f2f;stroke-width:6px;"/></svg>