<?xml version="1.0" encoding="UTF-8" standalone="no"?>
<svg
   width="128"
   height="128"
   version="1.1"
   id="svg3586"
   sodipodi:docname="emoji_u1f232.svg"
   inkscape:version="1.2.2 (b0a8486541, 2022-12-01)"
   xmlns:inkscape="http://www.inkscape.org/namespaces/inkscape"
   xmlns:sodipodi="http://sodipodi.sourceforge.net/DTD/sodipodi-0.dtd"
   xmlns="http://www.w3.org/2000/svg"
   xmlns:svg="http://www.w3.org/2000/svg">
  <defs
     id="defs3590" />
  <sodipodi:namedview
     id="namedview3588"
     pagecolor="#ffffff"
     bordercolor="#000000"
     borderopacity="0.25"
     inkscape:showpageshadow="2"
     inkscape:pageopacity="0.0"
     inkscape:pagecheckerboard="0"
     inkscape:deskcolor="#d1d1d1"
     showgrid="false"
     inkscape:zoom="1.84375"
     inkscape:cx="63.457627"
     inkscape:cy="64.271186"
     inkscape:current-layer="svg3586" />
  <g
     transform="matrix(5.71429,0,0,7.05882,-18.857205,-24.23525)"
     id="g4"
     style="clip-rule:evenodd;fill:#ed6c30;fill-rule:evenodd;stroke-linejoin:round;stroke-miterlimit:2">
    <path
       d="M 25,6.267 C 25,5.016 23.745,4 22.2,4 H 6.8 C 5.255,4 4,5.016 4,6.267 V 18.733 C 4,19.984 5.255,21 6.8,21 h 15.4 c 1.545,0 2.8,-1.016 2.8,-2.267 z"
       style="fill:#ed6c30"
       id="path2" />
  </g>
  <g
     transform="translate(-2.273515,1.047149)"
     id="g12"
     style="clip-rule:evenodd;fill:#ffb091;fill-rule:evenodd;stroke-linejoin:round;stroke-miterlimit:2">
    <path
       d="M 30.915,7.958 C 25.554,8.085 15,8 12.066,18.857 c -0.581,2.15 -1.578,5.57 0.285,7.423 1.433,1.425 3.932,0.985 5.373,-0.162 1.534,-1.221 2.286,-3.205 3.245,-4.857 1.114,-1.917 2.599,-3.655 4.34,-5.034 1.627,-1.289 3.482,-2.052 5.444,-2.683 1.362,-0.438 3.297,-0.632 3.969,-1.979 C 36,9 32.576,7.869 30.915,7.958 Z"
       style="fill:#ffb091"
       id="path10" />
  </g>
  <path
     d="M22.9 58.25c.42 0 .84-.17 1.13-.48l11.68-12.12v6.56c0 .41.17.82.46 1.11.29.29.7.46 1.11.46h8.57c.41 0 .82-.17 1.11-.46.29-.29.46-.7.46-1.11V44.9l7.38 7.66c.29.31.71.48 1.13.48.43 0 .84-.18 1.13-.48l5.4-5.61c.59-.61.59-1.58 0-2.18l-6.82-7.08h4.27c.42 0 .82-.17 1.11-.47.29-.29.46-.7.46-1.11v-6.2c0-.42-.17-.82-.46-1.11-.29-.29-.7-.46-1.11-.46h-12.5v-6.09c0-.42-.17-.82-.46-1.11-.29-.29-.7-.46-1.11-.46h-8.57c-.41 0-.82.17-1.11.46-.29.29-.46.7-.46 1.11v6.09H20.34c-.41 0-.82.17-1.11.46-.29.29-.47.7-.47 1.11v6.2c0 .41.17.82.47 1.11.29.29.7.47 1.11.47h7.85L16.36 49.98c-.59.61-.59 1.57 0 2.18l5.4 5.61c.3.3.71.48 1.14.48zM99.72 37.69h7.85c.41 0 .82-.17 1.11-.47.29-.29.46-.7.46-1.11v-6.2c0-.42-.17-.82-.46-1.11-.29-.29-.7-.46-1.11-.46H92.2v-6.09c0-.42-.17-.82-.46-1.11-.29-.29-.7-.46-1.11-.46h-8.56c-.42 0-.82.17-1.11.46-.29.29-.46.7-.46 1.11v6.09H68c-.42 0-.82.17-1.11.46-.29.29-.46.7-.46 1.11v6.2c0 .41.17.82.46 1.11.29.29.7.47 1.11.47h4.27l-6.82 7.08c-.59.61-.59 1.57 0 2.18l5.4 5.61c.29.31.7.48 1.13.48.43 0 .84-.18 1.13-.48l7.38-7.66v7.31c0 .41.17.82.46 1.11.29.29.7.46 1.11.46h8.56c.42 0 .82-.17 1.11-.46.29-.29.46-.7.46-1.11v-6.56l11.68 12.12c.3.31.71.48 1.13.48.42 0 .84-.17 1.13-.48l5.4-5.61c.59-.61.59-1.58 0-2.18L99.72 37.69zM107.32 74.75H21.6c-.41 0-.82.17-1.11.46-.29.29-.46.7-.46 1.11v7.78c0 .41.17.82.46 1.11.29.29.7.46 1.11.46h37.08v10.65h-6.92c-.44 0-.86.19-1.16.51-.3.33-.44.77-.4 1.21l.87 9.03c.08.81.75 1.43 1.57 1.43h12.65c.08 0 .91-.01 2.02-.27 1.1-.27 2.53-.8 3.66-2.04 1.15-1.3 1.65-2.82 1.91-4.01.25-1.19.26-2.07.26-2.14V85.68h34.21c.41 0 .82-.17 1.11-.46.29-.29.46-.7.46-1.11v-7.78c0-.42-.17-.82-.46-1.11-.32-.3-.72-.47-1.14-.47zM29.38 59.66c-.29.29-.46.7-.46 1.11v7.78c0 .42.17.82.46 1.11.29.29.7.46 1.11.46h67.94c.42 0 .82-.17 1.11-.46.29-.29.46-.7.46-1.11v-7.78c0-.42-.17-.82-.46-1.11-.29-.29-.7-.46-1.11-.46H30.49c-.41 0-.82.16-1.11.46z"
     fill="#fff"
     id="path3582" />
  <path
     d="M41.91 88.28c-.55-.67-1.53-.76-2.2-.21L27.34 98.14c-.33.26-.53.65-.57 1.07-.04.42.09.84.36 1.16l5.62 6.75c.55.66 1.53.76 2.2.21l12.38-10.06c.33-.27.53-.65.58-1.07.04-.42-.09-.83-.36-1.16l-5.64-6.76zM102.66 96.76L87.61 87.5c-.74-.45-1.7-.23-2.16.5l-4.68 7.43c-.22.36-.29.79-.2 1.2.1.41.35.76.71.98l15.06 9.27c.74.46 1.7.23 2.16-.5l4.68-7.44c.22-.36.3-.79.2-1.2-.1-.4-.36-.76-.72-.98zM70.95 106.2v.01z"
     fill="#fff"
     id="path3584" />
</svg>
