<?xml version="1.0" encoding="UTF-8" standalone="no"?>
<svg
   width="128"
   height="128"
   version="1.1"
   id="svg4723"
   sodipodi:docname="emoji_u1f239.svg"
   inkscape:version="1.2.2 (b0a8486541, 2022-12-01)"
   xmlns:inkscape="http://www.inkscape.org/namespaces/inkscape"
   xmlns:sodipodi="http://sodipodi.sourceforge.net/DTD/sodipodi-0.dtd"
   xmlns="http://www.w3.org/2000/svg"
   xmlns:svg="http://www.w3.org/2000/svg">
  <defs
     id="defs4727" />
  <sodipodi:namedview
     id="namedview4725"
     pagecolor="#ffffff"
     bordercolor="#000000"
     borderopacity="0.25"
     inkscape:showpageshadow="2"
     inkscape:pageopacity="0.0"
     inkscape:pagecheckerboard="0"
     inkscape:deskcolor="#d1d1d1"
     showgrid="false"
     inkscape:zoom="1.84375"
     inkscape:cx="63.457627"
     inkscape:cy="64.271186"
     inkscape:current-layer="svg4723" />
  <g
     transform="matrix(5.71429,0,0,7.05882,-18.857205,-24.23525)"
     id="g4"
     style="clip-rule:evenodd;fill:#ed6c30;fill-rule:evenodd;stroke-linejoin:round;stroke-miterlimit:2">
    <path
       d="M 25,6.267 C 25,5.016 23.745,4 22.2,4 H 6.8 C 5.255,4 4,5.016 4,6.267 V 18.733 C 4,19.984 5.255,21 6.8,21 h 15.4 c 1.545,0 2.8,-1.016 2.8,-2.267 z"
       style="fill:#ed6c30"
       id="path2" />
  </g>
  <g
     transform="translate(-2.273515,1.0471486)"
     id="g12"
     style="clip-rule:evenodd;fill:#ffb091;fill-rule:evenodd;stroke-linejoin:round;stroke-miterlimit:2">
    <path
       d="M 30.915,7.958 C 25.554,8.085 15,8 12.066,18.857 c -0.581,2.15 -1.578,5.57 0.285,7.423 1.433,1.425 3.932,0.985 5.373,-0.162 1.534,-1.221 2.286,-3.205 3.245,-4.857 1.114,-1.917 2.599,-3.655 4.34,-5.034 1.627,-1.289 3.482,-2.052 5.444,-2.683 1.362,-0.438 3.297,-0.632 3.969,-1.979 C 36,9 32.576,7.869 30.915,7.958 Z"
       style="fill:#ffb091"
       id="path10" />
  </g>
  <path
     d="M104.87 26.72H94.58c-.42 0-.82.16-1.11.46-.29.29-.46.7-.46 1.11v65.53h-8.13c-.45 0-.88.2-1.18.53-.3.34-.44.79-.38 1.24l1.39 10.76c.1.79.77 1.37 1.56 1.37h12.89c.08 0 .85 0 1.88-.25 1.02-.25 2.35-.73 3.41-1.9 1.07-1.22 1.52-2.62 1.76-3.72.23-1.1.23-1.91.23-1.99V28.29c0-.41-.17-.82-.46-1.11-.29-.3-.7-.46-1.11-.46z"
     fill="#fff"
     id="path4719" />
  <path
     d="M87.57 84.6c.29-.29.46-.7.46-1.11v-55.2c0-.41-.17-.82-.46-1.11-.29-.29-.7-.46-1.11-.46h-10.3c-.41 0-.82.16-1.11.46-.29.29-.46.7-.46 1.11v55.2c0 .41.17.82.46 1.11.29.29.7.46 1.11.46h10.29c.42 0 .82-.17 1.12-.46zM67.41 83.89H25.14c-.41 0-.82.17-1.11.46-.29.29-.46.7-.46 1.11v20.94c0 .41.17.82.46 1.11.29.29.7.46 1.11.46h42.27c.41 0 .82-.17 1.11-.46.29-.29.46-.7.46-1.11V85.46c0-.41-.17-.82-.46-1.11-.29-.29-.7-.46-1.11-.46zm-10.49 9.15v5.77l-.17.41-.41.16H36.2l-.4-.16-.17-.41v-5.77l.17-.4.4-.17h20.14l.41.17.17.4zM69.94 31.24H52.06v-5.66c0-.42-.17-.82-.46-1.12-.29-.29-.7-.46-1.11-.46h-8.43c-.42 0-.82.17-1.11.46-.29.3-.46.7-.46 1.12v5.66H22.61c-.41 0-.82.17-1.11.46-.29.29-.46.7-.46 1.11v8.59c0 .22.06.43.15.63v7.29c0 .41.17.82.46 1.11.29.29.7.46 1.11.46h7.1c.41 0 .82-.17 1.11-.46.29-.29.46-.7.46-1.11v-6.35h9.06v3.9h-4.85c-.41 0-.82.17-1.11.46-.29.29-.46.7-.46 1.11v6.21c0 .41.17.82.46 1.11.29.29.7.46 1.11.46h4.85v2.76h-9.71c-.41 0-.82.17-1.11.46-.29.29-.46.69-.46 1.11v6.21c0 .42.17.81.46 1.11.29.29.7.46 1.11.46h9.71v2.76H25.14c-.41 0-.82.17-1.11.46-.29.29-.46.7-.46 1.11v6.21c0 .42.17.82.46 1.11.29.29.7.46 1.11.46h42.27c.41 0 .82-.17 1.11-.46.29-.29.46-.7.46-1.11v-6.21c0-.41-.17-.82-.46-1.11-.29-.29-.7-.46-1.11-.46H52.06v-2.76h9.71a1.574 1.574 0 0 0 1.57-1.57v-6.21c0-.41-.17-.81-.46-1.11-.29-.29-.7-.46-1.11-.46h-9.71v-2.76h4.85c.41 0 .82-.17 1.11-.46.29-.29.46-.7.46-1.11v-6.21c0-.41-.17-.82-.46-1.11-.29-.29-.7-.46-1.11-.46h-4.85v-3.9h9.2v6.35c0 .41.17.82.46 1.11.29.29.7.46 1.11.46h7.1c.42 0 .82-.17 1.11-.46.29-.29.46-.7.46-1.11v-16.5c0-.41-.17-.82-.46-1.11-.28-.3-.69-.47-1.1-.47z"
     fill="#fff"
     id="path4721" />
</svg>
