<?xml version="1.0" encoding="UTF-8" standalone="no"?>
<svg
   width="128"
   height="128"
   version="1.1"
   id="svg4886"
   sodipodi:docname="emoji_u1f250.svg"
   inkscape:version="1.2.2 (b0a8486541, 2022-12-01)"
   xmlns:inkscape="http://www.inkscape.org/namespaces/inkscape"
   xmlns:sodipodi="http://sodipodi.sourceforge.net/DTD/sodipodi-0.dtd"
   xmlns="http://www.w3.org/2000/svg"
   xmlns:svg="http://www.w3.org/2000/svg">
  <defs
     id="defs4890" />
  <sodipodi:namedview
     id="namedview4888"
     pagecolor="#ffffff"
     bordercolor="#000000"
     borderopacity="0.25"
     inkscape:showpageshadow="2"
     inkscape:pageopacity="0.0"
     inkscape:pagecheckerboard="0"
     inkscape:deskcolor="#d1d1d1"
     showgrid="false"
     inkscape:zoom="1.84375"
     inkscape:cx="63.457627"
     inkscape:cy="64.271186"
     inkscape:current-layer="svg4886" />
  <g
     transform="matrix(5.71429,0,0,7.05882,-18.857205,-24.23525)"
     id="g4"
     style="clip-rule:evenodd;fill:#ed6c30;fill-rule:evenodd;stroke-linejoin:round;stroke-miterlimit:2">
    <path
       d="M 25,6.267 C 25,5.016 23.745,4 22.2,4 H 6.8 C 5.255,4 4,5.016 4,6.267 V 18.733 C 4,19.984 5.255,21 6.8,21 h 15.4 c 1.545,0 2.8,-1.016 2.8,-2.267 z"
       style="fill:#ed6c30"
       id="path2" />
  </g>
  <g
     transform="translate(-2.273514,1.0471492)"
     id="g12"
     style="clip-rule:evenodd;fill:#ffb091;fill-rule:evenodd;stroke-linejoin:round;stroke-miterlimit:2">
    <path
       d="M 30.915,7.958 C 25.554,8.085 15,8 12.066,18.857 c -0.581,2.15 -1.578,5.57 0.285,7.423 1.433,1.425 3.932,0.985 5.373,-0.162 1.534,-1.221 2.286,-3.205 3.245,-4.857 1.114,-1.917 2.599,-3.655 4.34,-5.034 1.627,-1.289 3.482,-2.052 5.444,-2.683 1.362,-0.438 3.297,-0.632 3.969,-1.979 C 36,9 32.576,7.869 30.915,7.958 Z"
       style="fill:#ffb091"
       id="path10" />
  </g>
  <path
     d="M58.29 61.52h39.65c.39 0 .77-.16 1.04-.43s.43-.66.43-1.04V26.77c0-.39-.16-.77-.43-1.04-.27-.28-.65-.43-1.04-.43H58.29c-.39 0-.77.15-1.04.43-.27.27-.43.65-.43 1.04v33.28c0 .38.16.77.43 1.04.28.27.65.43 1.04.43zm30.79-21.95l-.38.16H67.54l-.38-.16-.16-.38v-4.13l.16-.38.38-.16H88.7l.38.16.16.38v4.13l-.16.38zm.15 8.22v4.13l-.16.38-.38.16H67.54l-.38-.16-.16-.38v-4.13l.16-.38.38-.16H88.7l.38.16.15.38zM104.16 65.04H52.29c-.39 0-.77.15-1.04.43-.27.27-.43.65-.43 1.04v7.7c0 .39.16.77.43 1.04.28.28.65.43 1.04.43H82.4v3.53H52.29c-.39 0-.77.15-1.04.43s-.43.66-.43 1.04v6.3c0 .38.16.77.43 1.04.28.28.65.43 1.04.43H82.4v6.79h-3.58c-.43 0-.84.19-1.12.52-.28.33-.4.77-.33 1.2l1.42 8.44c.12.71.74 1.22 1.45 1.22h8.31c.07 0 .85 0 1.89-.24 1.03-.26 2.36-.74 3.42-1.91 1.08-1.22 1.54-2.64 1.78-3.75.24-1.1.24-1.93.24-2V88.44h8.27c.39 0 .77-.15 1.04-.43s.43-.66.43-1.04v-6.3c0-.38-.16-.77-.43-1.04s-.65-.43-1.04-.43h-8.27v-3.53h8.27c.39 0 .77-.16 1.04-.43s.43-.65.43-1.04v-7.7c0-.39-.16-.77-.43-1.04-.27-.26-.64-.42-1.03-.42z"
     fill="#fff"
     id="path4882" />
  <path
     d="M72.26 91.83H60.28c-.39 0-.77.16-1.04.43-.27.28-.43.65-.43 1.04v7.54c0 .39.16.77.43 1.04s.65.43 1.04.43h11.99c.39 0 .77-.16 1.04-.43.27-.28.43-.65.43-1.04V93.3c0-.39-.16-.77-.43-1.04-.28-.27-.66-.43-1.05-.43zM25.47 45.31c.14.36.43.66.79.82.35.15.76.15 1.12.02l20.4-8.05c.36-.14.65-.43.81-.79.15-.36.16-.77.02-1.13l-3.51-8.89c-.3-.75-1.15-1.12-1.91-.82l-20.4 8.04c-.76.29-1.13 1.15-.83 1.91l3.51 8.89zM51.13 55.19l-3.51-8.89c-.15-.38-.42-.66-.79-.81-.36-.16-.76-.17-1.13-.02l-22.92 9.12c-.76.3-1.12 1.15-.83 1.91l3.51 8.89c.15.37.42.66.79.81.36.15.76.16 1.13.02l5.24-2.08v39.22c0 .39.15.77.43 1.04.27.27.65.43 1.04.43h9.5c.39 0 .77-.16 1.04-.43s.43-.65.43-1.04V59.18l5.23-2.08c.77-.31 1.14-1.17.84-1.91z"
     fill="#fff"
     id="path4884" />
</svg>
