<?xml version="1.0" encoding="UTF-8" standalone="no"?>
<svg
   width="128"
   height="128"
   version="1.1"
   id="svg982"
   sodipodi:docname="emoji_u1f22f.svg"
   inkscape:version="1.2.2 (b0a8486541, 2022-12-01)"
   xmlns:inkscape="http://www.inkscape.org/namespaces/inkscape"
   xmlns:sodipodi="http://sodipodi.sourceforge.net/DTD/sodipodi-0.dtd"
   xmlns="http://www.w3.org/2000/svg"
   xmlns:svg="http://www.w3.org/2000/svg">
  <defs
     id="defs986" />
  <sodipodi:namedview
     id="namedview984"
     pagecolor="#ffffff"
     bordercolor="#000000"
     borderopacity="0.25"
     inkscape:showpageshadow="2"
     inkscape:pageopacity="0.0"
     inkscape:pagecheckerboard="0"
     inkscape:deskcolor="#d1d1d1"
     showgrid="false"
     inkscape:zoom="2.6074563"
     inkscape:cx="97.796463"
     inkscape:cy="83.41463"
     inkscape:current-layer="svg982" />
  <g
     transform="matrix(5.71429,0,0,7.05882,-18.857205,-24.23525)"
     id="g4"
     style="clip-rule:evenodd;fill:#ccd761;fill-rule:evenodd;stroke-linejoin:round;stroke-miterlimit:2">
    <path
       d="M 25,6.267 C 25,5.016 23.745,4 22.2,4 H 6.8 C 5.255,4 4,5.016 4,6.267 V 18.733 C 4,19.984 5.255,21 6.8,21 h 15.4 c 1.545,0 2.8,-1.016 2.8,-2.267 z"
       style="fill:#ccd761"
       id="path2" />
  </g>
  <g
     transform="translate(-2.2735142,1.047149)"
     id="g12"
     style="clip-rule:evenodd;fill:#e1e8a2;fill-rule:evenodd;stroke-linejoin:round;stroke-miterlimit:2">
    <path
       d="M 30.915,7.958 C 25.554,8.085 15,8 12.066,18.857 c -0.581,2.15 -1.578,5.57 0.285,7.423 1.433,1.425 3.932,0.985 5.373,-0.162 1.534,-1.221 2.286,-3.205 3.245,-4.857 1.114,-1.917 2.599,-3.655 4.34,-5.034 1.627,-1.289 3.482,-2.052 5.444,-2.683 1.362,-0.438 3.297,-0.632 3.969,-1.979 C 36,9 32.576,7.869 30.915,7.958 Z"
       style="fill:#e1e8a2"
       id="path10" />
  </g>
  <path
     fill="#fff"
     d="M62.96 62.69v-.01zM106.67 48.95l-9.65-3.21a1.58 1.58 0 0 0-1.96.93l-.04.1c-.11.25-.42.95-.83 1.68-.41.74-.97 1.51-1.42 1.88-.1.09-.46.28-.93.42-1.44.44-3.73.49-4.01.48h-13.5v-5.19l28.75-8.25c.84-.24 1.31-1.11 1.07-1.95l-2.37-8.26a1.576 1.576 0 0 0-1.94-1.09l-25.5 7.33v-7.64c0-.41-.17-.81-.46-1.1-.29-.29-.7-.47-1.11-.47H62.43c-.42 0-.82.18-1.11.47-.29.29-.46.69-.46 1.1v22.8c-.02.1-.05.18-.05.27v8.14c0 .08 0 .86.25 1.89.25 1.03.73 2.35 1.91 3.41 1.22 1.09 2.63 1.54 3.73 1.78 1.1.23 1.92.23 1.99.24h23.47c.16 0 .31-.05.46-.1.76-.05 1.58-.13 2.46-.26 2.1-.35 4.4-.9 6.12-2.31 2.25-1.92 3.79-4.67 4.86-6.96 1.06-2.3 1.61-4.13 1.62-4.18.25-.82-.2-1.68-1.01-1.95zM102.74 67.3H61.8c-.42 0-.82.17-1.12.46-.29.29-.46.7-.46 1.11v37.41c0 .41.17.82.46 1.11.29.29.7.46 1.12.46h40.93c.42 0 .82-.17 1.12-.46.29-.29.45-.7.45-1.11V68.87c0-.41-.17-.82-.45-1.11-.29-.3-.7-.46-1.11-.46zM92.1 83.25l-.41.17H72.83l-.4-.17-.17-.4V78.2l.17-.41.4-.17H91.7l.41.17.16.41v4.64l-.17.41zm.16 9.26v4.64l-.16.4-.41.17H72.83l-.4-.17-.17-.4v-4.64l.17-.4.4-.17H91.7l.41.17.15.4zM52.63 63.24c-.17-.38-.49-.68-.87-.83-.39-.15-.83-.14-1.21.04l-2.66 1.19v-11.1h6.8c.41 0 .82-.17 1.11-.46.29-.29.46-.69.46-1.11v-8.59c0-.42-.17-.82-.46-1.11-.29-.29-.7-.46-1.11-.46h-6.8V24.27c0-.41-.17-.82-.46-1.11-.29-.29-.7-.46-1.1-.46H34.6c-.41 0-.82.17-1.11.46-.29.29-.46.7-.46 1.11V40.8h-9.68c-.41 0-.82.17-1.11.46-.29.29-.46.69-.46 1.11v8.59c0 .42.17.82.46 1.11.3.29.7.46 1.11.46h9.68V70.3l-11.08 4.95c-.38.18-.68.49-.83.88-.15.39-.14.83.03 1.2l3.52 7.85c.17.38.49.68.88.83.39.15.83.14 1.21-.04l6.28-2.81v9.14H29c-.46 0-.88.19-1.18.54-.3.34-.43.79-.38 1.24l1.59 11.77c.1.78.77 1.37 1.55 1.37h9.24c.08 0 .94 0 2.09-.28 1.13-.27 2.61-.81 3.76-2.09 1.19-1.34 1.7-2.91 1.96-4.13.26-1.23.26-2.14.26-2.22v-22l7.45-3.33c.8-.36 1.15-1.29.8-2.08l-3.51-7.85zM45.66 104.84z"
     id="path980" />
</svg>
