<?xml version="1.0" encoding="UTF-8" standalone="no"?>
<svg
   width="128"
   height="128"
   version="1.1"
   id="svg2940"
   sodipodi:docname="emoji_u1f198.svg"
   inkscape:version="1.2.2 (b0a8486541, 2022-12-01)"
   xmlns:inkscape="http://www.inkscape.org/namespaces/inkscape"
   xmlns:sodipodi="http://sodipodi.sourceforge.net/DTD/sodipodi-0.dtd"
   xmlns="http://www.w3.org/2000/svg"
   xmlns:svg="http://www.w3.org/2000/svg">
  <defs
     id="defs2944" />
  <sodipodi:namedview
     id="namedview2942"
     pagecolor="#ffffff"
     bordercolor="#000000"
     borderopacity="0.25"
     inkscape:showpageshadow="2"
     inkscape:pageopacity="0.0"
     inkscape:pagecheckerboard="0"
     inkscape:deskcolor="#d1d1d1"
     showgrid="false"
     inkscape:zoom="1.84375"
     inkscape:cx="63.457627"
     inkscape:cy="64.271186"
     inkscape:current-layer="svg2940" />
  <g
     transform="matrix(5.71429,0,0,7.05882,-18.857205,-24.23525)"
     id="g4"
     style="clip-rule:evenodd;fill:#db4437;fill-rule:evenodd;stroke-linejoin:round;stroke-miterlimit:2">
    <path
       d="M 25,6.267 C 25,5.016 23.745,4 22.2,4 H 6.8 C 5.255,4 4,5.016 4,6.267 V 18.733 C 4,19.984 5.255,21 6.8,21 h 15.4 c 1.545,0 2.8,-1.016 2.8,-2.267 z"
       style="fill:#db4437"
       id="path2" />
  </g>
  <g
     transform="translate(-2.273515,1.047149)"
     id="g12"
     style="clip-rule:evenodd;fill:#ef9a9a;fill-rule:evenodd;stroke-linejoin:round;stroke-miterlimit:2">
    <path
       d="M 30.915,7.958 C 25.554,8.085 15,8 12.066,18.857 c -0.581,2.15 -1.578,5.57 0.285,7.423 1.433,1.425 3.932,0.985 5.373,-0.162 1.534,-1.221 2.286,-3.205 3.245,-4.857 1.114,-1.917 2.599,-3.655 4.34,-5.034 1.627,-1.289 3.482,-2.052 5.444,-2.683 1.362,-0.438 3.297,-0.632 3.969,-1.979 C 36,9 32.576,7.869 30.915,7.958 Z"
       style="fill:#ef9a9a"
       id="path10" />
  </g>
  <text
     style="line-height:44.8434px"
     x="6.8995461"
     y="83.897675"
     transform="scale(0.93533997,1.06913)"
     font-weight="400"
     font-size="71.749px"
     font-family="Sans"
     letter-spacing="0"
     word-spacing="0"
     fill="#ffffff"
     id="text2938"><tspan
       x="6.8995461"
       y="83.897675"
       style="-inkscape-font-specification:'Comic Neue Bold'"
       font-weight="700"
       font-family="'Comic Neue'"
       id="tspan2936">SOS</tspan></text>
</svg>
