<?xml version="1.0" encoding="UTF-8" standalone="no"?><!DOCTYPE svg PUBLIC "-//W3C//DTD SVG 1.1//EN" "http://www.w3.org/Graphics/SVG/1.1/DTD/svg11.dtd"><svg width="128px" height="128px" version="1.1" xmlns="http://www.w3.org/2000/svg" xmlns:xlink="http://www.w3.org/1999/xlink" xml:space="preserve" xmlns:serif="http://www.serif.com/" style="fill-rule:evenodd;clip-rule:evenodd;stroke-linejoin:round;stroke-miterlimit:2;"><path d="M115.3,111.46L12.7,111.46C7.18,111.46 2.7,106.98 2.7,101.46L2.7,29.46C2.7,23.94 7.18,19.46 12.7,19.46L115.3,19.46C120.82,19.46 125.3,23.94 125.3,29.46L125.3,101.46C125.3,106.99 120.82,111.46 115.3,111.46Z" style="fill:#016ca2;fill-rule:nonzero;"/><g><path d="M63.96,59.81L63.93,59.82C63.69,59.91 63.62,60.21 63.78,60.41L64.78,61.62L65.46,61.04L64.37,59.9C64.263,59.792 64.102,59.757 63.96,59.81ZM47.73,78.96L45.1,77.59C44.87,77.47 44.6,77.4 44.34,77.4L43.58,77.4C43.439,77.396 43.319,77.29 43.3,77.15C43.22,76.31 42.51,75.66 41.67,75.66L41.43,75.66C40.92,75.66 40.44,75.42 40.13,75.01L39.77,74.53C39.49,74.16 39.07,73.93 38.61,73.89L36.65,73.72C36.602,73.719 36.556,73.701 36.52,73.67L36.2,73.45C36.11,73.39 36,73.38 35.91,73.44L34.51,74.23C34.26,74.37 33.99,74.44 33.7,74.44L32.26,74.44C32.21,74.44 32.17,74.43 32.13,74.41C31.97,74.32 31.6,74.04 31.6,73.42L31.6,72.59C31.6,72.436 31.474,72.31 31.32,72.31L30.41,72.31C30.257,72.309 30.132,72.183 30.132,72.03C30.132,71.981 30.145,71.933 30.17,71.89L30.6,71.14C30.62,71.1 30.64,71.05 30.64,71L30.64,70.34C30.64,70.186 30.514,70.06 30.36,70.06L29.86,70.06C29.77,70.06 29.68,70.11 29.63,70.19L29.35,70.63C29.05,71.1 28.53,71.38 27.97,71.38L27.57,71.38C27.57,71.38 26.92,71.26 26.92,70.57L26.92,68.06C26.93,67.98 26.99,67.73 27.26,67.56C27.5,67.41 28.06,67.11 28.34,66.96C28.44,66.91 28.57,66.92 28.66,67L29.19,67.49C29.24,67.54 29.3,67.56 29.37,67.56C29.54,67.56 29.85,67.57 29.91,67.54C29.99,67.5 29.79,67.14 30.27,66.99C30.76,66.85 31.08,67.29 31.08,67.29L32.32,68.76C32.41,68.87 32.57,68.89 32.69,68.81L32.87,68.69C32.99,68.61 33.03,68.45 32.96,68.32L32.94,68.28C32.54,67.59 32.69,66.71 33.3,66.2L34.33,65.33C34.33,65.33 34.45,65.25 34.51,64.8C34.55,64.53 34.62,64.13 34.67,63.85C34.78,63.67 34.87,63.5 34.98,63.32L37.2,61.45C37.33,61.34 37.52,61.37 37.61,61.51C37.72,61.67 37.9,61.85 38.13,61.84C38.48,61.82 39.35,61.35 39.69,61.15C39.777,61.102 39.831,61.01 39.83,60.91L39.83,60.56L38.76,60.78C38.61,60.81 38.46,60.71 38.43,60.55L38.31,59.85C38.287,59.719 38.173,59.622 38.04,59.62L36.97,59.74L37.1,59.42C37.14,59.31 37.24,59.24 37.36,59.22L40,58.94C40.24,58.84 40.6,58.7 40.84,58.6L41.37,58.19C41.5,58.09 41.51,57.9 41.4,57.78L38.43,54.74C38.346,54.657 38.219,54.633 38.11,54.68L37.22,55.1C37.13,55.14 37.02,55.13 36.94,55.08L34.48,53.35C34.434,53.316 34.377,53.298 34.32,53.298C34.233,53.298 34.151,53.34 34.1,53.41L33.72,53.93C33.69,53.97 33.67,54.02 33.67,54.08L33.6,55.37C33.6,55.45 33.62,55.52 33.68,55.58L34.04,55.95C34.16,56.07 34.14,56.27 34,56.37L33.47,56.75C33.398,56.802 33.305,56.817 33.22,56.79L32.02,56.99C31.85,56.54 31.48,56.19 31.02,56.03L30.42,55.82C29.33,55.45 28.96,54.1 29.69,53.22L30.86,51.81C30.921,51.73 30.94,51.626 30.91,51.53L30.58,50.68L30.52,50.59L29.2,49.18C28.68,48.63 27.75,48.91 27.63,49.66L27.62,49.74C27.55,50.18 27.16,50.51 26.72,50.51L22.79,50.51C22.57,50.46 22.35,50.42 22.12,50.37L19.43,49.17C19.24,49.12 19.06,49.08 18.87,49.03L16.4,48.87C16.17,48.91 15.94,48.94 15.71,48.98L14.6,49.41C14.3,49.52 13.98,49.55 13.67,49.48L8.18,48.31C7.85,48.24 7.5,48.27 7.19,48.41L4.6,49.52C4.41,49.6 4.37,49.85 4.53,49.99L5.21,50.56C5.4,50.72 5.29,51.04 5.04,51.05L4.02,51.07C3.87,51.07 3.75,51.2 3.75,51.35L3.75,51.49C3.75,51.64 3.87,51.76 4.02,51.77L4.9,51.78C5.2,51.79 5.28,52.19 5.01,52.31L4.25,52.65C4.14,52.7 4.08,52.81 4.09,52.93L4.16,53.69C4.23,54.44 4.79,55.04 5.54,55.16L6.08,55.25C6.34,55.29 6.4,55.63 6.18,55.76L6.01,55.86C5.83,55.97 5.83,56.23 6.01,56.33L6.1,56.38C6.18,56.43 6.27,56.43 6.36,56.4L10.99,54.31C11.59,54.04 12.29,54.15 12.77,54.6L17.18,58.63C17.5,58.92 17.69,59.33 17.71,59.76L17.86,62.84C17.88,63.19 18,63.52 18.22,63.79L22.56,69.19C22.64,69.29 22.78,69.32 22.9,69.26C23.05,69.18 23.1,68.99 23,68.85C23,68.85 25.74,71.69 26,71.81L28.22,72.91C28.45,73.02 28.69,73.08 28.95,73.08L30.05,73.08C30.16,73.08 30.26,73.14 30.3,73.24L30.67,74.04C30.67,74.05 30.68,74.05 30.68,74.06C30.75,74.17 31.32,75.14 31.93,75.18C32.58,75.22 33.75,75.18 33.75,75.18C33.75,75.18 34.17,75.17 34.17,75.63L34.17,76.33C34.17,76.43 34.12,76.52 34.03,76.57C33.67,76.77 32.74,77.36 32.74,78.03L32.74,79.6C32.74,79.67 32.76,79.73 32.8,79.78C32.92,79.92 33.18,80.22 33.4,80.4C33.64,80.59 34.06,81.08 34.23,81.27C34.27,81.32 34.29,81.38 34.29,81.45L34.29,82.35C34.3,82.38 34.3,82.42 34.31,82.45C34.36,82.57 34.49,82.87 34.72,82.98C34.86,83.05 35.21,83.33 35.53,83.61C35.93,83.95 36.14,84.46 36.1,84.99L35.9,87.55C35.88,87.65 35.87,87.75 35.85,87.85L34.96,91.19C34.94,91.39 34.93,91.58 34.91,91.78L35,93.15C35.02,93.39 35,93.63 34.92,93.86L34.59,94.79C34.49,95.09 34.47,95.41 34.54,95.72L34.96,97.45C35.01,97.65 35.12,97.83 35.29,97.96L35.72,98.3C35.88,98.43 36.12,98.61 36.29,98.49C37.12,97.92 37.42,95.62 37.78,94.76C37.96,94.32 40.62,90.85 40.61,90.38L40.59,89.71C40.59,89.55 40.71,89.43 40.87,89.43L41.72,89.43C41.8,89.43 41.87,89.4 41.92,89.34L43.91,87.16C43.96,87.11 43.98,87.04 43.98,86.97L43.98,86.08C43.98,85.92 44.11,85.8 44.27,85.8C44.61,85.82 45.17,85.82 45.36,85.66C45.6,85.46 46.32,84.62 46.55,84.36C46.59,84.31 46.62,84.25 46.62,84.18L46.62,82.77C46.62,82.36 46.77,81.97 47.05,81.66L48.05,80.56C48.33,80.26 48.4,79.81 48.2,79.41C48.1,79.22 47.93,79.06 47.73,78.96Z" style="fill:#bdcf46;fill-rule:nonzero;"/><path d="M116.75,47.35L113.95,47.35C113.81,47.35 113.69,47.26 113.65,47.13L110.97,46.62C110.74,46.62 110.51,46.55 110.31,46.42L109.7,46.01C109.5,45.88 109.27,45.81 109.04,45.81C109.04,45.81 102.8,42.62 94.63,42.93C91.56,43.05 88.86,44.58 88.86,44.58C88.78,44.61 88.72,44.69 88.71,44.77L88.68,45.02C88.66,45.14 88.56,45.23 88.43,45.23L87.2,45.2C87.06,45.2 86.95,45.31 86.95,45.44L83.51,45.56C83.21,45.56 82.93,45.71 82.76,45.95L82.45,46.4C82.22,46.73 79.14,46.84 79.14,46.84C78.977,46.769 78.871,46.608 78.87,46.43L78.87,46.07C78.87,45.94 78.92,45.83 79.02,45.74L80.66,44.26C80.84,44.1 81.07,43.99 81.31,43.96L82.33,43.83C82.45,43.813 82.558,43.748 82.63,43.65L82.75,43.47C82.92,43.23 82.81,42.9 82.54,42.8L82.47,42.77C82.351,42.73 82.221,42.74 82.11,42.8L81.33,43.25C81.26,43.29 81.19,43.31 81.11,43.31L80.35,43.31C80.03,43.31 79.73,43.44 79.5,43.67L77.67,45.54C77.51,45.7 77.4,45.91 77.35,46.13L77.18,46.95L77.3,47.3L76.58,48.3L75.93,48.95L75.32,48.95L75.32,48.3L74.59,48.3L74.38,49.12C74.28,49.5 74.01,49.8 73.65,49.94L73.04,50.17C72.65,50.32 72.2,50.25 71.87,49.98L71.08,49.34L73.21,49.45L73.45,48.99C73.45,48.99 71.22,47.96 69.93,47.23C68.88,46.64 67.5,47.14 67.02,47.35C66.9,47.4 66.8,47.47 66.71,47.55L62.06,51.74C61.56,52.19 61.53,52.98 62.01,53.46L62.45,53.91L63.07,53.4C63.24,53.26 63.48,53.27 63.64,53.42L64.8,54.5L65.1,54.5L66.2,53.2C66.33,53.04 66.34,52.82 66.21,52.66L66.07,52.47C65.961,52.328 65.949,52.134 66.04,51.98L67.57,49.5C67.65,49.37 67.82,49.32 67.96,49.38L68.23,49.51C68.39,49.58 68.45,49.77 68.37,49.93L67.32,51.92C67.19,52.16 67.17,52.44 67.25,52.69L67.42,53.22C67.5,53.6 67.43,54 67.2,54.3L66.54,55.19C66.31,55.5 65.93,55.68 65.54,55.67L63.63,55.6C63.449,55.59 63.304,55.441 63.3,55.26L63.3,54.95C63.3,54.76 63.15,54.61 62.96,54.61C62.79,54.61 62.64,54.74 62.62,54.92L62.57,55.47C62.55,55.64 62.41,55.78 62.23,55.78L62.05,55.78C61.96,55.78 61.88,55.81 61.82,55.87L58.72,58.73L59.17,59.38L59.17,60.07C59.17,60.3 58.98,60.49 58.75,60.49L57.76,60.49C57.23,60.49 56.81,60.94 56.84,61.47L56.85,61.6C56.88,62.07 57.26,62.44 57.74,62.46L58.8,62.49C59.2,62.5 59.57,62.32 59.81,61.99L60.57,60.92C60.79,60.61 61.15,60.42 61.54,60.42L62.27,60.42C62.51,60.42 62.75,60.49 62.95,60.63L64.12,61.45C64.35,61.61 64.37,61.95 64.15,62.13L63.49,62.7C63.27,62.89 63,62.99 62.71,62.99L58.59,62.99C58.22,62.99 57.86,63.17 57.64,63.47L54.46,67.72C54.31,67.93 54.22,68.18 54.22,68.43L54.22,71.25C54.22,71.51 54.3,71.76 54.46,71.97L55.57,73.44C55.66,73.56 55.72,73.71 55.77,73.85C55.84,74.09 56.04,74.44 56.52,74.44L61.66,74.44C61.66,74.44 62.95,74.48 62.95,75.33C62.95,75.63 62.94,75.93 62.93,76.19C62.91,76.65 63.15,77.06 63.55,77.29C63.91,77.5 64.29,77.86 64.29,78.44L64.29,80C64.29,80.12 64.27,80.24 64.24,80.36C64.15,80.65 63.94,81.24 63.65,81.68C63.38,82.08 63.76,82.68 64.04,83.03C64.21,83.25 64.3,83.52 64.3,83.79L64.3,85.34C64.3,85.34 64.42,85.91 64.96,86.15C65.5,86.39 65.69,86.53 65.69,86.53L65.69,87.15C65.69,87.81 66.22,88.34 66.88,88.34L68.44,88.34C68.44,88.34 69.14,88.39 69.6,87.69C70.06,86.99 71.7,84.45 71.7,84.45C71.7,84.45 72,84.13 71.7,83.56C71.4,82.99 71.54,82.48 71.54,82.48L72.97,81.66C72.97,81.66 73.64,81.55 73.64,80.62L73.64,79.61C73.64,79.45 73.6,79.29 73.51,79.15L73.26,78.73C72.99,78.27 73.06,77.7 73.42,77.31L76.38,74.17C76.38,74.17 77.16,73.01 77.16,72.42L74.89,72.42C74.47,72.42 74.09,72.2 73.87,71.85L71.28,67.58C71.219,67.48 71.186,67.364 71.186,67.247C71.186,67.009 71.319,66.79 71.53,66.68C71.83,66.52 72.2,66.63 72.37,66.91L74.88,71L74.87,71.37C74.87,71.49 74.96,71.58 75.08,71.58C75.7,71.58 77.53,71.51 78.55,70.62C79.09,70.15 79.42,69.67 79.62,69.27C79.86,68.79 79.74,68.21 79.34,67.86L78.7,67.3L77.87,67.48L76.4,66.01C76.18,65.79 76.24,65.41 76.52,65.27C76.679,65.191 76.87,65.21 77.01,65.32L79.31,67.08C79.31,67.08 79.78,67.5 80.26,67.5L81.61,67.5C82.03,67.5 82.42,67.72 82.63,68.08L85.64,73.14C85.64,73.14 86.09,73.56 86.35,73.54C86.61,73.52 86.96,72.43 86.96,72.43C86.96,71.42 87.45,70.46 88.28,69.88L89.32,69.15C89.79,68.82 90.42,68.87 90.83,69.26L91.47,69.88L91.47,70.54C91.47,70.65 91.56,70.75 91.68,70.75L91.96,70.75L92.23,70.48L92.55,70.48L92.55,73.14C92.55,73.44 92.66,73.73 92.87,73.95L94.87,76.09L94.87,75.32C94.87,75.05 94.78,74.79 94.61,74.58L93.67,73.41C93.5,73.2 93.41,72.94 93.41,72.67L93.41,71.86C93.41,71.73 93.57,71.67 93.66,71.76L94.87,73L94.9,73.78C94.91,73.93 95.09,74 95.19,73.89L96.9,72.04C96.9,72.04 97.4,71.42 96.9,70.91C96.54,70.54 96.04,70.07 95.72,69.77C95.643,69.699 95.598,69.599 95.598,69.494C95.598,69.379 95.651,69.271 95.74,69.2L96.07,68.92L97.41,68.94C97.41,68.94 98.29,68.95 98.95,68.27C99.76,67.44 100.95,66.13 100.95,66.13C100.95,66.13 101.19,65.2 100.63,64.71C100.06,64.22 100.31,63.62 100.31,63.62L101.01,63.01L101.01,62.58L99.18,62.58C99.18,62.58 99.34,61.61 100.64,61.55C100.81,61.54 100.97,61.54 101.1,61.53C101.108,61.53 101.117,61.53 101.125,61.53C101.671,61.53 102.12,61.979 102.12,62.525C102.12,62.526 102.12,62.528 102.12,62.53L102.12,64.33L102.39,64.36C102.39,64.36 102.9,64.41 103.09,63.74C103.09,63.74 103.43,63.64 103.43,63.23L103.43,62.74L102.94,62.15L103.74,61.13C103.88,60.95 104.08,60.83 104.3,60.79L104.71,60.71C104.954,60.664 105.169,60.524 105.31,60.32L107.16,57.55C107.29,57.35 107.36,57.12 107.36,56.89L107.36,56.13C107.36,55.927 107.193,55.76 106.99,55.76L105.91,55.76C105.91,55.76 105.46,55.23 106.07,54.87C106.5,54.61 107.34,53.92 107.81,53.53C108.02,53.35 108.29,53.25 108.57,53.25L110.75,53.25C111,53.25 111.24,53.17 111.44,53.03L112.87,52.01C112.922,51.971 112.985,51.95 113.05,51.95C113.67,51.95 113.99,52.69 113.57,53.15L112.09,54.74C111.89,54.95 111.77,55.24 111.77,55.53L111.75,56.81C111.75,57.05 111.94,57.25 112.19,57.25L112.55,57.25L114.49,55.27C114.62,55.14 114.71,54.96 114.74,54.78L114.81,54.36C114.91,53.79 115.4,53.37 115.98,53.37L116.83,53.37C117.12,53.37 117.4,53.27 117.61,53.08L118.8,52.04C118.86,51.99 118.93,51.96 119.01,51.96L119.63,51.96C119.81,51.96 119.95,51.82 119.95,51.64L119.95,51.04C119.95,50.95 119.99,50.87 120.05,50.81L120.51,50.38C120.88,50.04 121.42,49.96 121.87,50.2L122.65,50.61C122.84,50.71 123.08,50.66 123.22,50.49L123.6,50.01C123.665,49.929 123.7,49.828 123.7,49.724C123.7,49.548 123.599,49.387 123.44,49.31L119.67,47.46C119.47,47.39 116.93,47.35 116.75,47.35ZM63.93,59.83L63.96,59.82C64.102,59.762 64.265,59.798 64.37,59.91L65.46,61.05L64.78,61.63L63.78,60.42C63.62,60.22 63.69,59.92 63.93,59.83ZM70.44,65.28L69.83,65.28C69.75,65.28 69.67,65.27 69.59,65.25C68.93,65.07 65.63,64.15 65.02,63.87C64.853,63.796 64.745,63.63 64.745,63.447C64.745,63.329 64.79,63.216 64.87,63.13L65.69,62.26C65.97,62.01 66.41,62.03 66.67,62.3L67.42,63.09L68.07,62.97L67.89,62.5C67.89,62.5 67.81,62.28 67.73,62.08C67.65,61.88 68.09,61.63 68.09,61.63C68.09,61.63 68.54,61.59 68.54,62.28C68.54,62.97 69.27,63.49 69.27,63.49L71.76,63.49C71.92,63.49 72.02,63.66 71.94,63.79L71.5,64.63C71.29,65.03 70.88,65.28 70.44,65.28ZM73.57,61.55L72.72,61.55L72.1,61.07C72.03,61.02 71.946,60.992 71.86,60.99L71.05,60.99C70.93,60.99 70.81,61.04 70.72,61.12L70.13,61.64L69.55,61.73C69.527,61.734 69.504,61.736 69.481,61.736C69.278,61.736 69.104,61.582 69.08,61.38L69,60.74C68.98,60.55 69.04,60.37 69.16,60.23L70.12,59.15L70.55,59.12L70.53,59.31C70.5,59.54 70.68,59.74 70.91,59.74L71.12,59.74C71.33,59.74 71.52,59.62 71.6,59.43L71.8,59L72.69,59.15L72.77,59.79C72.79,59.93 72.86,60.06 72.97,60.15L73.96,60.98L73.96,61.16C73.96,61.38 73.79,61.55 73.57,61.55ZM77.87,62.24L77.87,62.97L76.33,62.97L76.2,62.24C76.18,62.14 76.2,62.03 76.26,61.95L76.34,61.84C76.45,61.68 76.43,61.46 76.28,61.33L75.56,60.67L75.56,59.46L76.61,59.01L77.15,59.01C77.36,59.01 77.54,59.15 77.6,59.35L77.61,59.38C77.65,59.53 77.61,59.68 77.51,59.8C77.452,59.864 77.414,59.944 77.4,60.03L77.3,60.66L78.15,61.44L77.54,61.84L77.87,62.24Z" style="fill:#bdcf46;fill-rule:nonzero;"/><g transform="matrix(0.837832,0,0,0.837832,18.4671,14.6972)"><path d="M119.757,87.575C119.683,87.581 119.616,87.622 119.577,87.685C119.537,87.748 119.529,87.826 119.556,87.895C119.802,88.535 120.429,90.162 120.429,90.162C120.429,90.162 120.439,91.052 120.446,91.617C120.449,91.901 120.594,92.166 120.832,92.322C120.894,92.363 120.956,92.403 121.008,92.437C121.045,92.462 121.09,92.47 121.134,92.46C121.177,92.45 121.214,92.423 121.237,92.385C121.589,91.807 122.874,89.693 122.874,89.693C122.874,89.693 122.198,89.447 121.703,89.267C121.37,89.146 121.079,88.932 120.864,88.65C120.512,88.188 120.004,87.521 120.004,87.521C120.004,87.521 119.884,87.547 119.757,87.575Z" style="fill:#bdcf46;"/></g><g transform="matrix(0.837832,0,0,0.837832,18.4671,14.6972)"><path d="M119.525,92.088C119.377,91.973 119.166,91.986 119.034,92.119C118.415,92.741 116.723,94.441 115.948,95.22C115.858,95.31 115.818,95.439 115.842,95.564C115.865,95.689 115.949,95.795 116.066,95.846C116.306,95.952 116.592,96.079 116.831,96.184C117.125,96.314 117.47,96.231 117.673,95.98C118.458,95.008 120.32,92.705 120.32,92.705C120.32,92.705 119.838,92.33 119.525,92.088Z" style="fill:#bdcf46;"/></g><path d="M100.35,78.31L96.71,77.89C96.617,77.881 96.526,77.857 96.44,77.82L95.56,77.46C95.43,77.41 95.3,77.32 95.2,77.22L92.27,74.15C92.188,74.069 92.074,74.029 91.96,74.04C91.68,74.08 91.56,74.41 91.75,74.62L94.83,78.07C94.96,78.21 95.12,78.31 95.3,78.37L97.04,78.89C97.14,78.92 97.23,78.93 97.33,78.93L100.31,78.93L100.35,78.31ZM107.59,80.25L107.44,80.67C107.14,81.51 106.3,82.04 105.41,81.93C105.224,81.909 105.082,81.75 105.082,81.562C105.082,81.498 105.098,81.436 105.13,81.38L105.88,80L103.93,80.07C103.67,80.08 103.41,80.14 103.18,80.25L102.45,80.59C102.26,80.68 102.08,80.8 101.93,80.95L100.57,82.27C100.41,82.43 100.22,82.56 100.01,82.65L99.09,83.06C98.4,83.37 97.95,84.05 97.95,84.81L97.95,84.95C97.95,85.21 98,85.46 98.1,85.7L98.82,87.39C98.84,87.43 98.85,87.46 98.86,87.5C98.98,87.96 99.48,88.23 99.93,88.07L101.77,87.42C102.03,87.33 102.31,87.29 102.58,87.32L104.78,87.52C105.38,87.57 105.91,87.9 106.23,88.41L106.38,88.64C106.73,89.2 107.34,89.54 108.01,89.54L108.9,89.54C109.41,89.54 109.9,89.34 110.26,88.98L111.24,88C111.6,87.64 111.8,87.15 111.8,86.64L111.8,85.36C111.8,84.82 111.57,84.31 111.18,83.95L109.17,82.11C108.98,81.94 108.83,81.73 108.73,81.5L108.13,80.2C108,80 107.67,80.01 107.59,80.25Z" style="fill:#bdcf46;fill-rule:nonzero;"/><path d="M98.86,76.83L99.41,75.84C99.51,75.66 99.55,75.46 99.54,75.26L99.45,74.21C99.43,73.96 99.13,73.83 98.94,74L97.4,75.3C97.359,75.333 97.311,75.357 97.26,75.37L96.57,75.5C96.39,75.53 96.28,75.71 96.32,75.88L96.46,76.45C96.547,76.798 96.815,77.073 97.16,77.17L97.69,77.32C98.15,77.45 98.63,77.25 98.86,76.83ZM107.2,79.16C107.35,79.16 107.5,79.13 107.64,79.06L108.7,78.55C108.71,78.55 108.71,78.55 108.72,78.56L109.5,79.52C109.54,79.57 109.6,79.6 109.67,79.6L110.19,79.6C110.37,79.6 110.47,79.4 110.36,79.26L109.55,78.21L109.2,77.92L106.34,76.5L106.33,76.5L105.65,76.77L105.13,76.77C105.12,76.77 105.12,76.77 105.12,76.76L104.93,76.14C104.903,76.058 104.826,76.002 104.74,76L104.04,76C103.93,76 103.84,76.09 103.84,76.2L103.84,76.81L104.29,76.81L104.29,76.99C104.29,77.21 104.46,77.4 104.68,77.43L105.7,77.55C105.7,77.55 105.71,77.55 105.71,77.56L106.26,78.24C106.43,78.45 106.4,78.96 106.22,79.17L106.21,79.18L107.2,79.18L107.2,79.16ZM107.79,59.77L107.43,60.09C107.03,60.45 106.79,60.94 106.73,61.48C106.68,61.98 106.46,62.44 106.11,62.8C105.6,63.31 104.96,63.66 104.27,63.81L104.13,63.84L103.56,64.3C103.56,64.3 103.4,65.11 103.56,65.3C103.63,65.39 103.93,65.37 104.02,65.3C104.14,65.21 104.15,64.71 104.15,64.71L105.96,64.06C105.96,64.06 106.41,64.65 106.63,64.68C106.73,64.69 106.95,64.58 107.01,64.49C107.25,64.16 107.52,62.95 107.52,62.95C107.61,62.68 107.67,62.39 107.7,62.11L107.8,61.05L108.61,61L108.93,60.35L108.09,60.27L107.79,59.77ZM74.42,84.58C74.42,84.58 74.69,85.11 75.34,85.11C75.99,85.11 76.26,84.58 76.26,84.58L76.26,82.11C76.26,81.39 75.47,80.95 74.86,81.33C74.59,81.5 74.42,81.79 74.42,82.11L74.42,84.58ZM53.96,41.53L55.04,40.9L55.06,40.86C55.094,40.793 55.111,40.72 55.111,40.645C55.111,40.384 54.897,40.17 54.636,40.17C54.634,40.17 54.632,40.17 54.63,40.17L52.17,40.17L51.91,39.89C51.61,39.55 51.18,39.35 50.73,39.34L47.07,39.19C46.83,39.23 46.59,39.28 46.35,39.32L44.18,40.23C44,40.31 43.81,40.35 43.61,40.36L40.13,40.53C39.87,40.54 39.62,40.62 39.39,40.74L37.44,41.84C37.371,41.879 37.328,41.952 37.328,42.031C37.328,42.102 37.363,42.169 37.42,42.21C37.57,42.32 37.52,42.56 37.34,42.6L35.82,42.98C35.67,43.02 35.61,43.19 35.68,43.31L36.19,44.14C36.22,44.19 36.28,44.23 36.34,44.24L39.07,44.71C39.49,44.78 39.86,45.01 40.12,45.35L42,47.82L42.55,48.57C42.75,48.84 42.72,49.21 42.5,49.45L42.08,49.89C41.88,50.1 41.84,50.41 41.97,50.67L43.34,53.41C43.46,53.66 43.69,53.84 43.95,53.92C44.8,54.17 45.7,53.71 46,52.87L46.36,51.85C46.41,51.7 46.52,51.57 46.66,51.48L48.19,50.18C48.38,50.02 48.6,49.91 48.83,49.84L51.23,49.19C51.74,49.05 52.15,48.69 52.34,48.2L53.47,45.4C53.64,44.99 53.63,44.53 53.46,44.12L53.24,43.6C52.93,42.85 53.23,41.96 53.96,41.53ZM33.96,43.96L34.42,43.15C34.58,42.87 34.8,42.65 35.08,42.5L38.86,40.41L38.43,39.92L34.14,39.66C34.02,39.65 33.89,39.66 33.77,39.68L29.59,40.35C29.34,40.39 29.1,40.48 28.89,40.63C28.05,41.2 27.9,42.38 28.56,43.15L29.5,44.24C29.82,44.62 30.3,44.83 30.79,44.83L32.47,44.83C33.09,44.83 33.66,44.5 33.96,43.96ZM38.73,51.59L39.12,51.14C39.22,51.02 39.2,50.84 39.07,50.76L37.85,49.9L33.59,46.75C33.41,46.62 33.2,46.55 32.98,46.55L31.3,46.55C31.03,46.55 30.78,46.65 30.59,46.84L29.7,47.7C29.6,47.791 29.591,47.948 29.68,48.05L30.18,48.68C30.23,48.75 30.32,48.79 30.41,48.78L30.89,48.74C31.04,48.73 31.16,48.84 31.17,48.98L31.19,49.26C31.19,49.3 31.19,49.34 31.17,49.38L30.95,49.92C30.91,50.01 30.93,50.12 30.99,50.19L31.52,50.81C31.57,50.87 31.65,50.91 31.73,50.9L32.24,50.88C32.38,50.87 32.49,50.76 32.49,50.62L32.49,49.53C32.49,49.39 32.6,49.28 32.73,49.27L33.44,49.22C33.5,49.22 33.57,49.23 33.62,49.27L34.92,50.26C35.02,50.34 35.05,50.47 35,50.58L34.57,51.44C34.53,51.52 34.45,51.58 34.35,51.58L33.94,51.61C33.82,51.62 33.73,51.7 33.7,51.81C33.67,51.97 33.78,52.12 33.94,52.13L34.82,52.2C35,52.21 35.18,52.28 35.33,52.38L36.88,53.46C36.98,53.53 37.11,53.52 37.2,53.44L37.69,53.03C37.73,53 37.76,52.95 37.77,52.9L37.93,52.28C37.95,52.21 37.94,52.13 37.9,52.07L37.37,51.25L37.54,51.22C37.6,51.21 37.67,51.22 37.72,51.25L38.4,51.65C38.5,51.71 38.64,51.69 38.73,51.59ZM19.34,48.53L19.34,47.62L19.87,47.62L20.65,48.71C20.75,48.84 20.87,48.95 21.02,49.03L22.04,49.54C22.18,49.61 22.34,49.65 22.5,49.65L25.66,49.65L25.66,48.6L24.49,48.19L23.14,47.47C22.96,47.47 22.79,47.42 22.64,47.34L20.48,46.11C20.328,46.023 20.155,45.978 19.98,45.98L18.68,45.98C18.24,45.98 17.85,46.26 17.71,46.68L17.6,47.03C17.48,47.39 17.58,47.8 17.85,48.07L18.31,48.53L19.34,48.53ZM23.83,46.77L24.66,46.34C24.8,46.27 24.96,46.23 25.13,46.23L25.58,46.23C25.97,46.23 26.33,46.45 26.5,46.81L26.83,47.49L26.83,48.19L25.33,48.19L25.33,47.3L24.7,46.98L23.95,47L23.83,46.77ZM26.7,46.23L27.45,47.45L28.04,47.8L28.91,47.8L29.78,46.88L29.12,46.02L27.43,46.23L26.7,46.23ZM21.85,44.37L23.03,44.79C23.11,44.82 23.18,44.85 23.25,44.9L24.07,45.44C24.21,45.53 24.36,45.59 24.53,45.6L26.02,45.75L25.84,44.83L24.06,43.85C23.91,43.77 23.74,43.72 23.57,43.72L22.66,43.72L21.85,44.37ZM59.68,51.89L60.11,52.57C60.15,52.63 60.15,52.72 60.1,52.78L59.77,53.23C59.74,53.28 59.72,53.34 59.74,53.39L59.87,53.84C59.88,53.88 59.9,53.91 59.93,53.93L60.62,54.46C61.09,54.82 61.15,55.51 60.75,55.95L60.74,55.96C60.55,56.17 60.27,56.3 59.98,56.3L59.16,56.3C59.04,56.3 58.95,56.19 58.98,56.07L59.19,55.25C59.2,55.2 59.24,55.15 59.29,55.13L59.66,54.95C59.73,54.92 59.77,54.84 59.76,54.76L59.74,54.54C59.729,54.461 59.669,54.396 59.59,54.38L59.06,54.27C58.979,54.253 58.896,54.295 58.86,54.37L58.74,54.63C58.74,54.64 58.73,54.65 58.73,54.66L58.47,55.54C58.45,55.62 58.37,55.67 58.29,55.67L57.46,55.65C57.361,55.65 57.28,55.569 57.28,55.47L57.28,54.53C57.28,54.43 57.36,54.35 57.46,54.35L57.89,54.34C57.95,54.34 58,54.31 58.04,54.26L58.44,53.68C58.46,53.65 58.47,53.61 58.47,53.57L58.47,52.69C58.47,52.63 58.5,52.58 58.54,52.55L59.41,51.85C59.49,51.78 59.62,51.8 59.68,51.89Z" style="fill:#bdcf46;fill-rule:nonzero;"/><path d="M50.28,50.47L49.61,50.47L49.19,50.96L50.34,51.86C50.55,52.03 50.82,52.1 51.09,52.07L52.4,51.91L52.4,51.06L52.15,50.46L50.79,50.81L50.28,50.47ZM62.9,43.28L64.63,43.28C64.84,43.28 65.04,43.34 65.21,43.46L67,44.71L66.76,45.07L65.25,44.3L64.63,45.43L63.96,45.43L62.48,43.57L62.9,43.28ZM66.07,41.95L68.31,41.95L68.88,42.38L68.31,42.97L67.11,42.97C66.89,42.97 66.68,42.9 66.51,42.77L65.86,42.29L66.07,41.95ZM25.08,42.55L26.56,42L27.43,42.45L27.86,43.26L27.32,43.36L25.7,43.87L23.65,42.91L25.08,42.55ZM28.71,44.98L29.35,44.98L29.68,45.34L33.1,45.34L33.38,45.75L33.2,46.13L30.02,46.23L29.66,45.83L29.13,45.75L29.05,45.42L28.71,45.3L28.71,44.98ZM26.22,45.04L26.47,45.75L27.12,45.8L27.65,45.19L27.42,44.98L26.47,44.9L26.22,45.04ZM27.98,44.17L27.86,44.57L28.36,44.73L28.71,44.45L28.93,44.45L28.93,44.27L28.5,44.09L28.24,43.99L27.98,44.17ZM31.95,69.84L32.57,69.57L34.23,69.57L35.52,70.54C35.52,70.54 36.13,70.62 36.13,70.78C36.13,70.94 35.52,71.02 35.52,71.02L34.63,71.02L33.38,70.17L32.61,70.29L31.95,70.02C31.87,70 31.87,69.88 31.95,69.84ZM36.25,71.37C36.18,71.21 36.74,70.88 36.74,70.88C36.74,70.88 37.64,70.65 37.77,70.88C37.84,71.01 37.45,71.37 37.45,71.37C37.45,71.37 36.37,71.65 36.25,71.37ZM107.82,90.59L109.92,90.59L108.87,91.81L108.38,91.81L107.82,90.59Z" style="fill:#bdcf46;fill-rule:nonzero;"/></g></svg>