<?xml version="1.0" encoding="UTF-8" standalone="no"?><!DOCTYPE svg PUBLIC "-//W3C//DTD SVG 1.1//EN" "http://www.w3.org/Graphics/SVG/1.1/DTD/svg11.dtd"><svg width="128px" height="128px" version="1.1" xmlns="http://www.w3.org/2000/svg" xmlns:xlink="http://www.w3.org/1999/xlink" xml:space="preserve" xmlns:serif="http://www.serif.com/" style="fill-rule:evenodd;clip-rule:evenodd;stroke-linejoin:round;stroke-miterlimit:2;"><path d="M71.934,122.129L71.927,122.133C65.839,125.648 58.757,126.574 51.983,124.759C45.198,122.941 39.516,118.595 36.005,112.514C32.495,106.434 31.568,99.351 33.386,92.566L54.807,12.646C56.1,7.726 59.27,3.854 63.734,1.756C67.847,-0.187 72.824,-0.529 77.758,0.786C87.934,3.52 94.205,13.273 91.724,22.532L73.75,89.611C72.247,95.244 66.484,98.091 60.031,96.381C53.91,94.74 47.4,89.023 48.83,83.664L63.537,28.799L70.843,30.757L56.15,85.613C55.842,86.761 59.818,88.487 61.996,89.07C62.624,89.239 65.829,89.97 66.436,87.658L84.418,20.574C85.813,15.344 81.95,9.747 75.8,8.093C72.603,7.236 69.472,7.413 66.98,8.591C64.543,9.728 62.851,11.825 62.112,14.584L40.692,94.504C39.389,99.297 40.062,104.417 42.558,108.711C45.058,113.043 49.097,116.137 53.94,117.434C58.77,118.729 63.807,118.074 68.139,115.572C72.478,113.067 75.583,109.032 76.866,104.198L84.744,74.791L92.05,76.749L84.164,106.159C82.358,112.948 78.015,118.619 71.934,122.129Z" style="fill:#5b6073;fill-rule:nonzero;"/><g><g transform="matrix(-0.0890309,0.996029,-0.996029,-0.0890309,83.696,-16.2464)"><path d="M49.315,42.212C54.885,42.2 59.399,36.791 59.386,30.139C59.374,23.462 54.836,18.078 49.266,18.09C43.682,18.103 39.156,23.512 39.169,30.189C39.194,36.841 43.732,42.225 49.315,42.212Z" style="fill:#e5e5e5;fill-rule:nonzero;"/></g><g transform="matrix(-0.0890309,0.996029,-0.996029,-0.0890309,83.6964,-16.2459)"><path d="M49.3,37.196C52.553,37.189 55.19,34.03 55.182,30.144C55.175,26.244 52.524,23.099 49.27,23.107C46.01,23.114 43.366,26.273 43.373,30.173C43.388,34.059 46.038,37.203 49.299,37.196L49.3,37.196Z" style="fill:#2f2f2f;fill-rule:nonzero;"/></g></g><g><g transform="matrix(-0.0847023,0.996406,-0.996406,-0.0847023,123.962,-46.5079)"><path d="M85.47,42.212C91.041,42.2 95.555,36.791 95.542,30.139C95.53,23.462 90.992,18.078 85.421,18.09C79.838,18.103 75.312,23.512 75.325,30.189C75.35,36.841 79.888,42.225 85.471,42.212L85.47,42.212Z" style="fill:#e5e5e5;fill-rule:nonzero;"/></g><g transform="matrix(-0.0847023,0.996406,-0.996406,-0.0847023,123.963,-46.5074)"><path d="M85.455,37.196C88.709,37.189 91.345,34.03 91.338,30.144C91.331,26.244 88.68,23.099 85.426,23.107C82.166,23.114 79.522,26.273 79.529,30.173C79.543,34.059 82.194,37.203 85.455,37.196Z" style="fill:#2f2f2f;fill-rule:nonzero;"/></g></g></svg>