<?xml version="1.0" encoding="UTF-8" standalone="no"?>
<svg
   width="128"
   height="128"
   version="1.1"
   id="svg3912"
   sodipodi:docname="emoji_u1f234.svg"
   inkscape:version="1.2.2 (b0a8486541, 2022-12-01)"
   xmlns:inkscape="http://www.inkscape.org/namespaces/inkscape"
   xmlns:sodipodi="http://sodipodi.sourceforge.net/DTD/sodipodi-0.dtd"
   xmlns="http://www.w3.org/2000/svg"
   xmlns:svg="http://www.w3.org/2000/svg">
  <defs
     id="defs3916" />
  <sodipodi:namedview
     id="namedview3914"
     pagecolor="#ffffff"
     bordercolor="#000000"
     borderopacity="0.25"
     inkscape:showpageshadow="2"
     inkscape:pageopacity="0.0"
     inkscape:pagecheckerboard="0"
     inkscape:deskcolor="#d1d1d1"
     showgrid="false"
     inkscape:zoom="1.84375"
     inkscape:cx="63.457627"
     inkscape:cy="64.271186"
     inkscape:current-layer="svg3912" />
  <g
     transform="matrix(5.71429,0,0,7.05882,-18.857205,-24.23525)"
     id="g4"
     style="clip-rule:evenodd;fill:#db4437;fill-rule:evenodd;stroke-linejoin:round;stroke-miterlimit:2">
    <path
       d="M 25,6.267 C 25,5.016 23.745,4 22.2,4 H 6.8 C 5.255,4 4,5.016 4,6.267 V 18.733 C 4,19.984 5.255,21 6.8,21 h 15.4 c 1.545,0 2.8,-1.016 2.8,-2.267 z"
       style="fill:#ed6c30"
       id="path2" />
  </g>
  <g
     transform="translate(-2.273515,1.047149)"
     id="g12"
     style="clip-rule:evenodd;fill:#ffb091;fill-rule:evenodd;stroke-linejoin:round;stroke-miterlimit:2">
    <path
       d="M 30.915,7.958 C 25.554,8.085 15,8 12.066,18.857 c -0.581,2.15 -1.578,5.57 0.285,7.423 1.433,1.425 3.932,0.985 5.373,-0.162 1.534,-1.221 2.286,-3.205 3.245,-4.857 1.114,-1.917 2.599,-3.655 4.34,-5.034 1.627,-1.289 3.482,-2.052 5.444,-2.683 1.362,-0.438 3.297,-0.632 3.969,-1.979 C 36,9 32.576,7.869 30.915,7.958 Z"
       style="fill:#ffb091"
       id="path10" />
  </g>
  <path
     d="M89.21 67.91c.28 0 .56-.12.76-.31.2-.2.31-.48.31-.76v-9.69c0-.28-.11-.56-.31-.76-.2-.2-.48-.31-.76-.31H42.05c-.28 0-.56.12-.76.31-.2.2-.31.48-.31.76v9.69c0 .28.11.56.31.76.2.2.48.31.76.31h47.16zM99.36 73.56H31.9c-.28 0-.56.11-.76.32-.2.2-.31.48-.31.76v30.85c0 .28.11.56.31.76.2.2.48.31.76.31h67.46c.28 0 .56-.12.76-.31.2-.21.31-.48.31-.76V74.64c0-.28-.11-.57-.31-.76-.19-.21-.47-.32-.76-.32zM86.6 86.01v8.1l-.17.41-.41.17H45.24l-.41-.17-.17-.41v-8.1l.17-.41.41-.17h40.79l.41.17.16.41z"
     fill="#fff"
     id="path3908" />
  <path
     d="M114.24 49.73s-.36-.15-1.05-.46c-4.84-2.16-25.68-12.08-46.85-30.9l-.06-.03c-.06-.05-.14-.08-.21-.11a.95.95 0 0 0-.21-.09c-.03 0-.05-.02-.07-.02-.05-.01-.1.01-.16.01-.05 0-.1-.02-.16-.01-.02 0-.05.02-.07.02a.95.95 0 0 0-.21.09c-.07.03-.14.06-.21.11l-.06.03c-12.1 10.75-24.09 18.6-33.05 23.76-4.48 2.58-8.2 4.48-10.8 5.74-1.29.63-2.32 1.1-3 1.4-.69.31-1.05.46-1.05.46-.29.12-.51.36-.61.66-.1.3-.06.63.11.9l7.06 11.42c.28.45.84.63 1.33.42.06-.03 19.19-8 40.72-25.21 21.53 17.2 40.67 25.18 40.72 25.21.49.2 1.05.02 1.33-.42l7.06-11.42c.16-.27.21-.6.11-.9-.09-.3-.32-.53-.61-.66z"
     fill="#fff"
     id="path3910" />
</svg>
