<?xml version="1.0" encoding="UTF-8" standalone="no"?>
<svg
   width="128"
   height="128"
   version="1.1"
   id="svg3749"
   sodipodi:docname="emoji_u1f233.svg"
   inkscape:version="1.2.2 (b0a8486541, 2022-12-01)"
   xmlns:inkscape="http://www.inkscape.org/namespaces/inkscape"
   xmlns:sodipodi="http://sodipodi.sourceforge.net/DTD/sodipodi-0.dtd"
   xmlns="http://www.w3.org/2000/svg"
   xmlns:svg="http://www.w3.org/2000/svg">
  <defs
     id="defs3753" />
  <sodipodi:namedview
     id="namedview3751"
     pagecolor="#ffffff"
     bordercolor="#000000"
     borderopacity="0.25"
     inkscape:showpageshadow="2"
     inkscape:pageopacity="0.0"
     inkscape:pagecheckerboard="0"
     inkscape:deskcolor="#d1d1d1"
     showgrid="false"
     inkscape:zoom="1.84375"
     inkscape:cx="63.457627"
     inkscape:cy="64.271186"
     inkscape:current-layer="svg3749" />
  <g
     transform="matrix(5.71429,0,0,7.05882,-18.857205,-24.23525)"
     id="g4"
     style="clip-rule:evenodd;fill:#40c0e7;fill-rule:evenodd;stroke-linejoin:round;stroke-miterlimit:2">
    <path
       d="M 25,6.267 C 25,5.016 23.745,4 22.2,4 H 6.8 C 5.255,4 4,5.016 4,6.267 V 18.733 C 4,19.984 5.255,21 6.8,21 h 15.4 c 1.545,0 2.8,-1.016 2.8,-2.267 z"
       style="fill:#40c0e7"
       id="path2" />
  </g>
  <g
     transform="translate(-2.273515,1.047149)"
     id="g12"
     style="clip-rule:evenodd;fill:#94e0f1;fill-rule:evenodd;stroke-linejoin:round;stroke-miterlimit:2">
    <path
       d="M 30.915,7.958 C 25.554,8.085 15,8 12.066,18.857 c -0.581,2.15 -1.578,5.57 0.285,7.423 1.433,1.425 3.932,0.985 5.373,-0.162 1.534,-1.221 2.286,-3.205 3.245,-4.857 1.114,-1.917 2.599,-3.655 4.34,-5.034 1.627,-1.289 3.482,-2.052 5.444,-2.683 1.362,-0.438 3.297,-0.632 3.969,-1.979 C 36,9 32.576,7.869 30.915,7.958 Z"
       style="fill:#94e0f1"
       id="path10" />
  </g>
  <path
     d="M100.24 95.14H73.19v-7.21h16.84c.42 0 .82-.17 1.11-.46.29-.29.46-.7.46-1.12v-9.66c0-.42-.17-.82-.46-1.12-.29-.29-.7-.46-1.11-.46H37.98c-.42 0-.82.17-1.11.46-.29.29-.46.7-.46 1.12v9.66c0 .41.17.82.46 1.12.29.29.7.46 1.11.46h16.75v7.21H27.76c-.41 0-.82.17-1.11.46-.29.29-.46.7-.46 1.11v9.66c0 .42.17.82.46 1.11.29.29.7.46 1.11.46h72.48c.42 0 .82-.17 1.11-.46.29-.29.46-.7.46-1.11v-9.66c0-.41-.17-.82-.46-1.11-.29-.29-.69-.46-1.11-.46zM104.41 26.88H73.19v-8.21c0-.41-.17-.82-.46-1.11-.29-.29-.7-.46-1.12-.46H56.3c-.42 0-.82.17-1.11.46-.29.29-.46.7-.46 1.11v8.21H23.5c-.42 0-.82.17-1.11.46-.29.29-.46.7-.46 1.11V54.08c0 .41.17.82.46 1.11.29.29.7.46 1.11.46h12.18c.42 0 .82-.17 1.11-.46.29-.29.46-.7.46-1.11V40h53.4v14.07c0 .41.17.82.46 1.11.29.29.7.46 1.11.46h12.18c.42 0 .82-.17 1.12-.46.29-.29.46-.7.46-1.11V28.45a1.574 1.574 0 0 0-1.57-1.57z"
     fill="#fff"
     id="path3745" />
  <path
     d="M34.35 73.97c18.61-5.14 26.45-18.01 26.56-18.19.39-.63.27-1.45-.27-1.96l-7.55-7.11a1.578 1.578 0 0 0-2.45.37v.02c-.15.25-1.91 3.16-5.56 6.41-3.66 3.25-9.2 6.83-16.99 8.53-.5.11-.91.45-1.11.92-.2.47-.16 1.01.11 1.44l5.51 8.87c.37.61 1.08.89 1.75.7zM82.31 71.97c3.83.84 8.15.99 13.39.99.42 0 .82-.17 1.11-.46.29-.29.46-.7.46-1.11v-9.84a1.578 1.578 0 0 0-1.69-1.57s-.17.01-.5.02c-.33.02-.81.03-1.4.03-1.34 0-3.22-.07-5.08-.36-1.86-.29-3.69-.82-4.89-1.59-.73-.46-1.45-1.28-2.06-2.3-.91-1.52-1.57-3.46-1.97-4.98-.2-.76-.34-1.42-.43-1.89-.04-.24-.08-.42-.1-.54l-.02-.18c-.11-.79-.8-1.37-1.6-1.35l-10.93.25c-.42.01-.82.19-1.11.5-.29.31-.45.72-.43 1.14 0 .07.12 3 1.03 6.7.92 3.69 2.6 8.19 6.01 11.34 3.03 2.77 6.38 4.37 10.21 5.2z"
     fill="#fff"
     id="path3747" />
</svg>
