<?xml version="1.0" encoding="UTF-8" standalone="no"?><!DOCTYPE svg PUBLIC "-//W3C//DTD SVG 1.1//EN" "http://www.w3.org/Graphics/SVG/1.1/DTD/svg11.dtd"><svg width="128px" height="128px" version="1.1" xmlns="http://www.w3.org/2000/svg" xmlns:xlink="http://www.w3.org/1999/xlink" xml:space="preserve" xmlns:serif="http://www.serif.com/" style="fill-rule:evenodd;clip-rule:evenodd;stroke-linecap:round;stroke-linejoin:round;stroke-miterlimit:1.5;"><rect x="0.06" y="0" width="127.99" height="128" style="fill:none;"/><path d="M63.89,9.64C1.58,9.64 0.1,79.5 0.1,93.33C0.1,107.16 28.66,118.36 63.89,118.36C99.13,118.36 127.68,107.15 127.68,93.33C127.68,79.5 126.21,9.64 63.89,9.64Z" style="fill:#fcc21b;fill-rule:nonzero;"/><g transform="matrix(1,0,0,-1,0,172.158)"><path d="M63.89,79.09C49.76,79.09 41.71,87.23 41.37,87.57C40.814,88.171 40.505,88.96 40.505,89.779C40.505,91.564 41.974,93.033 43.759,93.033C44.612,93.033 45.432,92.698 46.04,92.1C46.29,91.85 52.62,85.59 63.89,85.59C75.16,85.59 81.49,91.84 81.76,92.11C83.011,93.372 85.077,93.39 86.35,92.15C86.976,91.541 87.329,90.703 87.329,89.83C87.329,88.986 86.999,88.174 86.41,87.57C86.07,87.22 78.02,79.09 63.89,79.09Z" style="fill:#2f2f2f;fill-rule:nonzero;"/></g><g transform="matrix(1,0,0,1,-1.32129,0)"><path d="M87.685,36.458C88.663,36.113 89.737,36.167 90.675,36.608C95.258,38.713 100.109,40.211 105.196,40.849C106.232,40.979 107.174,41.512 107.82,42.332C110.254,45.465 111.738,49.42 111.785,53.734C111.896,63.933 103.926,72.247 93.985,72.323L93.986,72.323C84.045,72.4 75.898,64.199 75.787,54.019C75.699,45.931 80.676,39.023 87.685,36.458Z" style="fill:#fff;fill-rule:nonzero;"/></g><g transform="matrix(0.83303,0,0,0.697879,14.3381,18.0449)"><path d="M93.976,71.799C84.5,71.883 76.734,62.787 76.628,51.496C76.523,40.163 84.12,30.92 93.596,30.836C103.051,30.751 110.838,39.846 110.944,51.18C111.049,62.492 103.452,71.714 93.976,71.799Z" style="fill:#2f2f2f;fill-rule:nonzero;"/></g><g transform="matrix(0.83303,0,0,0.697879,14.3381,18.0449)"><path d="M101.85,51.088C98.135,53.785 92.513,52.379 89.298,47.954C86.07,43.512 86.468,37.729 90.184,35.031C93.891,32.34 99.521,33.74 102.748,38.181C105.97,42.615 105.565,48.391 101.85,51.088ZM88.607,67.306C86.447,68.465 83.577,67.316 82.195,64.744C80.808,62.163 81.436,59.134 83.595,57.974C85.75,56.819 88.625,57.964 90.012,60.546C91.396,63.123 90.766,66.148 88.607,67.306Z" style="fill:#fff;fill-rule:nonzero;"/></g><g transform="matrix(1,0,0,1,1.32129,0)"><path d="M36.969,36.519C37.893,36.081 38.951,36.017 39.921,36.342C46.98,38.811 52.125,45.64 52.213,53.734C52.324,63.933 44.354,72.247 34.413,72.323C24.473,72.4 16.326,64.199 16.215,54.019C16.165,49.362 17.793,45.095 20.523,41.824C20.979,41.295 21.616,40.954 22.309,40.867C22.307,40.85 22.307,40.85 22.308,40.849C27.45,40.204 32.351,38.68 36.969,36.519Z" style="fill:#fff;fill-rule:nonzero;"/></g><g transform="matrix(0.83303,0,0,0.697879,7.034,18.0449)"><path d="M34.404,71.799C24.928,71.883 17.162,62.787 17.056,51.496C16.951,40.163 24.548,30.92 34.024,30.836C43.479,30.751 51.266,39.846 51.372,51.18C51.477,62.492 43.88,71.714 34.404,71.799Z" style="fill:#2f2f2f;fill-rule:nonzero;"/></g><g transform="matrix(0.83303,0,0,0.697879,7.034,18.0449)"><path d="M42.278,51.088C38.563,53.785 32.941,52.379 29.725,47.954C26.498,43.512 26.897,37.729 30.612,35.031C34.319,32.34 39.949,33.74 43.176,38.181C46.398,42.615 45.993,48.391 42.278,51.088ZM29.035,67.306C26.875,68.465 24.005,67.316 22.623,64.744C21.236,62.163 21.864,59.134 24.023,57.974C26.177,56.819 29.053,57.964 30.44,60.546C31.824,63.123 31.194,66.148 29.035,67.306Z" style="fill:#fff;fill-rule:nonzero;"/></g><g transform="matrix(1,0,0,1,-6.97501,0.788166)"><path d="M87.345,23.821C94.42,29.311 102.555,33.478 111.534,34.604" style="fill:none;stroke:#bf3f0c;stroke-width:5px;"/></g><g transform="matrix(-1,0,0,1,134.479,0.788166)"><path d="M87.345,23.821C94.42,29.311 102.555,33.478 111.534,34.604" style="fill:none;stroke:#bf3f0c;stroke-width:5px;"/></g><g transform="matrix(1,0,0,1,-0.34067,1.49934)"><path d="M33.133,63.141C31.694,63.325 30.443,62.543 29.107,62.162C27.014,61.565 22.489,61.406 20.911,63.022C19.448,64.52 20.743,66.857 21.623,67.589C22.52,68.334 24.078,68.646 24.835,69.665C25.535,70.608 26.018,71.722 27.036,72.396C29.626,74.111 32.121,72.181 34.6,72.161C37.203,72.14 39.308,73.686 41.913,72.957C43.99,72.375 44.147,69.599 45.586,68.322C46.411,67.59 50.483,67.377 50.51,65.009C50.55,61.569 44.783,62.204 42.367,62.379C41.416,62.448 40.526,62.138 39.594,62.015C38.043,61.81 36.222,61.89 34.757,62.486L33.133,63.141Z" style="fill:#e1fafe;"/></g><g transform="matrix(1,0,0,1,57.0847,0.686237)"><path d="M38.553,63.314C34.817,63.083 34.757,65.48 29.211,63.314C27.184,62.522 22.489,61.406 20.911,63.022C19.448,64.52 20.643,66.391 21.523,67.123C22.42,67.868 24.478,68.313 25.235,69.332C25.934,70.275 25.651,71.455 27.036,72.396C29.606,74.142 33.3,72.048 35.78,72.028C38.383,72.007 39.308,73.686 41.913,72.957C43.99,72.375 44.381,69.537 45.82,68.26C46.645,67.528 51.042,66.65 50.51,64.343C49.718,60.903 45.667,63.139 43.251,63.314C42.301,63.383 39.492,63.372 38.553,63.314Z" style="fill:#e1fafe;"/></g></svg>