<?xml version="1.0" encoding="UTF-8" standalone="no"?><!DOCTYPE svg PUBLIC "-//W3C//DTD SVG 1.1//EN" "http://www.w3.org/Graphics/SVG/1.1/DTD/svg11.dtd"><svg width="128px" height="128px" version="1.1" xmlns="http://www.w3.org/2000/svg" xmlns:xlink="http://www.w3.org/1999/xlink" xml:space="preserve" xmlns:serif="http://www.serif.com/" style="fill-rule:evenodd;clip-rule:evenodd;stroke-linecap:round;stroke-miterlimit:10;"><path d="M63.79,8.64C1.48,8.64 0,78.5 0,92.33C0,106.16 28.56,117.36 63.79,117.36C99.03,117.36 127.58,106.15 127.58,92.33C127.58,78.5 126.11,8.64 63.79,8.64Z" style="fill:#fcc21b;fill-rule:nonzero;"/><path d="M42.21,66.47C37.72,66.51 34.04,62.2 33.99,56.85C33.94,51.48 37.54,47.1 42.03,47.06C46.51,47.02 50.2,51.33 50.25,56.7C50.3,62.06 46.7,66.43 42.21,66.47Z" style="fill:#2f2f2f;"/><g transform="matrix(1.4517,0,0,1.4517,-38.9776,-25.6433)"><path d="M86.32,66.47C90.8,66.46 94.43,62.11 94.42,56.76C94.41,51.39 90.76,47.06 86.28,47.07C81.79,47.08 78.15,51.43 78.16,56.8C78.18,62.15 81.83,66.48 86.32,66.47Z" style="fill:#fff;"/></g><g transform="matrix(0.844256,0,0,0.844256,17.2415,8.84161)"><path d="M86.32,66.47C90.8,66.46 94.43,62.11 94.42,56.76C94.41,51.39 90.76,47.06 86.28,47.07C81.79,47.08 78.15,51.43 78.16,56.8C78.18,62.15 81.83,66.48 86.32,66.47Z" style="fill:#2f2f2f;"/></g><g transform="matrix(0.577597,0,0,0.268122,27.0338,63.9817)"><path d="M36.19,81.17C49.92,97.84 78.08,97.84 91.81,81.17" style="fill:none;fill-rule:nonzero;stroke:#2f2f2f;stroke-width:13.32px;"/></g><g transform="matrix(-0.0374117,-0.588119,-0.588119,0.0374117,95.8931,85.3518)"><path d="M78.75,14.12C77.76,22.23 75.2,38.32 71.89,49.98C73.15,34.92 76.26,20.05 76.96,17.24C77.25,16.11 77.86,15.03 78.75,14.12Z" style="fill:#424242;fill-rule:nonzero;"/></g><g transform="matrix(-0.0374117,-0.588119,-0.588119,0.0374117,95.8931,85.3518)"><path d="M119.5,69C113,66.58 106.12,67.12 103.05,70.67C99.07,75.26 99.55,77.26 92.74,83.39C84.23,85.9 85.21,75.85 85.21,75.85C85.36,71.81 87.86,57.06 88.34,54.42C89.17,50.23 92.12,30.27 93.01,24.34C94.04,17.36 92.65,12.38 88.01,10.92C83.51,9.51 80.51,11.51 78.76,14.12C77.77,22.23 71.7,52.63 71.61,53.95C71.296,53.905 77.605,20.086 78.305,17.276C78.595,16.146 78.443,16.672 78.76,14.11C78.98,12.33 79.12,10.94 79.18,10.07C79.57,3.86 75.33,-0.25 69.61,0.39C64.44,0.98 62.2,6.92 61.08,13.38C60.54,16.5 57.73,36.79 54.3,51.27C51.53,55.5 48.05,51.9 48.05,51.9C39.62,34.77 37.61,24.74 35.87,19.76C33.47,12.94 28.87,9.99 25.4,11.16C21.19,12.57 19.69,16.55 20.32,20.11C20.49,21.13 21.14,23.73 22.06,27.17C22.668,29.445 22.78,29.577 23.51,32.117C24.4,35.237 31.64,56.18 32.21,57.3C32.22,57.29 32.25,57.28 32.26,57.27C31.73,57.66 24.07,34.6 22.06,27.17C20.38,25.4 18.15,24.94 15.17,25.79C11.07,26.93 10.54,34.1 11.46,37.51C12.55,41.53 15.15,53.11 18.26,64.11C18.71,76.67 18.9,76.63 20.4,87.05C23.25,106.82 27.45,115.8 35.72,120.26C49.27,127.5 68.61,131.93 83.75,121.41C87.2,119.02 90.46,114.94 93.49,112C93.96,111.55 101.03,97.75 102.04,96.5C105.56,92.11 108.5,89.38 110.88,87.53C113.25,85.67 115.21,83.63 116.37,82.63C123.75,76.25 124.33,70.8 119.5,69Z" style="fill:#fcc21b;fill-rule:nonzero;"/><path d="M18.456,23.053L17.812,20.528C17.385,18.141 17.728,15.584 18.903,13.421C20.02,11.366 21.877,9.646 24.586,8.735C27.02,7.912 29.879,8.379 32.528,10.376C34.753,12.054 36.876,14.888 38.292,18.908C38.293,18.909 38.294,18.911 38.294,18.913C39.408,22.097 40.632,27.354 43.587,35.224C45.183,39.474 47.288,44.495 50.165,50.374C50.398,50.566 50.762,50.787 51.179,50.757C51.445,50.737 51.664,50.541 51.908,50.213C52.97,45.689 53.966,40.629 54.857,35.727C55.586,31.719 56.226,27.813 56.801,24.393C57.763,18.671 58.493,14.293 58.74,12.975C58.74,12.975 58.74,12.975 58.74,12.974C59.471,9.085 60.602,5.385 62.394,2.744C64.107,0.219 66.379,-1.439 69.367,-1.738C69.369,-1.738 69.37,-1.738 69.372,-1.738C73.023,-2.095 76.163,-0.892 78.283,1.39C79.972,3.208 81.05,5.722 81.133,8.724C81.4,8.602 81.676,8.492 81.959,8.394C83.852,7.742 86.117,7.616 88.784,8.451C88.785,8.452 88.785,8.452 88.786,8.452C91.708,9.371 93.695,11.302 94.835,14.066C95.953,16.774 96.205,20.412 95.569,24.718C95.569,24.72 95.569,24.722 95.568,24.724C94.991,28.565 93.551,38.289 92.379,45.807C91.737,49.926 91.173,53.39 90.875,54.898C90.585,56.489 89.586,62.326 88.794,67.628C88.273,71.12 87.836,74.372 87.777,75.945C87.775,75.997 87.772,76.048 87.767,76.099C87.767,76.099 87.377,78.935 88.674,80.572C89.195,81.23 90.084,81.4 91.477,81.075C93.213,79.485 94.414,78.201 95.332,77.07C97.714,74.137 98.348,72.191 101.118,68.999C102.879,66.965 105.592,65.635 108.841,65.165C112.308,64.664 116.413,65.132 120.388,66.615C120.388,66.615 120.389,66.615 120.389,66.615C122.302,67.328 123.611,68.476 124.375,69.867C125.165,71.308 125.406,73.059 124.906,75.06C124.239,77.731 122.077,81.061 118.035,84.556C118.034,84.556 118.033,84.557 118.032,84.558C117.273,85.212 116.169,86.317 114.83,87.522C114.098,88.18 113.299,88.867 112.451,89.532C112.448,89.535 112.445,89.537 112.442,89.54C111.147,90.546 109.677,91.83 108.027,93.53C106.792,94.803 105.459,96.305 104.026,98.092C104.024,98.095 104.022,98.097 104.02,98.1C103.225,99.084 98.602,108.088 96.617,111.7C95.93,112.951 95.378,113.716 95.25,113.839C93.157,115.869 90.941,118.46 88.628,120.656C87.507,121.721 86.362,122.697 85.2,123.502C77.306,128.987 68.351,130.697 59.559,130.082C50.563,129.452 41.747,126.374 34.516,122.513C34.514,122.511 34.511,122.509 34.508,122.508C29.826,119.985 26.284,116.187 23.551,110.131C21.11,104.723 19.307,97.409 17.864,87.416C17.864,87.415 17.864,87.415 17.864,87.415C17.039,81.685 16.608,79.082 16.311,75.858C16.066,73.198 15.912,70.116 15.709,64.509C14.727,61.014 13.794,57.469 12.95,54.129C11.157,47.037 9.754,40.881 9.025,38.17C9.024,38.169 9.024,38.168 9.024,38.167C8.412,35.797 8.377,31.906 9.456,28.831C10.382,26.189 12.085,24.151 14.533,23.499C15.969,23.107 17.275,22.964 18.456,23.053ZM71.17,42.267C70.58,45.207 70.06,47.859 69.687,49.851C69.377,51.499 69.166,52.711 69.094,53.293C68.787,55.77 71.052,56.442 71.251,56.471C71.952,56.571 72.662,56.374 73.212,55.929C73.763,55.484 74.102,54.829 74.151,54.123C74.214,53.21 77.213,38.235 79.33,26.558C80.184,21.849 80.896,17.665 81.243,15.098C81.857,14.311 82.642,13.632 83.646,13.286C84.642,12.942 85.832,12.949 87.235,13.388C88.975,13.936 89.957,15.292 90.412,17.157C90.868,19.029 90.839,21.333 90.451,23.961C89.875,27.801 88.438,37.507 87.273,45.013C86.645,49.058 86.098,52.458 85.81,53.919C85.807,53.932 85.805,53.945 85.802,53.959C85.514,55.546 84.503,61.481 83.704,66.871C83.151,70.599 82.704,74.074 82.643,75.755L82.653,75.601C82.653,75.601 82.263,80.748 84.653,83.759C86.233,85.75 88.868,87.206 93.465,85.848C93.832,85.74 94.17,85.55 94.454,85.294C96.691,83.279 98.183,81.681 99.306,80.295C101.647,77.408 102.257,75.486 104.98,72.343C104.981,72.343 104.981,72.342 104.982,72.341C106.276,70.843 108.512,70.18 111.044,70.081C113.415,69.989 116.045,70.432 118.611,71.385L118.611,71.385C119.206,71.607 119.675,71.884 119.912,72.317C120.295,73.014 120.049,73.907 119.546,74.963C118.723,76.693 117.107,78.628 114.708,80.702C113.931,81.372 112.798,82.502 111.426,83.737C110.774,84.323 110.064,84.935 109.309,85.527C107.862,86.653 106.217,88.086 104.374,89.985C103.041,91.358 101.601,92.978 100.06,94.9C99.765,95.266 98.986,96.57 98.02,98.33C96.126,101.782 93.318,107.154 91.989,109.55C91.814,109.866 91.62,110.199 91.52,110.367C89.486,112.365 87.35,114.849 85.123,116.964C84.198,117.842 83.259,118.654 82.301,119.318C82.3,119.318 82.299,119.319 82.298,119.32C75.411,124.104 67.584,125.539 59.916,125C51.655,124.419 43.568,121.559 36.929,118.01C33.178,115.985 30.403,112.883 28.214,108.028C25.925,102.948 24.287,96.068 22.936,86.685C22.13,81.084 21.705,78.54 21.415,75.389C21.172,72.747 21.024,69.678 20.822,64.018C20.814,63.813 20.783,63.61 20.727,63.413C19.722,59.867 18.773,56.259 17.907,52.869C16.087,45.747 14.639,39.571 13.896,36.853C13.508,35.474 13.411,33.341 13.806,31.415C13.979,30.571 14.233,29.762 14.643,29.107C14.936,28.638 15.287,28.231 15.807,28.081C15.812,28.079 15.817,28.078 15.822,28.076C16.821,27.78 17.7,27.647 18.484,27.76C18.97,27.83 19.409,27.996 19.805,28.259L21.177,32.782C21.622,34.289 23.577,39.923 25.56,45.502C26.086,46.984 26.615,48.461 27.119,49.858C27.814,51.919 28.434,53.753 28.949,55.159C29.481,56.607 29.911,57.64 30.158,58.097C30.194,58.162 30.23,58.224 30.267,58.284L30.269,58.288C30.585,58.909 31.18,59.342 31.869,59.451C32.435,59.541 33.008,59.403 33.468,59.077L33.55,59.024L33.547,59.019C33.585,58.99 33.622,58.959 33.658,58.926C33.718,58.882 33.769,58.841 33.8,58.81C34.565,58.044 34.647,56.841 34.015,55.983C33.466,54.559 31.686,49.302 29.913,44.001C28.071,38.495 26.253,32.937 25.844,31.451L24.451,26.531L22.828,19.692C22.827,19.684 22.825,19.675 22.824,19.667C22.598,18.381 22.754,17.014 23.383,15.864C23.937,14.852 24.875,14.032 26.212,13.585C26.214,13.585 26.216,13.584 26.217,13.584C27.499,13.153 28.942,13.865 30.283,15.214C31.526,16.464 32.626,18.277 33.447,20.61C34.566,23.817 35.797,29.11 38.77,37.032C40.449,41.506 42.678,46.808 45.743,53.035C45.861,53.275 46.016,53.495 46.201,53.687C46.201,53.687 48.644,56.098 51.555,55.884C53.106,55.77 54.896,55.051 56.45,52.678C56.613,52.428 56.732,52.152 56.801,51.862C58.193,45.963 59.511,39.112 60.563,32.824C62.101,23.623 63.115,15.648 63.42,13.786C63.935,10.547 64.705,7.431 66.128,5.202C67.037,3.778 68.203,2.73 69.848,2.518C72.064,2.239 74.018,2.843 75.346,4.195C76.668,5.541 77.379,7.545 77.264,9.943L77.077,12.031C76.914,12.242 76.759,12.459 76.611,12.679C76.385,13.017 76.241,13.403 76.192,13.807C75.898,16.218 75.146,20.622 74.244,25.64C73.274,31.039 72.133,37.132 71.17,42.267Z" style="fill:#424242;"/></g><g transform="matrix(-0.0374117,-0.588119,-0.588119,0.0374117,95.8931,85.3518)"><path d="M24.9,32.84C25.79,35.96 28.63,42.22 30.47,53.36C27.44,45.92 24.08,34.61 22.07,27.18C23.25,28.42 24.17,30.3 24.9,32.84Z" style="fill:#424242;fill-rule:nonzero;"/></g><g transform="matrix(-0.0374117,-0.588119,-0.588119,0.0374117,95.8931,85.3518)"><path d="M21.82,29.91L31,60.12C31,60.12 33.19,61.13 34.34,59C34.02,57.65 24.04,29.33 24.04,29.33C24.04,29.33 21.25,24.07 21.82,29.91ZM77.43,15.33C76.4,17.63 69.33,55.83 69.33,55.83C69.33,55.83 70.29,57.67 72.72,56.6C73.21,54.44 79.1,15.69 79.1,15.69C79.1,15.69 79.14,12.76 77.43,15.33Z" style="fill:#424242;fill-rule:nonzero;"/></g><g transform="matrix(-0.0374117,-0.588119,-0.588119,0.0374117,95.8931,85.3518)"><rect x="0.03" y="0" width="127.94" height="128" style="fill:none;fill-rule:nonzero;"/></g></svg>