<?xml version="1.0" encoding="UTF-8" standalone="no"?><!DOCTYPE svg PUBLIC "-//W3C//DTD SVG 1.1//EN" "http://www.w3.org/Graphics/SVG/1.1/DTD/svg11.dtd"><svg width="128px" height="128px" version="1.1" xmlns="http://www.w3.org/2000/svg" xmlns:xlink="http://www.w3.org/1999/xlink" xml:space="preserve" xmlns:serif="http://www.serif.com/" style="fill-rule:evenodd;clip-rule:evenodd;stroke-linecap:round;stroke-linejoin:round;stroke-miterlimit:1.5;"><path d="M63.8,9.47C1.28,9.47 -0.2,79.55 -0.2,93.42C-0.2,107.3 28.45,118.53 63.8,118.53C99.15,118.53 127.79,107.3 127.79,93.42C127.79,79.55 126.31,9.47 63.8,9.47Z" style="fill:#fcc21b;fill-rule:nonzero;"/><g transform="matrix(1,0,0,1,-0.204753,0)"><path d="M42.21,66.47C37.72,66.51 34.04,62.2 33.99,56.85C33.94,51.48 37.54,47.1 42.03,47.06C46.51,47.02 50.2,51.33 50.25,56.7C50.3,62.06 46.7,66.43 42.21,66.47ZM86.32,66.47C90.8,66.46 94.43,62.11 94.42,56.76C94.41,51.39 90.76,47.06 86.28,47.07C81.79,47.08 78.15,51.43 78.16,56.8C78.18,62.15 81.83,66.48 86.32,66.47Z" style="fill:#2f2f2f;fill-rule:nonzero;"/></g><g transform="matrix(0.711934,0.104684,0.033633,0.982609,15.4603,-8.38722)"><path d="M91.81,81.17L36.19,95.797" style="fill:none;stroke:#2f2f2f;stroke-width:6.44px;"/></g></svg>