<?xml version="1.0" encoding="UTF-8" standalone="no"?><!DOCTYPE svg PUBLIC "-//W3C//DTD SVG 1.1//EN" "http://www.w3.org/Graphics/SVG/1.1/DTD/svg11.dtd"><svg width="128px" height="128px" version="1.1" xmlns="http://www.w3.org/2000/svg" xmlns:xlink="http://www.w3.org/1999/xlink" xml:space="preserve" xmlns:serif="http://www.serif.com/" style="fill-rule:evenodd;clip-rule:evenodd;stroke-linecap:round;stroke-miterlimit:10;"><path d="M63.79,8.64C1.48,8.64 0,78.5 0,92.33C0,106.16 28.56,117.36 63.79,117.36C99.03,117.36 127.58,106.15 127.58,92.33C127.58,78.5 126.11,8.64 63.79,8.64Z" style="fill:#fcc21b;fill-rule:nonzero;"/><path d="M42.21,66.47C37.72,66.51 34.04,62.2 33.99,56.85C33.94,51.48 37.54,47.1 42.03,47.06C46.51,47.02 50.2,51.33 50.25,56.7C50.3,62.06 46.7,66.43 42.21,66.47Z" style="fill:#2f2f2f;"/><g transform="matrix(1.4517,0,0,1.4517,-36.804,-25.6433)"><path d="M86.32,66.47C90.8,66.46 94.43,62.11 94.42,56.76C94.41,51.39 90.76,47.06 86.28,47.07C81.79,47.08 78.15,51.43 78.16,56.8C78.18,62.15 81.83,66.48 86.32,66.47Z" style="fill:#fff;"/></g><g transform="matrix(0.844256,0,0,0.844256,19.4151,8.84161)"><path d="M86.32,66.47C90.8,66.46 94.43,62.11 94.42,56.76C94.41,51.39 90.76,47.06 86.28,47.07C81.79,47.08 78.15,51.43 78.16,56.8C78.18,62.15 81.83,66.48 86.32,66.47Z" style="fill:#2f2f2f;"/></g><g transform="matrix(0.577597,0,0,0.268122,27.0338,63.9817)"><path d="M36.19,81.17C49.92,97.84 78.08,97.84 91.81,81.17" style="fill:none;fill-rule:nonzero;stroke:#2f2f2f;stroke-width:13.32px;"/></g><g transform="matrix(-0.0374117,-0.588119,-0.588119,0.0374117,95.8931,85.3518)"><path d="M78.75,14.12C77.76,22.23 75.2,38.32 71.89,49.98C73.15,34.92 76.26,20.05 76.96,17.24C77.25,16.11 77.86,15.03 78.75,14.12Z" style="fill:#424242;fill-rule:nonzero;"/></g><g transform="matrix(-0.0374117,-0.588119,-0.588119,0.0374117,95.8931,85.3518)"><path d="M119.5,69C113,66.58 106.12,67.12 103.05,70.67C99.07,75.26 99.55,77.26 92.74,83.39C84.23,85.9 85.21,75.85 85.21,75.85C85.36,71.81 87.86,57.06 88.34,54.42C89.17,50.23 92.12,30.27 93.01,24.34C94.04,17.36 92.65,12.38 88.01,10.92C83.51,9.51 80.51,11.51 78.76,14.12C77.77,22.23 71.7,52.63 71.61,53.95C71.296,53.905 77.605,20.086 78.305,17.276C78.595,16.146 78.443,16.672 78.76,14.11C78.98,12.33 79.12,10.94 79.18,10.07C79.57,3.86 75.33,-0.25 69.61,0.39C64.44,0.98 62.2,6.92 61.08,13.38C60.54,16.5 57.73,36.79 54.3,51.27C51.53,55.5 48.05,51.9 48.05,51.9C39.62,34.77 37.61,24.74 35.87,19.76C33.47,12.94 28.87,9.99 25.4,11.16C21.19,12.57 19.69,16.55 20.32,20.11C20.49,21.13 21.14,23.73 22.06,27.17C22.668,29.445 22.78,29.577 23.51,32.117C24.4,35.237 31.64,56.18 32.21,57.3C32.22,57.29 32.25,57.28 32.26,57.27C31.73,57.66 24.07,34.6 22.06,27.17C20.38,25.4 18.15,24.94 15.17,25.79C11.07,26.93 10.54,34.1 11.46,37.51C12.55,41.53 15.15,53.11 18.26,64.11C18.71,76.67 18.9,76.63 20.4,87.05C23.25,106.82 27.45,115.8 35.72,120.26C49.27,127.5 68.61,131.93 83.75,121.41C87.2,119.02 90.46,114.94 93.49,112C93.96,111.55 101.03,97.75 102.04,96.5C105.56,92.11 108.5,89.38 110.88,87.53C113.25,85.67 115.21,83.63 116.37,82.63C123.75,76.25 124.33,70.8 119.5,69Z" style="fill:#fcc21b;fill-rule:nonzero;stroke:#2f2f2f;stroke-width:8.48px;stroke-linecap:butt;stroke-linejoin:round;stroke-miterlimit:2;"/></g><g transform="matrix(-0.0374117,-0.588119,-0.588119,0.0374117,95.8931,85.3518)"><path d="M24.9,32.84C25.79,35.96 28.63,42.22 30.47,53.36C27.44,45.92 24.08,34.61 22.07,27.18C23.25,28.42 24.17,30.3 24.9,32.84Z" style="fill:#424242;fill-rule:nonzero;"/></g><g transform="matrix(-0.0374117,-0.588119,-0.588119,0.0374117,95.8931,85.3518)"><path d="M21.82,29.91L31,60.12C31,60.12 33.19,61.13 34.34,59C34.02,57.65 24.04,29.33 24.04,29.33C24.04,29.33 21.25,24.07 21.82,29.91ZM77.43,15.33C76.4,17.63 69.33,55.83 69.33,55.83C69.33,55.83 70.29,57.67 72.72,56.6C73.21,54.44 79.1,15.69 79.1,15.69C79.1,15.69 79.14,12.76 77.43,15.33Z" style="fill:#424242;fill-rule:nonzero;"/></g><g transform="matrix(-0.0374117,-0.588119,-0.588119,0.0374117,95.8931,85.3518)"><rect x="0.03" y="0" width="127.94" height="128" style="fill:none;"/></g></svg>