<?xml version="1.0" encoding="UTF-8" standalone="no"?><!DOCTYPE svg PUBLIC "-//W3C//DTD SVG 1.1//EN" "http://www.w3.org/Graphics/SVG/1.1/DTD/svg11.dtd"><svg width="128px" height="128px" version="1.1" xmlns="http://www.w3.org/2000/svg" xmlns:xlink="http://www.w3.org/1999/xlink" xml:space="preserve" xmlns:serif="http://www.serif.com/" style="fill-rule:evenodd;clip-rule:evenodd;stroke-linecap:round;stroke-linejoin:round;stroke-miterlimit:1.5;"><g transform="matrix(1.01972,1.01972,-1.01972,1.01972,59.4112,-61.9357)"><path d="M64,12L64,107" style="fill:none;stroke:#8d6b63;stroke-width:13.87px;"/></g><g transform="matrix(2.03944,2.03944,-2.03944,2.03944,12.504,-145.553)"><circle cx="64" cy="18" r="2" style="fill:#3e2723;"/></g><g transform="matrix(2.03944,2.03944,-2.03944,2.03944,12.504,-145.553)"><circle cx="64" cy="18" r="2" style="fill-opacity:0.3;"/></g><g transform="matrix(2.03944,2.03944,-2.03944,2.03944,-3.81154,-129.237)"><circle cx="64" cy="18" r="2" style="fill:#3e2723;"/></g><g transform="matrix(2.03944,2.03944,-2.03944,2.03944,-3.81154,-129.237)"><circle cx="64" cy="18" r="2" style="fill-opacity:0.3;"/></g><g transform="matrix(2.03944,2.03944,-2.03944,2.03944,-20.1271,-112.922)"><circle cx="64" cy="18" r="2" style="fill:#3e2723;"/></g><g transform="matrix(2.03944,2.03944,-2.03944,2.03944,-20.1271,-112.922)"><circle cx="64" cy="18" r="2" style="fill-opacity:0.3;"/></g><g transform="matrix(2.03944,2.03944,-2.03944,2.03944,-36.4427,-96.6063)"><circle cx="64" cy="18" r="2" style="fill:#3e2723;"/></g><g transform="matrix(2.03944,2.03944,-2.03944,2.03944,-36.4427,-96.6063)"><circle cx="64" cy="18" r="2" style="fill-opacity:0.3;"/></g><g transform="matrix(2.03944,2.03944,-2.03944,2.03944,-69.0738,-63.9752)"><circle cx="64" cy="18" r="2" style="fill:#3e2723;"/></g><g transform="matrix(2.03944,2.03944,-2.03944,2.03944,-69.0738,-63.9752)"><circle cx="64" cy="18" r="2" style="fill-opacity:0.3;"/></g><g transform="matrix(0.883883,0.883883,-2.71926,2.71926,211.546,-196.683)"><rect x="56" y="82" width="16" height="3" style="fill:#ffca28;"/></g></svg>