<?xml version="1.0" encoding="UTF-8" standalone="no"?><!DOCTYPE svg PUBLIC "-//W3C//DTD SVG 1.1//EN" "http://www.w3.org/Graphics/SVG/1.1/DTD/svg11.dtd"><svg width="128px" height="128px" version="1.1" xmlns="http://www.w3.org/2000/svg" xmlns:xlink="http://www.w3.org/1999/xlink" xml:space="preserve" xmlns:serif="http://www.serif.com/" style="fill-rule:evenodd;clip-rule:evenodd;stroke-linejoin:round;stroke-miterlimit:2;"><g transform="matrix(0.999654,-0.0263144,0.0263144,0.999654,4.00971,-25.6548)"><path d="M27.855,29.284C24.425,29.695 20.521,28.529 17.186,27.914C15.872,27.671 14.101,26.883 12.799,27.424C12.005,27.754 11.523,28.662 12.27,29.312C13.195,30.115 16.571,31.141 17.107,31.418C19.367,32.585 21.695,35.783 24.156,36.647" style="fill:#f17c04;"/></g><g transform="matrix(0.999654,-0.0263144,0.0263144,0.999654,4.00971,-25.6548)"><path d="M24.162,37.88C23.354,38.186 19.571,38.967 18.521,39.149C17.096,39.396 11.932,40.848 11.898,41.579C11.871,42.16 14.014,42.659 14.812,42.651C16.447,42.634 23.801,41.972 25.427,41.272" style="fill:#f17c04;"/></g><g transform="matrix(0.999654,-0.0263144,0.0263144,0.999654,4.00971,-25.6548)"><path d="M47.822,68.536C48.627,63.738 49.99,58.066 49.935,51.278C49.901,47.019 47.386,37.614 44.935,33.616C42.811,30.152 38.598,28.175 34.189,27.86C31.807,27.69 29.566,27.891 27.633,29.457C25.681,31.038 24.343,34.067 24.167,36.487C23.705,42.84 29.083,43.403 32.518,45.773C37.179,48.99 38.257,57.754 36.316,60.84C33.455,65.387 24.516,74.7 21.214,84.341C19.845,88.339 18.876,92.347 19.968,96.597C20.966,100.485 21.861,105.98 23.63,109.525C32.324,126.95 50.247,130.175 55.644,130.914C58.41,131.293 62.909,130.2 65.591,129.566C71.652,128.134 78.275,125.261 83.047,121.224C85.909,118.804 90.085,117.087 89.682,113.263C88.699,103.936 77.859,96.267 69.799,91.34C65.235,88.55 60.974,85.408 56.244,82.866C51.148,80.128 47.702,81.275 47.5,74.505C47.459,73.146 47.492,70.501 47.822,68.536Z" style="fill:#e0e0e0;"/></g><g transform="matrix(1,0,0,1,5.64369,-0.87775)"><path d="M75.51,67.715C78.119,69.217 80.766,71.451 83.359,72.979C84.699,73.769 94.871,81.274 97.405,82.8C99.273,83.924 106.084,89.306 105.684,90.322C105.162,91.648 100.479,90.223 97.168,90.158C93.402,90.084 89.929,91.583 86.528,93.287C84.555,94.275 81.939,96.24 80.765,97.123" style="fill:#e0e0e0;"/></g><g transform="matrix(0.781347,-0.0205678,0.0205678,0.781347,10.7893,-17.9093)"><circle cx="31.777" cy="31.942" r="2.442" style="fill:#212121;"/></g><g transform="matrix(0.90605,0,0,1,10.4609,-0.87775)"><path d="M36.528,124.995C37.697,125.107 38.85,124.82 39.821,125.616C40.162,125.895 40.566,126.368 40.353,126.785C40.252,126.981 40.468,126.858 40.672,126.948C40.858,127.029 41.076,127.043 41.277,127.054C41.629,127.073 41.973,126.995 42.312,126.906C42.864,126.76 50.661,123.502 50.453,123.16C50.405,123.081 50.337,123.014 50.264,122.957C49.942,122.707 35.592,124.415 35.138,124.52" style="fill:#f79329;"/></g><g transform="matrix(1,0,0,1,5.64369,-0.87775)"><path d="M57.568,122.889C59.361,122.696 60.965,122.56 62.476,122.491C63.073,122.464 63.791,122.469 64.241,122.932C64.53,123.229 64.67,122.459 64.944,122.15C65.491,121.534 65.878,120.802 66.162,120.034C66.413,119.357 66.581,118.714 66.605,117.991C66.619,117.543 66.616,116.96 66.323,116.588C66.192,116.422 65.989,116.294 65.794,116.214C65.645,116.153 65.482,116.119 65.322,116.099C64.898,116.045 64.56,116.21 64.189,116.395C63.728,116.625 63.28,116.875 62.853,117.165C62.29,117.546 61.792,118.002 61.269,118.433C61.008,118.649 60.721,118.831 60.455,119.04C60.124,119.301 59.812,119.587 59.488,119.857C58.869,120.371 58.277,120.917 57.597,121.353" style="fill:#f79329;"/></g><g transform="matrix(0.90605,0,0,1,5.34746,0)"><path d="M40.611,121.686C40.878,121.85 41.093,122.025 41.086,122.368C41.078,122.776 40.477,122.943 40.315,123.044C40.273,123.07 53.032,123.583 51.56,121.103" style="fill:#f79329;"/></g><g transform="matrix(1,0,0,1,5.64369,-0.87775)"><path d="M54.18,103.41C53.677,105.655 54.48,108.212 54.202,110.485C53.897,112.988 53.194,115.71 52.017,117.946C51.186,119.525 51.34,120.466 50.686,121.303C50.297,121.801 46.748,122.238 45.61,122.387C44.67,122.509 38.261,123.488 35.734,124.027C34.808,124.225 34.394,124.581 34.298,124.835C34.163,125.193 35.227,125.491 38.332,124.921C41.178,124.398 42.278,124.186 45.131,123.91C46.075,123.819 49.047,123.248 49.472,123.259C49.566,123.262 48.868,123.531 48.694,123.605C48.159,123.831 47.474,124.043 46.937,124.264C45.168,124.994 44.63,125.573 42.819,126.192C42.298,126.37 40.774,126.572 41.547,127.32C42.15,127.903 43.526,127.18 44.276,126.972C46.003,126.495 52.352,125.25 55.247,123.963C56.332,123.481 57.238,122.876 56.946,122.164C55.947,119.723 56.675,117.826 56.651,115.966C56.625,113.936 57.696,111.814 58.083,109.86C58.501,107.752 59.156,105.803 59.591,103.695" style="fill:#f17c04;"/></g><g transform="matrix(1,0,0,1,5.64369,-0.87775)"><path d="M61.331,103.588C61.846,105.166 61.706,106.669 61.719,108.314C61.732,109.823 61.803,111.298 61.744,112.805C61.7,113.952 62.113,115.535 61.448,116.517C60.795,117.48 58.21,119.878 57.375,120.866C56.368,122.059 56.49,122.612 56.644,122.706C57.588,123.287 58.402,122.469 59.109,121.892C59.648,121.453 60.186,121.005 60.769,120.622C61.566,120.1 62.262,119.428 62.972,118.787C63.581,118.238 64.967,116.748 65.095,116.641C65.154,116.592 65.329,117.828 64.986,119.249C64.801,120.021 64.567,121.268 64.313,122.028C63.523,124.385 66.188,123.306 66.609,122.696C67.498,121.409 68.587,119.115 68.929,115.54C69.03,114.492 66.794,111.344 66.502,110.817C65.955,109.83 65.615,108.848 65.473,107.77C65.301,106.465 64.772,104.093 64.442,102.825" style="fill:#f17c04;"/></g><g transform="matrix(0.904126,-0.065135,0.0590155,0.997876,-2.18549,3.92149)"><path d="M57.526,120.186C56.361,120.124 54.555,120.257 53.394,120.138C51.468,119.941 44.124,119.648 43.161,119.682C39.355,119.815 40.944,120.576 41.134,120.692C41.83,121.115 52.978,121.147 54.113,121.336C55.399,121.551 56.011,121.284 57.312,121.305" style="fill:#f17c04;"/></g><path d="M68.212,114.46C67.576,115.035 66.991,115.642 66.312,116.171C65.432,116.855 64.483,117.441 63.627,118.16C63.245,118.481 62.354,119.046 62.136,119.507C62.059,119.67 61.963,119.882 62.007,120.067C62.065,120.318 62.34,120.479 62.581,120.509C63.042,120.566 63.98,120.074 64.347,119.819C65.063,119.319 65.636,118.661 66.26,118.057C67.06,117.284 67.894,116.544 68.702,115.779" style="fill:#f17c04;"/></svg>