<?xml version="1.0" encoding="UTF-8" standalone="no"?><!DOCTYPE svg PUBLIC "-//W3C//DTD SVG 1.1//EN" "http://www.w3.org/Graphics/SVG/1.1/DTD/svg11.dtd"><svg width="128px" height="128px" version="1.1" xmlns="http://www.w3.org/2000/svg" xmlns:xlink="http://www.w3.org/1999/xlink" xml:space="preserve" xmlns:serif="http://www.serif.com/" style="fill-rule:evenodd;clip-rule:evenodd;stroke-linejoin:round;stroke-miterlimit:2;"><g transform="matrix(-1,-3.99574e-23,-3.99574e-23,1,136.111,-0.00590815)"><path d="M40,57.69C38.54,57.69 38.57,56.09 38.57,56.09C38.57,56.09 38.46,30 38.2,28.59C37.82,26.6 36.54,22.84 31.51,23.08C29.42,23.18 25.39,23.99 24.94,30.95C24.84,32.45 25.12,72.97 25.23,75.24C25.23,75.24 26.07,93.2 28.53,101.97C29.21,104.41 30.04,107.08 31.45,109.73C32.85,112.37 34.73,115.04 37.19,117.35C39.62,119.68 42.62,121.59 45.86,122.97C49.1,124.34 52.57,125.15 56.01,125.56C56.87,125.65 57.73,125.74 58.59,125.78L61.02,125.94C62.72,126.03 64.4,126.03 66.06,125.97C69.38,125.87 72.64,125.48 75.76,124.89C78.88,124.28 81.85,123.42 84.58,122.33C87.31,121.25 89.78,119.91 91.89,118.44C94.02,116.99 95.75,115.36 97.11,113.8C98.51,112.27 99.42,110.7 100.14,109.43C100.82,108.13 101.25,107.08 101.48,106.34C101.72,105.61 101.85,105.22 101.85,105.22C102.38,104.01 102.88,102.85 103.34,101.79C104.63,98.85 106.06,95.53 107.51,92.1C108.13,90.65 108.4,89.99 108.4,89.99L108.39,90.01C113.68,77.49 118.98,64.44 118.98,64.44C120,62.23 118.5,59.71 115.96,59.38C108.65,58.43 103.02,61.76 99.99,68.09L93.8,82.62C93.22,84.36 90.38,84.31 90.13,82.5C89.36,76.81 89.32,63.1 89.32,63.1C89,57.28 88.31,23.32 88.16,21.15C87.86,16.8 85.96,12.92 82.18,12.47C78.32,12.01 75.24,14.01 74.79,18.92C74.67,20.25 74.86,55.13 74.86,55.13C74.88,57.16 72.26,57.54 72.11,55.45C72.11,55.45 71.6,12.36 71.61,10.37C71.65,5.88 68.57,2 64.58,2C60.69,2 57.75,5.24 57.67,9.86C57.65,11.33 57.82,41.88 57.76,54.26C57.76,55.09 57.52,55.98 56.38,55.98C56.37,55.98 55.13,56.07 55.13,54.48C55.13,51.14 54.72,18.17 54.67,16.36C54.56,12.21 52.66,8.52 48.4,8.47C44.51,8.42 41.04,11.45 41.24,16.07L41.45,56.31C41.45,56.3 41.38,57.69 40,57.69Z" style="fill:#4857ac;fill-rule:nonzero;"/></g><g id="Ebene1" transform="matrix(0.344781,0,0,0.351044,54.4691,59.7765)"><path d="M63.57,25C44.91,24.83 14.64,32.42 0.91,71.67C0.91,71.67 -0.73,77.73 1.49,80.34C3.99,83.26 7.79,82.12 7.79,82.12C7.79,82.12 26.87,108 63.54,107.75C100.22,107.5 116.52,83.92 116.52,83.92C116.52,83.92 120.38,86.67 123.71,85C126.41,83.65 127.62,81.12 127.66,76.67C127.77,65.43 107.49,25.39 63.57,25Z" style="fill:#eee;fill-rule:nonzero;"/><path d="M115.68,68.45C115.68,84.68 91.95,97.82 62.6,97.82C33.31,97.82 9.52,84.68 9.52,68.45C9.52,52.22 33.31,39.08 62.6,39.08C91.95,39.08 115.68,52.22 115.68,68.45" style="fill:#fff;fill-rule:nonzero;"/><path d="M121.56,64C110.91,42.17 89.9,29.16 68.32,27.38C59.05,26.64 50.24,27.73 42.17,30.48C27.37,35.56 15.09,46.25 7.08,61.48C4.84,65.71 2.04,70.58 1.84,75.52C1.75,77.81 2.5,79.74 4.87,80.25C8.63,81.07 10.66,77.79 13.05,75.5C14.52,74.08 16.16,72.05 17.9,71C19.09,70.28 21.91,69.79 23.18,70.54C26.84,72.75 27.65,78.85 29.17,82.56C37.93,103.87 68.65,106.31 84.13,91.13C88,87.36 91.86,81.17 93.17,75.85C93.79,73.33 93.1,64.67 96.95,64.06C99.54,63.67 102.35,66.51 104.22,67.92C108.62,71.28 115.18,83.74 121.44,83.25C123.12,83.13 125.24,80.54 125.59,79.06C126.75,74.17 122.59,66.12 121.56,64Z" style="fill:#2f2f2f;fill-rule:nonzero;"/><path d="M57.34,61.27C54.9,67.9 44.7,70.61 39.96,65.16C36.24,60.9 37.62,55.12 41.55,51.61C48.65,45.27 60.5,52.7 57.34,61.27" style="fill:#fff;fill-rule:nonzero;"/></g></svg>