<?xml version="1.0" encoding="UTF-8" standalone="no"?>
<svg
   width="128px"
   height="128px"
   version="1.1"
   xml:space="preserve"
   style="fill-rule:evenodd;clip-rule:evenodd;stroke-linejoin:round;stroke-miterlimit:2;"
   id="svg35"
   sodipodi:docname="hand with index finger and thumb crossed.svg"
   inkscape:version="1.1 (c68e22c387, 2021-05-23)"
   xmlns:inkscape="http://www.inkscape.org/namespaces/inkscape"
   xmlns:sodipodi="http://sodipodi.sourceforge.net/DTD/sodipodi-0.dtd"
   xmlns="http://www.w3.org/2000/svg"
   xmlns:svg="http://www.w3.org/2000/svg"><sodipodi:namedview
     id="namedview37"
     pagecolor="#ffffff"
     bordercolor="#666666"
     borderopacity="1.0"
     inkscape:pageshadow="2"
     inkscape:pageopacity="0.0"
     inkscape:pagecheckerboard="0"
     showgrid="false"
     inkscape:zoom="4"
     inkscape:cx="118.25"
     inkscape:cy="64.125"
     inkscape:window-width="1920"
     inkscape:window-height="1057"
     inkscape:window-x="-8"
     inkscape:window-y="-8"
     inkscape:window-maximized="1"
     inkscape:current-layer="g10" /><g
     transform="matrix(1.31332,0,0,1.31332,-13.155,-18.3935)"
     id="g4"><path
       d="M35.891,55.501C36.818,53.995 37.285,52.197 37.742,50.504C39.031,45.717 39.422,40.314 38.655,35.403C37.96,30.959 35.334,25.903 38.016,21.702C38.691,20.644 39.598,19.672 40.695,19.051C44.415,16.945 48.843,19.801 50.337,23.349C52.136,27.621 52.816,32.233 53.014,36.828C53.136,39.655 53.397,42.417 52.678,45.188C50.725,52.721 43.858,59.62 36.805,62.655"
       style="fill:url(#_Linear1);"
       id="path2" /></g><g
     transform="matrix(1.31332,0,0,1.31332,-13.155,-18.3935)"
     id="g10"><path
       d="m 38.987,51.7 0.35,-0.435 c 1.015,-1.268 2.01,-2.55 2.949,-3.86 0.947,-1.321 1.817,-2.676 2.591,-4.077 1.083,-1.963 2.025,-3.669 2.904,-5.209 0.706,-1.235 1.355,-2.364 1.984,-3.433 1.166,-1.98 2.036096,-3.857952 3.073096,-5.798952 1,-1.87 1.992,-3.879 3.091,-6.317 0.015,-0.031 0.031,-0.062 0.049,-0.092 1.14,-1.834 2.15265,-3.335 3.38865,-4.387 0.969,-0.825 2.092,-1.389 3.554,-1.634 2.52,-0.42 5.339508,0.231651 7.039508,1.625651 1.766,1.448 3.20111,4.008031 2.52011,6.886031 -0.93,3.924 -3.02911,7.942285 -5.00111,11.325285 -2.914,4.997 -11.171983,18.687616 -7.550199,13.633806 -1.462,2.177 -5.905055,5.462179 -7.677055,8.543179 -1.179,2.05 -2.25,4.051 -2.972,5.668 l -10e-4,0.001 c 0.162,2.222 1.345,3.692 2.982,4.795 2.58,1.738 6.223,2.618 9.182,3.859 5.039,2.118 10.969,3.849 15.125,7.288 0.119,0.099 0.237,0.198 0.348,0.304 1.013,0.964 1.834,2.068 2.536,3.278 C 71.323899,96.295418 42.621214,86.789395 38.987,51.7 Z M 78.821,84.103 C 77.993,83.1 76.996,82.305 75.953,81.53 75.839,81.446 75.728,81.358 75.615,81.271 71.46,78.046 65.763,76.27 60.849,74.208 c -3.045,-1.28 -6.785,-2.216 -9.441,-4.007 -2.075,-1.4 -3.525,-3.297 -3.66,-6.165 -0.006,-0.117 0.016,-0.234 0.063,-0.341 0.736,-1.688 1.862,-3.812 3.109,-5.989 1.785,-3.117 3.816,-6.346 5.29,-8.549 3.201,-4.784 6.845,-9.359 9.735,-14.331 1.89,-3.251 3.456,-6.673 4.344,-10.442 0.514,-2.175 -0.175,-3.905 -1.509,-4.999 -1.375,-1.127 -3.391,-1.591 -5.428,-1.251 -1.145,0.19 -2.025,0.628 -2.784,1.273 -1.117,0.949 -1.982,2.317 -3.009,3.967 -1.956,4.293 -3.567,7.278 -5.504,10.487 -0.399,0.66 -0.805,1.332 -1.246,2.019 -0.602,0.939 -1.254,1.91 -1.964,2.957 -0.986,1.456 -2.093,3.04 -3.338,4.877 -0.908,1.342 -1.927,2.613 -2.983,3.876 -1.035,1.238 -2.115,2.451 -3.175,3.685 -0.121,0.141 -0.242,0.283 -0.362,0.425 10.396643,44.415958 35.163565,46.224682 39.834,32.403 z"
       style="fill:#7a4c32"
       id="path8"
       sodipodi:nodetypes="ccccccccccccccccccccccccccccccccccccccccccccccc" /><path
       d="m 48.508,64 c 1.781,-4.068 5.862,-10.701 8.348,-14.41 5.352,-7.986 11.934,-15.397 14.209,-25.023 1.189,-5.032 -3.268,-7.984 -7.844,-7.221 -3.086,0.514 -4.478,2.618 -6.365,5.653 -3.648,8.062 -6.112,11.466 -11.664,20.522 -3.979,6.49 -10.365,11.77 -13.34,18.822 -4.332,10.271 -1.966,21.536 4.901,30.066 3.263,4.053 8.446,7.736 12.798,10.549 4.206,2.719 9.859,5.277 14.932,5.289 9.285,0.023 18.269942,-8.733769 17.010942,-18.308769 C 80.111942,79.429231 69.452,76.989 61.146,73.501 55.991,71.336 48.803,70.212 48.508,64 Z"
       style="fill:#9b643c;fill-opacity:1"
       id="path6"
       sodipodi:nodetypes="ccccccccccccc" /></g><g
     transform="matrix(1.31332,0,0,1.28975,-13.155,-16.6655)"
     id="g14"><path
       d="M59.216,46.184C56.982,49.193 56.751,49.91 54.643,53.01C53.352,54.908 52.27,56.535 50.751,58.91C49.486,60.888 48.491,63.117 48.012,65.434C47.638,67.241 47.505,69.209 48.348,70.93C50.475,75.273 57.027,76.223 59.398,73.548C60.945,71.804 61.602,68.223 62.606,66.155C64.047,63.186 65.571,60.265 66.907,57.244C67.774,55.284 69.142,53.079 69.348,50.926C69.709,47.158 62.835,41.31 59.216,46.184Z"
       style="fill:#9b643c;"
       id="path12" /></g><g
     transform="matrix(1.3092,-0.103939,0.103939,1.3092,-7.58553,-0.0474744)"
     id="g18"><path
       d="M60.737,46.601C58.503,49.609 58.272,50.327 56.163,53.427C54.873,55.325 53.79,56.952 52.272,59.327C51.007,61.305 50.035,63.24 49.556,65.556C49.182,67.364 47.505,69.209 48.348,70.93C50.475,75.273 58.011,74.033 60.382,71.358C61.929,69.613 62.768,67.492 63.772,65.425C65.214,62.455 66.737,59.534 68.074,56.514C68.941,54.554 70.317,52.32 70.523,50.168C70.884,46.399 64.356,41.726 60.737,46.601Z"
       style="fill:#9b643c;"
       id="path16" /></g><g
     transform="matrix(1.32954,-0.212447,0.207993,1.30167,-2.81373,18.8317)"
     id="g22"><path
       d="M61.348,46.532C59.036,49.481 58.882,50.258 56.774,53.358C55.483,55.256 54.401,56.883 52.882,59.258C51.617,61.236 50.622,63.465 50.143,65.781C49.77,67.589 47.505,69.209 48.348,70.93C50.475,75.273 57.138,79.953 59.509,77.278C61.056,75.534 62.967,70.106 63.971,68.038C65.413,65.069 66.936,62.148 68.273,59.127C69.14,57.167 70.302,54.932 70.713,52.809C71.482,48.838 65.295,41.494 61.348,46.532Z"
       style="fill:#9b643c;"
       id="path20" /></g><g
     transform="matrix(1.31332,0,0,1.31332,-13.155,-18.3935)"
     id="g26"><path
       d="M68.435,51.785C67.15,56.538 64.637,60.634 62.643,65.096C62.151,66.196 59.626,71.49 59.614,72.135C59.607,72.521 59.989,72.123 60.433,71.405C61.149,70.245 63.646,65.653 64.258,64.437C65.776,61.422 67.537,57.812 69.366,54.939C70.433,53.264 72.68,53.692 74.698,54.537C77.678,55.785 78.523,58.643 77.704,61.626C76.363,66.507 73.65,70.354 72.014,75.009C71.743,75.78 70.933,77.702 71.113,77.811C71.29,77.918 71.699,77.541 72.317,76.495C72.973,75.385 73.578,74.261 74.129,73.097C74.878,71.516 75.589,69.908 76.26,68.292C76.774,67.057 77.439,65.856 78.106,64.678C80.823,59.883 86.211,65.349 86.211,65.349C86.211,65.349 84.034,62.419 79.9,61.233C78.755,60.905 78.959,59.129 78.866,58.045C78.769,56.914 78.399,55.772 77.597,54.939C76.612,53.919 75.065,53.254 73.695,53.002C72.648,52.81 71.504,52.929 70.638,52.214C69.501,51.275 69.514,49.748 68.89,48.522C67.873,46.52 65.676,45.247 63.508,44.858C62.227,44.627 60.806,44.782 59.746,45.44C56.496,47.455 55.571,50.256 53.508,53.849C52.462,55.672 50.841,58.046 49.828,59.891C48.774,61.81 47.697,63.145 47.568,63.617C46.856,66.238 47.879,66.251 47.883,66.254C48.433,66.61 51.343,59.521 52.019,58.633C54.037,55.981 55.365,52.788 57.222,50.01C57.823,49.111 58.416,48.094 59.217,47.358C61.19,45.546 63.739,45.811 66.011,47.027C66.775,47.436 67.661,48.272 68.12,49.035C68.694,49.988 68.576,50.711 68.435,51.785Z"
       style="fill:#7a4c32;"
       id="path24" /></g><defs
     id="defs33"><linearGradient
       id="_Linear1"
       x1="0"
       y1="0"
       x2="1"
       y2="0"
       gradientUnits="userSpaceOnUse"
       gradientTransform="matrix(1.08511,32.0531,-82.2542,2.78459,42.2219,31.9469)"><stop
         offset="0"
         style="stop-color:#7a4c32;stop-opacity:1"
         id="stop28" /><stop
         offset="1"
         style="stop-color:#7a4c32;stop-opacity:1"
         id="stop30" /></linearGradient></defs></svg>
