<?xml version="1.0" encoding="UTF-8" standalone="no"?><!DOCTYPE svg PUBLIC "-//W3C//DTD SVG 1.1//EN" "http://www.w3.org/Graphics/SVG/1.1/DTD/svg11.dtd"><svg width="128px" height="128px" version="1.1" xmlns="http://www.w3.org/2000/svg" xmlns:xlink="http://www.w3.org/1999/xlink" xml:space="preserve" xmlns:serif="http://www.serif.com/" style="fill-rule:evenodd;clip-rule:evenodd;stroke-linejoin:round;stroke-miterlimit:2;"><g id="Ebene1" transform="matrix(0.9984,0.0565416,-0.0565416,0.9984,2.97998,-8.49899)"><g transform="matrix(1.07581,-7.1371e-18,7.1371e-18,1.07581,14.4213,4.74205)"><path d="M94.5,80.646C97.24,80.49 100.71,80.869 103.059,81.199C103.729,81.289 104.405,81.086 104.916,80.643C105.427,80.2 105.722,79.559 105.728,78.883C105.767,74.569 105.831,66.258 105.863,62.143C105.875,60.624 105.148,59.194 103.915,58.307C101.06,56.229 95.691,52.059 91.669,47.498" style="fill:#70534a;"/></g><g transform="matrix(1.07342,-0.0716813,0.0716813,1.07342,-7.27445,0.261604)"><path d="M83.725,38.661C81.608,39.588 79.434,40.356 77.309,41.255C76.185,41.731 75.108,42.319 73.995,42.822C72.328,43.575 70.398,44.254 68.061,47.606C67.071,49.025 68.153,50.513 69.525,50.928C70.499,51.222 71.615,51.098 72.583,50.837C73.84,50.498 84.489,46.021 85.983,44.581C87.12,43.485 87.421,40.848 86.377,39.575C85.782,38.849 84.75,38.569 83.846,38.63" style="fill:#70534a;"/></g><g transform="matrix(1.07342,-0.0716813,0.0716813,1.07342,-7.27445,0.261604)"><path d="M68.061,47.606C66.353,50.413 64.876,56.312 64.971,57.155C65.264,59.749 67.79,60.071 69.464,58.32C70.17,57.582 72.209,52.162 72.947,50.091C73.211,49.349 72.485,49.002 72.36,48.218" style="fill:#563e37;"/></g><g transform="matrix(1.07342,-0.0716813,0.0716813,1.07342,-7.27445,0.261604)"><path d="M68.061,47.606C66.353,50.413 64.876,56.312 64.971,57.155C65.264,59.749 67.312,57.18 68.986,55.429C69.149,55.259 72.38,51.683 72.947,50.091C73.211,49.349 72.485,49.002 72.36,48.218" style="fill:#70534a;"/></g><g transform="matrix(1.07342,-0.0716813,0.0716813,1.07342,-7.27445,0.261604)"><path d="M108.145,59C106.655,57.029 89.717,40.805 88.842,40.226C88.192,39.796 87.55,39.345 86.778,39.165C85.625,38.895 84.302,39.372 83.985,40.604C83.824,41.232 83.973,41.868 84.136,42.477C84.306,43.117 83.727,44.015 84.136,44.534C86.249,47.217 90.908,53.018 93.54,58.651C93.567,58.709 101.582,60.981 102.876,59.518C103.464,58.853 109.083,60.239 108.145,59Z" style="fill:#70534a;"/></g><g transform="matrix(1.07342,-0.0716813,0.0716813,1.07342,-6.82407,0.0773003)"><path d="M74.466,50.104C73.115,50.564 71.938,51.369 71.303,53.489L71.577,51.276L72.115,50.452L72.721,50.273L73.118,50.494L74.466,50.104Z" style="fill:#70534a;"/></g><g transform="matrix(1.07342,-0.0716813,0.0716813,1.07342,-9.10574,4.10855)"><path d="M67.532,48.584C68.3,47.002 69.081,45.548 70.664,44.151C72.109,42.875 83.885,37.141 85.987,37.797C86.979,38.106 88.874,39.221 90.073,40.453C91.886,42.317 93.611,44.28 95.4,46.166C96.613,47.444 101.086,52.29 100.948,52.332C100.948,52.332 99.52,51.488 99.288,51.428C98.356,51.187 97.442,50.781 96.587,50.341C95.752,49.912 94.992,49.36 94.223,48.826C93.386,48.246 92.523,47.706 91.74,47.052C90.362,45.9 89.049,44.602 87.505,43.669C86.822,43.257 86.025,42.887 85.224,42.803C84.092,42.683 82.941,43.083 81.916,43.524C80.099,44.306 78.423,45.366 76.625,46.187C74.28,47.257 71.653,48.004 69.598,49.618" style="fill:#563e37;"/></g><g transform="matrix(1.07342,-0.0716813,0.0716813,1.07342,-7.27445,0.261604)"><path d="M83.725,38.661C85.236,38.324 86.265,38.511 88.079,39.732" style="fill:#70534a;"/></g><g transform="matrix(1.07342,-0.0716813,0.0716813,1.07342,-8.02511,0.747875)"><path d="M86.628,46.384L88.358,45.56L87.029,44.13L83.268,44.684L83.268,46.161C84.758,45.495 85.851,45.531 86.628,46.384Z" style="fill:#70534a;"/></g><g transform="matrix(1.07581,-7.1371e-18,7.1371e-18,1.07581,14.4213,4.74205)"><path d="M75.064,50.843C80.708,65.319 60.618,72.063 52.391,78.571C46.39,83.318 48.967,88.01 50.715,88.706C52.382,89.369 53.005,88.011 54.198,86.887C58.63,82.712 64.948,81.838 68.819,81C75.664,79.518 85.645,81.394 96.521,80.512C98.296,80.368 96.188,68.963 96.589,67.237C97.146,64.836 97.376,62.381 97.26,59.923C97.185,58.322 97.115,56.574 96.521,55.067C95.636,52.82 93.715,49.573 92.039,47.889C88.516,44.351 86.279,47.854 82.408,44.949C80.123,43.235 72.428,44.08 75.064,50.843Z" style="fill:#70534a;"/></g><g transform="matrix(1.07342,-0.0716813,0.0716813,1.07342,-9.10574,4.10855)"><path d="M83.725,38.661C82.599,38.941 79.434,40.356 77.309,41.255C76.185,41.731 75.108,42.319 73.995,42.822C72.328,43.575 70.398,44.254 68.061,47.606C67.071,49.025 68.153,50.513 69.525,50.928C70.499,51.222 71.615,51.098 72.583,50.837C73.84,50.498 84.489,46.021 85.983,44.581C87.12,43.485 87.421,40.848 86.377,39.575C85.782,38.849 84.633,38.436 83.725,38.661Z" style="fill:#70534a;"/></g><g transform="matrix(1.07342,-0.0716813,0.0716813,1.07342,-9.10574,4.10855)"><path d="M68.061,47.606C66.353,50.413 64.876,56.312 64.971,57.155C65.264,59.749 67.79,60.071 69.464,58.32C70.17,57.582 72.209,52.162 72.947,50.091C73.211,49.349 72.485,49.002 72.36,48.218" style="fill:#70534a;"/></g><g transform="matrix(1.07342,-0.0716813,0.0716813,1.07342,-9.10574,4.10855)"><path d="M100.948,52.332C99.381,50.422 89.717,40.805 88.842,40.226C88.192,39.796 87.55,39.345 86.778,39.165C85.625,38.895 84.302,39.372 83.985,40.604C83.824,41.232 83.973,41.868 84.136,42.477C84.306,43.117 83.727,44.015 84.136,44.534C86.249,47.217 90.908,53.018 93.54,58.651C93.567,58.709 98.797,56.557 100.091,55.094C100.679,54.429 101.324,52.791 100.948,52.332Z" style="fill:#70534a;"/></g><g transform="matrix(1.07342,-0.0716813,0.0716813,1.07342,-8.65536,3.92425)"><path d="M74.466,50.104C73.115,50.564 71.938,51.369 71.303,53.489L71.577,51.276L72.115,50.452L72.721,50.273L73.118,50.494L74.466,50.104Z" style="fill:#70534a;"/></g><g transform="matrix(1.07342,-0.0716813,0.0716813,1.07342,-9.10574,4.10855)"><path d="M83.725,38.661C85.236,38.324 86.265,38.511 88.079,39.732" style="fill:#70534a;"/></g><g transform="matrix(1.07342,-0.0716813,0.0716813,1.07342,-9.8564,4.59482)"><path d="M86.628,46.384L88.358,45.56L87.029,44.13L83.268,44.684L83.268,46.161C84.758,45.495 85.851,45.531 86.628,46.384Z" style="fill:#70534a;"/></g></g><g id="Ebene11" serif:id="Ebene1" transform="matrix(-0.9984,0.0565416,0.0565416,0.9984,125.02,-8.96584)"><g transform="matrix(1.07581,-7.1371e-18,7.1371e-18,1.07581,14.4201,4.72064)"><path d="M94.5,80.646C97.24,80.49 100.71,80.869 103.059,81.199C103.729,81.289 104.405,81.086 104.916,80.643C105.427,80.2 105.722,79.559 105.728,78.883C105.767,74.569 105.831,66.258 105.863,62.143C105.875,60.624 105.148,59.194 103.915,58.307C101.06,56.229 95.691,52.059 91.669,47.498" style="fill:#70534a;"/></g><g transform="matrix(1.07342,-0.0716813,0.0716813,1.07342,-7.27566,0.240194)"><path d="M83.725,38.661C81.608,39.588 79.434,40.356 77.309,41.255C76.185,41.731 75.108,42.319 73.995,42.822C72.328,43.575 70.398,44.254 68.061,47.606C67.071,49.025 68.153,50.513 69.525,50.928C70.499,51.222 71.615,51.098 72.583,50.837C73.84,50.498 84.489,46.021 85.983,44.581C87.12,43.485 87.421,40.848 86.377,39.575C85.782,38.849 84.75,38.569 83.846,38.63" style="fill:#70534a;"/></g><g transform="matrix(1.07342,-0.0716813,0.0716813,1.07342,-7.27566,0.240194)"><path d="M68.061,47.606C66.353,50.413 64.876,56.312 64.971,57.155C65.264,59.749 67.79,60.071 69.464,58.32C70.17,57.582 72.209,52.162 72.947,50.091C73.211,49.349 72.485,49.002 72.36,48.218" style="fill:#563e37;"/></g><g transform="matrix(1.07342,-0.0716813,0.0716813,1.07342,-7.27566,0.240194)"><path d="M68.061,47.606C66.353,50.413 64.876,56.312 64.971,57.155C65.264,59.749 67.312,57.18 68.986,55.429C69.149,55.259 72.38,51.683 72.947,50.091C73.211,49.349 72.485,49.002 72.36,48.218" style="fill:#70534a;"/></g><g transform="matrix(1.07342,-0.0716813,0.0716813,1.07342,-7.27566,0.240194)"><path d="M108.145,59C106.655,57.029 89.717,40.805 88.842,40.226C88.192,39.796 87.55,39.345 86.778,39.165C85.625,38.895 84.302,39.372 83.985,40.604C83.824,41.232 83.973,41.868 84.136,42.477C84.306,43.117 83.727,44.015 84.136,44.534C86.249,47.217 90.908,53.018 93.54,58.651C93.567,58.709 101.582,60.981 102.876,59.518C103.464,58.853 109.083,60.239 108.145,59Z" style="fill:#70534a;"/></g><g transform="matrix(1.07342,-0.0716813,0.0716813,1.07342,-6.82529,0.0558903)"><path d="M74.466,50.104C73.115,50.564 71.938,51.369 71.303,53.489L71.577,51.276L72.115,50.452L72.721,50.273L73.118,50.494L74.466,50.104Z" style="fill:#70534a;"/></g><g transform="matrix(1.07342,-0.0716813,0.0716813,1.07342,-9.10695,4.08714)"><path d="M67.532,48.584C68.3,47.002 69.081,45.548 70.664,44.151C72.109,42.875 83.885,37.141 85.987,37.797C86.979,38.106 88.874,39.221 90.073,40.453C91.886,42.317 93.611,44.28 95.4,46.166C96.613,47.444 101.086,52.29 100.948,52.332C100.948,52.332 99.52,51.488 99.288,51.428C98.356,51.187 97.442,50.781 96.587,50.341C95.752,49.912 94.992,49.36 94.223,48.826C93.386,48.246 92.523,47.706 91.74,47.052C90.362,45.9 89.049,44.602 87.505,43.669C86.822,43.257 86.025,42.887 85.224,42.803C84.092,42.683 82.941,43.083 81.916,43.524C80.099,44.306 78.423,45.366 76.625,46.187C74.28,47.257 71.653,48.004 69.598,49.618" style="fill:#563e37;"/></g><g transform="matrix(1.07342,-0.0716813,0.0716813,1.07342,-7.27566,0.240194)"><path d="M83.725,38.661C85.236,38.324 86.265,38.511 88.079,39.732" style="fill:#70534a;"/></g><g transform="matrix(1.07342,-0.0716813,0.0716813,1.07342,-8.02632,0.726465)"><path d="M86.628,46.384L88.358,45.56L87.029,44.13L83.268,44.684L83.268,46.161C84.758,45.495 85.851,45.531 86.628,46.384Z" style="fill:#70534a;"/></g><g transform="matrix(1.07581,-7.1371e-18,7.1371e-18,1.07581,14.4201,4.72064)"><path d="M75.064,50.843C80.708,65.319 60.618,72.063 52.391,78.571C46.39,83.318 48.967,88.01 50.715,88.706C52.382,89.369 53.005,88.011 54.198,86.887C58.63,82.712 64.948,81.838 68.819,81C75.664,79.518 85.645,81.394 96.521,80.512C98.296,80.368 96.188,68.963 96.589,67.237C97.146,64.836 97.376,62.381 97.26,59.923C97.185,58.322 97.115,56.574 96.521,55.067C95.636,52.82 93.715,49.573 92.039,47.889C88.516,44.351 86.279,47.854 82.408,44.949C80.123,43.235 72.428,44.08 75.064,50.843Z" style="fill:#70534a;"/></g><g transform="matrix(1.07342,-0.0716813,0.0716813,1.07342,-9.10695,4.08714)"><path d="M83.725,38.661C82.599,38.941 79.434,40.356 77.309,41.255C76.185,41.731 75.108,42.319 73.995,42.822C72.328,43.575 70.398,44.254 68.061,47.606C67.071,49.025 68.153,50.513 69.525,50.928C70.499,51.222 71.615,51.098 72.583,50.837C73.84,50.498 84.489,46.021 85.983,44.581C87.12,43.485 87.421,40.848 86.377,39.575C85.782,38.849 84.633,38.436 83.725,38.661Z" style="fill:#70534a;"/></g><g transform="matrix(1.07342,-0.0716813,0.0716813,1.07342,-9.10695,4.08714)"><path d="M68.061,47.606C66.353,50.413 64.876,56.312 64.971,57.155C65.264,59.749 67.79,60.071 69.464,58.32C70.17,57.582 72.209,52.162 72.947,50.091C73.211,49.349 72.485,49.002 72.36,48.218" style="fill:#70534a;"/></g><g transform="matrix(1.07342,-0.0716813,0.0716813,1.07342,-9.10695,4.08714)"><path d="M100.948,52.332C99.381,50.422 89.717,40.805 88.842,40.226C88.192,39.796 87.55,39.345 86.778,39.165C85.625,38.895 84.302,39.372 83.985,40.604C83.824,41.232 83.973,41.868 84.136,42.477C84.306,43.117 83.727,44.015 84.136,44.534C86.249,47.217 90.908,53.018 93.54,58.651C93.567,58.709 98.797,56.557 100.091,55.094C100.679,54.429 101.324,52.791 100.948,52.332Z" style="fill:#70534a;"/></g><g transform="matrix(1.07342,-0.0716813,0.0716813,1.07342,-8.65657,3.90284)"><path d="M74.466,50.104C73.115,50.564 71.938,51.369 71.303,53.489L71.577,51.276L72.115,50.452L72.721,50.273L73.118,50.494L74.466,50.104Z" style="fill:#70534a;"/></g><g transform="matrix(1.07342,-0.0716813,0.0716813,1.07342,-9.10695,4.08714)"><path d="M83.725,38.661C85.236,38.324 86.265,38.511 88.079,39.732" style="fill:#70534a;"/></g><g transform="matrix(1.07342,-0.0716813,0.0716813,1.07342,-9.85761,4.57341)"><path d="M86.628,46.384L88.358,45.56L87.029,44.13L83.268,44.684L83.268,46.161C84.758,45.495 85.851,45.531 86.628,46.384Z" style="fill:#70534a;"/></g></g></svg>