<?xml version="1.0" encoding="UTF-8" standalone="no"?><!DOCTYPE svg PUBLIC "-//W3C//DTD SVG 1.1//EN" "http://www.w3.org/Graphics/SVG/1.1/DTD/svg11.dtd"><svg width="128px" height="128px" version="1.1" xmlns="http://www.w3.org/2000/svg" xmlns:xlink="http://www.w3.org/1999/xlink" xml:space="preserve" xmlns:serif="http://www.serif.com/" style="fill-rule:evenodd;clip-rule:evenodd;stroke-linejoin:round;stroke-miterlimit:2;"><g transform="matrix(1,0,0,1,0.695692,0)"><path d="M92.038,53.667C85.449,45.153 80.267,47.383 71.503,50.993C68.429,52.26 65.48,51.999 64.074,48.412C61.406,41.604 77.288,34.472 86.093,34.817C116.51,36.009 129.301,78.997 127.042,99.109C125.934,108.979 112.267,115.219 106.797,112.809C98.435,109.126 102.901,98.67 91.048,94.542C82.308,91.498 76.068,93.241 71.286,95.624C69.201,96.663 64,99.483 64,92.254C64,86.846 70.497,85.346 76.334,80.62C82.021,76.016 100.399,64.471 92.038,53.667Z" style="fill:#bf8f68;"/></g><g transform="matrix(-1,0,0,1,127.295,0)"><path d="M92.038,53.667C85.449,45.153 80.267,47.383 71.503,50.993C68.429,52.26 65.48,51.999 64.074,48.412C61.406,41.604 77.288,34.472 86.093,34.817C116.51,36.009 129.301,78.997 127.042,99.109C125.934,108.979 112.267,115.219 106.797,112.809C98.435,109.126 102.901,98.67 91.048,94.542C82.308,91.498 76.068,93.241 71.286,95.624C69.201,96.663 64,99.483 64,92.254C64,86.846 70.497,85.346 76.334,80.62C82.021,76.016 100.399,64.471 92.038,53.667Z" style="fill:#bf8f68;"/></g></svg>