<?xml version="1.0" encoding="UTF-8" standalone="no"?><!DOCTYPE svg PUBLIC "-//W3C//DTD SVG 1.1//EN" "http://www.w3.org/Graphics/SVG/1.1/DTD/svg11.dtd"><svg width="128px" height="128px" version="1.1" xmlns="http://www.w3.org/2000/svg" xmlns:xlink="http://www.w3.org/1999/xlink" xml:space="preserve" xmlns:serif="http://www.serif.com/" style="fill-rule:evenodd;clip-rule:evenodd;stroke-linejoin:round;stroke-miterlimit:2;"><g id="High-Speed-Train" serif:id="High Speed Train"><g id="Bogie" transform="matrix(1,0,0,1,-342.065,-6.66134e-16)"><g transform="matrix(0.591791,0,0,0.833333,425.185,21.1167)"><rect x="52.18" y="109.66" width="23.657" height="1.2" style="fill:#2b2b2b;fill-rule:nonzero;"/></g><g transform="matrix(1.02959,0,0,1.02959,359.032,-0.659968)"><path d="M94.314,109.202C94.314,114.305 90.175,118.429 85.08,118.429C79.977,118.429 75.837,114.297 75.837,109.202C75.837,104.092 79.977,99.975 85.08,99.975C90.175,99.975 94.314,104.099 94.314,109.202Z" style="fill:#424242;"/></g><g transform="matrix(1.02959,0,0,1.02959,383.545,-0.659968)"><path d="M33.551,109.202C33.551,114.305 29.411,118.429 24.316,118.429C19.213,118.429 15.074,114.297 15.074,109.202C15.074,104.092 19.214,99.975 24.316,99.975C29.412,99.975 33.551,104.099 33.551,109.202Z" style="fill:#424242;"/></g><g transform="matrix(1.02959,0,0,1.02959,383.387,-0.659968)"><path d="M52.18,109.202C52.18,114.305 48.041,118.429 42.946,118.429C37.843,118.429 33.704,114.297 33.704,109.202C33.704,104.092 37.843,99.975 42.946,99.975C48.049,99.975 52.181,104.099 52.181,109.202L52.18,109.202Z" style="fill:#424242;"/></g></g><g id="Body"><clipPath id="_clip1"><path d="M107,40.879C107,40.879 60,41 4.128,92.499C1.202,94.895 4,107 8,108C8,108 29,113 98.52,112.866L150.056,112.866L150.056,41.041L107,40.879Z" clip-rule="nonzero"/></clipPath><g clip-path="url(#_clip1)"><g id="Livery"><g transform="matrix(0.853014,0,0,1,-5.34732e-13,0.126625)"><rect x="-0" y="40.879" width="150.056" height="71.989" style="fill:#cbdbe0;"/></g><g transform="matrix(31.9997,0,0,2.66667,-13119.9,-164.333)"><rect x="410" y="98" width="4" height="6" style="fill:#42ade7;"/></g><path d="M128,107L46.06,107C41.407,107 36.807,107.99 32.565,109.904C29.294,111.381 26,112.868 26,112.868L128,113L128,107Z" style="fill:#616161;"/><g transform="matrix(32,0,0,2.66667,-13120,-180.333)"><rect x="410" y="98" width="4" height="6" style="fill:#81cdee;"/></g></g><g transform="matrix(1,0,0,1,-7,3)"><path d="M64,54.75C60.883,58.062 48.047,64.867 42.534,67.709C40.883,68.557 39.053,69 37.196,69C34.89,69 32,69 32,69L65,46C65,46 68.801,49.649 64,54.75Z" style="fill:#4b6b75;"/></g><g id="Windows" transform="matrix(1,0,0,1,-302.001,0)"><g transform="matrix(0.289065,0,0,1.27273,282,-22.0909)"><rect x="384.001" y="59" width="127.999" height="22" style="fill:#424242;"/></g><g transform="matrix(1.77778,0,0,0.909091,-300.332,3.36364)"><path d="M408,61.2C408,59.986 407.496,59 406.875,59L391.125,59C390.504,59 390,59.986 390,61.2L390,78.8C390,80.014 390.504,81 391.125,81L406.875,81C407.496,81 408,80.014 408,78.8L408,61.2Z" style="fill:#4b6b75;"/></g><g transform="matrix(1,0,0,1,302.001,0)"><path d="M91,53C81.74,53 68.367,62.668 55.808,74.326C54.225,75.785 53.764,78.099 54.667,80.054C55.569,82.008 57.629,83.158 59.767,82.899C69.704,81.744 80.509,81 91,81L91,53Z" style="fill:#424242;"/></g></g></g></g></g></svg>