<?xml version="1.0" encoding="UTF-8" standalone="no"?><!DOCTYPE svg PUBLIC "-//W3C//DTD SVG 1.1//EN" "http://www.w3.org/Graphics/SVG/1.1/DTD/svg11.dtd"><svg width="128px" height="128px" version="1.1" xmlns="http://www.w3.org/2000/svg" xmlns:xlink="http://www.w3.org/1999/xlink" xml:space="preserve" xmlns:serif="http://www.serif.com/" style="fill-rule:evenodd;clip-rule:evenodd;stroke-linejoin:round;stroke-miterlimit:2;"><g id="High-Speed-Train" serif:id="High Speed Train" transform="matrix(0.999329,0,0,0.996599,0.0858296,0.139466)"><g id="Bogie" transform="matrix(1,0,0,1,-342.065,-6.66134e-16)"><g transform="matrix(0.591791,0,0,0.833333,425.185,21.1167)"><rect x="52.18" y="109.66" width="23.657" height="1.2" style="fill:#2b2b2b;fill-rule:nonzero;"/></g><g transform="matrix(1.02959,0,0,1.02959,359.032,-0.659968)"><path d="M94.314,109.202C94.314,114.305 90.175,118.429 85.08,118.429C79.977,118.429 75.837,114.297 75.837,109.202C75.837,104.092 79.977,99.975 85.08,99.975C90.175,99.975 94.314,104.099 94.314,109.202Z" style="fill:#212121;"/></g><g transform="matrix(1.02959,0,0,1.02959,383.545,-0.659968)"><path d="M33.551,109.202C33.551,114.305 29.411,118.429 24.316,118.429C19.213,118.429 15.074,114.297 15.074,109.202C15.074,104.092 19.214,99.975 24.316,99.975C29.412,99.975 33.551,104.099 33.551,109.202Z" style="fill:#212121;"/></g><g transform="matrix(1.02959,0,0,1.02959,383.387,-0.659968)"><path d="M52.18,109.202C52.18,114.305 48.041,118.429 42.946,118.429C37.843,118.429 33.704,114.297 33.704,109.202C33.704,104.092 37.843,99.975 42.946,99.975C48.049,99.975 52.181,104.099 52.181,109.202L52.18,109.202Z" style="fill:#212121;"/></g></g><g id="Body" transform="matrix(1,0,0,1.0055,-2.44249e-15,-0.22555)"><clipPath id="_clip1"><path d="M107,40.879C107,40.879 60,41 4.128,92.499C1.202,94.895 4,107 8,108C8,108 29,113 98.52,112.866L150.056,112.866L150.056,41.041L107,40.879Z" clip-rule="nonzero"/></clipPath><g clip-path="url(#_clip1)"><g id="Livery"><g transform="matrix(0.853014,0,0,1,-5.34732e-13,0.126625)"><rect x="-0" y="40.879" width="150.056" height="71.989" style="fill:#afc7cf;"/></g><g transform="matrix(32.0215,0,0,2.68604,-13128.9,-166.349)"><rect x="410" y="98" width="4" height="6" style="fill:#42ade7;"/></g><g transform="matrix(1,0,0,1.02284,-4.88498e-15,-2.58062)"><path d="M128,107L46.229,107C41.467,107 36.761,108.01 32.44,109.961C29.21,111.419 26,112.868 26,112.868L128,113L128,107Z" style="fill:#616161;"/></g><g transform="matrix(32.0215,0,0,2.66113,-13128.9,-179.874)"><rect x="410" y="98" width="4" height="6" style="fill:#81cdee;"/></g></g><g transform="matrix(1,0,0,1,-7,3)"><path d="M64.953,54.75C61.837,58.061 49.01,64.862 43.494,67.705C41.838,68.556 40.003,69 38.14,69C35.515,69 32,69 32,69L65,46C65,46 69.754,49.649 64.953,54.75Z" style="fill:#4b6b75;"/></g><g id="Windows" transform="matrix(1,0,0,1,-302.001,0)"><g transform="matrix(0.281247,0,0,1.27273,285.002,-22.0909)"><path d="M512,60.568C512,59.703 508.811,59 504.884,59L384.001,59L384.001,81L504.884,81C508.811,81 512,80.297 512,79.432L512,60.568Z" style="fill:#424242;"/></g><g transform="matrix(1,0,0,1,302.001,0)"><path d="M91,53C81.734,53 68.347,62.681 55.781,74.351C54.2,75.809 53.742,78.117 54.646,80.066C55.551,82.015 57.612,83.16 59.75,82.901C69.692,81.745 80.503,81 91,81L91.976,80.917L91.976,52.975L91,53Z" style="fill:#424242;"/></g><g transform="matrix(1.77778,0,0,0.905694,-300.332,3.56406)"><path d="M408,61.204C408,59.987 407.496,59 406.874,59L391.126,59C390.504,59 390,59.987 390,61.204L390,78.796C390,80.013 390.504,81 391.126,81L406.874,81C407.496,81 408,80.013 408,78.796L408,61.204Z" style="fill:#4b6b75;"/></g></g></g></g></g><g id="Steam-Locomotive" serif:id="Steam Locomotive" transform="matrix(1.00235,0,0,1.00103,-0.300705,0.415686)"><g transform="matrix(1,0,0,1,127.85,0)"><path d="M39.84,23.56L16.31,23.56L11.87,33.93L44.49,33.93L39.84,23.56ZM0.15,120.19L28.67,120.19L28.67,100.64L13.36,100.64L0.15,120.19Z" style="fill:#2f2f2f;fill-rule:nonzero;"/></g><g transform="matrix(1,0,0,1,127.85,0)"><rect x="0.15" y="114.26" width="28.52" height="5.93" style="fill:#2f2f2f;fill-rule:nonzero;"/></g></g><g id="Mountain-Railway" serif:id="Mountain Railway"></g><g id="Railcar"></g><g id="Bullet-Train" serif:id="Bullet Train"></g></svg>