<?xml version="1.0" encoding="UTF-8" standalone="no"?><!DOCTYPE svg PUBLIC "-//W3C//DTD SVG 1.1//EN" "http://www.w3.org/Graphics/SVG/1.1/DTD/svg11.dtd"><svg width="128px" height="128px" version="1.1" xmlns="http://www.w3.org/2000/svg" xmlns:xlink="http://www.w3.org/1999/xlink" xml:space="preserve" xmlns:serif="http://www.serif.com/" style="fill-rule:evenodd;clip-rule:evenodd;stroke-linejoin:round;stroke-miterlimit:2;"><path d="M101.81,48.941C101.81,48.941 103.185,46.69 101.81,41.79C101.72,40.62 101.62,39.51 101.49,38.49C101.24,36.48 103.611,27.819 90.231,27.609C85.921,27.539 86.12,27.488 83.095,28.588C82.435,28.828 79.76,31.967 78.91,30.897C77.62,24.927 73.7,22.13 66.37,23.2C58.03,24.42 56.2,27.63 55.43,31.42L55.38,31.42C55.38,31.42 53.86,33.49 52.31,32.36C51.41,29.86 49.32,28.67 44.65,29.18C32.1,30.53 32.31,38.73 31.76,43.15C31.37,43.37 30.9,43.43 30.36,43.08C29.56,41.79 28.08,40.97 25.45,40.97C19.2,40.97 14.82,50.25 14.51,53.94C14.17,57.96 15.92,73.69 16.94,78.42C17.97,83.14 23.77,86.13 28.4,84.47C31.74,83.27 34.44,82.11 32.25,75.27C32.19,75.08 32.12,74.84 32.04,74.59L33.21,74.75C33.82,79.59 35.59,85.36 42.67,85.32C46.23,85.3 50.58,83.12 51.12,77.16L54.98,77.68C55.02,78.17 55.07,78.67 55.11,79.16C55.66,84.96 62.53,86.95 67.08,86.96L58.006,88.09L53.636,87.54C53.636,87.54 46.641,90.311 48.851,99.181C50.131,104.341 53.396,103.63 61.096,104.68C66.926,105.47 77.423,102.511 79.823,99.181C79.823,99.181 86.735,91.458 88.215,81.588C89.195,75.118 96.882,48.313 101.81,48.941Z" style="fill:#fadcbc;fill-rule:nonzero;"/><path d="M81.09,85.21C82.411,82.83 83.04,75.22 83.04,75.22C83.37,56.74 82.1,46.63 82.1,46.63C81.92,45.72 81.91,43.11 80.88,41.25C79.56,38.86 78.92,41.38 78.92,41.38C79.94,60.44 79.05,74.66 79.05,74.66C78.95,80.22 76.84,82.97 75.23,84.27C73.32,85.87 67.23,86.2 67.23,86.2C55.13,86.45 55.06,76.89 55.06,76.89C55.06,76.89 53.54,67.26 54.09,45.65C54.09,45.65 54.01,42.57 52.26,43.68C52.26,43.68 51.16,46.75 50.95,50.16C50.95,50.16 49.52,62.07 51.07,77.55C50.38,83.23 46.15,85.32 42.67,85.34C38.43,85.36 36.1,83.29 34.78,80.59C33.9,77.5 32.26,69.54 32.43,53.36C32.43,53.36 32.83,49.54 31.59,50.23C31.59,50.23 30.44,50.64 29.62,56.45C29.62,56.45 28.47,64.77 30.15,77.69C30.69,82.63 29.43,84.15 27.82,84.64C24.25,85.61 20.16,84.01 18.11,81.06C19.67,83.95 22.9,88.17 28.47,87.95C28.47,87.95 32.19,87.52 33.57,85.64C36.64,90.69 45.45,89.53 45.45,89.53C49.61,88.96 51.78,86.89 52.92,84.7L52.93,84.71C56.87,91.61 67.22,91.07 67.22,91.07C76.05,91.07 79.63,87.84 81.09,85.21Z" style="fill:#dba689;fill-rule:nonzero;"/><g transform="matrix(1.09493,0,0,1.03272,-7.17888,-1.56414)"><path d="M90.68,30.742C100.176,30.742 102.181,35.643 102.181,41.991C102.181,48.339 95.661,53.745 90.68,53.745C85.698,53.745 79.178,48.339 79.178,41.991C79.178,35.643 80.589,30.742 90.68,30.742Z" style="fill:#fadcbc;"/><path d="M90.68,28.805C85.874,28.934 82.864,30.075 80.973,31.803C78.347,34.204 77.698,37.793 77.785,41.991C77.837,45.468 79.573,48.681 82.028,51.05C84.57,53.504 87.853,55.044 90.68,55.029C93.51,55.054 96.803,53.525 99.353,51.074C101.818,48.704 103.554,45.477 103.607,41.991C103.688,37.866 102.866,34.318 100.296,31.916C98.356,30.103 95.337,28.92 90.68,28.805L90.68,28.805ZM90.68,32.678C94.263,32.59 96.665,33.211 98.215,34.534C100.198,36.228 100.695,38.926 100.756,41.991C100.796,44.684 99.463,47.197 97.602,49.077C95.59,51.109 92.965,52.44 90.68,52.461C88.392,52.448 85.755,51.131 83.737,49.1C81.866,47.218 80.531,44.694 80.572,41.991C80.637,38.862 80.963,36.105 82.998,34.417C84.526,33.149 86.946,32.578 90.68,32.678L90.68,32.678Z" style="fill:#dba689;"/></g><g transform="matrix(1.88306,0,0,1.0826,-84.8689,-2.0875)"><path d="M96.941,50.873C95.49,52.23 90.988,56.473 89.644,57.916C88.231,59.434 89.861,57.777 88.096,58.855C87.156,59.43 87.424,66.123 88.096,64.922C91.358,59.097 94.554,55.053 96.492,52.363" style="fill:#dba689;fill-opacity:0.65;"/></g></svg>