<?xml version="1.0" encoding="UTF-8" standalone="no"?><!DOCTYPE svg PUBLIC "-//W3C//DTD SVG 1.1//EN" "http://www.w3.org/Graphics/SVG/1.1/DTD/svg11.dtd"><svg width="128px" height="128px" version="1.1" xmlns="http://www.w3.org/2000/svg" xmlns:xlink="http://www.w3.org/1999/xlink" xml:space="preserve" xmlns:serif="http://www.serif.com/" style="fill-rule:evenodd;clip-rule:evenodd;stroke-linejoin:round;stroke-miterlimit:2;"><g id="jar_base"><path d="M21.378,111.848L21.695,36.714L106.571,37.022L106.254,112.131C106.285,114.408 102.135,116.672 93.806,118.377C77.228,121.769 50.331,121.667 33.779,118.149C25.511,116.392 21.378,114.112 21.379,111.848L21.378,111.848Z" style="fill:#94d4f1;"/><g transform="matrix(2.00803,-0.410914,4.46525,0.949118,31.0394,-82.9689)"><ellipse cx="-224.42" cy="108.262" rx="14.959" ry="6.716" style="fill:#62c0ea;"/></g></g><g id="jar_top"><g transform="matrix(1.87693,-0.384086,4.17372,0.887152,33.4962,-155.801)"><ellipse cx="-224.42" cy="108.262" rx="14.959" ry="6.716" style="fill:#62c0ea;"/></g><g transform="matrix(1.87693,-0.384086,4.17372,0.887152,33.5041,-150.355)"><ellipse cx="-224.42" cy="108.262" rx="14.959" ry="6.716" style="fill:#62c0ea;"/></g><g transform="matrix(2.00803,-0.410914,4.46525,0.949118,31.3563,-158.103)"><ellipse cx="-224.42" cy="108.262" rx="14.959" ry="6.716" style="fill:#bae3f5;"/></g><g transform="matrix(1.91626,2.65934e-17,0,1.91626,-55.4789,-88.795)"><path d="M40.445,64.921L41.863,62.402L41.719,60.061L83.121,60.222L82.978,62.563L84.395,65.082L40.445,64.921Z" style="fill:#bae3f5;"/></g></g><path d="M29.364,60.242C29.366,59.846 29.55,59.473 29.863,59.231C30.176,58.988 30.583,58.903 30.967,59.001C31.92,59.248 33.105,59.546 33.953,59.726C37.802,60.544 42.212,61.177 46.92,61.625C47.581,61.687 48.086,62.243 48.086,62.907C48.08,68.224 48.057,90.023 48.051,95.795C48.05,96.157 47.897,96.503 47.629,96.746C47.361,96.99 47.003,97.109 46.642,97.075C42.006,96.628 37.663,96 33.866,95.193C32.784,94.963 31.216,94.559 30.215,94.294C29.649,94.146 29.254,93.633 29.255,93.047C29.261,90.473 29.275,83.76 29.275,83.76C29.275,83.76 29.343,65.858 29.364,60.242Z" style="fill:#fff;"/><g id="lid"><g transform="matrix(2.00856,-0.411022,4.46643,0.949368,31.3476,-168.581)"><ellipse cx="-224.42" cy="108.262" rx="14.959" ry="6.716" style="fill:#e65619;"/></g><g transform="matrix(1.91626,0,0,1.91626,-55.4789,-88.795)"><path d="M40.288,54.607L40.268,60.056L84.572,60.217L84.592,54.768L40.288,54.607Z" style="fill:#e65619;"/></g><g transform="matrix(2.00856,-0.411022,4.46643,0.949368,31.3873,-179.022)"><ellipse cx="-224.42" cy="108.262" rx="14.959" ry="6.716" style="fill:#f28d5e;"/></g></g></svg>