<?xml version="1.0" encoding="UTF-8" standalone="no"?><!DOCTYPE svg PUBLIC "-//W3C//DTD SVG 1.1//EN" "http://www.w3.org/Graphics/SVG/1.1/DTD/svg11.dtd"><svg width="128px" height="128px" version="1.1" xmlns="http://www.w3.org/2000/svg" xmlns:xlink="http://www.w3.org/1999/xlink" xml:space="preserve" xmlns:serif="http://www.serif.com/" style="fill-rule:evenodd;clip-rule:evenodd;stroke-linecap:round;stroke-linejoin:round;stroke-miterlimit:1.5;"><g transform="matrix(1.26171,0,0,1.26171,-16.7492,-20.281)"><path d="M45.114,71.343C41.668,73.732 41.163,77.541 41.931,80.432C42.601,82.957 43.924,85.257 44.615,87.786C45.207,89.955 45.313,92.291 45.31,94.53C45.303,99.255 41.158,102.879 39.22,106.882" style="fill:none;stroke:#f193b3;stroke-width:5.55px;"/></g><g transform="matrix(1.26171,0,0,1.26171,-16.7492,-20.281)"><path d="M56.829,72.498C56.298,74.666 56.193,76.924 56.136,79.147C56.104,80.421 55.989,81.73 56.335,82.973C56.898,84.991 58.257,86.727 59.054,88.654C59.825,90.516 60.037,92.74 59.851,94.731C59.562,97.815 58.242,98.886 56.426,101.338C55.467,102.633 53.448,106.023 53.627,107.814" style="fill:none;stroke:#f193b3;stroke-width:5.55px;"/></g><g transform="matrix(1.26171,0,0,1.26171,-19.2223,-20.281)"><path d="M76,71C75,73 73.994,75.79 74,78C74.006,80.277 74.965,82.411 75.898,84.601C77.033,87.262 79.232,89.03 80.814,91.375C81.857,92.922 82.452,94.663 82.657,96.512C83.028,99.846 81.169,102.747 79.929,105.685C79.397,106.944 78.806,108.211 78.781,109.598" style="fill:none;stroke:#f193b3;stroke-width:5.55px;"/></g><g transform="matrix(1.26171,0,0,1.26171,-18.3666,-20.3008)"><path d="M85.644,71.359C85.98,73.787 88.302,77.567 90.009,79.303C92.991,82.337 94.727,85.342 95.028,87.527C95.245,89.112 95.455,90.846 95.133,92.428C94.761,94.253 93.831,95.907 93.295,97.682C92.606,99.963 92.641,102.352 93.282,104.632C93.544,105.567 93.843,106.504 94.44,107.284" style="fill:none;stroke:#f193b3;stroke-width:5.55px;"/></g><g transform="matrix(1.26171,0,0,1.34991,-19.4,-27.6669)"><path d="M44.558,69.434C41.16,67.946 37.839,66.243 35.694,63.092C29.916,54.6 33.901,44.2 41,38C47.82,32.044 57.047,27.903 66.101,27.903C75.155,27.903 84.382,32.044 91.202,38C98.301,44.2 102.286,54.6 96.508,63.092C94.363,66.243 91.041,67.946 87.643,69.434L44.558,69.434Z" style="fill:#d7598b;"/></g><g transform="matrix(1.26171,0,0,1.26171,-12.8627,-19.8739)"><path d="M62.917,66.501C58.165,66.501 53.422,66.325 48.671,66.26C45.902,66.222 43.132,66.216 40.362,66.211C37.46,66.206 34.364,66.25 31.607,67.281C31.116,67.464 30.666,67.737 30.295,68.108C27.322,71.083 31.992,73.753 34.661,74.075C39.012,74.601 43.58,74.013 47.92,73.677C56.211,73.035 64.631,73.17 72.937,73.43C76.267,73.534 86.839,74.054 90,73C93,72 94,67 89,66C83.352,64.87 68.604,67.119 62.917,66.501Z" style="fill:#d1477a;"/></g><g transform="matrix(-1.03245,0.725221,0.725221,1.03245,99.5957,-20.4747)"><ellipse cx="32.5" cy="25.5" rx="5.5" ry="7.5" style="fill:#ca2f6d;"/></g><g transform="matrix(-1.25103,-0.163826,-0.163826,1.25103,112.43,12.245)"><ellipse cx="12.5" cy="31" rx="3.5" ry="4" style="fill:#ca2f6d;"/></g><g transform="matrix(0.377797,1.20382,1.01585,-0.318806,29.5369,15.5468)"><ellipse cx="12.5" cy="31" rx="3.5" ry="4" style="fill:#ca2f6d;"/></g><g transform="matrix(1.26171,0,0,1.26171,-18.7445,-19.5174)"><path d="M56,28C52.433,29.783 43.827,33.65 40.394,39.59C38.9,42.173 36.893,48.14 41.093,48.923C43.626,49.395 45.6,47.238 46.473,45.822C48.52,42.503 56,33 60,31C63.061,29.469 60,26 56,28Z" style="fill:#f4a4bf;fill-opacity:0.68;"/></g></svg>