<?xml version="1.0" encoding="UTF-8" standalone="no"?><!DOCTYPE svg PUBLIC "-//W3C//DTD SVG 1.1//EN" "http://www.w3.org/Graphics/SVG/1.1/DTD/svg11.dtd"><svg width="128px" height="128px" version="1.1" xmlns="http://www.w3.org/2000/svg" xmlns:xlink="http://www.w3.org/1999/xlink" xml:space="preserve" xmlns:serif="http://www.serif.com/" style="fill-rule:evenodd;clip-rule:evenodd;stroke-linejoin:round;stroke-miterlimit:2;"><g transform="matrix(1.35923,0,0,1.35923,-46.3611,-24.5035)"><path d="M61.282,106.784C68.1,107.413 75.07,108.244 81.016,108.525C84.222,108.677 87.077,108.89 89.08,106.015C89.465,105.462 89.751,104.843 89.986,104.214C90.661,102.408 90.882,100.393 91.048,98.483C91.245,96.212 91.79,93.305 90.484,91.246C89.438,89.597 87.658,89.034 85.863,88.574C83.336,87.926 77.729,89.533 76.205,80.389C75.389,75.488 74.175,70.559 72.46,63.145C71.32,58.22 70.815,53.227 69.947,48.259C69.252,44.283 68.255,40.37 67.659,36.376C67.096,32.596 66.839,28.852 66.692,25.036C66.62,23.189 66.79,20.874 65.138,19.598C64.687,19.249 63.921,19.384 63.406,19.48C61.447,19.847 60.237,21.297 59.531,23.098C58.832,24.88 58.945,26.835 59.058,28.706C59.271,32.223 59.989,35.675 60.283,39.182C60.671,43.827 60.917,48.023 61.377,52.512" style="fill:#e0bb95;"/></g><g transform="matrix(1.35923,0,0,1.35923,-46.3611,-24.5035)"><path d="M56.72,61.472C56.517,57.212 57.387,41.928 57.333,37.664C57.305,35.42 57.02,32.642 57.119,30.396C57.307,26.15 60.245,24.168 62.074,24.803C62.931,25.101 63.518,26.422 63.741,27.884C64.04,29.835 64.544,33.513 64.65,36.941C64.749,40.092 64.976,44.386 65.327,47.522C65.619,50.12 66.647,61.497 67.453,63.973" style="fill:#e0bb95;"/></g><g transform="matrix(1.35923,0,0,1.35923,-46.3611,-24.5035)"><path d="M73.276,101.869C71.15,104.71 66.979,107.09 61.244,106.785C59.789,106.708 59.688,104.014 58.621,101.148C56.542,95.558 56.012,88.984 54.609,82.619C53.002,75.33 52.788,74.498 52.755,71.632C52.732,69.634 53.375,65.484 54.616,63.565C55.873,61.62 59.52,59.101 61.36,60.982C62.619,62.269 62.675,64.088 62.71,65.778C62.77,68.637 62.652,71.509 62.773,74.365C63.077,81.553 67.186,77.739 67.459,88.512" style="fill:#e0bb95;"/></g><g transform="matrix(1.35923,0,0,1.35923,-46.3611,-24.5035)"><path d="M58.621,26.152C59.115,25.634 59.662,25.272 60.209,25.065C60.848,24.824 61.478,24.807 61.997,25.023C62.34,25.163 62.602,25.51 62.817,25.955C63.083,26.504 63.252,27.208 63.329,27.948C63.41,28.655 63.496,29.589 63.6,30.655C63.682,31.491 63.772,32.407 63.852,33.359C63.951,34.533 64.045,35.761 64.081,36.959C64.138,38.539 64.225,40.406 64.353,42.27C64.481,44.138 64.649,46.002 64.842,47.576C64.918,48.178 65.027,49.16 65.171,50.379C65.314,51.594 65.488,53.044 65.679,54.589C66.124,58.171 66.658,62.254 67.014,65.113C66.847,62.237 66.618,58.124 66.376,54.522C66.271,52.968 66.163,51.511 66.065,50.29C65.966,49.062 65.872,48.074 65.813,47.467C65.654,45.905 65.534,44.056 65.435,42.205C65.337,40.35 65.261,38.494 65.22,36.923C65.168,35.388 65.05,33.801 64.88,32.342C64.786,31.537 64.678,30.771 64.565,30.073C64.424,29.193 64.272,28.426 64.154,27.821C63.989,27.005 63.724,26.236 63.365,25.655C63.026,25.106 62.614,24.717 62.15,24.584C61.639,24.439 61.063,24.468 60.487,24.687C59.825,24.938 59.164,25.427 58.621,26.152Z" style="fill:#c48e6a;"/></g><g transform="matrix(1.35923,0,0,1.35923,-46.9663,-24.3658)"><path d="M57,61.482C57.554,61.166 58.362,60.93 59.15,60.853C59.901,60.78 60.625,60.849 60.99,61.275C61.194,61.504 61.337,61.79 61.462,62.099C61.586,62.403 61.674,62.732 61.749,63.07C62.025,64.304 62.025,65.647 62.031,66.261C62.067,67.98 62.023,70.548 62.31,72.936C62.512,74.614 62.882,76.203 63.514,77.378C64.136,78.515 64.68,79.603 65.188,80.647C65.406,81.097 65.618,81.537 65.824,81.971C66.148,82.653 66.458,83.316 66.746,83.976C67.013,84.587 67.263,85.189 67.504,85.791C67.875,86.718 68.22,87.632 68.537,88.568C68.351,87.551 68.145,86.55 67.886,85.537C67.633,84.553 67.342,83.567 66.992,82.557C66.728,81.794 66.432,81.022 66.095,80.232C65.632,79.147 65.086,78.036 64.486,76.863C63.926,75.786 63.635,74.33 63.462,72.801C63.197,70.451 63.23,67.928 63.195,66.237C63.174,65.575 63.167,64.119 62.8,62.804C62.712,62.489 62.605,62.182 62.469,61.897C62.241,61.415 61.95,60.99 61.585,60.672C61.099,60.263 60.346,60.129 59.533,60.283C58.592,60.461 57.599,60.957 57,61.482Z" style="fill:#c48e6a;"/></g><g transform="matrix(0.606285,0,0,1,6.25693,0)"><path d="M50.601,120.641C44.492,120.426 40,111.897 39.159,109.348C37.607,104.649 37.701,99.843 39.978,97.816" style="fill:#e0bb95;"/></g><g transform="matrix(1,0,0,1,-13.9388,0)"><path d="M51.256,120.678C55.928,120.646 60.016,118.349 61.549,116.54C62.406,115.528 64.671,112.694 65.187,112.785C66.02,112.931 63.298,117.398 62.389,118.414C60.951,120.021 59.029,120.967 57.731,121.792" style="fill:#c48e6a;fill-opacity:0.6;"/></g><g transform="matrix(1,0,0,1,-13.5477,0)"><path d="M79.408,95.373C83.98,95.827 98.228,96.251 103.377,96.333C106.657,96.386 112.857,96.496 114.483,98.697C116.569,101.522 117.332,120.168 113.43,122.071C111.576,122.976 89.779,123.334 85.782,123.26C83.19,123.213 74.265,123.003 71.71,122.518" style="fill:#e0bb95;"/></g></svg>