<?xml version="1.0" encoding="UTF-8" standalone="no"?><!DOCTYPE svg PUBLIC "-//W3C//DTD SVG 1.1//EN" "http://www.w3.org/Graphics/SVG/1.1/DTD/svg11.dtd"><svg width="128px" height="128px" version="1.1" xmlns="http://www.w3.org/2000/svg" xmlns:xlink="http://www.w3.org/1999/xlink" xml:space="preserve" xmlns:serif="http://www.serif.com/" style="fill-rule:evenodd;clip-rule:evenodd;stroke-linejoin:round;stroke-miterlimit:2;"><g transform="matrix(6.12323e-17,-1,1,6.12323e-17,-0.00590815,136.117)"><path d="M40,57.69C38.54,57.69 38.57,56.09 38.57,56.09C38.57,56.09 38.46,30 38.2,28.59C37.82,26.6 36.54,22.84 31.51,23.08C29.42,23.18 25.39,23.99 24.94,30.95C24.84,32.45 25.12,72.97 25.23,75.24C25.23,75.24 26.07,93.2 28.53,101.97C29.21,104.41 30.04,107.08 31.45,109.73C32.85,112.37 34.73,115.04 37.19,117.35C39.62,119.68 42.62,121.59 45.86,122.97C49.1,124.34 52.57,125.15 56.01,125.56C56.87,125.65 57.73,125.74 58.59,125.78L61.02,125.94C62.72,126.03 64.4,126.03 66.06,125.97C69.38,125.87 72.64,125.48 75.76,124.89C78.88,124.28 81.85,123.42 84.58,122.33C87.31,121.25 89.78,119.91 91.89,118.44C94.02,116.99 95.75,115.36 97.11,113.8C98.51,112.27 99.42,110.7 100.14,109.43C100.82,108.13 101.25,107.08 101.48,106.34C101.72,105.61 101.85,105.22 101.85,105.22C102.38,104.01 102.88,102.85 103.34,101.79C104.63,98.85 106.06,95.53 107.51,92.1C108.13,90.65 108.4,89.99 108.4,89.99L108.39,90.01C113.68,77.49 118.98,64.44 118.98,64.44C120,62.23 118.5,59.71 115.96,59.38C108.65,58.43 103.02,61.76 99.99,68.09L93.8,82.62C93.22,84.36 90.38,84.31 90.13,82.5C89.36,76.81 89.32,63.1 89.32,63.1C89,57.28 88.31,23.32 88.16,21.15C87.86,16.8 85.96,12.92 82.18,12.47C78.32,12.01 75.24,14.01 74.79,18.92C74.67,20.25 74.86,55.13 74.86,55.13C74.88,57.16 72.26,57.54 72.11,55.45C72.11,55.45 71.6,12.36 71.61,10.37C71.65,5.88 68.57,2 64.58,2C60.69,2 57.75,5.24 57.67,9.86C57.65,11.33 57.82,41.88 57.76,54.26C57.76,55.09 57.52,55.98 56.38,55.98C56.37,55.98 55.13,56.07 55.13,54.48C55.13,51.14 54.72,18.17 54.67,16.36C54.56,12.21 52.66,8.52 48.4,8.47C44.51,8.42 41.04,11.45 41.24,16.07L41.45,56.31C41.45,56.3 41.38,57.69 40,57.69Z" style="fill:#e0bb95;fill-rule:nonzero;"/></g><g transform="matrix(6.12323e-17,-1,1,6.12323e-17,-0.00590815,136.117)"><path d="M89.43,70.58L89.43,74C89.43,74 70.87,74.28 63.98,94.95C63.98,94.95 63.13,97.59 61.71,96.84C61.71,96.84 60.2,96.46 61.71,92.59C61.72,92.6 67.85,72.59 89.43,70.58Z" style="fill:#c48e6a;fill-rule:nonzero;"/></g></svg>