<?xml version="1.0" encoding="UTF-8" standalone="no"?><!DOCTYPE svg PUBLIC "-//W3C//DTD SVG 1.1//EN" "http://www.w3.org/Graphics/SVG/1.1/DTD/svg11.dtd"><svg width="128px" height="128px" version="1.1" xmlns="http://www.w3.org/2000/svg" xmlns:xlink="http://www.w3.org/1999/xlink" xml:space="preserve" xmlns:serif="http://www.serif.com/" style="fill-rule:evenodd;clip-rule:evenodd;stroke-linejoin:round;stroke-miterlimit:2;"><g id="Steam-Locomotive" serif:id="Steam Locomotive" transform="matrix(1.00235,0,0,1.00103,-128.301,0.415686)"><g transform="matrix(1,0,0,1,127.85,0)"><path d="M64.35,72.12C61.04,72.12 58.36,69.89 58.36,67.14L58.36,53.22C58.36,50.48 61.04,48.25 64.35,48.25C67.65,48.25 70.34,50.47 70.34,53.22L70.34,67.14C70.35,69.88 67.66,72.12 64.35,72.12ZM49.29,75.75C45.98,75.75 43.31,73.52 43.31,70.78L43.31,56.87C43.31,54.12 45.98,51.89 49.29,51.89C52.6,51.89 55.29,54.11 55.29,56.87L55.29,70.79C55.28,73.52 52.59,75.75 49.29,75.75Z" style="fill:#ed6c30;fill-rule:nonzero;"/></g><g transform="matrix(1.00383,0,0,1.00566,127.448,0.13819)"><rect x="26.44" y="95.78" width="95.41" height="15.91" style="fill:#616161;fill-rule:nonzero;"/></g><g transform="matrix(1,0,0,1,127.85,0)"><rect x="13.36" y="63.23" width="91.81" height="37.41" style="fill:#ed6c30;fill-rule:nonzero;"/></g><g transform="matrix(1,0,0,0.99739,127.916,-0.414419)"><rect x="77.94" y="39.58" width="43.92" height="61.06" style="fill:#ed6c30;fill-rule:nonzero;"/></g><g transform="matrix(1,0,0,1,127.85,0)"><path d="M35.04,63.24C39.3,63.24 42.76,71.62 42.76,81.95C42.76,92.28 39.3,100.65 35.04,100.65C30.77,100.65 27.31,92.28 27.31,81.95C27.32,71.62 30.78,63.24 35.04,63.24Z" style="fill:#2f2f2f;fill-rule:nonzero;"/></g><g transform="matrix(1,0,0,1,127.85,0)"><path d="M35.04,101.69C30.12,101.69 26.27,93.02 26.27,81.95C26.27,70.88 30.12,62.21 35.04,62.21C39.95,62.21 43.8,70.88 43.8,81.95C43.8,93.02 39.95,101.69 35.04,101.69ZM35.04,64.28C31.88,64.28 28.35,71.54 28.35,81.95C28.35,92.36 31.88,99.61 35.04,99.61C38.2,99.61 41.72,92.36 41.72,81.95C41.72,71.54 38.2,64.28 35.04,64.28Z" style="fill:#fcc21b;fill-rule:nonzero;"/></g><g transform="matrix(1,0,0,1,127.85,0)"><path d="M13.79,63.21L35.57,63.21L35.57,101.14L13.79,101.14L13.79,63.21ZM71.96,32.66L127.85,32.66L127.85,39.59L71.96,39.59L71.96,32.66Z" style="fill:#2f2f2f;fill-rule:nonzero;"/></g><g transform="matrix(1,0,0,1,127.85,0)"><path d="M35.44,63.23L20.92,63.23L11.87,33.93L44.49,33.93L35.44,63.23Z" style="fill:#2f2f2f;fill-rule:nonzero;"/></g><g transform="matrix(1,0,0,1,127.85,0)"><path d="M39.84,23.56L16.31,23.56L11.87,33.93L44.49,33.93L39.84,23.56ZM0.15,120.19L28.67,120.19L28.67,100.64L13.36,100.64L0.15,120.19Z" style="fill:#2f2f2f;fill-rule:nonzero;"/></g><g transform="matrix(1,0,0,0.973935,127.85,1.82426)"><path d="M116.51,45.55C116.51,44.01 115.26,42.75 113.7,42.75L101.19,42.75C99.63,42.75 98.36,44.01 98.36,45.55L98.36,67.19C98.36,68.74 99.63,69.99 101.19,69.99L113.7,69.99C115.26,69.99 116.51,68.75 116.51,67.19L116.51,45.55Z" style="fill:#fff;fill-rule:nonzero;"/></g><g transform="matrix(1,0,0,1,127.85,0)"><rect x="0.15" y="114.26" width="28.52" height="5.93" style="fill:#2f2f2f;fill-rule:nonzero;"/></g><g transform="matrix(1,0,0,1,127.85,0)"><path d="M82.79,105.02C82.79,113.55 75.88,120.46 67.37,120.46C58.84,120.46 51.92,113.55 51.92,105.02C51.92,96.49 58.84,89.58 67.37,89.58C75.89,89.58 82.79,96.49 82.79,105.02Z" style="fill:#78a3ad;fill-rule:nonzero;"/></g><g transform="matrix(1,0,0,1,127.85,0)"><path d="M76.25,105.02C76.25,109.93 72.27,113.92 67.36,113.92C62.44,113.92 58.45,109.94 58.45,105.02C58.45,100.1 62.44,96.13 67.36,96.13C72.237,96.13 76.25,100.143 76.25,105.02Z" style="fill:#2f2f2f;fill-rule:nonzero;"/></g><g transform="matrix(1,0,0,1,127.85,0)"><path d="M113.68,105.02C113.68,113.55 106.77,120.46 98.25,120.46C89.72,120.46 82.8,113.55 82.8,105.02C82.8,96.49 89.72,89.58 98.25,89.58C106.77,89.58 113.68,96.49 113.68,105.02Z" style="fill:#78a3ad;fill-rule:nonzero;"/></g><g transform="matrix(1,0,0,1,127.85,0)"><path d="M107.13,105.02C107.13,109.93 103.15,113.92 98.23,113.92C93.32,113.92 89.33,109.94 89.33,105.02C89.33,100.1 93.32,96.13 98.23,96.13C103.15,96.13 107.13,100.11 107.13,105.02Z" style="fill:#2f2f2f;fill-rule:nonzero;"/></g><g transform="matrix(1,0,0,1,127.85,0)"><path d="M70.04,104.25C68.62,104.25 67.46,103.09 67.46,101.66C67.46,100.24 68.62,99.08 70.04,99.08L95.58,99.08C97,99.08 98.15,100.23 98.15,101.66C98.15,101.663 98.15,101.667 98.15,101.67C98.15,103.082 96.992,104.245 95.58,104.25L70.04,104.25Z" style="fill:#fff;fill-rule:nonzero;"/></g><g transform="matrix(1,0,0,1,127.85,0)"><path d="M50.47,109.57C50.47,115.59 45.59,120.46 39.58,120.46C33.55,120.46 28.67,115.59 28.67,109.57C28.67,103.55 33.54,98.69 39.58,98.69C45.59,98.68 50.47,103.55 50.47,109.57Z" style="fill:#78a3ad;fill-rule:nonzero;"/></g><g transform="matrix(1,0,0,1,127.85,0)"><path d="M58.33,54.03L70.34,54.03L70.34,61.72L58.33,61.72L58.33,54.03ZM43.36,56.8L55.26,56.8L55.26,61.83L43.36,61.83L43.36,56.8Z" style="fill:#fcc21b;fill-rule:nonzero;"/></g><g transform="matrix(1,0,0,1,127.85,0)"><path d="M13.36,63.23C17.63,63.23 21.08,71.6 21.08,81.94C21.08,92.27 17.63,100.64 13.36,100.64C9.1,100.64 5.65,92.26 5.65,81.94C5.65,71.61 9.11,63.23 13.36,63.23Z" style="fill:#2f2f2f;fill-rule:nonzero;"/></g><g transform="matrix(1,0,0,1,127.85,0)"><path d="M13.36,101.68C8.45,101.68 4.61,93 4.61,81.94C4.61,70.87 8.46,62.2 13.36,62.2C18.28,62.2 22.12,70.87 22.12,81.94C22.13,93.01 18.28,101.68 13.36,101.68ZM13.36,64.27C10.21,64.27 6.69,71.52 6.69,81.94C6.69,92.35 10.21,99.6 13.36,99.6C16.52,99.6 20.04,92.35 20.04,81.94C20.05,71.53 16.53,64.27 13.36,64.27Z" style="fill:#fcc21b;fill-rule:nonzero;"/></g><g transform="matrix(1,0,0,1,127.85,0)"><rect x="10.59" y="32.69" width="35.18" height="2.63" style="fill:#2f2f2f;fill-rule:nonzero;"/></g></g></svg>