<?xml version="1.0" encoding="UTF-8" standalone="no"?><!DOCTYPE svg PUBLIC "-//W3C//DTD SVG 1.1//EN" "http://www.w3.org/Graphics/SVG/1.1/DTD/svg11.dtd"><svg width="128px" height="128px" version="1.1" xmlns="http://www.w3.org/2000/svg" xmlns:xlink="http://www.w3.org/1999/xlink" xml:space="preserve" xmlns:serif="http://www.serif.com/" style="fill-rule:evenodd;clip-rule:evenodd;stroke-linejoin:round;stroke-miterlimit:2;"><g transform="matrix(1,0,0,1,-128,0)"><g id="High-Speed-Train" serif:id="High Speed Train" transform="matrix(0.999329,0,0,0.996599,0.0858296,0.139466)"><g transform="matrix(0.591791,0,0,0.833333,83.1203,21.1167)"><g id="Bogie"><rect x="52.18" y="109.66" width="23.657" height="1.2" style="fill:#2b2b2b;fill-rule:nonzero;"/></g></g><g id="Body" transform="matrix(1,0,0,1.0055,-2.44249e-15,-0.22555)"><clipPath id="_clip1"><path d="M107,40.879C107,40.879 60,41 4.128,92.499C1.202,94.895 4,107 8,108C8,108 29,113 98.52,112.866L150.056,112.866L150.056,41.041L107,40.879Z" clip-rule="nonzero"/></clipPath><g clip-path="url(#_clip1)"><g id="Livery"><g transform="matrix(0.853014,0,0,1,-5.34732e-13,0.126625)"><rect x="-0" y="40.879" width="150.056" height="71.989" style="fill:#afc7cf;"/></g><g transform="matrix(32.0215,0,0,2.68604,-13128.9,-166.349)"><rect x="410" y="98" width="4" height="6" style="fill:#42ade7;"/></g><g transform="matrix(1,0,0,1.02284,-4.88498e-15,-2.58062)"><path d="M128,107L46.229,107C41.467,107 36.761,108.01 32.44,109.961C29.21,111.419 26,112.868 26,112.868L128,113L128,107Z" style="fill:#616161;"/></g><g transform="matrix(32.0215,0,0,2.66113,-13128.9,-179.874)"><rect x="410" y="98" width="4" height="6" style="fill:#81cdee;"/></g></g><g id="Windows"></g></g></g></g><g id="Steam-Locomotive" serif:id="Steam Locomotive" transform="matrix(1.00235,0,0,1.00103,-0.300705,0.415686)"><g transform="matrix(1,0,0,1,127.85,0)"><path d="M64.35,72.12C61.04,72.12 58.36,69.89 58.36,67.14L58.36,53.22C58.36,50.48 61.04,48.25 64.35,48.25C67.65,48.25 70.34,50.47 70.34,53.22L70.34,67.14C70.35,69.88 67.66,72.12 64.35,72.12ZM49.29,75.75C45.98,75.75 43.31,73.52 43.31,70.78L43.31,56.87C43.31,54.12 45.98,51.89 49.29,51.89C52.6,51.89 55.29,54.11 55.29,56.87L55.29,70.79C55.28,73.52 52.59,75.75 49.29,75.75Z" style="fill:#1e9ddb;fill-rule:nonzero;"/></g><g transform="matrix(1.00383,0,0,1.00566,127.448,0.13819)"><rect x="26.44" y="95.78" width="95.41" height="15.91" style="fill:#616161;fill-rule:nonzero;"/></g><g transform="matrix(1,0,0,1,127.85,0)"><rect x="13.36" y="63.23" width="91.81" height="37.41" style="fill:#42ade7;fill-rule:nonzero;"/></g><g transform="matrix(0.997656,0,0,0.998969,0.3,-0.415258)"><path d="M250.06,107L243,107L236.482,100.482L250.05,100.482L250.06,107Z" style="fill:#42ade7;"/></g><g transform="matrix(1,0,0,0.99739,127.916,-0.414419)"><rect x="77.94" y="39.58" width="43.92" height="61.06" style="fill:#42ade7;fill-rule:nonzero;"/></g><g transform="matrix(1,0,0,1,127.85,0)"><path d="M35.04,63.24C39.3,63.24 42.76,71.62 42.76,81.95C42.76,92.28 39.3,100.65 35.04,100.65C30.77,100.65 27.31,92.28 27.31,81.95C27.32,71.62 30.78,63.24 35.04,63.24Z" style="fill:#2f2f2f;fill-rule:nonzero;"/></g><g transform="matrix(1,0,0,1,127.85,0)"><path d="M35.04,101.69C30.12,101.69 26.27,93.02 26.27,81.95C26.27,70.88 30.12,62.21 35.04,62.21C39.95,62.21 43.8,70.88 43.8,81.95C43.8,93.02 39.95,101.69 35.04,101.69ZM35.04,64.28C31.88,64.28 28.35,71.54 28.35,81.95C28.35,92.36 31.88,99.61 35.04,99.61C38.2,99.61 41.72,92.36 41.72,81.95C41.72,71.54 38.2,64.28 35.04,64.28Z" style="fill:#fcc21b;fill-rule:nonzero;"/></g><g transform="matrix(1,0,0,1,127.85,0)"><rect x="13.79" y="63.21" width="21.78" height="37.93" style="fill:#2f2f2f;"/></g><g transform="matrix(1,0,0,1.00906,127.85,0.593802)"><rect x="71.96" y="32.66" width="55.89" height="6.93" style="fill:#2f2f2f;"/></g><g transform="matrix(1,0,0,1,127.85,0)"><path d="M35.44,63.23L20.92,63.23L11.87,33.93L44.49,33.93L35.44,63.23Z" style="fill:#2f2f2f;fill-rule:nonzero;"/></g><g transform="matrix(1,0,0,1,127.85,0)"><path d="M39.84,23.56L16.31,23.56L11.87,33.93L44.49,33.93L39.84,23.56ZM0.15,120.19L28.67,120.19L28.67,100.64L13.36,100.64L0.15,120.19Z" style="fill:#2f2f2f;fill-rule:nonzero;"/></g><g transform="matrix(1,0,0,0.733457,127.545,25.1707)"><path d="M116.51,45.55C116.51,44.01 115.26,42.75 113.7,42.75L101.19,42.75C99.63,42.75 98.36,44.01 98.36,45.55L98.36,67.19C98.36,68.74 99.63,69.99 101.19,69.99L113.7,69.99C115.26,69.99 116.51,68.75 116.51,67.19L116.51,45.55Z" style="fill:#fff;fill-rule:nonzero;"/></g><g transform="matrix(1,0,0,1,127.85,0)"><rect x="0.15" y="114.26" width="28.52" height="5.93" style="fill:#2f2f2f;fill-rule:nonzero;"/></g><g transform="matrix(1,0,0,1,127.85,0)"><path d="M82.79,105.02C82.79,113.55 75.88,120.46 67.37,120.46C58.84,120.46 51.92,113.55 51.92,105.02C51.92,96.49 58.84,89.58 67.37,89.58C75.89,89.58 82.79,96.49 82.79,105.02Z" style="fill:#78a3ad;fill-rule:nonzero;"/></g><g transform="matrix(1,0,0,1,127.85,0)"><path d="M76.25,105.02C76.25,109.93 72.27,113.92 67.36,113.92C62.44,113.92 58.45,109.94 58.45,105.02C58.45,100.1 62.44,96.13 67.36,96.13C72.237,96.13 76.25,100.143 76.25,105.02Z" style="fill:#2f2f2f;fill-rule:nonzero;"/></g><g transform="matrix(1,0,0,1,127.85,0)"><path d="M113.68,105.02C113.68,113.55 106.77,120.46 98.25,120.46C89.72,120.46 82.8,113.55 82.8,105.02C82.8,96.49 89.72,89.58 98.25,89.58C106.77,89.58 113.68,96.49 113.68,105.02Z" style="fill:#78a3ad;fill-rule:nonzero;"/></g><g transform="matrix(1,0,0,1,127.85,0)"><path d="M107.13,105.02C107.13,109.93 103.15,113.92 98.23,113.92C93.32,113.92 89.33,109.94 89.33,105.02C89.33,100.1 93.32,96.13 98.23,96.13C103.15,96.13 107.13,100.11 107.13,105.02Z" style="fill:#2f2f2f;fill-rule:nonzero;"/></g><g transform="matrix(1,0,0,1,127.85,0)"><path d="M70.04,104.25C68.62,104.25 67.46,103.09 67.46,101.66C67.46,100.24 68.62,99.08 70.04,99.08L95.58,99.08C97,99.08 98.15,100.23 98.15,101.66C98.15,101.663 98.15,101.667 98.15,101.67C98.15,103.082 96.992,104.245 95.58,104.25L70.04,104.25Z" style="fill:#fff;fill-rule:nonzero;"/></g><g transform="matrix(1,0,0,1,127.85,0)"><path d="M50.47,109.57C50.47,115.59 45.59,120.46 39.58,120.46C33.55,120.46 28.67,115.59 28.67,109.57C28.67,103.55 33.54,98.69 39.58,98.69C45.59,98.68 50.47,103.55 50.47,109.57Z" style="fill:#78a3ad;fill-rule:nonzero;"/></g><g transform="matrix(1,0,0,1,127.85,0)"><path d="M58.33,54.03L70.34,54.03L70.34,61.72L58.33,61.72L58.33,54.03ZM43.36,56.8L55.26,56.8L55.26,61.83L43.36,61.83L43.36,56.8Z" style="fill:#fcc21b;fill-rule:nonzero;"/></g><g transform="matrix(1,0,0,1,127.85,0)"><path d="M13.36,63.23C17.63,63.23 21.08,71.6 21.08,81.94C21.08,92.27 17.63,100.64 13.36,100.64C9.1,100.64 5.65,92.26 5.65,81.94C5.65,71.61 9.11,63.23 13.36,63.23Z" style="fill:#2f2f2f;fill-rule:nonzero;"/></g><g transform="matrix(1,0,0,1,127.85,0)"><path d="M13.36,101.68C8.45,101.68 4.61,93 4.61,81.94C4.61,70.87 8.46,62.2 13.36,62.2C18.28,62.2 22.12,70.87 22.12,81.94C22.13,93.01 18.28,101.68 13.36,101.68ZM13.36,64.27C10.21,64.27 6.69,71.52 6.69,81.94C6.69,92.35 10.21,99.6 13.36,99.6C16.52,99.6 20.04,92.35 20.04,81.94C20.05,71.53 16.53,64.27 13.36,64.27Z" style="fill:#fcc21b;fill-rule:nonzero;"/></g><g transform="matrix(1,0,0,1,127.85,0)"><rect x="10.59" y="32.69" width="35.18" height="2.63" style="fill:#2f2f2f;fill-rule:nonzero;"/></g></g><g id="Mountain-Railway" serif:id="Mountain Railway"><clipPath id="_clip2"><rect x="256" y="0.024" width="128" height="127.977"/></clipPath><g clip-path="url(#_clip2)"><g id="Mountain" transform="matrix(1.04798,0,0,1.04798,-15.3524,-3.14393)"><clipPath id="_clip3"><rect x="258.93" y="3.023" width="122.14" height="122.118"/></clipPath><g clip-path="url(#_clip3)"><g transform="matrix(1.20326,0,0,1.20326,242.991,-26.0179)"><path d="M56.625,24.117C55.039,24.112 53.325,24.353 51.48,24.837C48.316,25.667 46.775,28.237 45.654,30.117C45.152,30.947 44.649,31.81 44.17,32.219L44.008,32.348C43.225,33.037 43.072,33.141 42.558,33.246C41.554,33.456 41.135,33.258 40.025,32.709C38.495,31.962 36.195,30.816 32.879,31.855C29.516,32.93 27.249,36.143 24.879,40.639C22.379,45.379 18.832,54.52 13.246,66.146L13.246,125.623L114.754,125.623L114.754,69.358C102.33,45.418 101.23,42.85 100.352,41.395C98.915,39.002 95.867,37.04 93.508,37.169C91.149,37.297 88.44,38.639 87.028,40.694C86.572,41.372 83.268,46.254 78.83,52.829C77.534,50.26 76.295,47.843 75.174,45.612C70.666,36.726 68.284,32.018 67.607,30.851C64.997,26.358 61.383,24.131 56.625,24.116L56.625,24.117Z" style="fill:#8d6b63;fill-rule:nonzero;"/></g><g transform="matrix(1,0,0,1,256,1.06068)"><path d="M119.06,106.566C118.57,107.206 118.21,107.906 117.41,108.036C115.77,108.306 114.28,109.036 113.09,110.086C112.3,110.786 111.14,110.886 110.25,110.306L110.23,110.286C108.32,106.676 104.7,105.026 100.33,105.026C96.22,105.026 92.45,106.386 90.45,109.656C89.89,110.556 88.77,110.856 87.81,110.396C86.614,109.823 85.295,109.555 83.97,109.616C83.01,109.656 82.16,109.066 81.8,108.176C79.74,102.976 74.85,100.776 68.91,100.776C62.8,100.776 57.44,103.166 55.49,108.606C55.31,109.106 54.99,109.546 54.52,109.816C54.3,109.946 54.08,110.086 53.88,110.246C53.27,110.736 52.44,110.766 51.73,110.436C50.589,109.909 49.347,109.636 48.09,109.636C46.75,109.636 45.48,109.946 44.34,110.496C43.48,110.906 42.46,110.736 41.8,110.046C40.17,108.326 37.9,107.352 35.53,107.356C33.01,107.356 30.75,108.436 29.16,110.146C28.4,110.976 27.16,111.016 26.29,110.296C25.387,109.55 24.251,109.143 23.08,109.146C22.03,109.146 21.06,109.476 20.26,110.026C19.87,110.296 18.8,110.436 17.79,110.086C16.96,109.806 16.2,109.136 15.69,108.426C12.12,103.376 7.68,101.466 6.39,100.866C3.99,99.736 2.93,100.056 2.93,100.056L2.93,118.866C2.93,119.086 125.07,118.866 125.07,118.866L125.07,100.966C125.07,99.246 121.19,103.776 119.06,106.566Z" style="fill:#bdcf46;fill-rule:nonzero;"/></g></g></g><g id="Railcar"></g><g id="Rail" transform="matrix(1.99293,0,0,1.99293,-317.739,-123.096)"><g transform="matrix(0.501773,0,0,0.246233,287.887,94.4755)"><rect x="0" y="117.809" width="128" height="10.191" style="fill:#5d4037;fill-rule:nonzero;"/></g><g transform="matrix(0.501773,0,0,1,287.887,-0.62)"><rect x="0" y="122.611" width="128" height="2.004" style="fill:#383838;fill-rule:nonzero;"/></g></g></g></g><g id="Railcar1" serif:id="Railcar"></g><g id="Bullet-Train" serif:id="Bullet Train"></g></g></svg>