<?xml version="1.0" encoding="UTF-8" standalone="no"?><!DOCTYPE svg PUBLIC "-//W3C//DTD SVG 1.1//EN" "http://www.w3.org/Graphics/SVG/1.1/DTD/svg11.dtd"><svg width="128px" height="128px" version="1.1" xmlns="http://www.w3.org/2000/svg" xmlns:xlink="http://www.w3.org/1999/xlink" xml:space="preserve" xmlns:serif="http://www.serif.com/" style="fill-rule:evenodd;clip-rule:evenodd;stroke-linejoin:round;stroke-miterlimit:2;"><path d="M56.5,108.513C26.12,106.749 2.558,94.41 2.558,79.472C2.558,63.325 30.089,50.215 64.001,50.215C97.912,50.215 125.444,63.325 125.444,79.472C125.444,94.413 101.872,106.754 71.48,108.514L63.99,88.413L56.5,108.513Z" style="fill:#7cb342;"/><g transform="matrix(0.674533,0,0,0.874716,20.8926,8.0182)"><path d="M63.99,64.836L63.99,64.836C45.225,64.836 30.014,80.048 30.014,98.812C30.014,99.179 30.014,99.377 30.014,99.377C30.014,99.377 25.701,99.377 30.014,99.377C44.691,99.377 63.99,87.479 63.99,72.802C63.99,68.187 63.99,64.836 63.99,64.836Z" style="fill:#fce4ec;"/></g><g transform="matrix(-0.674533,0,0,0.874716,107.219,8.0182)"><path d="M63.99,64.836L63.99,64.836C45.225,64.836 30.014,80.048 30.014,98.812C30.014,99.179 30.014,99.377 30.014,99.377C30.014,99.377 25.701,99.377 30.014,99.377C44.691,99.377 63.99,87.479 63.99,72.802C63.99,68.187 63.99,64.836 63.99,64.836Z" style="fill:#fce4ec;"/></g><g transform="matrix(0.831319,0,0,0.831319,10.7956,10.7956)"><path d="M93.689,34.311L93.688,34.311C85.814,34.311 78.263,37.439 72.695,43.007C67.128,48.574 64,56.126 64,63.999L64,64L64.001,64C71.874,64 79.426,60.872 84.993,55.305C90.561,49.737 93.689,42.186 93.689,34.312L93.689,34.311Z" style="fill:#ebebeb;"/></g><g transform="matrix(0.882714,-0.882714,0.882714,0.882714,-48.9866,63.9997)"><path d="M93.689,34.311L93.688,34.311C85.814,34.311 78.263,37.439 72.695,43.007C67.128,48.574 64,56.126 64,63.999L64,64L64.001,64C71.874,64 79.426,60.872 84.993,55.305C90.561,49.737 93.689,42.186 93.689,34.312L93.689,34.311Z" style="fill:#f9c3d5;"/></g><g transform="matrix(1.37848,0,0,1.04231,-65.1494,28.237)"><path d="M93.689,34.311L93.688,34.311C85.814,34.311 78.263,37.439 72.695,43.007C67.128,48.574 64,56.126 64,63.999L64,64L64.001,64C71.874,64 79.426,60.872 84.993,55.305C90.561,49.737 93.689,42.186 93.689,34.312L93.689,34.311Z" style="fill:#d7598b;"/></g><g transform="matrix(-1.37848,0,0,1.04231,193.149,28.2366)"><path d="M93.689,34.311L93.688,34.311C85.814,34.311 78.263,37.439 72.695,43.007C67.128,48.574 64,56.126 64,63.999L64,64L64.001,64C71.874,64 79.426,60.872 84.993,55.305C90.561,49.737 93.689,42.186 93.689,34.312L93.689,34.311Z" style="fill:#d7598b;"/></g><g transform="matrix(-1.25932,0.495515,0.554554,1.08418,162.956,-19.6236)"><path d="M93.689,34.311L93.688,34.311C85.814,34.311 78.263,37.439 72.695,43.007C67.128,48.574 64,56.126 64,63.999L64,64L64.001,64C71.874,64 79.426,60.872 84.993,55.305C90.561,49.737 93.689,42.186 93.689,34.312L93.689,34.311Z" style="fill:#f193b3;"/></g><g transform="matrix(1.25932,0.495515,-0.554554,1.08418,-34.9556,-19.6236)"><path d="M93.689,34.311L93.688,34.311C85.814,34.311 78.263,37.439 72.695,43.007C67.128,48.574 64,56.126 64,63.999L64,64L64.001,64C71.874,64 79.426,60.872 84.993,55.305C90.561,49.737 93.689,42.186 93.689,34.312L93.689,34.311Z" style="fill:#f193b3;"/></g><g transform="matrix(-0.749492,0.693186,0.693186,0.749492,110.434,-26.6595)"><path d="M93.689,34.311L93.688,34.311C85.814,34.311 78.263,37.439 72.695,43.007C67.128,48.574 64,56.126 64,63.999L64,64L64.001,64C71.874,64 79.426,60.872 84.993,55.305C90.561,49.737 93.689,42.186 93.689,34.312L93.689,34.311Z" style="fill:#d7598b;"/></g><g transform="matrix(0.749492,0.693186,-0.693186,0.749492,17.5649,-26.6595)"><path d="M93.689,34.311L93.688,34.311C85.814,34.311 78.263,37.439 72.695,43.007C67.128,48.574 64,56.126 64,63.999L64,64L64.001,64C71.874,64 79.426,60.872 84.993,55.305C90.561,49.737 93.689,42.186 93.689,34.312L93.689,34.311Z" style="fill:#d7598b;"/></g><g transform="matrix(-0.355411,0.799204,0.799204,0.355411,80.7327,-22.5055)"><path d="M93.689,34.311L93.688,34.311C85.814,34.311 78.263,37.439 72.695,43.007C67.128,48.574 64,56.126 64,63.999L64,64L64.001,64C71.874,64 79.426,60.872 84.993,55.305C90.561,49.737 93.689,42.186 93.689,34.312L93.689,34.311Z" style="fill:#f193b3;"/></g><g transform="matrix(0.355411,0.799204,-0.799204,0.355411,47.2665,-22.5055)"><path d="M93.689,34.311L93.688,34.311C85.814,34.311 78.263,37.439 72.695,43.007C67.128,48.574 64,56.126 64,63.999L64,64L64.001,64C71.874,64 79.426,60.872 84.993,55.305C90.561,49.737 93.689,42.186 93.689,34.312L93.689,34.311Z" style="fill:#f193b3;"/></g><g transform="matrix(-0.0538167,1.09346,1.09346,0.0538167,42.3805,-43.326)"><path d="M93.689,34.311L93.688,34.311C85.814,34.311 78.263,37.439 72.695,43.007C67.128,48.574 64,56.126 64,63.999L64,64L64.001,64C71.874,64 79.426,60.872 84.993,55.305C90.561,49.737 93.689,42.186 93.689,34.312L93.689,34.311Z" style="fill:#f9c3d5;"/></g><g transform="matrix(0.0538167,1.09346,-1.09346,0.0538167,85.6187,-43.326)"><path d="M93.689,34.311L93.688,34.311C85.814,34.311 78.263,37.439 72.695,43.007C67.128,48.574 64,56.126 64,63.999L64,64L64.001,64C71.874,64 79.426,60.872 84.993,55.305C90.561,49.737 93.689,42.186 93.689,34.312L93.689,34.311Z" style="fill:#f9c3d5;"/></g><g transform="matrix(0.515202,0.892356,0.892356,-0.515202,-6.64689,-1.92535)"><path d="M93.689,34.311L93.688,34.311C85.814,34.311 78.263,37.439 72.695,43.007C67.128,48.574 64,56.126 64,63.999L64,64L64.001,64C71.874,64 79.426,60.872 84.993,55.305C90.561,49.737 93.689,42.186 93.689,34.312L93.689,34.311Z" style="fill:#f193b3;"/></g><g transform="matrix(-0.515202,0.892356,-0.892356,-0.515202,134.646,-1.92535)"><path d="M93.689,34.311L93.688,34.311C85.814,34.311 78.263,37.439 72.695,43.007C67.128,48.574 64,56.126 64,63.999L64,64L64.001,64C71.874,64 79.426,60.872 84.993,55.305C90.561,49.737 93.689,42.186 93.689,34.312L93.689,34.311Z" style="fill:#f193b3;"/></g><g transform="matrix(0.62761,-0.62761,0.62761,0.62761,-16.3332,63.9997)"><path d="M93.689,34.311L93.688,34.311C85.814,34.311 76.387,35.563 70.819,41.13C65.251,46.698 64,56.126 64,63.999L64,64L64.001,64C71.874,64 81.302,62.749 86.87,57.181C92.437,51.613 93.689,42.186 93.689,34.312L93.689,34.311Z" style="fill:#d7598b;"/></g><g transform="matrix(-0.381406,0.78713,0.78713,0.381406,72.7252,-22.8313)"><path d="M93.689,34.311L93.688,34.311C85.814,34.311 78.263,37.439 72.695,43.007C67.128,48.574 64,56.126 64,63.999L64,64L64.001,64C71.874,64 79.426,60.872 84.993,55.305C90.561,49.737 93.689,42.186 93.689,34.312L93.689,34.311Z" style="fill:#fce4ec;"/></g><g transform="matrix(0.381406,0.78713,-0.78713,0.381406,55.274,-22.8313)"><path d="M93.689,34.311L93.688,34.311C85.814,34.311 78.263,37.439 72.695,43.007C67.128,48.574 64,56.126 64,63.999L64,64L64.001,64C71.874,64 79.426,60.872 84.993,55.305C90.561,49.737 93.689,42.186 93.689,34.312L93.689,34.311Z" style="fill:#fce4ec;"/></g></svg>