<?xml version="1.0" encoding="UTF-8" standalone="no"?><!DOCTYPE svg PUBLIC "-//W3C//DTD SVG 1.1//EN" "http://www.w3.org/Graphics/SVG/1.1/DTD/svg11.dtd"><svg width="128px" height="128px" version="1.1" xmlns="http://www.w3.org/2000/svg" xmlns:xlink="http://www.w3.org/1999/xlink" xml:space="preserve" xmlns:serif="http://www.serif.com/" style="fill-rule:evenodd;clip-rule:evenodd;stroke-linejoin:round;stroke-miterlimit:1.5;"><g id="Mountain-Railway" serif:id="Mountain Railway" transform="matrix(1,0,0,1,-256,0)"><clipPath id="_clip1"><rect x="256" y="0.024" width="128" height="127.977"/></clipPath><g clip-path="url(#_clip1)"><g id="Mountain"><g transform="matrix(1.20326,0,0,1.20326,242.991,-26.0179)"><path d="M56.625,24.117C55.039,24.112 53.325,24.353 51.48,24.837C48.316,25.667 46.775,28.237 45.654,30.117C45.152,30.947 44.649,31.81 44.17,32.219L44.008,32.348C43.225,33.037 43.072,33.141 42.558,33.246C41.554,33.456 41.135,33.258 40.025,32.709C38.495,31.962 36.195,30.816 32.879,31.855C29.516,32.93 27.249,36.143 24.879,40.639C22.379,45.379 19.309,52.536 14.65,63.396C11.827,69.962 5.586,83.118 0,94.744L0,127.2C-0,127.2 -0,127.201 -0,127.201C-0,127.64 0.361,128.001 0.8,128.001L127.2,128.001C127.639,128.001 128,127.64 128,127.201L128,95.077C115.576,71.137 101.23,42.85 100.352,41.395C98.915,39.002 95.867,37.04 93.508,37.169C91.149,37.297 88.44,38.639 87.028,40.694C86.572,41.372 83.268,46.254 78.83,52.829C77.534,50.26 76.295,47.843 75.174,45.612C70.666,36.726 68.284,32.018 67.607,30.851C64.997,26.358 61.383,24.131 56.625,24.116L56.625,24.117Z" style="fill:#196ca2;fill-rule:nonzero;"/></g><g transform="matrix(1,0,0,1,256,0)"><path d="M0,128.062L0.31,128.062C0.21,128.022 0.1,127.982 0,127.942L0,128.062Z" style="fill:#757f3f;fill-rule:nonzero;"/></g><g transform="matrix(1.20326,0,0,1.20326,242.991,-26.0179)"><path d="M90.554,67.473C89.433,67.379 88.65,66.515 87.868,65.628C86.63,64.203 84.972,61.763 82.683,57.71C82.683,57.71 89.223,48.649 89.69,48.041C92.831,44.164 95.295,46.804 96.51,48.438C97.035,49.139 105.198,63.047 105.338,63.923C105.408,64.367 105.221,64.518 105.046,64.752C104.952,64.88 104.999,65.359 103.329,65.242C103.129,65.234 102.93,65.21 102.734,65.172C102.238,65.092 101.75,64.971 101.274,64.81C100.737,64.624 98.868,63.981 97.385,64.156C96.871,64.215 96.778,64.332 94.407,65.698C91.663,67.321 91.184,67.531 90.554,67.473ZM35.716,40.976C36.452,40.871 38.706,41.116 39.546,41.466C40.457,41.852 43.762,42.214 45.116,41.922C46.261,41.677 47.032,41.409 48.561,39.727C50.29,37.835 51.387,34.811 52.964,33.748C55.954,31.74 59.153,33.655 60.671,36.282C61.267,37.31 64.256,43.207 68.028,50.657C68.495,51.58 69.406,53.39 71.228,56.987C73.341,61.144 74.322,63.281 73.738,64.729C73.446,65.453 72.769,66.317 71.858,66.527C70.574,66.819 69.92,65.557 67.689,64.752C66.872,64.46 64.455,63.608 62.995,64.647C61.909,65.417 62.341,66.539 61.325,68.711C61.056,69.283 59.865,71.829 57.88,72.774C54.856,74.222 50.804,71.584 49.426,70.684C44.743,67.636 43.949,63.829 40.971,64.004C40.177,64.051 39.395,64.121 37.701,64.997C35.039,66.363 34.829,67.473 32.937,68.395C31.804,68.945 29.048,70.287 26.362,69.225C26.035,69.096 23.98,68.045 23.688,65.558C23.548,64.343 24.05,63.351 24.342,62.884C32.33,44.842 33.042,41.362 35.716,40.976Z" style="fill:#fff;fill-rule:nonzero;"/></g><g transform="matrix(1,0,0,1,256,1.06068)"><path d="M119.06,106.566C118.57,107.206 118.21,107.906 117.41,108.036C115.77,108.306 114.28,109.036 113.09,110.086C112.3,110.786 111.14,110.886 110.25,110.306L110.23,110.286C108.32,106.676 104.7,105.026 100.33,105.026C96.22,105.026 92.45,106.386 90.45,109.656C89.89,110.556 88.77,110.856 87.81,110.396C86.614,109.823 85.295,109.555 83.97,109.616C83.01,109.656 82.16,109.066 81.8,108.176C79.74,102.976 74.85,100.776 68.91,100.776C62.8,100.776 57.44,103.166 55.49,108.606C55.31,109.106 54.99,109.546 54.52,109.816C54.3,109.946 54.08,110.086 53.88,110.246C53.27,110.736 52.44,110.766 51.73,110.436C50.589,109.909 49.347,109.636 48.09,109.636C46.75,109.636 45.48,109.946 44.34,110.496C43.48,110.906 42.46,110.736 41.8,110.046C40.17,108.326 37.9,107.352 35.53,107.356C33.01,107.356 30.75,108.436 29.16,110.146C28.4,110.976 27.16,111.016 26.29,110.296C25.387,109.55 24.251,109.143 23.08,109.146C22.03,109.146 21.06,109.476 20.26,110.026C19.87,110.296 18.8,110.436 17.79,110.086C16.96,109.806 16.2,109.136 15.69,108.426C12.12,103.376 7.68,101.466 6.39,100.866C3.99,99.736 -0,100.056 -0,100.056L-0,118.866C-0,119.086 128,118.866 128,118.866L128,100.966C128,99.246 121.19,103.776 119.06,106.566Z" style="fill:#bdcf46;fill-rule:nonzero;"/></g></g><g id="Railcar" transform="matrix(2.3251,0,0,2.3251,-410.154,-162.472)"><g id="Bogie" transform="matrix(0.430089,0,0,0.430089,126.484,69.8774)"><g transform="matrix(1,0,0,1,383.991,2.571)"><rect x="52.18" y="109.66" width="23.657" height="1.2" style="fill:#2b2b2b;fill-rule:nonzero;"/></g><g transform="matrix(1,0,0,1,383.991,2.571)"><path d="M94.314,109.202C94.314,114.305 90.175,118.429 85.08,118.429C79.977,118.429 75.837,114.297 75.837,109.202C75.837,104.092 79.977,99.975 85.08,99.975C90.175,99.975 94.314,104.099 94.314,109.202ZM112.944,109.202C112.944,114.305 108.804,118.429 103.709,118.429C98.606,118.429 94.467,114.297 94.467,109.202C94.467,104.092 98.607,99.975 103.709,99.975C108.812,99.975 112.944,104.099 112.944,109.202ZM33.551,109.202C33.551,114.305 29.411,118.429 24.316,118.429C19.213,118.429 15.074,114.297 15.074,109.202C15.074,104.092 19.214,99.975 24.316,99.975C29.412,99.975 33.551,104.099 33.551,109.202ZM52.18,109.202C52.18,114.305 48.041,118.429 42.946,118.429C37.843,118.429 33.704,114.297 33.704,109.202C33.704,104.092 37.843,99.975 42.946,99.975C48.049,99.975 52.181,104.099 52.181,109.202L52.18,109.202Z" style="fill:#424242;fill-rule:nonzero;"/></g></g><g id="Livery" transform="matrix(0.430089,0,0,0.430089,176.403,69.8774)"><clipPath id="_clip2"><path d="M312,40.879L384,40.879L384,113L289,113C281.554,112.896 268.666,110.992 264.409,110.333C263.457,110.185 262.617,109.625 262.114,108.802C260.947,106.875 259.047,102.976 259.154,98.111C259.154,98.111 258.536,89.384 258.272,85.656C258.193,84.551 258.385,83.443 258.831,82.428C260.645,78.376 265.763,67.408 271,61C285.658,43.065 303.753,41.108 312,40.879Z" clip-rule="nonzero"/></clipPath><g clip-path="url(#_clip2)"><rect x="255" y="40.879" width="129" height="72.121" style="fill:#cbdbe0;"/><g transform="matrix(31.9997,0,0,1,-12863.9,9)"><rect x="410" y="98" width="4" height="6" style="fill:#616161;"/></g><g transform="matrix(31.9997,0,0,1.66667,-12863.9,-66.3333)"><rect x="410" y="98" width="4" height="6" style="fill:#42ade7;"/></g><g transform="matrix(32,0,0,2.66667,-12864,-180.333)"><rect x="410" y="98" width="4" height="6" style="fill:#81cdee;"/></g></g></g><g id="Windows" transform="matrix(0.430089,0,0,0.430089,176.403,69.8774)"><g transform="matrix(1.06544,0,0,1,-14.4736,1.7053e-13)"><rect x="312" y="53" width="62" height="28" style="fill:#424242;"/></g><g transform="matrix(1.08333,0,0,1.40425,-7.05713,-27.0421)"><path d="M300,76.94L281.292,76.94C280.097,76.94 278.99,76.455 278.378,75.663C277.766,74.871 277.739,73.89 278.306,73.078C281.345,68.239 286.495,60.366 289,59C292.272,57.215 300,57 300,57L300,76.94Z" style="fill:#424242;"/></g><g transform="matrix(1.27778,0,0,0.909091,-183.333,3.36364)"><path d="M408,61.2C408,59.986 407.299,59 406.435,59L391.565,59C390.701,59 390,59.986 390,61.2L390,78.8C390,80.014 390.701,81 391.565,81L406.435,81C407.299,81 408,80.014 408,78.8L408,61.2Z" style="fill:#4b6b75;"/></g><g transform="matrix(1,0,0,1,-6.81535,0)"><path d="M291.077,76.54C290.914,76.789 290.636,76.94 290.338,76.94C289.105,76.94 285.683,76.94 282.491,76.94C281.099,76.94 279.826,76.153 279.203,74.907C278.581,73.661 278.715,72.171 279.552,71.057C282.627,66.321 286.817,60.191 289,59C291.49,57.642 298.806,57.192 302.159,57.055C302.49,57.037 302.803,57.206 302.969,57.493C303.135,57.781 303.125,58.137 302.943,58.414C300.264,62.512 292.591,74.228 291.077,76.54Z" style="fill:#4b6b75;"/></g></g><g id="Door" transform="matrix(0.393224,0,0,0.430089,185.693,69.8774)"><g transform="matrix(2.67237,0,0,1.99498,167.182,-129.923)"><path d="M84.127,92.093C84.127,91.872 83.98,91.692 83.8,91.692L71.357,91.692C71.177,91.692 71.03,91.872 71.03,92.093L71.03,118.359C71.03,118.58 71.177,118.76 71.357,118.76L83.8,118.76C83.98,118.76 84.127,118.58 84.127,118.359L84.127,92.093Z" style="fill:#6593a2;"/></g><g transform="matrix(0.911458,0,0,1,-8.85938,-3.12611e-13)"><rect x="405" y="57" width="12" height="34" style="fill:#4b6b75;"/></g><g transform="matrix(0.911458,0,0,1,8.64063,0)"><rect x="405" y="57" width="12" height="34" style="fill:#4b6b75;"/></g><path d="M374.5,53L374.5,107" style="fill:none;stroke:#3e5259;stroke-width:2.09px;"/></g></g><g id="Rail" transform="matrix(1.99293,0,0,1.99293,-317.739,-123.096)"><g transform="matrix(0.501773,0,0,0.246233,287.887,94.4755)"><rect x="0" y="117.809" width="128" height="10.191" style="fill:#7e4a2d;fill-rule:nonzero;"/></g><g transform="matrix(0.501773,0,0,1,287.887,-0.62)"><rect x="0" y="122.611" width="128" height="2.004" style="fill:#383838;fill-rule:nonzero;"/></g></g></g></g></svg>