<?xml version="1.0" encoding="UTF-8" standalone="no"?><!DOCTYPE svg PUBLIC "-//W3C//DTD SVG 1.1//EN" "http://www.w3.org/Graphics/SVG/1.1/DTD/svg11.dtd"><svg width="128px" height="128px" version="1.1" xmlns="http://www.w3.org/2000/svg" xmlns:xlink="http://www.w3.org/1999/xlink" xml:space="preserve" xmlns:serif="http://www.serif.com/" style="fill-rule:evenodd;clip-rule:evenodd;stroke-linecap:round;stroke-linejoin:round;stroke-miterlimit:1.5;"><g transform="matrix(1.35289,0,0,1.35289,-24.5508,-7.65605)"><path d="M97.328,23.064C86.885,31.91 72.973,43.124 60,47.876C50.901,51.21 40.121,51.893 31.821,57.178C30.339,58.122 24.56,62.19 24.778,67.091C25.166,75.791 31.511,78.532 36.038,79.017C64.417,82.055 64,73.294 64,73.294L87.9,51.408" style="fill:#487628;stroke:#6fa03b;stroke-width:1.48px;"/></g><g transform="matrix(1.35289,0,0,1.35289,-24.8854,-10.9722)"><circle cx="37.449" cy="69.461" r="8.532" style="fill:#a4d071;"/></g><g transform="matrix(1.35289,0,0,1.35289,0.769849,-19.0317)"><circle cx="37.449" cy="69.461" r="8.532" style="fill:#a4d071;"/></g><g transform="matrix(1.22269,0,0,1.22269,27.6206,-19.1093)"><circle cx="37.449" cy="69.461" r="8.532" style="fill:#a4d071;"/></g><g transform="matrix(1.09309,0,0,1.09309,49.9974,-21.8554)"><circle cx="37.449" cy="69.461" r="8.532" style="fill:#a4d071;"/></g><g transform="matrix(1.35289,0,0,1.29613,-24.5508,-6.34699)"><path d="M97.328,23.064C92.571,29.195 88.72,36.084 83.445,41.806C75.875,50.019 67.578,56.98 58.269,63.084C52.53,66.848 38.66,72.077 36.34,80.027C32.508,93.16 60.058,94.633 72.143,85.36C85.743,74.924 93.807,58.903 98.945,42.894C100.928,36.715 103.023,30.562 103.352,24.018" style="fill:#6fa03b;"/></g><g transform="matrix(1.11985,0,0,1.11985,-13.3948,-2.63255)"><path d="M108.725,20.21C109.003,20.27 109.278,20.095 109.342,19.817C109.682,18.379 110.248,17.041 111.284,16.338C112.625,15.429 113.602,16.028 114.329,17.168C115.145,18.444 115.445,20.431 115.144,21.929C115.08,22.195 115.231,22.465 115.49,22.55C116.201,22.766 117.514,23.204 117.922,23.618C118.691,24.401 118.535,26.143 117.521,26.646C116.901,26.952 115.55,25.965 114.715,25.269C114.577,25.177 114.401,25.159 114.247,25.222C114.093,25.285 113.98,25.42 113.946,25.583C113.86,26.47 113.554,27.684 112.63,27.874C112.369,27.928 110.652,28.102 110.281,26.601C110.281,26.601 110.281,26.6 110.28,26.6C110.238,26.428 110.103,26.295 109.931,26.256C109.759,26.216 109.579,26.276 109.466,26.412C109.222,26.816 108.892,27.205 108.531,27.355C107.556,27.76 106.126,26.814 106.066,25.768C106.041,25.338 106.55,24.519 106.891,23.953C107.011,23.717 106.938,23.43 106.721,23.28C105.634,22.537 104.746,21.629 105.296,20.434C105.66,19.642 107.584,19.949 108.725,20.21Z" style="fill:#285318;"/></g><g transform="matrix(1.3628,0,0,1.3628,-7.01273,-27.8654)"><path d="M21.796,74.732C21.065,74.993 19.17,75.719 18.437,76.955C18.113,77.502 17.362,78.999 18.639,78.904C19.429,78.845 20.031,77.907 20.464,77.35C21.114,76.512 22.599,75.828 22.821,75.392C23.005,75.03 22.178,74.596 21.796,74.732Z" style="fill:#d8ebc2;"/></g><g transform="matrix(1.35009,0.185639,-0.185639,1.35009,34.5616,-39.6985)"><path d="M21.796,74.732C21.065,74.993 19.17,75.719 18.437,76.955C18.113,77.502 17.362,78.999 18.639,78.904C19.429,78.845 20.031,77.907 20.464,77.35C21.114,76.512 22.599,75.828 22.821,75.392C23.005,75.03 22.178,74.596 21.796,74.732Z" style="fill:#d8ebc2;"/></g><g transform="matrix(0.910411,0.125183,-0.125183,0.910411,60.5013,-13.7577)"><path d="M21.796,74.732C21.065,74.993 19.17,75.719 18.437,76.955C18.113,77.502 17.362,78.999 18.639,78.904C19.429,78.845 20.031,77.907 20.464,77.35C21.114,76.512 22.599,75.828 22.821,75.392C23.005,75.03 22.178,74.596 21.796,74.732Z" style="fill:#d8ebc2;"/></g></svg>