<?xml version="1.0" encoding="UTF-8" standalone="no"?><!DOCTYPE svg PUBLIC "-//W3C//DTD SVG 1.1//EN" "http://www.w3.org/Graphics/SVG/1.1/DTD/svg11.dtd"><svg width="128px" height="128px" version="1.1" xmlns="http://www.w3.org/2000/svg" xmlns:xlink="http://www.w3.org/1999/xlink" xml:space="preserve" xmlns:serif="http://www.serif.com/" style="fill-rule:evenodd;clip-rule:evenodd;stroke-linejoin:round;stroke-miterlimit:2;"><g transform="matrix(1,0,0,1.0663,0,-0.296371)"><ellipse cx="64" cy="54.77" rx="54.5" ry="50.3" style="fill:#232020;"/></g><path d="M64.17,13.58C31.06,13.58 21.22,36.94 21.22,72.49C21.22,108.05 48.08,120.85 64.17,120.85C80.26,120.85 106.78,107.71 106.78,72.16C106.78,36.6 97.28,13.58 64.17,13.58Z" style="fill:#70534a;fill-rule:nonzero;"/><path d="M49.91,75.9C49.91,79.71 47.36,82.8 44.2,82.8C41.04,82.8 38.47,79.71 38.47,75.9C38.47,72.08 41.04,68.99 44.2,68.99C47.36,68.99 49.91,72.08 49.91,75.9M78.08,75.9C78.08,79.71 80.64,82.8 83.8,82.8C86.95,82.8 89.52,79.71 89.52,75.9C89.52,72.08 86.95,68.99 83.8,68.99C80.64,68.99 78.08,72.08 78.08,75.9" style="fill:#444;fill-rule:nonzero;"/><path d="M76.46,41.47C72.12,45.64 50.56,65.07 20.84,70.15L20.84,30.31C20.84,30.31 33.67,4.86 64.45,4.86C95.23,4.86 108.06,30.95 108.06,30.95L108.06,70.15C108.06,70.15 87.89,62.41 77.76,41.72C77.51,41.22 76.86,41.09 76.46,41.47Z" style="fill:#232020;fill-rule:nonzero;"/><path d="M76.38,99.23L51.62,99.23C50.2,99.23 49.59,100.18 50.53,101.61C51.84,103.61 56.72,107.46 64,107.46C71.28,107.46 76.16,103.61 77.47,101.61C78.41,100.19 77.8,99.23 76.38,99.23Z" style="fill:#513f35;fill-rule:nonzero;"/><path d="M69.98,88.71C67.87,89.31 65.69,89.6 64,89.6C62.31,89.6 60.13,89.31 58.02,88.71C57.12,88.45 56.77,89.31 57.09,89.88C57.76,91.06 60.45,93.43 64,93.43C67.55,93.43 70.24,91.06 70.91,89.88C71.24,89.3 70.88,88.45 69.98,88.71Z" style="fill:#563e37;fill-rule:nonzero;"/><path d="M76.46,41.47C72.12,45.64 50.56,65.07 20.84,70.15L20.84,30.31C20.84,30.31 33.67,4.86 64.45,4.86C95.23,4.86 108.06,30.95 108.06,30.95L108.06,70.15C108.06,70.15 87.89,62.41 77.76,41.72C77.51,41.22 76.86,41.09 76.46,41.47Z" style="fill:#232020;fill-rule:nonzero;"/><path d="M49.91,75.9C49.91,79.71 47.36,82.8 44.2,82.8C41.04,82.8 38.47,79.71 38.47,75.9C38.47,72.08 41.04,68.99 44.2,68.99C47.36,68.99 49.91,72.08 49.91,75.9M78.08,75.9C78.08,79.71 80.64,82.8 83.8,82.8C86.95,82.8 89.52,79.71 89.52,75.9C89.52,72.08 86.95,68.99 83.8,68.99C80.64,68.99 78.08,72.08 78.08,75.9" style="fill:#444;fill-rule:nonzero;"/><path d="M76.38,99.23L51.62,99.23C50.2,99.23 49.59,100.18 50.53,101.61C51.84,103.61 56.72,107.46 64,107.46C71.28,107.46 76.16,103.61 77.47,101.61C78.41,100.19 77.8,99.23 76.38,99.23Z" style="fill:#513f35;fill-rule:nonzero;"/><path d="M69.98,88.71C67.87,89.31 65.69,89.6 64,89.6C62.31,89.6 60.13,89.31 58.02,88.71C57.12,88.45 56.77,89.31 57.09,89.88C57.76,91.06 60.45,93.43 64,93.43C67.55,93.43 70.24,91.06 70.91,89.88C71.24,89.3 70.88,88.45 69.98,88.71Z" style="fill:#563e37;fill-rule:nonzero;"/><g><path d="M75.15,3.62L80.96,21.8L66.24,19.9L75.15,3.62Z" style="fill:#f69229;fill-rule:nonzero;"/><path d="M80.99,22.28L80.9,22.28L66.19,20.37C66.034,20.35 65.898,20.252 65.83,20.11C65.758,19.971 65.762,19.805 65.84,19.67L74.75,3.39C74.84,3.22 75.03,3.13 75.21,3.14C75.4,3.16 75.56,3.29 75.62,3.47L81.38,21.52C81.439,21.602 81.47,21.7 81.47,21.8C81.47,22.063 81.253,22.28 80.99,22.28ZM67,19.51L80.28,21.23L75.04,4.82L67,19.51Z" style="fill:#f69229;fill-rule:nonzero;"/><g><path d="M52.85,3.62L47.04,21.8L61.75,19.9L52.85,3.62Z" style="fill:#f69229;fill-rule:nonzero;"/><path d="M47.04,22.28C46.898,22.281 46.762,22.219 46.67,22.11C46.57,21.99 46.53,21.81 46.58,21.66L52.38,3.48C52.444,3.282 52.629,3.147 52.837,3.147C53.014,3.147 53.177,3.244 53.26,3.4L62.17,19.68C62.24,19.82 62.25,19.98 62.18,20.12C62.11,20.26 61.97,20.36 61.82,20.38L47.1,22.28L47.04,22.28ZM52.96,4.82L47.72,21.23L61,19.51L52.96,4.82Z" style="fill:#f69229;fill-rule:nonzero;"/></g></g><path id="a" d="M86.45,4.85C86.276,4.767 86.066,4.803 85.93,4.94L73.41,16.7L64.47,3.35C64.382,3.221 64.236,3.143 64.08,3.14C63.92,3.14 63.77,3.22 63.69,3.35L54.7,16.7L42.18,4.94C42.092,4.856 41.975,4.81 41.854,4.81C41.594,4.81 41.38,5.024 41.38,5.284L41.38,5.3L41.89,24.53C41.89,28.71 51.63,31.99 64.06,31.99C76.49,31.99 86.23,28.71 86.23,24.55L86.74,5.3C86.74,5.11 86.63,4.93 86.45,4.85Z" style="fill:#fbc11b;fill-rule:nonzero;"/></svg>