<?xml version="1.0" encoding="UTF-8" standalone="no"?><!DOCTYPE svg PUBLIC "-//W3C//DTD SVG 1.1//EN" "http://www.w3.org/Graphics/SVG/1.1/DTD/svg11.dtd"><svg width="128px" height="128px" version="1.1" xmlns="http://www.w3.org/2000/svg" xmlns:xlink="http://www.w3.org/1999/xlink" xml:space="preserve" xmlns:serif="http://www.serif.com/" style="fill-rule:evenodd;clip-rule:evenodd;stroke-linecap:round;stroke-linejoin:round;stroke-miterlimit:1.5;"><g id="Ebene1" transform="matrix(1.19146,0,0,1.19146,-10.2518,-21.3056)"><path d="M93.639,104.893L93.639,111.457" style="fill:none;stroke:#1e9ddb;stroke-width:1.68px;"/><path d="M77.905,108.113L77.937,99.673" style="fill:none;stroke:#1e9ddb;stroke-width:1.68px;"/><path d="M109.226,108.232L109.253,101.698" style="fill:none;stroke:#1e9ddb;stroke-width:1.68px;"/></g><g id="ladder" transform="matrix(1.19146,0,0,1.19146,-10.2518,-21.3056)"><g transform="matrix(1,0,0,1,1.93763e-05,0.252298)"><path d="M31.21,45.847L15.387,94.789" style="fill:none;stroke:#ed6c30;stroke-width:2.52px;"/></g><path d="M46.914,42.67L31.21,91.551" style="fill:none;stroke:#ed6c30;stroke-width:2.52px;"/><path d="M17.597,87.953L33.556,84.687" style="fill:none;stroke:#ed6c30;stroke-width:1.68px;"/><path d="M19.908,80.806L35.948,77.523" style="fill:none;stroke:#ed6c30;stroke-width:1.68px;"/><path d="M22.168,73.814L38.019,70.57" style="fill:none;stroke:#ed6c30;stroke-width:1.68px;"/><path d="M24.429,66.822L40.245,63.586" style="fill:none;stroke:#ed6c30;stroke-width:1.68px;"/><path d="M26.689,59.83L42.464,56.602" style="fill:none;stroke:#ed6c30;stroke-width:1.68px;"/><path d="M28.95,52.839L44.681,49.619" style="fill:none;stroke:#ed6c30;stroke-width:1.68px;"/></g><g transform="matrix(1.1243,-0.112998,-0.112998,1.00136,3.2469,1.28705)"><path d="M114.527,106.183L115.036,111.424C115.036,111.424 101.056,107.555 93.459,98.101C84.715,87.219 71.316,57.013 62.569,46.131C56.552,38.646 40.977,32.811 40.977,32.811L40.978,32.81L40.469,27.57C40.469,27.57 56.036,33.51 62.052,40.995C70.8,51.877 84.199,82.083 92.943,92.965C100.54,102.418 114.527,106.183 114.527,106.183Z" style="fill:#1eafdb;stroke:#1eafdb;stroke-width:2.1px;"/></g><g id="slide" transform="matrix(1.19146,0,0,1.19146,-10.1821,-21.3056)"><g transform="matrix(0.943628,-0.0948398,-0.0948398,0.840444,11.271,18.9621)"><path d="M98.687,113.411C98.872,113.475 115.036,111.424 115.036,111.424C115.036,111.424 101.056,107.555 93.459,98.101C84.715,87.219 71.316,57.013 62.569,46.131C56.552,38.646 40.977,32.811 40.977,32.811L24.628,34.798C24.628,34.798 40.192,40.621 46.219,48.119C54.966,59.001 68.365,89.207 77.11,100.089C82.405,106.678 81.619,107.552 98.687,113.411Z" style="fill:#6593a2;"/></g><g transform="matrix(0.943628,-0.0948398,-0.0948398,0.840444,11.271,18.9621)"><path d="M24.564,34.775C24.564,34.775 40.192,40.621 46.219,48.119C54.966,59.001 68.365,89.207 77.11,100.089C82.405,106.678 81.554,107.529 98.622,113.388L98.113,108.147C81.045,102.289 81.889,101.541 76.594,94.952C67.849,84.07 54.45,53.864 45.703,42.982C39.676,35.485 24.112,29.662 24.112,29.662L24.564,34.775Z" style="fill:#1eafdb;stroke:#1eafdb;stroke-width:2.1px;"/></g></g></svg>