<?xml version="1.0" encoding="UTF-8" standalone="no"?><!DOCTYPE svg PUBLIC "-//W3C//DTD SVG 1.1//EN" "http://www.w3.org/Graphics/SVG/1.1/DTD/svg11.dtd"><svg width="128px" height="128px" version="1.1" xmlns="http://www.w3.org/2000/svg" xmlns:xlink="http://www.w3.org/1999/xlink" xml:space="preserve" xmlns:serif="http://www.serif.com/" style="fill-rule:evenodd;clip-rule:evenodd;stroke-linejoin:round;stroke-miterlimit:2;"><g transform="matrix(-0.22018,0.821722,-0.730517,-0.195742,109.672,15.9964)"><path d="M64,18.89L27.2,19.07L34.36,108.87C35.55,118.26 46.69,126 64,126L64,18.89ZM64,18.89L100.8,19.07L93.64,108.87C92.46,118.26 81.32,126 64,126L64,18.89Z" style="fill:#e1f5fe;fill-rule:nonzero;"/></g><g transform="matrix(-0.22018,0.821722,-0.730517,-0.195742,109.672,15.9964)"><path d="M64,3.88C54.54,3.88 45.68,5.67 39.07,8.91C33.39,11.69 30,15.34 30,18.67C30,21.99 33.39,25.64 39.07,28.43C45.68,31.67 54.54,33.46 64,33.46C73.46,33.46 82.32,31.67 88.93,28.43C94.61,25.64 98,22 98,18.67C98,15.35 94.61,11.7 88.93,8.91C82.32,5.66 73.46,3.88 64,3.88Z" style="fill:#e1f5fe;fill-rule:nonzero;"/></g><g transform="matrix(-0.22018,0.821722,-0.730517,-0.195742,109.672,15.9964)"><path d="M64,35.56C43.02,35.56 27.2,28.3 27.2,18.66C27.2,9.03 43.02,1.76 64,1.76C84.98,1.76 100.8,9.02 100.8,18.66C100.8,28.3 84.98,35.56 64,35.56ZM64,3.88C54.54,3.88 45.68,5.67 39.07,8.91C33.39,11.69 30,15.34 30,18.67C30,21.99 33.39,25.64 39.07,28.43C45.68,31.67 54.54,33.46 64,33.46C73.46,33.46 82.32,31.67 88.93,28.43C94.61,25.64 98,22 98,18.67C98,15.35 94.61,11.7 88.93,8.91C82.32,5.66 73.46,3.88 64,3.88Z" style="fill:#94d4f1;fill-rule:nonzero;"/></g><path d="M44.308,81.742C43.786,81.549 43.429,81.064 43.401,80.508C43.372,79.952 43.678,79.433 44.178,79.188C44.972,78.783 45.791,78.434 46.658,78.227C52.425,76.852 57.932,80.278 63.398,81.419C67.371,82.247 71.494,81.218 75.512,81.918C83.59,83.325 90.29,88.767 95.93,94.408C100.404,98.883 104.447,103.625 109.044,107.96C110.31,109.154 110.32,111.105 109.096,112.314C108.531,112.872 107.786,113.324 107.052,113.617C101.639,115.777 99.44,110.195 94.937,108.804C92.966,108.195 91.076,107.946 89.155,108.912C87.655,109.666 86.285,112.792 84.64,113.998C83.516,114.82 80.72,113.326 82.133,109.115C82.795,107.142 83.54,105.5 84.108,103.598C85.764,98.053 81.111,94.202 74.177,92.783C74.177,92.783 52.138,84.636 44.308,81.742Z" style="fill:#1e9ddb;"/><path d="M71.138,62.037C69.055,69.811 68.412,77.441 69.323,83.507C70.08,88.52 71.878,91.947 74.177,92.783L73.547,95.093L9.523,71.632C2.924,68.824 -0.278,58.155 3.536,43.923L3.581,43.757C7.41,29.64 15.482,22.064 22.576,22.92L89.753,34.614L89.143,36.93C86.74,36.507 83.463,38.574 80.301,42.536C76.479,47.334 73.221,54.264 71.138,62.037Z" style="fill:#94d4f1;fill-opacity:0.29;fill-rule:nonzero;"/><g transform="matrix(1,0,0,1,-0.645252,-0.202593)"><path d="M91.801,113.131C91.644,114.231 92.113,118.94 95.109,119.148C96.439,119.241 97.719,117.85 97.446,116.51C97.314,115.863 96.875,115.331 96.431,114.875C95.553,113.974 95.455,113.202 95.055,112.481C92.835,108.483 92.116,110.931 91.801,113.131Z" style="fill:#1e9ddb;"/></g><g transform="matrix(1,0,0,1,0.56726,1.13452)"><path d="M102.756,114.801C103.449,114.801 103.98,116.061 103.98,117.213C103.98,118.366 103.417,119.301 102.724,119.301C102.03,119.301 101.467,118.366 101.467,117.213C101.467,116.061 102.063,114.801 102.756,114.801Z" style="fill:#1e9ddb;"/></g><g transform="matrix(0.425367,-0.0727787,0.0727787,0.425367,53.8851,76.8582)"><path d="M101.823,114.156C102.516,114.156 103.98,116.061 103.98,117.213C103.98,118.366 103.417,119.301 102.724,119.301C102.03,119.301 101.467,118.366 101.467,117.213C101.467,116.061 101.129,114.156 101.823,114.156Z" style="fill:#1e9ddb;"/></g><g transform="matrix(0.726997,-0.68664,0.68664,0.726997,-44.1738,101.58)"><path d="M102.827,114.497C103.52,114.497 103.98,116.061 103.98,117.213C103.98,118.366 103.417,119.301 102.724,119.301C102.03,119.301 101.467,118.366 101.467,117.213C101.467,116.061 102.133,114.497 102.827,114.497Z" style="fill:#1e9ddb;"/></g><g transform="matrix(-0.22018,0.821722,-0.730517,-0.195742,109.672,15.9964)"><path d="M89.01,111.35C88.51,113.14 86.59,116.55 80.7,119.26C77.07,120.94 71.68,122.57 67.14,122.4C66.17,122.36 66.41,121.41 67.06,121.25C70.77,120.34 74.37,119.11 78.58,117.09C84.07,114.46 87.65,111.21 88.16,110.8C89.02,110.1 89.09,111.05 89.01,111.35Z" style="fill:#fff;fill-rule:nonzero;"/></g><path d="M49.141,44.341C50.277,41.299 52.005,38.856 52.495,38.194C53.079,37.417 53.951,37.378 54.274,37.429L78.252,41.898C76.296,44.66 74.442,48.103 72.807,52.074L49.809,45.912C49.305,45.777 48.899,45.157 49.141,44.341Z" style="fill:#fff;fill-rule:nonzero;"/></svg>