<?xml version="1.0" encoding="UTF-8" standalone="no"?><!DOCTYPE svg PUBLIC "-//W3C//DTD SVG 1.1//EN" "http://www.w3.org/Graphics/SVG/1.1/DTD/svg11.dtd"><svg width="128px" height="128px" version="1.1" xmlns="http://www.w3.org/2000/svg" xmlns:xlink="http://www.w3.org/1999/xlink" xml:space="preserve" xmlns:serif="http://www.serif.com/" style="fill-rule:evenodd;clip-rule:evenodd;stroke-miterlimit:10;"><path d="M55.17,61.36C48.36,62.92 42.85,63.86 39.42,69.02C35.56,74.82 36.23,80.75 34.73,86.29C32.42,94.82 30.69,99.21 32.59,109.94C32.76,110.9 33.71,111.74 34.67,111.98C36.31,112.31 38.38,111.98 40.77,111.78C41.1,116.73 42.71,123.88 45.56,128L66,128L64,60.04C60.54,60.16 58.49,60.62 55.17,61.36Z" style="fill:#00bfa5;fill-rule:nonzero;"/><path d="M45.02,81.94C45.02,95.08 39.78,101.1 39.78,111.78" style="fill:none;fill-rule:nonzero;stroke:#000;stroke-opacity:0.5;stroke-width:2px;"/><path d="M35.05,111.01C35.06,113.68 35.54,115.38 37.26,118.65C37.14,118.67 40.64,124.56 44.18,127.45C45.43,128.47 46.97,127.64 46.16,126.61C43.6,123.84 41.09,119.03 41.32,118.96C43.19,118.79 42.64,116.45 42.15,115.2C41.36,113.28 40.98,112.37 40.64,110.4C40.32,108.2 35.22,108.76 35.05,111.01Z" style="fill:#70534a;fill-rule:nonzero;"/><path d="M72.83,61.36C79.64,62.92 85.15,63.86 88.58,69.02C92.44,74.82 91.77,80.75 93.27,86.29C95.58,94.82 97.31,99.21 95.41,109.94C95.24,110.9 94.29,111.74 93.33,111.98C91.69,112.31 89.62,111.98 87.23,111.78C86.9,116.73 85.29,123.88 82.44,128L62,128L64,60.04C67.46,60.16 69.51,60.62 72.83,61.36Z" style="fill:#00bfa5;fill-rule:nonzero;"/><path d="M82.98,81.94C82.98,95.08 88.22,101.1 88.22,111.78" style="fill:none;fill-rule:nonzero;stroke:#000;stroke-opacity:0.5;stroke-width:2px;"/><path d="M92.95,111.01C92.94,113.68 92.46,115.38 90.74,118.65C90.86,118.67 87.36,124.56 83.82,127.45C82.57,128.47 81.03,127.64 81.84,126.61C84.4,123.84 86.91,119.03 86.68,118.96C84.81,118.79 85.36,116.45 85.85,115.2C86.64,113.28 87.02,112.37 87.36,110.4C87.68,108.2 92.78,108.76 92.95,111.01Z" style="fill:#70534a;fill-rule:nonzero;"/><path d="M63.94,67.3C60.484,67.3 57.64,64.456 57.64,61L57.64,55.61L70.24,55.61L70.24,61C70.24,64.456 67.396,67.3 63.94,67.3Z" style="fill:#563e37;fill-rule:nonzero;"/><g transform="matrix(0.437847,0,0,0.437847,35.9778,4.83939)"><path d="M106.91,66.04C106.91,66.04 114.78,67.4 114.78,75.88C114.78,83.36 109.04,86.31 103.3,86.31L103.3,66.04L106.91,66.04ZM21.09,66.04C21.09,66.04 13.22,67.4 13.22,75.88C13.22,83.36 18.96,86.31 24.7,86.31L24.7,66.04L21.09,66.04Z" style="fill:#563e37;fill-rule:nonzero;"/></g><path d="M64,12.36C49.72,12.36 45.99,23.43 45.99,38.97C45.99,54.52 57.06,59.26 64,59.26C70.94,59.26 82.01,54.52 82.01,38.97C82.01,23.42 78.28,12.36 64,12.36Z" style="fill:#70534a;fill-rule:nonzero;"/><path d="M57.84,39.61C57.84,41.28 56.72,42.63 55.34,42.63C53.96,42.63 52.84,41.28 52.84,39.61C52.84,37.94 53.96,36.59 55.34,36.59C56.73,36.58 57.84,37.93 57.84,39.61M70.16,39.61C70.16,41.28 71.28,42.63 72.66,42.63C74.04,42.63 75.16,41.28 75.16,39.61C75.16,37.94 74.04,36.59 72.66,36.59C71.28,36.58 70.16,37.93 70.16,39.61" style="fill:#444;fill-rule:nonzero;"/><path d="M69.42,49.81L58.6,49.81C57.98,49.81 57.71,50.23 58.12,50.85C58.69,51.73 60.83,53.41 64.01,53.41C67.19,53.41 69.33,51.73 69.9,50.85C70.3,50.22 70.04,49.81 69.42,49.81Z" style="fill:#4c3734;fill-rule:nonzero;"/><path d="M66.62,45.54C65.7,45.8 64.74,45.93 64,45.93C63.26,45.93 62.31,45.8 61.38,45.54C60.99,45.43 60.83,45.8 60.97,46.05C61.26,46.56 62.44,47.6 63.99,47.6C65.54,47.6 66.72,46.56 67.01,46.05C67.17,45.8 67.01,45.43 66.62,45.54Z" style="fill:#563e37;fill-rule:nonzero;"/><path d="M50.61,95.27C58.94,89.3 69.06,89.3 77.39,95.27" style="fill:none;fill-rule:nonzero;stroke:#000;stroke-opacity:0.5;stroke-width:2px;"/><g transform="matrix(0.437847,0,0,0.437847,35.9778,4.83939)"><path d="M65.02,5.72C65.02,5.72 64.36,5.7 64.07,5.7C63.78,5.7 63.12,5.72 63.12,5.72C26.53,6.43 15.5,28.44 15.5,43.71C15.5,58.55 15.51,69.45 15.51,69.45C15.51,69.45 16.09,68.85 17.17,68.01C18.32,67.12 19.58,66.62 19.58,66.62L21.43,79L33.62,53.52C33.69,53.36 33.86,53.27 34.03,53.29L41.26,54.09C48.52,54.9 55.82,55.29 63.12,55.31L63.12,55.33C63.44,55.33 63.75,55.32 64.07,55.32C64.39,55.32 64.7,55.33 65.02,55.33L65.02,55.31C72.32,55.29 79.61,54.9 86.88,54.09L94.11,53.29C94.28,53.27 94.45,53.36 94.52,53.52L106.71,79L108.56,66.61C108.56,66.61 109.83,67.11 110.97,68C112.05,68.84 112.63,69.44 112.63,69.44C112.63,69.44 112.64,58.54 112.64,43.7C112.65,28.44 101.62,6.43 65.02,5.72Z" style="fill:#232020;fill-rule:nonzero;"/></g></svg>