<?xml version="1.0" encoding="UTF-8" standalone="no"?><!DOCTYPE svg PUBLIC "-//W3C//DTD SVG 1.1//EN" "http://www.w3.org/Graphics/SVG/1.1/DTD/svg11.dtd"><svg width="128px" height="128px" version="1.1" xmlns="http://www.w3.org/2000/svg" xmlns:xlink="http://www.w3.org/1999/xlink" xml:space="preserve" xmlns:serif="http://www.serif.com/" style="fill-rule:evenodd;clip-rule:evenodd;stroke-linejoin:round;stroke-miterlimit:2;"><g id="Railcar" transform="matrix(1,0,0,1,-402.374,0)"><g id="Bogie" transform="matrix(1,0,0,1,18.3737,-6.66134e-16)"><g transform="matrix(1,0,0,1,383.991,2.571)"><rect x="52.18" y="109.66" width="23.657" height="1.2" style="fill:#2b2b2b;fill-rule:nonzero;"/></g><g transform="matrix(1,0,0,1,383.991,2.571)"><path d="M94.314,109.202C94.314,114.305 90.175,118.429 85.08,118.429C79.977,118.429 75.837,114.297 75.837,109.202C75.837,104.092 79.977,99.975 85.08,99.975C90.175,99.975 94.314,104.099 94.314,109.202ZM112.944,109.202C112.944,114.305 108.804,118.429 103.709,118.429C98.606,118.429 94.467,114.297 94.467,109.202C94.467,104.092 98.607,99.975 103.709,99.975C108.812,99.975 112.944,104.099 112.944,109.202ZM33.551,109.202C33.551,114.305 29.411,118.429 24.316,118.429C19.213,118.429 15.074,114.297 15.074,109.202C15.074,104.092 19.214,99.975 24.316,99.975C29.412,99.975 33.551,104.099 33.551,109.202ZM52.18,109.202C52.18,114.305 48.041,118.429 42.946,118.429C37.843,118.429 33.704,114.297 33.704,109.202C33.704,104.092 37.843,99.975 42.946,99.975C48.049,99.975 52.181,104.099 52.181,109.202L52.18,109.202Z" style="fill:#424242;fill-rule:nonzero;"/></g></g><g id="Body" transform="matrix(1,0,0,1,18.3737,0)"><clipPath id="_clip1"><path d="M512,42.879C512,41.775 511.104,40.879 510,40.879L386.001,40.879C384.897,40.879 384.001,41.775 384.001,42.879L384.001,110.831C384.001,111.935 384.897,112.831 386.001,112.831L510,112.831C511.104,112.831 512,111.935 512,110.831L512,42.879Z"/></clipPath><g clip-path="url(#_clip1)"><g id="Livery"><rect x="384.001" y="40.879" width="127.999" height="72.121" style="fill:#cbdbe0;"/><g transform="matrix(31.9997,0,0,1,-12735.9,9)"><rect x="410" y="98" width="4" height="6" style="fill:#616161;"/></g><g transform="matrix(31.9997,0,0,1.66667,-12735.9,-66.3333)"><rect x="410" y="98" width="4" height="6" style="fill:#42ade7;"/></g><g transform="matrix(32,0,0,2.66667,-12736,-180.333)"><rect x="410" y="98" width="4" height="6" style="fill:#81cdee;"/></g></g><g id="Windows"><g transform="matrix(1,0,0,1.27273,4.54747e-13,-22.0909)"><rect x="384.001" y="59" width="127.999" height="22" style="fill:#424242;"/></g><g transform="matrix(1.77778,0,0,0.909091,-303.333,3.36364)"><path d="M408,61.2C408,59.986 407.496,59 406.875,59L391.125,59C390.504,59 390,59.986 390,61.2L390,78.8C390,80.014 390.504,81 391.125,81L406.875,81C407.496,81 408,80.014 408,78.8L408,61.2Z" style="fill:#4b6b75;"/></g><g transform="matrix(1.77778,0,0,0.909091,-261.333,3.36364)"><path d="M408,61.2C408,59.986 407.496,59 406.875,59L391.125,59C390.504,59 390,59.986 390,61.2L390,78.8C390,80.014 390.504,81 391.125,81L406.875,81C407.496,81 408,80.014 408,78.8L408,61.2Z" style="fill:#4b6b75;"/></g><g transform="matrix(1.77778,0,0,0.909091,-219.333,3.36364)"><path d="M408,61.2C408,59.986 407.496,59 406.875,59L391.125,59C390.504,59 390,59.986 390,61.2L390,78.8C390,80.014 390.504,81 391.125,81L406.875,81C407.496,81 408,80.014 408,78.8L408,61.2Z" style="fill:#4b6b75;"/></g></g></g></g></g></svg>