<?xml version="1.0" encoding="UTF-8" standalone="no"?><!DOCTYPE svg PUBLIC "-//W3C//DTD SVG 1.1//EN" "http://www.w3.org/Graphics/SVG/1.1/DTD/svg11.dtd"><svg width="128px" height="128px" version="1.1" xmlns="http://www.w3.org/2000/svg" xmlns:xlink="http://www.w3.org/1999/xlink" xml:space="preserve" xmlns:serif="http://www.serif.com/" style="fill-rule:evenodd;clip-rule:evenodd;stroke-linejoin:round;stroke-miterlimit:2;"><g transform="matrix(1,0,0,1,-512,0)"><g id="High-Speed-Train" serif:id="High Speed Train"></g><g id="Steam-Locomotive" serif:id="Steam Locomotive"></g><g id="Mountain-Railway" serif:id="Mountain Railway"></g><g id="Railcar" transform="matrix(1,0,0,0.99849,109.626,0.182736)"><g id="Bogie" transform="matrix(1,0,0,1,18.3737,-6.66134e-16)"><g transform="matrix(1,0,0,1,383.991,2.571)"><rect x="52.18" y="109.66" width="23.657" height="1.2" style="fill:#2b2b2b;fill-rule:nonzero;"/></g><g transform="matrix(1,0,0,1,383.991,2.571)"><path d="M94.314,109.202C94.314,114.305 90.175,118.429 85.08,118.429C79.977,118.429 75.837,114.297 75.837,109.202C75.837,104.092 79.977,99.975 85.08,99.975C90.175,99.975 94.314,104.099 94.314,109.202ZM112.944,109.202C112.944,114.305 108.804,118.429 103.709,118.429C98.606,118.429 94.467,114.297 94.467,109.202C94.467,104.092 98.607,99.975 103.709,99.975C108.812,99.975 112.944,104.099 112.944,109.202ZM33.551,109.202C33.551,114.305 29.411,118.429 24.316,118.429C19.213,118.429 15.074,114.297 15.074,109.202C15.074,104.092 19.214,99.975 24.316,99.975C29.412,99.975 33.551,104.099 33.551,109.202ZM52.18,109.202C52.18,114.305 48.041,118.429 42.946,118.429C37.843,118.429 33.704,114.297 33.704,109.202C33.704,104.092 37.843,99.975 42.946,99.975C48.049,99.975 52.181,104.099 52.181,109.202L52.18,109.202Z" style="fill:#212121;fill-rule:nonzero;"/></g></g><g id="Body" transform="matrix(1,0,0,1,18.3737,0)"><clipPath id="_clip1"><rect x="384.001" y="40.879" width="127.999" height="72.109"/></clipPath><g clip-path="url(#_clip1)"><g id="Livery"><rect x="384.001" y="40.879" width="127.999" height="72.121" style="fill:#afc7cf;"/><g transform="matrix(31.9997,0,0,1.00353,-12735.9,8.63297)"><rect x="410" y="98" width="4" height="6" style="fill:#616161;"/></g><g transform="matrix(31.9997,0,0,1.66919,-12735.9,-66.6167)"><rect x="410" y="98" width="4" height="6" style="fill:#42ade7;"/></g><g transform="matrix(32,0,0,2.6707,-12736,-180.789)"><rect x="410" y="98" width="4" height="6" style="fill:#81cdee;"/></g></g><g id="Windows"><g transform="matrix(0.984383,0,0,1.27273,6.99602,-22.1938)"><path d="M512,60.574C512,59.705 511.09,59 509.968,59L386.033,59C384.911,59 384.001,59.705 384.001,60.574L384.001,79.426C384.001,80.295 384.911,81 386.033,81L509.968,81C511.09,81 512,80.295 512,79.426L512,60.574Z" style="fill:#424242;"/></g><g transform="matrix(1.77778,0,0,0.909091,-303.333,3.26684)"><path d="M408,61.203C408,59.987 407.496,59 406.875,59L391.125,59C390.504,59 390,59.987 390,61.203L390,78.797C390,80.013 390.504,81 391.125,81L406.875,81C407.496,81 408,80.013 408,78.797L408,61.203Z" style="fill:#4b6b75;"/></g><g transform="matrix(1.77778,0,0,0.909091,-261.333,3.26684)"><path d="M408,61.203C408,59.987 407.496,59 406.875,59L391.125,59C390.504,59 390,59.987 390,61.203L390,78.797C390,80.013 390.504,81 391.125,81L406.875,81C407.496,81 408,80.013 408,78.797L408,61.203Z" style="fill:#4b6b75;"/></g><g transform="matrix(1.77778,0,0,0.909091,-219.333,3.26684)"><path d="M408,61.203C408,59.987 407.496,59 406.875,59L391.125,59C390.504,59 390,59.987 390,61.203L390,78.797C390,80.013 390.504,81 391.125,81L406.875,81C407.496,81 408,80.013 408,78.797L408,61.203Z" style="fill:#4b6b75;"/></g></g></g></g></g><g id="Bullet-Train" serif:id="Bullet Train" transform="matrix(-1,0,0,1,1024,0)"><g id="Bogie1" serif:id="Bogie"></g><g id="Body1" serif:id="Body"><g id="Cab"></g><g id="Livery1" serif:id="Livery" transform="matrix(1,0,0,1,128,0)"><clipPath id="_clip2"><path d="M384,107L384,113L501.085,113.085L495,107L384,107L495,107C495,107 510,103.336 510,91C510,82 487.894,73.886 473.419,73C458.944,72.114 447.226,69 433,64C421.107,59.82 402,41 387,41L384.001,41L384,107Z"/></clipPath><g clip-path="url(#_clip2)"><g transform="matrix(1,0,0,0.998322,-1.09139e-11,0.189584)"><rect x="384.001" y="40.879" width="127.999" height="72.121" style="fill:#afc7cf;"/></g><g transform="matrix(31.9997,0,0,1,-12735.9,9)"><rect x="410" y="98" width="4" height="6" style="fill:#616161;"/></g><g transform="matrix(31.9997,0,0,1.66667,-12735.9,-66.3333)"><rect x="410" y="98" width="4" height="6" style="fill:#42ade7;"/></g><g transform="matrix(32,0,0,2.66667,-12736,-180.333)"><rect x="410" y="98" width="4" height="6" style="fill:#81cdee;"/></g></g></g></g></g></g></svg>