<?xml version="1.0" encoding="UTF-8" standalone="no"?><!DOCTYPE svg PUBLIC "-//W3C//DTD SVG 1.1//EN" "http://www.w3.org/Graphics/SVG/1.1/DTD/svg11.dtd"><svg width="128px" height="128px" version="1.1" xmlns="http://www.w3.org/2000/svg" xmlns:xlink="http://www.w3.org/1999/xlink" xml:space="preserve" xmlns:serif="http://www.serif.com/" style="fill-rule:evenodd;clip-rule:evenodd;stroke-linejoin:round;stroke-miterlimit:2;"><path d="M63.79,8.64C1.48,8.64 0,78.5 0,92.33C0,106.16 28.56,117.36 63.79,117.36C99.03,117.36 127.58,106.15 127.58,92.33C127.58,78.5 126.11,8.64 63.79,8.64Z" style="fill:#fcc21b;fill-rule:nonzero;"/><path d="M42.21,66.47C37.72,66.51 34.04,62.2 33.99,56.85C33.94,51.48 37.54,47.1 42.03,47.06C46.51,47.02 50.2,51.33 50.25,56.7C50.3,62.06 46.7,66.43 42.21,66.47ZM86.32,66.47C90.8,66.46 94.43,62.11 94.42,56.76C94.41,51.39 90.76,47.06 86.28,47.07C81.79,47.08 78.15,51.43 78.16,56.8C78.18,62.15 81.83,66.48 86.32,66.47Z" style="fill:#2f2f2f;fill-rule:nonzero;"/><g transform="matrix(0.680022,0,0,0.187061,20.4786,64.3982)"><path d="M34.793,96.38C49.213,113.888 78.787,113.888 93.207,96.38C95.517,93.577 96.765,84.485 95.994,76.09C95.223,67.695 92.722,63.156 90.413,65.96C77.373,81.792 50.627,81.792 37.587,65.96C35.278,63.156 32.777,67.695 32.006,76.09C31.235,84.485 32.483,93.577 34.793,96.38Z" style="fill:#2f2f2f;"/></g><g transform="matrix(0.214232,0.956755,-1.25256,0.280468,144.034,-23.2773)"><path d="M29.92,120.105C33.09,120.588 39.2,120.5 39.32,116.03L39.98,101.26C40,101.02 41.06,85.23 32.89,76.8L32.77,76.67C27.02,69.91 24.5,65.12 21.92,56.69C21.06,53.9 19.03,51.28 15.54,51.7C13.07,52 10.69,53.05 10.85,60.93C11.04,70.11 12.87,79.25 16.55,85.65C21.69,94.6 20.35,104.82 20.91,111.37C21.25,115.48 22.615,118.993 29.92,120.105Z" style="fill:#ef6c00;"/></g></svg>