<?xml version="1.0" encoding="UTF-8" standalone="no"?><!DOCTYPE svg PUBLIC "-//W3C//DTD SVG 1.1//EN" "http://www.w3.org/Graphics/SVG/1.1/DTD/svg11.dtd"><svg width="128px" height="128px" version="1.1" xmlns="http://www.w3.org/2000/svg" xmlns:xlink="http://www.w3.org/1999/xlink" xml:space="preserve" xmlns:serif="http://www.serif.com/" style="fill-rule:evenodd;clip-rule:evenodd;stroke-linecap:round;stroke-linejoin:round;stroke-miterlimit:1.5;"><path d="M127.89,100.05L127.89,34.95C127.89,33.17 126.99,31.53 125.5,30.58L80.11,1.35C77.7,-0.2 74.49,0.5 72.93,2.9C71.38,5.32 72.07,8.53 74.49,10.08L117.5,37.77L117.5,95.88L105.28,95.88C102.44,95.88 100.12,98.2 100.12,101.03L100.12,127L128,127L128,101.03C128,100.7 127.95,100.37 127.89,100.05Z" style="fill:#78a3ad;fill-rule:nonzero;"/><g id="Train" transform="matrix(0.917431,0,0,0.917431,1.89905,15.8257)"><path d="M44,110L44,119" style="fill:none;stroke:#000;stroke-width:4px;"/><g transform="matrix(1,0,0,1,40,0)"><path d="M44,110L44,119" style="fill:none;stroke:#000;stroke-width:4px;"/></g><g transform="matrix(1.00885,0,0,1,-0.566496,0)"><path d="M26.36,102C26.36,102 27.051,107.244 31,111.5C31,111.5 53,112.5 64,112.5C75,112.5 97,111.5 97,111.5C100.949,107.244 101.64,102 101.64,102" style="fill:#616161;"/></g><g id="Livery"><g><clipPath id="_clip1"><path d="M64,107C80.988,106.486 94.663,105.09 101.973,102C101.973,102 104.994,91.923 105,70C105.005,51.656 99.351,29.703 97.505,23.024C97.113,21.658 96.41,20.4 95.451,19.351C92.548,16.191 89.495,13.328 86.197,10.951C85.329,10.337 84.292,10.007 83.229,10.007C78.358,10 64,10 64,10L44.771,10C43.707,10 42.668,10.33 41.799,10.945C38.505,13.328 35.452,16.191 32.549,19.351C31.59,20.4 30.887,21.658 30.495,23.024C28.649,29.703 22.995,51.656 23,70C23.006,91.923 26.027,102 26.027,102C33.337,105.09 47.012,106.486 64,107Z"/></clipPath><g clip-path="url(#_clip1)"><g transform="matrix(1.00886,0,0,1,-0.566929,2.22045e-16)"><rect x="23.36" y="10" width="81.28" height="102" style="fill:#93b1bb;"/></g><g id="Design"><g><clipPath id="_clip2"><path d="M64,107C80.988,106.486 94.663,105.09 101.973,102C101.973,102 104.994,91.923 105,70C105.005,51.656 99.351,29.703 97.505,23.024C97.113,21.658 96.41,20.4 95.451,19.351C92.548,16.191 89.495,13.328 86.197,10.951C85.329,10.337 84.292,10.007 83.229,10.007C78.358,10 64,10 64,10L44.771,10C43.707,10 42.668,10.33 41.799,10.945C38.505,13.328 35.452,16.191 32.549,19.351C31.59,20.4 30.887,21.658 30.495,23.024C28.649,29.703 22.995,51.656 23,70C23.006,91.923 26.027,102 26.027,102C33.337,105.09 47.012,106.486 64,107ZM79.212,60.426C79.211,60.427 79.211,60.427 79.211,60.428C78.243,62.803 76.916,66.498 76.67,69.069C76.372,72.195 77.691,74 80,74C84.018,74 86.441,73.018 87.978,71.641C90.258,69.599 90.69,66.461 90.992,63.183C91.357,59.209 88.018,57.55 84.969,57.108C84.962,57.107 84.955,57.106 84.948,57.105C82.503,56.778 80.145,58.143 79.212,60.426ZM48.789,60.428C48.789,60.427 48.789,60.427 48.788,60.426C47.855,58.143 45.497,56.778 43.052,57.105C43.045,57.106 43.038,57.107 43.031,57.108C39.982,57.55 36.643,59.209 37.008,63.183C37.31,66.461 37.742,69.599 40.022,71.641C41.559,73.018 43.982,74 48,74C48.926,74 49.63,73.688 50.174,73.201C50.809,72.633 51.26,71.732 51.354,70.518C51.553,67.969 49.947,63.27 48.789,60.428Z"/></clipPath><g clip-path="url(#_clip2)"><g transform="matrix(1.00886,0,0,0.741935,-0.566929,8.90323)"><rect x="23.36" y="81" width="81.28" height="31" style="fill:#81cdee;"/></g><g transform="matrix(1.00886,0,0,0.451613,-0.566929,55.4194)"><rect x="23.36" y="81" width="81.28" height="31" style="fill:#42ade7;"/></g></g></g></g></g></g></g><path id="Window" d="M64,58.5C81.363,58.5 82,57 82,57C85.63,40.948 86.627,28.829 86.899,23.695C86.942,22.149 85.843,20.805 84.32,20.541C80.504,19.951 72.965,19 64,19C55.035,19 47.496,19.951 43.681,20.542C42.157,20.806 41.059,22.149 41.102,23.694C41.373,28.829 42.37,40.948 46,57C46,57 46.637,58.5 64,58.5Z" style="fill:#4b6b75;"/><g transform="matrix(2.53553,0,0,2.4569,-103.093,-136.121)"><path d="M73,92.035C73,91.495 72.792,90.978 72.422,90.596C72.053,90.214 71.551,90 71.028,90L60.774,90C60.251,90 59.749,90.214 59.379,90.596C59.01,90.978 58.802,91.495 58.802,92.035L58.802,100.175L73,100.175L73,92.035Z" style="fill:#616161;"/></g><g id="Coupling" transform="matrix(1.14286,0,0,1.3,-11.4286,-28)"><path d="M73,91.538C73,90.689 72.217,90 71.25,90L60.75,90C59.783,90 59,90.689 59,91.538L59,98.462C59,99.311 59.783,100 60.75,100L71.25,100C72.217,100 73,99.311 73,98.462L73,91.538Z" style="fill:#2b3b40;"/></g><g id="Lights"><path d="M46.937,61.183C46.348,59.742 44.86,58.881 43.318,59.087C41.241,59.388 38.751,60.293 39,63C39.421,67.581 39.673,72 48,72C50.959,72 48.446,64.885 46.937,61.183Z" style="fill:#fafafa;"/><g transform="matrix(-1,0,0,1,128,0)"><path d="M46.937,61.183C46.348,59.742 44.86,58.881 43.318,59.087C41.241,59.388 38.751,60.293 39,63C39.421,67.581 39.673,72 48,72C50.959,72 48.446,64.885 46.937,61.183Z" style="fill:#fafafa;"/></g></g></g></svg>