<?xml version="1.0" encoding="UTF-8" standalone="no"?><!DOCTYPE svg PUBLIC "-//W3C//DTD SVG 1.1//EN" "http://www.w3.org/Graphics/SVG/1.1/DTD/svg11.dtd"><svg width="128px" height="128px" version="1.1" xmlns="http://www.w3.org/2000/svg" xmlns:xlink="http://www.w3.org/1999/xlink" xml:space="preserve" xmlns:serif="http://www.serif.com/" style="fill-rule:evenodd;clip-rule:evenodd;stroke-linecap:round;stroke-linejoin:round;stroke-miterlimit:1.5;"><g transform="matrix(1.68864,0,0,1.68864,-79.61,-25.9662)"><path d="M110.22,33.454C112.965,33.191 116.149,32.417 118.127,30.384C118.973,29.515 120.516,26.211 120.572,26.212C121.033,26.214 120.797,30.372 120.868,31.762C121.168,37.642 121.542,43.301 119.571,48.954" style="fill:#487628;"/></g><g transform="matrix(-1.68864,0,0,1.68864,208.02,-25.9662)"><path d="M110.22,33.454C112.965,33.191 116.149,32.417 118.127,30.384C118.973,29.515 120.516,26.211 120.572,26.212C121.033,26.214 120.797,30.372 120.868,31.762C121.168,37.642 121.542,43.301 119.571,48.954" style="fill:#487628;"/></g><path d="M63.89,9.64C1.58,9.64 0.1,79.5 0.1,93.33C0.1,107.16 28.66,118.36 63.89,118.36C99.13,118.36 127.68,107.15 127.68,93.33C127.68,79.5 126.21,9.64 63.89,9.64Z" style="fill:#7cb342;fill-rule:nonzero;"/><g transform="matrix(-1.4142,0,0,1.54598,152.039,-47.8629)"><path d="M46.584,86.62L50.266,79.702L52.555,87.664L46.584,86.62Z" style="fill:#ffecb3;"/></g><g transform="matrix(1.4142,0,0,1.54598,-24.2595,-47.8629)"><path d="M46.584,86.62L50.266,79.702L52.555,87.664L46.584,86.62Z" style="fill:#ffecb3;"/></g><rect x="0.41" y="0" width="127.59" height="128" style="fill:none;fill-rule:nonzero;"/><path d="M42,68C37.51,68.04 33.83,63.73 33.78,58.38C33.73,53.01 37.33,48.63 41.82,48.59C46.3,48.55 49.99,52.86 50.04,58.23C50.09,63.59 46.49,67.96 42,68ZM86.11,68C90.59,67.99 94.22,63.64 94.21,58.29C94.2,52.92 90.55,48.59 86.07,48.6C81.58,48.61 77.94,52.96 77.95,58.33C77.97,63.68 81.62,68.01 86.11,68Z" style="fill:#2f2f2f;fill-rule:nonzero;"/><g transform="matrix(1,0,0,1,-3.88962,2.47306)"><path d="M45.51,84.147C57.257,86.62 78.302,86.62 90.049,84.147" style="fill:none;stroke:#2f2f2f;stroke-width:6px;"/></g><g transform="matrix(1,0,0,1,10.3725,-42.2062)"><path d="M26.914,84.147C38.661,86.62 69.004,86.62 80.751,84.147" style="fill:none;stroke:#2f2f2f;stroke-width:6px;"/></g><path d="M33.779,16.763C39.275,13.852 42.309,5.749 42.68,5.311C43.206,4.69 46.138,10.74 47.421,11.569C47.741,11.776 55.435,4.337 55.938,4.159C56.156,4.082 59.498,9.578 61.104,9.598C63.753,9.632 65.195,4.301 67.151,2.959C67.25,2.89 71.264,9.41 72.897,10.161C73.366,10.377 78.326,4.673 80.528,3.693C80.763,3.589 86.312,12.123 91.124,15.282" style="fill:#7cb342;"/></svg>