<?xml version="1.0" encoding="UTF-8" standalone="no"?><!DOCTYPE svg PUBLIC "-//W3C//DTD SVG 1.1//EN" "http://www.w3.org/Graphics/SVG/1.1/DTD/svg11.dtd"><svg width="128px" height="128px" version="1.1" xmlns="http://www.w3.org/2000/svg" xmlns:xlink="http://www.w3.org/1999/xlink" xml:space="preserve" xmlns:serif="http://www.serif.com/" style="fill-rule:evenodd;clip-rule:evenodd;stroke-linecap:round;stroke-linejoin:round;stroke-miterlimit:1.5;"><g id="Ebene1" transform="matrix(1.06667,0,0,1.06667,-4.26667,21.7333)"><clipPath id="_clip1"><path d="M52,64L52,76L76,76L76,64L128.061,11.939L128.061,-13L0,-13L0,12L52,64Z"/></clipPath><g clip-path="url(#_clip1)"><g transform="matrix(2.4,0,0,2.4,-89.6,-89.6)"><circle cx="64" cy="64" r="5" style="fill:#1eafdb;"/></g><g transform="matrix(4.8,0,0,4.8,-243.2,-243.2)"><circle cx="64" cy="64" r="5" style="fill:none;stroke:#1eafdb;stroke-width:2.34px;"/></g><g transform="matrix(8.4,0,0,8.4,-473.6,-473.6)"><circle cx="64" cy="64" r="5" style="fill:none;stroke:#1eafdb;stroke-width:1.34px;"/></g><g transform="matrix(12,0,0,12,-704,-704)"><circle cx="64" cy="64" r="5" style="fill:none;stroke:#1eafdb;stroke-width:0.94px;"/></g></g></g></svg>