<?xml version="1.0" encoding="UTF-8" standalone="no"?><!DOCTYPE svg PUBLIC "-//W3C//DTD SVG 1.1//EN" "http://www.w3.org/Graphics/SVG/1.1/DTD/svg11.dtd"><svg width="128px" height="128px" version="1.1" xmlns="http://www.w3.org/2000/svg" xmlns:xlink="http://www.w3.org/1999/xlink" xml:space="preserve" xmlns:serif="http://www.serif.com/" style="fill-rule:evenodd;clip-rule:evenodd;stroke-linecap:round;stroke-linejoin:round;stroke-miterlimit:1.5;"><path d="M119.809,13.863C119.809,10.733 117.267,8.191 114.137,8.191L13.863,8.191C10.733,8.191 8.191,10.733 8.191,13.863L8.191,114.137C8.191,117.267 10.733,119.809 13.863,119.809L114.137,119.809C117.267,119.809 119.809,117.267 119.809,114.137L119.809,13.863Z" style="fill:#2b3b40;stroke:#6593a2;stroke-width:8px;"/><g transform="matrix(0.655151,0,0,0.655151,22.0703,22.634)"><path d="M64,9.64C1.69,9.64 0.21,79.5 0.21,93.33C0.21,107.16 28.77,118.36 64,118.36C99.24,118.36 127.79,107.15 127.79,93.33C127.79,79.5 126.32,9.64 64,9.64Z" style="fill:#4b6b75;fill-rule:nonzero;stroke:#dcf6f5;stroke-width:4.58px;stroke-linecap:butt;stroke-miterlimit:2;"/></g><g transform="matrix(0.560925,0,0,0.560925,28.1008,30.6418)"><path d="M80.46,90.47C80.46,104.56 73.09,110.5 64,110.5C54.91,110.5 47.54,104.56 47.54,90.47C47.54,76.38 54.91,59.47 64,59.47C73.09,59.47 80.46,76.38 80.46,90.47Z" style="fill:#2b3b40;fill-rule:nonzero;stroke:#dcf6f5;stroke-width:5.35px;stroke-linecap:butt;stroke-miterlimit:2;"/></g><g transform="matrix(0.0724608,-0.651132,0.651132,0.0724608,22.0703,22.634)"><ellipse cx="-35.503" cy="90.427" rx="19.385" ry="18.09" style="fill:#2b3b40;stroke:#dcf6f5;stroke-width:4.58px;stroke-linecap:butt;stroke-miterlimit:2;"/></g><g transform="matrix(0.653296,-0.0492706,0.0492706,0.653296,22.0703,22.634)"><ellipse cx="38.936" cy="48.365" rx="18.261" ry="19.569" style="fill:#2b3b40;stroke:#dcf6f5;stroke-width:4.58px;stroke-linecap:butt;stroke-miterlimit:2;"/></g><g transform="matrix(0.655151,0,0,0.655151,22.0703,22.634)"><path d="M29.08,121.23C33.77,122.56 39.2,120.5 39.32,116.03L39.98,101.26C40,101.02 41.06,85.23 32.89,76.8L32.77,76.67C27.02,69.91 24.5,65.12 21.92,56.69C21.06,53.9 19.03,51.28 15.54,51.7C13.07,52 10.69,53.05 10.85,60.93C11.04,70.11 12.87,79.25 16.55,85.65C21.69,94.6 20.35,104.82 20.91,111.37C21.25,115.48 24.14,120 29.08,121.23ZM98.92,121.23C94.23,122.56 88.8,120.5 88.68,116.03L88.02,101.26C88,101.02 86.94,85.23 95.11,76.8L95.23,76.67C100.98,69.91 103.5,65.12 106.08,56.69C106.94,53.9 108.97,51.28 112.46,51.7C114.93,52 117.31,53.05 117.15,60.93C116.96,70.11 115.13,79.25 111.45,85.65C106.31,94.6 107.65,104.82 107.09,111.37C106.75,115.48 103.86,120 98.92,121.23Z" style="fill:#2b3b40;fill-rule:nonzero;stroke:#dcf6f5;stroke-width:4.58px;stroke-linecap:butt;stroke-miterlimit:2;"/></g><g transform="matrix(1,0,0,1,-0.0615523,0)"><path d="M33.266,64L39.552,78.312" style="fill:none;stroke:#dcf6f5;stroke-width:3px;"/></g><g transform="matrix(-1,0,0,1,128.062,0)"><path d="M33.266,64L39.552,78.312" style="fill:none;stroke:#dcf6f5;stroke-width:3px;"/></g><g transform="matrix(1,0,0,1,-0.0615523,0)"><path d="M40.95,81.414L42.387,97.818" style="fill:none;stroke:#dcf6f5;stroke-width:3px;"/></g><g transform="matrix(-1,0,0,1,128.062,0)"><path d="M40.95,81.414L42.387,97.818" style="fill:none;stroke:#dcf6f5;stroke-width:3px;"/></g></svg>