<?xml version="1.0" encoding="UTF-8" standalone="no"?><!DOCTYPE svg PUBLIC "-//W3C//DTD SVG 1.1//EN" "http://www.w3.org/Graphics/SVG/1.1/DTD/svg11.dtd"><svg width="128px" height="128px" version="1.1" xmlns="http://www.w3.org/2000/svg" xmlns:xlink="http://www.w3.org/1999/xlink" xml:space="preserve" xmlns:serif="http://www.serif.com/" style="fill-rule:evenodd;clip-rule:evenodd;stroke-linecap:round;stroke-linejoin:round;stroke-miterlimit:1.5;"><g id="Ebene3" transform="matrix(1,0,0,1,0,2.83686)"><g transform="matrix(1,0,0,1,0.241509,-6.44259)"><circle cx="39.608" cy="93.102" r="29.223" style="fill:#81d7ee;"/></g><g transform="matrix(1,0,0,1,0.241509,-6.44259)"><circle cx="39.608" cy="93.102" r="29.223" style="fill:#f4a4bf;fill-opacity:0.71;"/></g><g transform="matrix(1,0,0,1,4.46792,-10.669)"><clipPath id="_clip1"><circle cx="35.381" cy="97.328" r="29.223"/></clipPath><g clip-path="url(#_clip1)"><circle cx="39.608" cy="93.102" r="29.223" style="fill:#81d7ee;"/></g></g><g transform="matrix(1,0,0,1,0,5.75364)"><path d="M36.593,57.437C36.593,57.437 20.694,58.98 16.588,76.369" style="fill:none;stroke:#fff;stroke-opacity:0.79;stroke-width:5px;"/></g></g><g id="Ebene1" transform="matrix(1,0,0,1,-6.38294,-5.20091)"><g transform="matrix(1,0,0,1,15.0943,9.66038)"><circle cx="58.204" cy="22.823" r="16.543" style="fill:#81cdee;"/></g><path d="M66.286,24.111C66.286,24.111 63.017,26.232 62.987,32.483" style="fill:none;stroke:#fff;stroke-opacity:0.79;stroke-width:8px;"/></g><g id="Ebene2" transform="matrix(1,0,0,1,-1.38955,-5.02066)"><g transform="matrix(2.01099,0,0,2.01099,-98.3101,-57.5162)"><circle cx="94.913" cy="63.879" r="10.989" style="fill:#bae3f5;"/></g><g transform="matrix(2.01099,0,0,2.01099,-96.378,-60.1728)"><clipPath id="_clip2"><circle cx="93.952" cy="65.2" r="10.989"/></clipPath><g clip-path="url(#_clip2)"><circle cx="94.913" cy="63.879" r="10.989" style="fill:#81d7ee;"/></g></g><g transform="matrix(1,0,0,1,-2.83686,-2.83686)"><path d="M89.842,57.437C89.842,57.437 80.256,61.054 78.583,71.323" style="fill:none;stroke:#fff;stroke-opacity:0.79;stroke-width:5px;"/></g></g></svg>