<?xml version="1.0" encoding="UTF-8" standalone="no"?><!DOCTYPE svg PUBLIC "-//W3C//DTD SVG 1.1//EN" "http://www.w3.org/Graphics/SVG/1.1/DTD/svg11.dtd"><svg width="128px" height="128px" version="1.1" xmlns="http://www.w3.org/2000/svg" xmlns:xlink="http://www.w3.org/1999/xlink" xml:space="preserve" xmlns:serif="http://www.serif.com/" style="fill-rule:evenodd;clip-rule:evenodd;"><path d="M63.8,9.47C1.28,9.47 -0.2,79.55 -0.2,93.42C-0.2,107.3 28.45,118.53 63.8,118.53C99.15,118.53 127.79,107.3 127.79,93.42C127.79,79.55 126.31,9.47 63.8,9.47Z" style="fill:#fcc21b;fill-rule:nonzero;"/><path d="M73.054,101.36C73.638,101.88 74.196,101.23 74.196,101.23C74.196,101.23 83.537,90.83 84.148,90.362C85.009,89.701 86.861,88.652 88.788,90.542C89.588,91.326 90.913,93.086 88.612,96.032C88.118,96.667 73.566,112.78 72.713,113.649C72.713,113.649 65.977,120.535 61.868,123.168C60.726,123.902 59.442,124.674 57.934,125.232C56.434,125.789 54.729,126.188 52.922,126.235C51.119,126.302 49.238,125.997 47.45,125.395C45.666,124.788 43.989,123.875 42.466,122.814C42.09,122.544 41.714,122.273 41.356,121.982L40.326,121.18C39.624,120.616 38.948,120.02 38.299,119.396C37.034,118.193 35.865,116.893 34.803,115.508C33.772,114.152 33.011,112.678 32.186,111.34C30.762,109.032 30.094,106.076 29.814,103.796C29.187,98.66 31.287,93.362 31.287,93.362L32.25,91.58C35.618,86.566 43.689,77.947 43.689,77.947C46.294,74.886 49.076,75.089 50.209,75.862C53.473,78.087 52.599,81.098 50.291,83.827L42.644,92.17C42.256,93.073 43.411,94.065 44.156,93.43C46.491,91.428 51.393,85.957 51.393,85.957C53.595,83.742 65.973,70.4 66.806,69.586C68.476,67.952 70.619,67.076 72.292,68.244C74,69.435 74.52,71.333 72.95,73.458C72.524,74.033 60.019,87.921 60.019,87.921C59.287,88.726 60.2,89.811 61.005,89.029C61.005,89.029 76.565,71.969 77.269,71.17C78.857,69.355 81.472,68.9 83.065,70.319C84.621,71.705 84.643,74.049 83.028,75.926C82.512,76.521 71.558,88.684 67.17,93.659C66.874,93.991 66.653,94.432 67.11,94.839C67.113,94.842 67.577,95.32 68.144,94.684C69.334,93.348 81.247,80.302 81.912,79.596C83.435,77.975 85.51,77.176 87.232,78.673C88.807,80.039 89.116,82.488 87.389,84.266L72.969,100.287C72.969,100.287 72.506,100.872 73.054,101.36Z" style="fill:#fac036;fill-rule:nonzero;stroke:#2f2f2f;stroke-width:4.6px;"/><g transform="matrix(1,0,0,1,-0.204753,0)"><path d="M42.21,66.47C37.72,66.51 34.04,62.2 33.99,56.85C33.94,51.48 37.54,47.1 42.03,47.06C46.51,47.02 50.2,51.33 50.25,56.7C50.3,62.06 46.7,66.43 42.21,66.47ZM86.32,66.47C90.8,66.46 94.43,62.11 94.42,56.76C94.41,51.39 90.76,47.06 86.28,47.07C81.79,47.08 78.15,51.43 78.16,56.8C78.18,62.15 81.83,66.48 86.32,66.47Z" style="fill:#2f2f2f;fill-rule:nonzero;"/></g></svg>