<?xml version="1.0" encoding="UTF-8" standalone="no"?><!DOCTYPE svg PUBLIC "-//W3C//DTD SVG 1.1//EN" "http://www.w3.org/Graphics/SVG/1.1/DTD/svg11.dtd"><svg width="128px" height="128px" version="1.1" xmlns="http://www.w3.org/2000/svg" xmlns:xlink="http://www.w3.org/1999/xlink" xml:space="preserve" xmlns:serif="http://www.serif.com/" style="fill-rule:evenodd;clip-rule:evenodd;stroke-linejoin:round;stroke-miterlimit:2;"><path d="M35.52,21.24L40.33,113.71C40.33,121.53 50.93,127.86 64,127.86C77.07,127.86 87.66,121.53 87.66,113.71L92.47,21.24L35.52,21.24Z" style="fill:#cbdbe0;fill-rule:nonzero;"/><path d="M39.216,92.284C41.906,98.591 51.989,103.284 64,103.284C75.995,103.284 86.065,98.604 88.773,92.311L87.66,113.71C87.66,121.53 77.07,127.86 64,127.86C50.93,127.86 40.33,121.53 40.33,113.71L39.216,92.284Z" style="fill:#d3302c;"/><ellipse cx="64" cy="20.43" rx="22.38" ry="12.12" style="fill:#fff;"/><path d="M64,4.22C48.27,4.22 35.52,11.84 35.52,21.25C35.52,30.65 48.27,38.27 64,38.27C79.72,38.27 92.48,30.65 92.48,21.25C92.48,11.84 79.72,4.22 64,4.22ZM64,32.55C51.64,32.55 41.62,27.12 41.62,20.43C41.62,13.74 51.64,8.31 64,8.31C76.36,8.31 86.38,13.74 86.38,20.43C86.38,27.13 76.36,32.55 64,32.55Z" style="fill:#78a3ad;fill-rule:nonzero;"/><path d="M75.13,10.22C72.16,8.65 68.27,7.7 64,7.7C59.73,7.7 55.84,8.65 52.87,10.22L47.13,10.22L47.13,17.37L47.16,17.37C47.15,17.51 47.13,17.64 47.13,17.78C47.13,23.35 54.68,27.86 64,27.86C73.09,27.86 80.47,23.56 80.83,18.18L80.86,18.18L80.86,10.21L75.13,10.21L75.13,10.22Z" style="fill:#999;fill-rule:nonzero;"/><path d="M75.13,10.22C72.16,8.65 68.27,7.7 64,7.7C59.73,7.7 55.84,8.65 52.87,10.22L47.13,10.22L47.13,17.37L47.16,17.37C47.15,17.51 47.13,17.64 47.13,17.78C47.13,23.35 54.68,27.86 64,27.86C73.09,27.86 80.47,23.56 80.83,18.18L80.86,18.18L80.86,10.21L75.13,10.21L75.13,10.22Z" style="fill:#78a3ad;fill-rule:nonzero;"/><ellipse cx="64" cy="9.74" rx="10.95" ry="5.93" style="fill:#fff;"/><path d="M64,0.14C54.68,0.14 47.13,4.65 47.13,10.23C47.13,15.8 54.68,20.31 64,20.31C73.31,20.31 80.87,15.8 80.87,10.23C80.87,4.65 73.31,0.14 64,0.14ZM64,15.67C57.95,15.67 53.05,13.02 53.05,9.74C53.05,6.46 57.95,3.81 64,3.81C70.05,3.81 74.95,6.46 74.95,9.74C74.95,13.01 70.05,15.67 64,15.67Z" style="fill:#78a3ad;fill-rule:nonzero;"/></svg>