<?xml version="1.0" encoding="UTF-8" standalone="no"?><!DOCTYPE svg PUBLIC "-//W3C//DTD SVG 1.1//EN" "http://www.w3.org/Graphics/SVG/1.1/DTD/svg11.dtd"><svg width="128px" height="128px" version="1.1" xmlns="http://www.w3.org/2000/svg" xmlns:xlink="http://www.w3.org/1999/xlink" xml:space="preserve" xmlns:serif="http://www.serif.com/" style="fill-rule:evenodd;clip-rule:evenodd;stroke-linejoin:round;stroke-miterlimit:2;"><g transform="matrix(1.21093,0,0,-1.21093,-14.6099,132.427)"><path d="M98.762,40.86C98.6,41.093 97.791,42.726 97.516,42.579C97.278,42.452 97.532,40.846 97.551,40.684C97.6,40.257 96.917,41.357 96.739,41.726C96.288,42.658 96.026,43.647 95.796,44.652C95.729,44.949 95.66,45.248 95.62,45.549C95.602,45.683 95.572,45.832 95.6,45.967C95.652,46.212 95.855,46.363 96.077,46.449C96.657,46.674 97.281,46.295 97.685,45.9C98.813,44.794 99.098,43.171 99.392,41.69" style="fill:#e48c15;"/></g><g transform="matrix(1.21093,0,0,-1.21093,-14.6099,132.427)"><path d="M85.981,48.714C85.969,48.864 86.091,49.115 86.262,49.137C86.439,49.159 86.709,48.683 86.77,48.546C86.793,48.493 86.884,48.609 86.907,48.629C87.006,48.715 87.1,48.842 87.142,48.967C87.285,49.395 87.315,49.824 87.326,50.272C87.336,50.705 87.378,51.145 87.151,51.533C87.067,51.675 86.951,51.796 86.827,51.903C86.57,52.124 86.253,52.286 85.909,52.305C85.545,52.325 85.204,52.197 84.884,52.034C84.463,51.82 84.046,51.509 83.8,51.1C83.478,50.568 83.56,49.961 83.668,49.381C83.708,49.166 83.751,48.952 83.8,48.739C83.826,48.627 83.854,48.482 83.937,48.393C84.066,48.257 84.265,48.19 84.443,48.15C84.73,48.085 85.025,48.046 85.305,47.953" style="fill:#e48c15;"/></g><g transform="matrix(1.21093,0,0,-1.21093,-14.6099,132.427)"><path d="M75.861,59.231C77.459,57.991 77.84,55.689 78.008,53.793C78.161,52.077 78.166,50.347 78.179,48.625C78.197,46.259 78.281,44.004 79.672,41.979C79.937,41.594 80.328,41.323 80.743,41.121C82.986,40.031 84.852,41.588 85.425,43.773C85.943,45.749 85.615,47.794 85.487,49.797C85.303,52.672 83.868,57.847 83.19,60.667" style="fill:#fac036;"/><path d="M78.99,43.209C78.811,43.632 78.673,44.063 78.567,44.5C78.245,45.819 78.208,47.202 78.2,48.626C78.192,49.659 78.187,50.695 78.15,51.729C78.125,52.419 78.086,53.108 78.024,53.794C77.92,54.927 77.741,56.205 77.272,57.313C76.955,58.061 76.507,58.733 75.861,59.231C76.503,58.73 76.947,58.057 77.259,57.308C77.722,56.199 77.895,54.923 77.993,53.792C78.053,53.105 78.089,52.417 78.111,51.727C78.146,50.693 78.15,49.658 78.157,48.625C78.171,47.199 78.204,45.812 78.542,44.494C78.654,44.057 78.801,43.629 78.99,43.209C79.168,42.788 79.387,42.375 79.659,41.97C79.79,41.774 79.954,41.606 80.136,41.46C80.317,41.315 80.518,41.19 80.725,41.084C81.87,40.49 82.933,40.599 83.792,41.125C84.651,41.65 85.305,42.598 85.635,43.718C85.871,44.524 85.972,45.344 85.994,46.171C86.028,47.385 85.893,48.61 85.837,49.82C85.769,51.016 85.491,52.607 85.137,54.264C84.636,56.614 83.983,59.099 83.591,60.763C83.538,60.985 83.315,61.122 83.093,61.068C82.871,61.015 82.735,60.792 82.788,60.57C83.196,58.913 83.867,56.44 84.394,54.102C84.758,52.489 85.054,50.941 85.137,49.775C85.234,48.581 85.398,47.374 85.421,46.173C85.436,45.387 85.395,44.605 85.215,43.828C84.972,42.776 84.422,41.862 83.657,41.333C82.873,40.791 81.872,40.655 80.761,41.159C80.554,41.254 80.351,41.366 80.168,41.502C79.984,41.639 79.82,41.799 79.686,41.988C79.406,42.386 79.177,42.793 78.99,43.209Z" style="fill:#e48c15;"/></g><g transform="matrix(1.2099,0.0499328,0.0499328,-1.2099,-17.974,127.872)"><path d="M81.656,60.789C82.875,59.057 87.458,49.473 88.292,47.547C89.171,45.513 90.27,43.646 91.337,41.713C92.101,40.329 92.884,38.192 94.43,37.49C95.879,36.833 97.901,37.388 98.515,38.937C98.887,39.876 98.56,41.034 98.388,42.004C97.92,44.658 95.91,48.66 94.575,50.897C93.237,53.139 90.375,59.481 89.345,61.87" style="fill:#fac036;"/><path d="M81.319,60.551C81.84,59.836 82.978,57.749 84.18,55.43C85.842,52.223 87.623,48.578 88.12,47.472C88.483,46.66 88.88,45.876 89.296,45.102C89.917,43.944 90.579,42.811 91.231,41.655C91.691,40.833 92.162,39.747 92.791,38.852C93.23,38.227 93.747,37.695 94.392,37.405C95.135,37.067 96.025,37.041 96.81,37.294C97.604,37.551 98.29,38.095 98.612,38.898C98.772,39.292 98.813,39.725 98.794,40.167C98.766,40.796 98.613,41.445 98.516,42.027C98.334,43.116 97.897,44.431 97.356,45.762C96.568,47.701 95.558,49.674 94.777,51.018C94.238,51.951 93.447,53.589 92.637,55.358C91.49,57.863 90.305,60.629 89.724,62.033C89.634,62.242 89.39,62.339 89.181,62.249C88.972,62.158 88.875,61.915 88.966,61.706C89.591,60.315 90.866,57.577 92.089,55.097C92.959,53.335 93.802,51.703 94.372,50.776C95.177,49.464 96.227,47.537 97.049,45.633C97.609,44.335 98.062,43.049 98.261,41.982C98.367,41.41 98.528,40.774 98.565,40.155C98.59,39.745 98.56,39.343 98.417,38.975C98.124,38.227 97.488,37.717 96.751,37.475C96.011,37.232 95.171,37.258 94.469,37.576C93.857,37.856 93.369,38.368 92.956,38.967C92.339,39.862 91.889,40.949 91.443,41.772C90.813,42.937 90.17,44.079 89.573,45.248C89.178,46.022 88.804,46.809 88.463,47.621C87.996,48.743 86.307,52.444 84.741,55.71C83.589,58.113 82.501,60.28 81.994,61.027C81.863,61.213 81.605,61.258 81.419,61.127C81.232,60.996 81.187,60.738 81.319,60.551Z" style="fill:#e48c15;"/></g><g transform="matrix(1.21093,0,0,-1.21093,-14.6099,132.698)"><path d="M91.956,56.732C93.698,52.928 95.669,47.623 97.616,43.916C98.333,42.551 98.884,40.736 100.152,39.759C102.139,38.228 105.111,39.845 105.462,42.158C105.846,44.692 103.423,49.758 102.129,51.821" style="fill:#fac036;"/><path d="M91.58,56.56C92.827,53.951 94.2,50.631 95.581,47.611C96.2,46.257 96.818,44.962 97.434,43.82C97.869,43.008 98.248,42.035 98.751,41.175C99.103,40.574 99.513,40.026 100.045,39.619C101.095,38.803 102.408,38.822 103.509,39.347C104.607,39.871 105.49,40.903 105.69,42.123C105.87,43.2 105.565,44.728 105.054,46.305C104.34,48.506 103.224,50.8 102.479,52.04C102.358,52.233 102.103,52.292 101.91,52.171C101.717,52.05 101.658,51.795 101.779,51.602C102.551,50.422 103.73,48.233 104.499,46.114C105.032,44.645 105.373,43.212 105.234,42.192C105.081,41.104 104.31,40.172 103.342,39.692C102.37,39.209 101.199,39.181 100.26,39.898C99.767,40.28 99.388,40.793 99.067,41.357C98.576,42.219 98.218,43.196 97.798,44.011C97.213,45.158 96.625,46.456 96.048,47.816C94.749,50.879 93.494,54.252 92.331,56.904C92.236,57.111 91.991,57.202 91.784,57.107C91.577,57.012 91.485,56.767 91.58,56.56Z" style="fill:#e48c15;"/></g><g transform="matrix(1.21093,0,0,-1.21093,-14.6099,132.427)"><path d="M28.143,56.719C28.72,56.721 29.267,56.464 29.632,56.017C32.971,52.105 39.001,47.912 43.625,46.635C47.905,45.453 52.303,44.861 56.199,42.599C59.126,40.899 61.377,38.496 63.487,35.891C64.666,34.436 65.663,32.715 67.087,31.479C68.704,30.076 71.09,29.464 72.767,31.117C74.974,33.293 74.811,36.661 73.198,39.098C70.387,43.345 65.702,45.962 63.074,50.361C62.201,51.822 59.461,56.88 59.528,56.985C59.87,57.522 67.895,58.158 71.46,58.873C75.388,59.661 79.798,60.206 83.742,59.406C89.089,58.321 97.646,53.194 100.266,51.468C102.896,49.736 105.322,48.375 107.777,46.47C110.338,44.482 114.26,45.524 115.369,48.582C116.458,51.583 113.896,53.699 111.663,55.357C102.224,62.362 81.957,69.654 75.711,72.029C70.61,73.968 65.175,74.624 60.017,76.371C56.998,77.394 54.081,78.712 51.028,79.634C45.528,81.296 40.133,82.202 34.437,82.814C31.994,83.076 19.99,82.607 15.901,82.437C15.13,82.408 14.508,81.796 14.465,81.025C14.309,77.692 13.984,68.523 14.44,57.121C14.461,56.588 14.717,56.091 15.139,55.764C15.561,55.437 16.105,55.312 16.627,55.424C20.31,56.181 24.474,56.68 28.143,56.719Z" style="fill:#fac036;"/></g><g transform="matrix(1.21093,0,0,-1.21093,-14.6099,132.427)"><path d="M74.097,33.22C74.763,35.138 74.351,37.356 73.198,39.098C70.387,43.345 65.702,45.962 63.074,50.361C62.201,51.822 59.461,56.88 59.528,56.985C59.87,57.522 67.895,58.158 71.46,58.873C75.388,59.661 79.798,60.206 83.742,59.406C89.089,58.321 97.646,53.194 100.266,51.468C102.896,49.736 105.322,48.375 107.777,46.47C110.332,44.487 114.241,45.519 115.361,48.56C114.848,46.992 113.594,45.937 112.151,45.47C110.644,44.983 108.93,45.154 107.512,46.129C106.75,46.644 105.997,47.105 105.239,47.548C103.434,48.601 101.629,49.514 99.7,50.61C98.884,51.078 97.488,51.764 95.845,52.644C94.114,53.57 92.118,54.711 90.075,55.683C87.752,56.788 85.406,57.747 83.486,58.143C81.993,58.455 80.428,58.56 78.85,58.529C76.431,58.482 73.983,58.121 71.7,57.676C69.265,57.205 64.757,56.783 62.021,56.393C61.813,56.36 61.634,56.229 61.539,56.042C61.445,55.855 61.446,55.633 61.542,55.447C62.374,53.851 63.501,51.767 64.001,50.915C66.03,47.438 69.384,45.087 72.023,42.124C72.444,41.65 72.877,41.182 73.228,40.653C73.466,40.295 73.654,39.915 73.845,39.526C74.547,38.104 74.871,36.525 74.641,35.002C74.551,34.409 74.357,33.858 74.132,33.302L74.097,33.22Z" style="fill:#e48c15;"/></g><g transform="matrix(1.21093,0,0,-1.21093,-14.6268,132.339)"><path d="M28.605,56.559C27.069,58.061 26.612,60.182 26.212,62.259C25.813,64.334 25.7,66.455 25.988,68.61C26.133,69.695 26.419,70.797 26.798,71.871C27.17,72.929 27.626,73.956 28.114,74.911C28.177,75.047 28.338,75.106 28.474,75.043C28.609,74.98 28.668,74.819 28.605,74.683C28.204,73.721 27.838,72.69 27.556,71.636C27.278,70.598 27.088,69.542 27.03,68.512C26.917,66.481 27.173,64.511 27.696,62.604C28.218,60.697 32.176,53.772 34.499,51.459C35.148,50.813 30.185,55.016 28.605,56.559Z" style="fill:#e48c15;"/></g></svg>