<?xml version="1.0" encoding="UTF-8" standalone="no"?><!DOCTYPE svg PUBLIC "-//W3C//DTD SVG 1.1//EN" "http://www.w3.org/Graphics/SVG/1.1/DTD/svg11.dtd"><svg width="128px" height="128px" version="1.1" xmlns="http://www.w3.org/2000/svg" xmlns:xlink="http://www.w3.org/1999/xlink" xml:space="preserve" xmlns:serif="http://www.serif.com/" style="fill-rule:evenodd;clip-rule:evenodd;stroke-linecap:round;stroke-linejoin:round;stroke-miterlimit:1.5;"><g id="g4534" transform="matrix(1,0,0,1,0,-1.8)"><g transform="matrix(1,0,0,1,0,1.8)"><path d="M64,11.864L64,64" style="fill:none;stroke:#86a8b4;stroke-width:16px;"/></g><g transform="matrix(1,0,0,1,0,1.8)"><path d="M64,64L113.584,47.856" style="fill:none;stroke:#86a8b4;stroke-width:16px;"/></g><g transform="matrix(1,0,0,1,0,1.8)"><path d="M64,64L14.416,47.856" style="fill:none;stroke:#86a8b4;stroke-width:16px;"/></g><g transform="matrix(1,0,0,1,0,1.8)"><path d="M64,64L33.355,106.179" style="fill:none;stroke:#86a8b4;stroke-width:16px;"/></g><g transform="matrix(1,0,0,1,0,1.8)"><path d="M64,64L94.635,106.179" style="fill:none;stroke:#86a8b4;stroke-width:16px;"/></g><g transform="matrix(1.42227,0,0,1.42227,-27.025,-25.225)"><circle cx="64" cy="64" r="5.262" style="fill:#ecf0f1;"/></g></g><g transform="matrix(0.873104,0,0,0.873104,8.12133,8.12133)"><circle cx="64" cy="64" r="59.713" style="fill:none;stroke:#212121;stroke-width:20.62px;"/></g></svg>