<?xml version="1.0" encoding="UTF-8" standalone="no"?><!DOCTYPE svg PUBLIC "-//W3C//DTD SVG 1.1//EN" "http://www.w3.org/Graphics/SVG/1.1/DTD/svg11.dtd"><svg width="128px" height="128px" version="1.1" xmlns="http://www.w3.org/2000/svg" xmlns:xlink="http://www.w3.org/1999/xlink" xml:space="preserve" xmlns:serif="http://www.serif.com/" style="fill-rule:evenodd;clip-rule:evenodd;stroke-linejoin:round;stroke-miterlimit:2;"><g transform="matrix(-0.392747,1.46575,-1.46575,-0.392747,200.987,60.7416)"><path d="M29.08,121.23C33.77,122.56 39.2,120.5 39.32,116.03L39.98,101.26C40,101.02 41.06,85.23 32.89,76.8L32.77,76.67C27.02,69.91 24.5,65.12 21.92,56.69C21.06,53.9 19.03,51.28 15.54,51.7C13.07,52 10.69,53.05 10.85,60.93C11.04,70.11 12.87,79.25 16.55,85.65C21.69,94.6 20.35,104.82 20.91,111.37C21.25,115.48 24.14,120 29.08,121.23Z" style="fill:#70534a;"/></g></svg>