<?xml version="1.0" encoding="UTF-8" standalone="no"?><!DOCTYPE svg PUBLIC "-//W3C//DTD SVG 1.1//EN" "http://www.w3.org/Graphics/SVG/1.1/DTD/svg11.dtd"><svg width="128px" height="128px" version="1.1" xmlns="http://www.w3.org/2000/svg" xmlns:xlink="http://www.w3.org/1999/xlink" xml:space="preserve" xmlns:serif="http://www.serif.com/" style="fill-rule:evenodd;clip-rule:evenodd;stroke-linejoin:round;stroke-miterlimit:2;"><path d="M62.93,99.53C62.93,99.53 68.99,98.11 72.77,94.33L45.2,64.43L36.05,69.66L38.23,92.88L55.78,100L62.93,99.53Z" style="fill:#212121;fill-rule:nonzero;"/><path d="M49.12,100.78C48.49,100.87 48.43,101.01 48.52,101.56C49.11,105.31 48.57,109.43 44.81,111.14C43.62,111.69 42.35,111.99 41.08,112.24C39.57,112.53 38.07,112.76 37.41,114.38C36.05,117.67 39.73,117.1 41.66,116.97C44.63,116.78 48.13,115.84 50.52,114.05C52.07,112.88 52.63,111.09 52.66,109.23C52.69,106.96 53.24,104.52 53.64,102.31C53.76,101.66 54.18,100.84 54.05,100.16C53.17,100.37 52.3,100.66 51.4,100.83C50.61,100.98 49.93,100.68 49.12,100.78ZM64.34,111.76C65.07,108.95 64.7,105.85 64.14,103.03C64.04,102.54 63.92,102.05 63.82,101.56C63.72,101.14 63.61,100.74 63.55,100.32C63.45,99.58 62.82,99.35 62.19,99.46C61.7,99.54 61.19,99.55 60.69,99.61C60.17,99.67 59.26,99.68 58.91,100.13C58.63,100.47 59.03,100.96 59.11,101.32C59.22,101.84 59.34,102.38 59.4,102.9C59.51,103.99 59.51,105.09 59.4,106.19C59.17,108.43 58.44,110.59 57.57,112.66C56.98,114.03 55.97,115.22 55.42,116.58C54.3,119.33 59.62,119.26 61.04,118.8C62.64,118.26 63.03,116.7 63.35,115.24C63.62,114.08 64.03,112.92 64.34,111.76Z" style="fill:#f48120;fill-rule:nonzero;"/><path id="a" d="M111.75,41.57C107.05,40.45 102.38,38.58 97.36,38.12C89.83,37.43 87.2,40.7 82.41,45.68C79.88,48.3 77.7,53.58 74.03,54.72C69.68,56.07 64.95,51.64 62.39,48.67C58.67,44.35 56.91,38.86 54.24,33.92C51.56,28.97 46.73,24.61 41.48,22.55C38.34,21.32 34.57,20.87 31.2,21.08C26.16,21.39 21.25,23.28 17.14,26.21C5.98,34.16 5.28,48.79 10.41,60.5C14.79,70.53 11.57,82.86 19.47,91.41C27.54,100.16 41.19,103.27 52.66,102.03C55.59,101.72 58.46,101.05 61.24,100.11C61.8,99.92 62.37,99.72 62.93,99.53C61.79,99.12 60.68,98.56 59.76,98.1C54.882,95.62 50.724,91.924 47.69,87.37C45.88,84.66 44.24,81.8 43.15,78.72C42.6,77.12 42.16,75.42 41.98,73.74C41.9,72.96 41.8,71.96 42.19,71.23C42.96,69.79 43.79,71.4 43.96,72.16C45.84,80.67 51.19,88.41 58.77,92.81C61.04,94.12 63.43,95.22 65.92,96.04C69.31,97.16 73.05,97.9 76.58,97.06C80.57,96.11 82.19,92.63 85.72,90.97C87.19,90.28 88.21,89.72 89.15,88.34C89.57,87.72 89.95,87.11 90.55,86.65C91.14,86.17 91.87,86.12 92.43,85.58C92.93,85.08 93.31,84.37 93.48,83.69C93.61,83.23 93.75,82.88 93.56,82.41C93.29,81.72 92.51,81.3 91.97,80.84C90.22,79.3 88.46,78.9 90.75,76.96C93.03,75.07 95.47,73.4 98,71.88C100,70.68 101.82,69.31 103.84,68.12C108.34,65.45 112.81,62.7 117.47,60.33C120.9,58.59 125.98,56.75 126.8,52.45C127.76,47.24 115.75,42.51 111.75,41.57Z" style="fill:#424242;fill-rule:nonzero;"/><path d="M26.48,42.28C25.15,44.24 25.48,47.05 27.2,48.56C28.94,50.06 31.41,49.7 32.74,47.75C34.06,45.79 33.73,42.97 32.01,41.46C30.27,39.97 27.8,40.33 26.48,42.28Z" style="fill:#212121;fill-rule:nonzero;"/><path d="M10.34,45.69C9.43,45.71 8.48,46.45 7.77,46.95C6.58,47.8 5.47,48.78 4.45,49.83C3.48,50.82 2.54,51.88 1.85,53.08C1.15,54.23 0.62,55.33 2.08,56C3.59,56.69 5.25,56.69 6.88,56.87C8.56,57.06 10.25,57.19 11.94,57.27C13.36,57.33 15.08,57.58 16.44,57.1C17.32,56.79 17.06,55.98 16.94,55.28C16.74,54.24 16.19,53.31 15.78,52.34C14.93,50.31 13.21,45.79 10.49,45.69L10.34,45.69Z" style="fill:#f48120;fill-rule:nonzero;"/></svg>