<?xml version="1.0" encoding="UTF-8" standalone="no"?><!DOCTYPE svg PUBLIC "-//W3C//DTD SVG 1.1//EN" "http://www.w3.org/Graphics/SVG/1.1/DTD/svg11.dtd"><svg width="128px" height="128px" version="1.1" xmlns="http://www.w3.org/2000/svg" xmlns:xlink="http://www.w3.org/1999/xlink" xml:space="preserve" xmlns:serif="http://www.serif.com/" style="fill-rule:evenodd;clip-rule:evenodd;stroke-linejoin:round;stroke-miterlimit:2;"><path d="M77.1,105.15C77.3,104.65 77.49,104.16 77.68,103.68C78.84,100.56 81.09,95.13 76.74,93.29C74.59,92.38 72.52,91.33 70.51,90.04C68.59,88.8 67.17,86.64 65.82,84.83C64.82,83.5 63.46,81.99 63.5,80.24C63.56,77.99 65.05,75.42 66.05,73.44C67.14,71.2 68.45,69.07 69.91,67.05C72,64.17 75.35,60.13 78.91,59.14C81.23,58.5 82.86,58.83 84,61.04C85.56,64.13 87.08,67.57 87.3,71.09C87.37,72.2 86.99,73.12 86.84,74.19C86.59,75.9 86.77,77.74 86.77,79.47C86.77,82.13 85.9,85.28 88.32,87.22C90.11,88.66 92.2,91.18 92.21,93.59C92.21,96.23 90.62,99.35 89.54,101.69C88.1,104.79 86.52,107.83 85.06,110.93C83.95,113.29 83.81,115.65 83.81,118.24C83.81,121.61 79.77,121.32 77.36,121.37C76.63,121.39 75.66,121.57 74.98,121.2C74.5,120.94 74.38,120.46 74.21,119.97C74.06,119.53 73.86,118.98 73.8,118.51C73.28,113.86 75.4,109.41 77.1,105.15Z" style="fill:#757575;fill-rule:nonzero;"/><path d="M77.1,105.15C77.3,104.65 77.49,104.16 77.68,103.68C78.84,100.56 81.09,95.13 76.74,93.29C74.59,92.38 72.52,91.33 70.51,90.04C68.59,88.8 67.17,86.64 65.82,84.83C64.82,83.5 63.46,81.99 63.5,80.24C63.56,77.99 65.05,75.42 66.05,73.44C67.14,71.2 68.45,69.07 69.91,67.05C72,64.17 75.35,60.13 78.91,59.14C81.23,58.5 82.86,58.83 84,61.04C85.56,64.13 87.08,67.57 87.3,71.09C87.37,72.2 86.99,73.12 86.84,74.19C86.59,75.9 86.77,77.74 86.77,79.47C86.77,82.13 85.9,85.28 88.32,87.22C90.11,88.66 92.2,91.18 92.21,93.59C92.21,96.23 90.62,99.35 89.54,101.69C88.1,104.79 86.52,107.83 85.06,110.93C83.95,113.29 83.81,115.65 83.81,118.24C83.81,121.61 79.77,121.32 77.36,121.37C76.63,121.39 75.66,121.57 74.98,121.2C74.5,120.94 74.38,120.46 74.21,119.97C74.06,119.53 73.86,118.98 73.8,118.51C73.28,113.86 75.4,109.41 77.1,105.15Z" style="fill-opacity:0.2;fill-rule:nonzero;"/><g transform="matrix(0.950587,0.31046,-0.31046,0.950587,17.4512,-25.1116)"><path d="M92.99,51.25C92.49,50.3 92.46,49.14 93.31,47.53C96.34,41.75 102.79,43.86 107.53,45.95C110.88,47.43 114.13,49.21 117.7,50.15C119.25,50.56 120.74,50.78 122.34,50.69C123.92,50.6 125.89,50.28 126.71,52.02C127.42,53.51 126.71,55.86 125.92,57.18C120.62,65.95 107.58,65.51 100.86,58.74C99.59,57.46 98.35,56.16 97.02,54.95C95.55,53.62 93.76,52.68 92.99,51.25Z" style="fill:#8d6b63;"/></g><g transform="matrix(0.991506,-0.13006,0.13006,0.991506,-3.6655,9.46396)"><path d="M30.68,12.06L31.76,10.62C34.11,8.15 37.287,5.376 40.537,4.546C42.077,4.156 44.627,3.236 45.677,5.076C46.227,6.046 45.907,6.566 45.207,7.316C44.307,8.256 44.69,10.28 44.88,11.64C45,12.43 50,12.66 50.69,12.77C51.97,12.97 53.07,13.52 54.31,13.85C55.98,14.29 60.959,13.958 59.039,17.808C58.559,18.798 56.239,19.238 56.499,20.468C56.909,22.458 59.553,22.617 60.963,22.737C62.153,22.837 63.033,23.227 63.133,24.637C63.233,26.137 62.273,26.107 61.223,26.807C60.723,27.137 59.573,28.037 59.573,28.697C59.603,29.757 61.013,29.867 61.773,30.057C62.743,30.307 63.683,30.327 64.753,30.327C65.613,30.327 67.413,29.997 68.083,30.517C70.523,32.407 65.653,33.767 65.553,35.197C65.403,37.337 70.653,36.957 72.073,37.577C73.053,38.007 73.243,38.717 73.153,39.807C73.003,41.357 71.963,41.427 71.043,42.517C69.033,44.897 77.259,42.478 76.229,45.658C75.819,46.968 77,47.53 75.93,48.27C73.56,49.9 71.1,50.61 68.34,51.32C66.5,51.79 63.83,52.58 61.9,52.09C61.24,51.92 60.93,51.38 60.49,50.99C59.79,50.37 58.94,49.8 58.36,49.03C56.21,46.13 54.67,42.79 51.55,40.69C50.24,39.81 49.36,39.15 48.35,37.92C47.58,36.98 46.54,35.57 45.1,35.81C44.67,35.88 41.82,30.62 41.55,30.19C39.25,26.52 36.93,22.84 34.62,19.16C34.01,18.2 33.47,17.12 32.78,16.22C32.23,15.52 31.44,15.14 30.88,14.49C30.2,13.7 30.28,12.85 30.68,12.06Z" style="fill:#8d6b63;"/></g><path id="a" d="M111.75,94.95C110.86,91.72 107.73,89.44 107.32,85.94C106.84,81.84 108.21,77.84 108.15,73.75C108.12,71.61 107.57,69.5 107.02,67.44C106.6,65.86 106.08,64.29 105.34,62.82C105.2,62.53 104.97,61.86 104.71,61.68C104.49,61.53 104.13,61.59 103.84,61.56C103.08,61.46 102.34,61.21 101.58,61.21L94.13,61.21C93.17,61.21 92.25,61.08 91.28,61.08C90.18,61.08 89.09,61.19 88,61.22C84.18,61.3 80.32,62.1 76.51,62.47C71.23,62.98 66.18,64.49 60.84,64.46C57.72,64.45 54.61,64.74 51.48,64.74C49.09,64.74 46.7,64.73 44.31,64.74C42.55,64.75 40.8,64.45 39.03,64.63C38.67,64.67 34.49,65.47 34.37,65.15C34.38,65.18 33.863,77.004 32.786,81.482C31.936,85.015 30.694,113.256 30.111,118.221C29.84,120.522 30.38,121.356 34.618,121.098C38.567,120.858 39.711,120.285 39.582,118.304C39.427,115.92 41.061,100.822 43.511,95.237C45.278,91.207 48.047,91.945 48.76,92.36C49.7,92.91 50.01,93.81 50.12,94.83C50.26,96.07 50.38,97.25 50.38,98.52C50.38,101.37 50.52,104.25 50.52,107.13L50.52,111.87C50.52,114.42 50.38,116.96 50.38,119.51C50.38,121.08 50.25,122.65 50.25,124.23C50.25,124.89 50.23,125.77 50.52,126.38C50.8,126.94 51.4,127.09 51.98,127.24C53.01,127.51 54.15,127.48 55.27,127.48C56.48,127.48 57.81,127.36 58.85,126.63C59.86,125.92 59.73,124.07 59.62,123.01C59.04,117.94 59.49,112.78 60.69,107.83C61.6,104.08 63.45,100.73 64.59,97.07C65.43,94.4 66.97,93.2 69.57,92.39C70.58,92.08 71.67,91.97 72.71,91.7C75.93,90.88 78.98,89.43 82.07,88.23C83.24,87.78 85.4,86.61 86.55,87.57C87.38,88.27 87.97,89.53 88.65,90.38C89.47,91.39 90.36,92.36 91.45,93.06C93.45,94.35 95.53,95.39 97.68,96.31C99.66,97.14 99.85,97.76 99.83,99.75C99.8,102.45 99.05,104.73 98.19,107.25C97.48,109.32 96.89,111.44 96.28,113.54C95.47,116.31 94.32,120.58 95.57,123.41C96.07,124.55 97.95,124.57 98.99,124.62C100.67,124.7 102.48,124.18 103.95,123.43C104.91,122.94 105.14,122.58 105.14,121.5C105.14,118.97 105.15,116.57 105.82,114.11C106.49,111.67 108.3,108.35 109.29,106.04C110.65,102.86 112.65,98.91 111.9,95.36C111.837,95.228 111.787,95.091 111.75,94.95Z" style="fill:#757575;fill-rule:nonzero;"/><path d="M102.15,84.88C103.96,82.51 104.75,79.26 105.31,76.46C105.89,73.58 105.86,70.56 105.8,67.52C105.76,65.75 105.5,63.95 104.92,62.28C104.36,60.69 103.31,59.48 102.59,58C101,54.76 98.43,52.08 95.55,49.96C91.24,46.79 85.66,46.17 80.48,46.45C75.02,46.74 69.95,48.37 65.05,45.15C60.67,42.25 56.45,37.7 53.58,33.17C51.92,30.54 49.683,27.303 49,25.04C48.473,23.294 47.434,20.26 48.231,19.007C48.917,17.928 52.276,14.5 54.114,13.66C56.341,12.643 68.654,12.726 60.724,8.801C58.362,7.631 52.894,5.852 46.966,9.124C45.013,10.201 42.743,12.2 40.994,12.839C39.699,13.312 39.304,13.583 36.47,12.96C32.966,12.189 30.851,10.833 30.851,10.833C30.851,10.833 26.452,4.319 23.612,2.104C20.617,-0.23 14.281,0.216 18.041,3.354C19.977,4.97 20.909,8.132 21.609,10.572C22.079,12.212 20.93,13.72 20.93,13.72C20.93,13.72 17.88,16.44 16.76,17.71C15.56,19.06 14.56,20.44 13.84,22.06C12.4,25.28 11.17,28.86 9.56,32.11C6.92,37.43 2.77,42.1 1.35,48C-0.11,54.13 3.07,59.54 8.85,61.82C13.01,63.45 17.66,63.9 21.78,61.93C24.93,60.43 27.09,57.76 29.79,55.65C30.41,56.57 30.99,57.51 31.5,58.48C33.09,61.46 34.32,64.63 35.11,67.9C35.82,70.83 35.7,73.66 35.64,76.63C35.59,79.14 35.09,80.87 36.35,83.24C37.11,84.65 38.02,85.37 39.13,86.49C41.01,88.39 43.17,89.74 45.67,90.55C48.29,91.39 50.95,92.08 53.65,92.56C56.35,93.03 59.06,93.06 61.77,93.34C64.07,93.57 66.71,92.42 68.83,91.6C71.27,90.66 73.64,89.54 76.04,88.51C78.14,87.6 80.28,86.74 82.5,86.12C83.64,85.8 84.76,85.77 85.97,85.76C87.07,85.75 87.66,86.16 88.53,86.8C89.37,87.42 90.17,88.18 91.2,88.29C91.82,88.36 92.41,88.34 93,88.46C94.19,88.69 95.56,89.02 96.75,88.64C98.13,88.2 99.48,87.34 100.61,86.44C101.2,85.98 101.7,85.45 102.15,84.88Z" style="fill:#757575;fill-rule:nonzero;"/><path d="M102.15,84.88C103.96,82.51 104.75,79.26 105.31,76.46C105.89,73.58 105.86,70.56 105.8,67.52C105.76,65.75 105.5,63.95 104.92,62.28C104.36,60.69 103.31,59.48 102.59,58C101,54.76 98.43,52.08 95.55,49.96C91.24,46.79 85.66,46.17 80.48,46.45C75.02,46.74 69.95,48.37 65.05,45.15C60.67,42.25 56.45,37.7 53.58,33.17C51.92,30.54 49.683,27.303 49,25.04C48.473,23.294 47.434,20.26 48.231,19.007C48.917,17.928 52.276,14.5 54.114,13.66C56.341,12.643 68.654,12.726 60.724,8.801C58.362,7.631 52.894,5.852 46.966,9.124C45.013,10.201 42.743,12.2 40.994,12.839C39.699,13.312 39.304,13.583 36.47,12.96C32.966,12.189 30.851,10.833 30.851,10.833C30.851,10.833 26.452,4.319 23.612,2.104C20.617,-0.23 14.281,0.216 18.041,3.354C19.977,4.97 20.909,8.132 21.609,10.572C22.079,12.212 20.93,13.72 20.93,13.72C20.93,13.72 17.88,16.44 16.76,17.71C15.56,19.06 14.56,20.44 13.84,22.06C12.4,25.28 11.17,28.86 9.56,32.11C6.92,37.43 2.77,42.1 1.35,48C-0.11,54.13 3.07,59.54 8.85,61.82C13.01,63.45 17.66,63.9 21.78,61.93C24.93,60.43 27.09,57.76 29.79,55.65C30.41,56.57 30.99,57.51 31.5,58.48C33.09,61.46 34.32,64.63 35.11,67.9C35.82,70.83 35.7,73.66 35.64,76.63C35.59,79.14 35.09,80.87 36.35,83.24C37.11,84.65 38.02,85.37 39.13,86.49C41.01,88.39 43.17,89.74 45.67,90.55C48.29,91.39 50.95,92.08 53.65,92.56C56.35,93.03 59.06,93.06 61.77,93.34C64.07,93.57 66.71,92.42 68.83,91.6C71.27,90.66 73.64,89.54 76.04,88.51C78.14,87.6 80.28,86.74 82.5,86.12C83.64,85.8 84.76,85.77 85.97,85.76C87.07,85.75 87.66,86.16 88.53,86.8C89.37,87.42 90.17,88.18 91.2,88.29C91.82,88.36 92.41,88.34 93,88.46C94.19,88.69 95.56,89.02 96.75,88.64C98.13,88.2 99.48,87.34 100.61,86.44C101.2,85.98 101.7,85.45 102.15,84.88Z" style="fill:#757575;fill-rule:nonzero;"/><g transform="matrix(0.982188,0.187903,-0.15527,0.811612,5.77141,-0.418261)"><path d="M35.15,36.93C32.72,36.65 31.27,34.51 31.89,32.13C32.31,30.5 33.52,29.13 35.29,29.26C40.33,29.63 40.43,37.53 35.15,36.93Z" style="fill:#212121;fill-rule:nonzero;"/></g><path d="M3.613,42.27C6.196,37.585 13.172,36.943 17.808,38.943C22.116,40.803 26.492,42.774 28.958,48.182C29.847,50.13 30.063,53.547 29.79,55.65C27.09,57.76 24.93,60.43 21.78,61.93C17.66,63.9 13.01,63.45 8.85,61.82C3.07,59.54 -0.11,54.13 1.35,48C1.839,45.97 2.65,44.085 3.613,42.27Z" style="fill:#bdbdbd;fill-rule:nonzero;"/><g transform="matrix(1,0,0,1,-1.30202,-1.40504)"><path d="M18.13,56.35C17.32,56.84 16.31,57.28 15.35,57.09C14.49,56.92 13.6,56.18 14.08,55.2C14.38,54.59 15.04,54.08 15.62,53.75C16.36,53.32 18.54,52.66 19.23,53.49C20.11,54.55 19.03,55.82 18.13,56.35Z" style="fill:#424242;fill-rule:nonzero;"/></g></svg>