<?xml version="1.0" encoding="UTF-8" standalone="no"?><!DOCTYPE svg PUBLIC "-//W3C//DTD SVG 1.1//EN" "http://www.w3.org/Graphics/SVG/1.1/DTD/svg11.dtd"><svg width="128px" height="128px" version="1.1" xmlns="http://www.w3.org/2000/svg" xmlns:xlink="http://www.w3.org/1999/xlink" xml:space="preserve" xmlns:serif="http://www.serif.com/" style="fill-rule:evenodd;clip-rule:evenodd;stroke-linecap:round;stroke-linejoin:round;stroke-miterlimit:1.5;"><g transform="matrix(-1.17074,-0.675926,0.675926,-1.17074,95.668,214.005)"><path d="M37,110.765C45.209,115.505 54.521,118 64,118C93.823,118 118,93.823 118,64L64,64L37,110.765Z" style="fill:#ed6c30;"/></g><g transform="matrix(-0.446502,-0.257788,0.257788,-0.446502,76.0777,140.893)"><path d="M37,110.765C45.209,115.505 54.521,118 64,118C93.823,118 118,93.823 118,64L64,64L37,110.765Z" style="fill:#616161;"/></g><g transform="matrix(1.32577,0,0,1.32577,-20.8491,10.9693)"><path d="M64,64L64,10" style="fill:none;stroke:#bf3f0c;stroke-width:3.02px;"/></g><g transform="matrix(1.24581,0.453439,-0.453439,1.24581,13.288,-12.9338)"><path d="M64,64L64,10" style="fill:none;stroke:#bf3f0c;stroke-width:3.02px;"/></g><g transform="matrix(-1.24581,0.453439,0.453439,1.24581,114.712,-12.9338)"><path d="M64,64L64,10" style="fill:none;stroke:#bf3f0c;stroke-width:3.02px;"/></g><g transform="matrix(1.0156,0.852187,-0.852187,1.0156,53.5418,-23.7197)"><path d="M64,64L64,10" style="fill:none;stroke:#bf3f0c;stroke-width:3.02px;"/></g><g transform="matrix(-1.0156,0.852187,0.852187,1.0156,74.4582,-23.7197)"><path d="M64,64L64,10" style="fill:none;stroke:#bf3f0c;stroke-width:3.02px;"/></g><g transform="matrix(0.662884,1.14815,-1.14815,0.662884,95.0569,-20.0876)"><path d="M64,64L64,10" style="fill:none;stroke:#bf3f0c;stroke-width:3.02px;"/></g><g transform="matrix(-0.662884,1.14815,1.14815,0.662884,32.9431,-20.0876)"><path d="M64,64L64,10" style="fill:none;stroke:#bf3f0c;stroke-width:3.02px;"/></g><g transform="matrix(1.76769,0,0,1.76769,-49.1321,-14.6622)"><circle cx="64" cy="64" r="3" style="fill:#424242;"/></g></svg>