<?xml version="1.0" encoding="UTF-8" standalone="no"?><!DOCTYPE svg PUBLIC "-//W3C//DTD SVG 1.1//EN" "http://www.w3.org/Graphics/SVG/1.1/DTD/svg11.dtd"><svg width="128px" height="128px" version="1.1" xmlns="http://www.w3.org/2000/svg" xmlns:xlink="http://www.w3.org/1999/xlink" xml:space="preserve" xmlns:serif="http://www.serif.com/" style="fill-rule:evenodd;clip-rule:evenodd;stroke-linecap:round;stroke-linejoin:round;stroke-miterlimit:1.5;"><g transform="matrix(1.5099,0.399975,-0.435429,1.38696,15.5733,-46.2661)"><g transform="matrix(1.19966,-5.55112e-17,5.55112e-17,1.19966,-10.1379,-12.9494)"><path d="M67.113,52.163C69.076,52.694 73.15,53.156 74.607,54.824C75.204,55.508 74.92,56.457 74.627,57.22C73.996,58.864 72.744,61.122 71.059,61.859C67.614,63.364 63.167,60.46 60.927,57.953" style="fill:#ffcc80;"/></g><g transform="matrix(1.19966,-5.55112e-17,5.55112e-17,1.19966,-10.1379,-12.9494)"><path d="M67.113,52.163C69.076,52.694 73.15,53.156 74.607,54.824C75.204,55.508 74.92,56.457 74.627,57.22C73.996,58.864 72.744,61.122 71.059,61.859C67.614,63.364 63.167,60.46 60.927,57.953" style="fill:#855c52;fill-opacity:0.09;"/></g></g><g transform="matrix(1.3984,0.658491,-0.716859,1.28454,40.494,-65.0304)"><g transform="matrix(1.19966,0,1.11022e-16,1.19966,-10.7991,-14.5193)"><path d="M72.028,74.799C70.793,73.93 69.41,72.708 68.712,71.349C68.032,70.025 70.602,68.101 71.649,68.095C73.888,68.083 76.066,70.75 76.7,72.671" style="fill:#ffe0b2;"/></g><g transform="matrix(1.19966,0,1.77617e-16,1.19966,-10.7991,-14.5193)"><path d="M72.028,74.799C70.793,73.93 69.41,72.708 68.712,71.349C68.032,70.025 70.602,68.101 71.649,68.095C73.888,68.083 76.066,70.75 76.7,72.671" style="fill:#855c52;fill-opacity:0.09;"/></g></g><g transform="matrix(1.13468,0.998634,-1.08715,1.0423,83.0767,-56.94)"><g transform="matrix(1.19966,1.11022e-16,0,1.19966,-9.82253,-13.7554)"><path d="M49.15,82.463C45.423,80.167 41.589,77.082 38.104,74.463C36.591,73.326 35.045,71.955 33.101,71.709C28.397,71.111 26.09,76.455 26.741,80.454C27.209,83.322 29.538,85.899 31.66,87.741C32.874,88.796 34.238,89.81 35.802,90.271C37.384,90.738 39.055,90.575 40.677,90.755C43.232,91.038 48.319,91.629 50.454,93.057" style="fill:#ffe0b2;"/></g><g transform="matrix(1.19966,1.77617e-16,6.65943e-17,1.19966,-9.82253,-13.7554)"><path d="M49.15,82.463C45.423,80.167 41.589,77.082 38.104,74.463C36.591,73.326 35.045,71.955 33.101,71.709C28.397,71.111 26.09,76.455 26.741,80.454C27.209,83.322 29.538,85.899 31.66,87.741C32.874,88.796 34.238,89.81 35.802,90.271C37.384,90.738 39.055,90.575 40.677,90.755C43.232,91.038 48.319,91.629 50.454,93.057" style="fill:#855c52;fill-opacity:0.41;"/></g></g><g transform="matrix(1.6776,0.789963,-0.859985,1.54101,35.8009,-90.7921)"><path d="M58.731,77.273C59.599,75.557 61.338,72.657 63.379,72.056C66.305,71.194 69.117,75.843 68.808,78.263C68.449,81.068 64.334,83.065 61.88,83.545" style="fill:url(#_Radial1);"/></g><g transform="matrix(1.5099,0.399975,-0.435429,1.38696,15.5733,-46.2661)"><g transform="matrix(1.19966,-5.55112e-17,5.55112e-17,1.19966,-10.1379,-12.9494)"><path d="M51.869,53.459C54.066,51.03 60.069,45.996 61.973,43.436C62.984,42.077 64.437,41.09 66.128,40.849C66.584,40.784 67.448,41.34 67.867,41.514C70.523,42.619 71.407,44.342 70.509,47.206C69.296,51.074 65.833,54.596 62.68,57.001C61.524,57.882 55.729,65.677 54.441,66.981" style="fill:#ffe0b2;"/></g><g transform="matrix(1.19966,-5.55112e-17,5.55112e-17,1.19966,-10.1379,-12.9494)"><path d="M51.869,53.459C54.066,51.03 60.069,45.996 61.973,43.436C62.984,42.077 64.437,41.09 66.128,40.849C66.584,40.784 67.448,41.34 67.867,41.514C70.523,42.619 71.407,44.342 70.509,47.206C69.296,51.074 65.833,54.596 62.68,57.001C61.524,57.882 55.729,65.677 54.441,66.981" style="fill:#855c52;fill-opacity:0.09;"/></g></g><g transform="matrix(1.3984,0.658491,-0.716859,1.28454,40.494,-65.0304)"><g transform="matrix(1.19966,0,1.11022e-16,1.19966,-10.7991,-14.5193)"><path d="M64,86.819C67.3,84.924 69.665,83.7 70.648,80.076C71.268,77.792 71.289,74.331 73.744,73.108C78.867,70.555 82.948,77.95 82.609,82.057C82.393,84.677 80.189,86.721 78.476,88.492C74.618,92.48 70.016,96.663 64,96.792" style="fill:#ffcc80;"/></g><g transform="matrix(1.19966,0,1.77617e-16,1.19966,-10.7991,-14.5193)"><path d="M64,86.819C67.3,84.924 69.665,83.7 70.648,80.076C71.268,77.792 71.289,74.331 73.744,73.108C78.867,70.555 82.948,77.95 82.609,82.057C82.393,84.677 80.189,86.721 78.476,88.492C74.618,92.48 70.016,96.663 64,96.792" style="fill:#855c52;fill-opacity:0.09;"/></g></g><g transform="matrix(1.19053,0.560608,-0.586499,1.05095,41.6199,-47.2715)"><g transform="matrix(1.19966,0,5.55112e-17,1.19966,-11.2189,-15.1545)"><path d="M42.991,50.734C41.568,46.983 40.687,42.118 36.878,40.041C32.422,37.611 27.471,46.081 30.021,50.352C31.157,52.256 33.227,53.129 35.007,54.304C36.873,55.537 39.302,59.169 41.063,60.526" style="fill:#ffe0b2;"/></g><g transform="matrix(1.19966,0,1.22105e-16,1.19966,-11.2189,-15.1545)"><path d="M42.991,50.734C41.568,46.983 40.687,42.118 36.878,40.041C32.422,37.611 27.471,46.081 30.021,50.352C31.157,52.256 33.227,53.129 35.007,54.304C36.873,55.537 39.302,59.169 41.063,60.526" style="fill:#855c52;fill-opacity:0.41;"/></g></g><g transform="matrix(1.6776,0.789963,-0.859985,1.54101,35.794,-90.6339)"><path d="M54.595,111.527C59.953,108.36 63.886,99.996 64.425,94.214C64.601,92.315 64.876,90.295 64.456,88.41C63.727,85.131 63.968,81.754 62.519,78.759C60.416,74.416 58.765,69.717 58.247,64.905C58.029,62.876 57.875,60.849 58.076,58.813C58.272,56.817 58.881,54.875 58.954,52.86C59.029,50.802 59.471,51.552 59.504,49.481C59.551,46.479 60.433,43.182 54.901,40.154C51.012,38.025 48.007,41.011 46.116,44.206C44.376,47.147 43.431,47.826 43.037,51.077C42.808,52.974 41.952,54.742 41.571,56.611C41.085,59.001 41.145,61.61 41.389,64.027C41.799,68.099 43.396,72.079 45.212,75.713C46.764,78.818 48.687,81.927 48.853,85.48C49.007,88.786 48.445,96.18 44.268,99.488" style="fill:#ffcc80;"/></g><g transform="matrix(1.6776,0.789963,-0.859985,1.54101,35.794,-90.6339)"><path d="M54.595,111.527C59.953,108.36 63.886,99.996 64.425,94.214C64.601,92.315 64.876,90.295 64.456,88.41C63.727,85.131 63.968,81.754 62.519,78.759C60.416,74.416 58.765,69.717 58.247,64.905C58.029,62.876 57.875,60.849 58.076,58.813C58.272,56.817 58.881,54.875 58.954,52.86C59.029,50.802 59.471,51.552 59.504,49.481C59.551,46.479 60.433,43.182 54.901,40.154C51.012,38.025 48.007,41.011 46.116,44.206C44.376,47.147 43.431,47.826 43.037,51.077C42.808,52.974 41.952,54.742 41.571,56.611C41.085,59.001 41.145,61.61 41.389,64.027C41.799,68.099 43.396,72.079 45.212,75.713C46.764,78.818 48.687,81.927 48.853,85.48C49.007,88.786 48.445,96.18 44.268,99.488" style="fill:#a1867f;fill-opacity:0.3;"/></g><g transform="matrix(1.62618,0.765753,-0.841657,1.50816,36.6365,-85.7187)"><path d="M48.229,99.2C47.506,99.043 46.761,98.887 46.018,98.961C42.407,99.318 41.572,103 42.248,106.103C42.921,109.193 45.697,111.782 48.678,112.609C52.462,113.658 57.295,111.199 56.359,106.779C55.634,103.355 51.445,100.296 48.229,99.2Z" style="fill:#fff7b3;stroke:#ffcc80;stroke-width:0.71px;"/></g><g transform="matrix(1.19966,0,0,1.10198,-12.9661,-6.57273)"><path d="M52.84,111.885C53.424,110.925 53.979,109.872 54.407,108.765C54.85,107.621 55.148,106.429 55.239,105.253C55.239,105.253 55.239,105.253 55.239,105.253C55.307,104.04 55.199,102.759 54.899,101.475C54.714,100.68 54.453,99.885 54.141,99.104C53.69,97.973 53.128,96.871 52.502,95.828C51.53,94.21 50.402,92.748 49.285,91.533C49.26,91.503 49.216,91.5 49.188,91.528C49.16,91.555 49.158,91.602 49.183,91.633C49.87,92.565 50.536,93.624 51.163,94.758C51.751,95.821 52.289,96.948 52.754,98.102C52.985,98.677 53.195,99.257 53.388,99.838C53.583,100.428 53.756,101.018 53.902,101.605C53.991,101.965 54.073,102.323 54.143,102.679C54.312,103.543 54.418,104.393 54.413,105.221C54.425,106.326 54.229,107.461 53.921,108.575C53.609,109.703 53.19,110.802 52.722,111.811C52.703,111.846 52.714,111.892 52.747,111.912C52.779,111.933 52.821,111.921 52.84,111.885Z" style="fill:#8d6b63;fill-opacity:0.72;"/></g><g transform="matrix(1.19966,0,0,1.10198,-12.9661,-6.57273)"><path d="M62.911,101.888C62.99,100.788 63.093,99.677 63.084,98.561C63.079,97.8 63.013,97.047 62.882,96.299C62.773,95.749 62.639,95.199 62.465,94.656C62.352,94.301 62.223,93.949 62.078,93.603C61.935,93.262 61.776,92.926 61.604,92.596C61.35,92.108 61.07,91.634 60.769,91.172C60.372,90.564 59.944,89.98 59.487,89.421C58.799,88.581 58.057,87.812 57.29,87.102C57.263,87.073 57.22,87.073 57.193,87.103C57.167,87.132 57.167,87.179 57.194,87.208C57.844,88.022 58.449,88.899 59.019,89.818C59.39,90.417 59.738,91.031 60.064,91.659C60.309,92.13 60.535,92.606 60.752,93.086C60.896,93.407 61.035,93.73 61.169,94.052C61.304,94.378 61.435,94.703 61.557,95.029C61.743,95.527 61.917,96.024 62.054,96.529C62.054,96.529 62.054,96.529 62.054,96.529C62.254,97.209 62.381,97.906 62.476,98.612C62.623,99.703 62.697,100.801 62.775,101.888C62.775,101.929 62.805,101.963 62.843,101.963C62.881,101.963 62.911,101.929 62.911,101.888Z" style="fill:#8d6b63;fill-opacity:0.72;"/></g><g transform="matrix(1.19966,0,0,1.10198,-12.9661,-6.57273)"><path d="M50.942,78.788C51.802,79.013 52.699,79.249 53.632,79.477C54.22,79.621 54.811,79.768 55.404,79.915C55.795,80.012 56.184,80.11 56.572,80.203C57.161,80.343 57.744,80.472 58.308,80.652C58.722,80.783 59.124,80.923 59.515,81.094C60.125,81.36 60.695,81.67 61.221,82.078C61.249,82.105 61.292,82.102 61.317,82.071C61.342,82.041 61.34,81.993 61.311,81.966C60.705,81.25 59.993,80.665 59.185,80.186C58.664,79.876 58.111,79.618 57.533,79.401C57.196,79.274 56.852,79.161 56.5,79.074C55.981,78.946 55.45,78.863 54.919,78.801C54.387,78.739 53.859,78.707 53.333,78.686C52.513,78.653 51.723,78.66 50.96,78.64C50.923,78.635 50.888,78.663 50.883,78.704C50.878,78.745 50.905,78.783 50.942,78.788Z" style="fill:#8d6b63;fill-opacity:0.72;"/></g><g transform="matrix(1.19966,0,0,1.10198,-12.9661,-6.57273)"><path d="M66.951,72.151C66.488,71.651 66,71.178 65.469,70.729C65.122,70.435 64.765,70.157 64.389,69.895C64.019,69.636 63.636,69.397 63.241,69.175C62.98,69.028 62.714,68.89 62.442,68.766C62.171,68.643 61.893,68.534 61.613,68.435C61.193,68.286 60.768,68.161 60.339,68.05C59.908,67.94 59.479,67.847 59.045,67.771C58.386,67.656 57.738,67.584 57.088,67.536C57.051,67.528 57.015,67.556 57.009,67.596C57.002,67.637 57.027,67.675 57.064,67.682C57.681,67.876 58.287,68.107 58.906,68.352C59.506,68.591 60.097,68.855 60.692,69.128C61.084,69.307 61.47,69.497 61.861,69.677C62.252,69.857 62.644,70.03 63.033,70.208C63.56,70.45 64.08,70.692 64.59,70.952C65.387,71.358 66.15,71.774 66.865,72.267C66.895,72.293 66.938,72.288 66.962,72.255C66.985,72.223 66.98,72.176 66.951,72.151Z" style="fill:#8d6b63;fill-opacity:0.72;"/></g><g transform="matrix(1.19966,0,0,1.10198,-12.9661,-6.57273)"><path d="M50.257,59.882C51.055,59.773 51.812,59.766 52.568,59.788C53.08,59.803 53.58,59.845 54.081,59.894C54.458,59.931 54.832,59.978 55.207,60.019C55.585,60.06 55.962,60.092 56.341,60.136C56.913,60.202 57.48,60.274 58.06,60.368C58.635,60.461 59.204,60.555 59.792,60.674C59.828,60.686 59.866,60.664 59.877,60.625C59.889,60.586 59.868,60.544 59.832,60.532C59.282,60.264 58.747,60.011 58.197,59.786C57.822,59.632 57.45,59.496 57.071,59.373C56.686,59.247 56.302,59.139 55.912,59.053C55.649,58.996 55.386,58.949 55.12,58.919C54.854,58.889 54.587,58.876 54.319,58.874C53.917,58.872 53.517,58.893 53.115,58.942C52.816,58.978 52.522,59.028 52.223,59.095C51.554,59.244 50.899,59.457 50.223,59.738C50.187,59.748 50.164,59.788 50.174,59.828C50.183,59.868 50.22,59.892 50.257,59.882Z" style="fill:#8d6b63;fill-opacity:0.72;"/></g><g transform="matrix(1.19966,0,0,1.10198,-12.9661,-6.57273)"><path d="M54.009,59.274C54.325,59.284 54.628,59.285 54.942,59.268C55.414,59.244 55.871,59.196 56.338,59.117C56.644,59.064 56.946,58.997 57.248,58.919C57.447,58.868 57.645,58.812 57.841,58.745C58.035,58.678 58.226,58.6 58.416,58.519C58.701,58.398 58.978,58.266 59.259,58.133C59.541,57.999 59.814,57.865 60.094,57.729C60.518,57.523 60.925,57.319 61.356,57.134C61.393,57.124 61.416,57.084 61.408,57.044C61.399,57.004 61.362,56.979 61.326,56.988C60.858,57.027 60.406,57.077 59.94,57.151C59.632,57.201 59.333,57.257 59.027,57.323C58.725,57.387 58.428,57.454 58.129,57.534C57.932,57.587 57.737,57.642 57.543,57.707C57.351,57.772 57.162,57.846 56.973,57.922C56.688,58.035 56.409,58.152 56.128,58.272C55.701,58.454 55.29,58.639 54.858,58.806C54.568,58.919 54.288,59.029 53.991,59.126C53.954,59.132 53.927,59.169 53.932,59.21C53.937,59.251 53.972,59.279 54.009,59.274Z" style="fill:#8d6b63;fill-opacity:0.72;"/></g><g transform="matrix(1.17504,0.24177,-0.222085,1.07937,1.01453,-20.3738)"><path d="M73.468,51.532C73.114,50.915 72.774,50.281 72.367,49.687C72.09,49.282 71.781,48.908 71.43,48.566C70.796,47.982 70.078,47.476 69.288,47.073C68.985,46.918 68.669,46.782 68.346,46.662C68.135,46.583 67.919,46.513 67.7,46.452C66.895,46.229 66.062,46.088 65.226,46.021C63.951,45.918 62.69,45.99 61.515,46.144C61.478,46.145 61.448,46.18 61.45,46.221C61.451,46.262 61.483,46.294 61.521,46.292C62.335,46.334 63.177,46.44 64.038,46.589C64.856,46.731 65.675,46.924 66.481,47.166C66.864,47.281 67.241,47.409 67.615,47.542C67.865,47.631 68.114,47.722 68.359,47.817C68.827,47.996 69.282,48.19 69.719,48.413C70.169,48.642 70.602,48.886 71.002,49.178C71.002,49.178 71.002,49.178 71.002,49.178C71.365,49.431 71.69,49.725 71.997,50.044C72.482,50.547 72.917,51.092 73.358,51.622C73.381,51.655 73.424,51.661 73.454,51.636C73.484,51.612 73.49,51.565 73.468,51.532Z" style="fill:#8d6b63;fill-opacity:0.72;"/></g><g transform="matrix(1.19966,0,0,1.10198,-12.9661,-6.57273)"><path d="M61.013,38.744C61.944,38.847 62.892,38.928 63.864,38.982C64.491,39.017 65.117,39.049 65.745,39.077C66.159,39.096 66.572,39.116 66.983,39.129C67.605,39.149 68.219,39.16 68.827,39.224C69.269,39.27 69.702,39.328 70.134,39.418C70.79,39.555 71.426,39.743 72.05,40.034C72.083,40.054 72.125,40.041 72.143,40.005C72.161,39.969 72.149,39.924 72.116,39.904C71.342,39.321 70.516,38.894 69.629,38.59C69.041,38.388 68.436,38.246 67.816,38.149C67.451,38.092 67.083,38.049 66.712,38.033C66.165,38.011 65.614,38.034 65.064,38.075C64.518,38.116 63.977,38.183 63.437,38.256C62.611,38.368 61.81,38.504 61.013,38.594C60.975,38.594 60.945,38.628 60.945,38.669C60.945,38.71 60.975,38.744 61.013,38.744Z" style="fill:#8d6b63;fill-opacity:0.72;"/></g><g transform="matrix(1.19966,0,0,1.10198,-12.9661,-6.57273)"><path d="M61.827,29.901C63.013,29.975 64.233,30.002 65.473,30.005C66.276,30.006 67.078,30.006 67.879,30.013C68.41,30.017 68.938,30.028 69.463,30.039C70.26,30.057 71.045,30.082 71.817,30.188C72.378,30.265 72.928,30.368 73.471,30.522C74.286,30.754 75.074,31.077 75.834,31.554C75.865,31.578 75.908,31.569 75.929,31.535C75.951,31.501 75.943,31.455 75.912,31.432C74.965,30.597 73.928,30.013 72.814,29.617C72.068,29.351 71.293,29.175 70.499,29.064C70.034,29 69.563,28.956 69.088,28.946C68.391,28.931 67.688,28.972 66.985,29.038C66.291,29.102 65.601,29.199 64.912,29.301C63.862,29.457 62.836,29.637 61.825,29.751C61.787,29.752 61.757,29.786 61.758,29.828C61.758,29.869 61.79,29.901 61.827,29.901Z" style="fill:#8d6b63;fill-opacity:0.72;"/></g><g transform="matrix(1.19966,0,0,1.10198,-12.9661,-6.57273)"><path d="M77.236,23.18C78.04,23.898 78.84,24.605 79.622,25.325C80.093,25.758 80.547,26.194 80.983,26.645C81.275,26.946 81.554,27.254 81.824,27.568C82.039,27.819 82.247,28.075 82.447,28.338C82.58,28.513 82.711,28.688 82.837,28.869C83.3,29.536 83.701,30.258 83.98,31.096C83.981,31.096 83.981,31.096 83.981,31.096C84.194,31.695 84.396,32.332 84.468,32.983C84.515,33.417 84.511,33.849 84.409,34.279C84.396,34.318 84.414,34.36 84.45,34.374C84.486,34.388 84.525,34.368 84.537,34.329C84.721,33.895 84.803,33.438 84.824,32.969C84.855,32.271 84.739,31.563 84.607,30.892C84.4,29.933 84.063,29.073 83.615,28.287C83.493,28.073 83.361,27.866 83.219,27.666C83.009,27.37 82.779,27.088 82.534,26.821C82.235,26.495 81.914,26.189 81.575,25.899C81.246,25.618 80.903,25.352 80.548,25.097C79.927,24.653 79.28,24.244 78.619,23.839C78.185,23.574 77.75,23.321 77.314,23.056C77.282,23.033 77.24,23.042 77.219,23.076C77.197,23.11 77.205,23.156 77.236,23.18Z" style="fill:#8d6b63;fill-opacity:0.72;"/></g><g transform="matrix(1.19966,0,0,1.10198,-12.9661,-6.57273)"><path d="M67.665,29.971C67.85,30.391 68.025,30.784 68.226,31.179C68.364,31.449 68.503,31.704 68.66,31.956C68.818,32.211 68.987,32.452 69.17,32.684C69.293,32.839 69.421,32.989 69.56,33.128C69.699,33.267 69.848,33.395 70.002,33.515C70.234,33.694 70.474,33.853 70.73,33.999C70.979,34.141 71.231,34.268 71.503,34.379C71.889,34.536 72.279,34.655 72.711,34.753C72.746,34.768 72.786,34.75 72.8,34.711C72.814,34.673 72.796,34.63 72.761,34.615C72.398,34.375 72.085,34.121 71.774,33.855C71.561,33.674 71.369,33.488 71.172,33.301C70.895,33.036 70.649,32.755 70.388,32.484C70.213,32.303 70.033,32.13 69.854,31.955C69.579,31.686 69.305,31.426 69.029,31.151C68.61,30.734 68.196,30.337 67.777,29.885C67.755,29.851 67.712,29.843 67.681,29.867C67.65,29.891 67.643,29.938 67.665,29.971Z" style="fill:#8d6b63;fill-opacity:0.72;"/></g><g transform="matrix(1.19966,0,0,1.10198,-12.9661,-6.57273)"><path d="M67.086,94.542C67.052,93.077 66.828,91.48 66.35,89.971C65.869,88.457 65.127,87.044 64.099,85.931C64.099,85.931 64.099,85.931 64.099,85.931C63.298,85.085 62.357,84.458 61.336,83.984C60.596,83.642 59.815,83.377 59.018,83.169C58.24,82.966 57.446,82.822 56.664,82.683C55.353,82.476 54.019,82.124 52.678,81.933C51.756,81.802 50.833,81.747 49.914,81.846C49.162,81.932 48.42,82.155 47.7,82.463C46.643,82.914 45.634,83.536 44.705,84.111C44.671,84.13 44.658,84.175 44.675,84.211C44.692,84.248 44.734,84.262 44.767,84.243C45.724,83.76 46.762,83.238 47.835,82.884C48.531,82.655 49.241,82.499 49.952,82.478C49.952,82.478 49.952,82.478 49.952,82.478C50.826,82.446 51.693,82.571 52.558,82.75C53.886,83.025 55.203,83.437 56.502,83.715C56.502,83.715 56.502,83.715 56.502,83.715C57.261,83.862 58.029,84.03 58.788,84.224C59.537,84.416 60.277,84.639 60.982,84.935C61.92,85.328 62.801,85.838 63.559,86.567C64.582,87.527 65.342,88.797 65.889,90.167C66.461,91.597 66.805,93.129 66.95,94.552C66.952,94.593 66.985,94.624 67.023,94.621C67.06,94.619 67.089,94.583 67.086,94.542Z" style="fill:#8d6b63;fill-opacity:0.62;"/></g><g transform="matrix(1,0,0,0.918579,-0.156761,5.1725)"><g transform="matrix(1.30915,0,0,1.19966,-18.2399,-12.7863)"><path d="M70.311,70.873C70.232,69.657 69.715,68.548 69.019,67.576C67.905,66.02 66.334,64.839 65.427,64.143C65.427,64.143 65.427,64.143 65.427,64.143C64.417,63.396 63.289,62.827 62.094,62.463C61.322,62.228 60.522,62.077 59.715,62.008C58.717,61.924 57.707,61.966 56.719,62.111C55.714,62.259 54.733,62.521 53.805,62.874C53.805,62.874 53.805,62.874 53.805,62.874C52.71,63.301 51.546,63.684 50.709,64.392C50.085,64.92 49.637,65.617 49.531,66.635C49.525,66.677 49.549,66.718 49.585,66.725C49.621,66.732 49.655,66.704 49.661,66.661C49.83,65.742 50.285,65.148 50.892,64.726C51.746,64.131 52.891,63.879 53.971,63.574C54.877,63.31 55.828,63.15 56.796,63.074C57.738,63 58.693,63.024 59.637,63.129C60.393,63.212 61.142,63.351 61.87,63.551C62.989,63.859 64.063,64.3 65.029,64.943C65.947,65.531 67.528,66.532 68.71,67.917C69.435,68.767 70.013,69.753 70.181,70.893C70.185,70.936 70.218,70.966 70.254,70.961C70.29,70.956 70.316,70.916 70.311,70.873Z" style="fill:#8d6b63;fill-opacity:0.62;"/></g><g transform="matrix(1.11473,0,0,1.21353,-9.88846,-9.99037)"><circle cx="30.287" cy="96.557" r="0.783" style="fill:#855c52;fill-opacity:0.11;"/></g><g transform="matrix(1.19966,0,0,1.30599,-16.0973,-15.7139)"><circle cx="30.287" cy="96.557" r="0.783" style="fill:#855c52;fill-opacity:0.11;"/></g><g transform="matrix(1.19966,0,0,1.30599,-6.54824,-12.7127)"><circle cx="30.287" cy="96.557" r="0.783" style="fill:#855c52;fill-opacity:0.11;"/></g><g transform="matrix(1.11473,0,0,1.21353,-10.7609,-0.290475)"><circle cx="30.287" cy="96.557" r="0.783" style="fill:#855c52;fill-opacity:0.11;"/></g><g transform="matrix(1.11473,0,0,1.21353,-4.80226,6.3782)"><circle cx="30.287" cy="96.557" r="0.783" style="fill:#855c52;fill-opacity:0.11;"/></g><g transform="matrix(1.19966,0,0,1.30599,-2.29313,-5.97092)"><circle cx="30.287" cy="96.557" r="0.783" style="fill:#855c52;fill-opacity:0.11;"/></g><g transform="matrix(1.19966,0,0,1.30599,-12.6213,-3.31769)"><circle cx="30.287" cy="96.557" r="0.783" style="fill:#855c52;fill-opacity:0.11;"/></g><g transform="matrix(1.3967,0,0,1.5205,-14.2085,-27.4602)"><circle cx="30.287" cy="96.557" r="0.783" style="fill:#855c52;fill-opacity:0.11;"/></g><g transform="matrix(1.11473,0,0,1.21353,-4.80226,-8.5758)"><circle cx="30.287" cy="96.557" r="0.783" style="fill:#855c52;fill-opacity:0.11;"/></g><g transform="matrix(1.3967,0,0,1.5205,-17.9996,-35.5626)"><circle cx="30.287" cy="96.557" r="0.783" style="fill:#855c52;fill-opacity:0.11;"/></g><g transform="matrix(1.3967,0,0,1.5205,-23.2793,-31.2076)"><circle cx="30.287" cy="96.557" r="0.783" style="fill:#855c52;fill-opacity:0.11;"/></g><g transform="matrix(1.3967,0,0,1.5205,-7.76596,-30.0175)"><circle cx="30.287" cy="96.557" r="0.783" style="fill:#855c52;fill-opacity:0.11;"/></g></g><g transform="matrix(1.19966,0,0,1.10198,-12.9661,-6.57273)"><path d="M52.528,44.192C54.295,42.738 56.315,42.06 58.423,41.859C59.203,41.784 59.993,41.776 60.789,41.816C61.575,41.857 62.363,41.951 63.149,42.077C63.778,42.177 64.404,42.301 65.026,42.437C65.977,42.645 66.916,42.878 67.821,43.155C68.806,43.441 69.87,43.701 70.853,44.106C71.505,44.374 72.122,44.699 72.65,45.153C73.002,45.455 73.279,45.798 73.515,46.168C73.891,46.757 74.169,47.405 74.479,48.053C74.495,48.091 74.535,48.107 74.57,48.09C74.604,48.072 74.619,48.028 74.603,47.991C74.347,47.301 74.125,46.613 73.794,45.977C73.572,45.549 73.3,45.148 72.944,44.783C72.944,44.783 72.944,44.783 72.944,44.783C72.414,44.24 71.781,43.821 71.099,43.472C70.127,42.974 69.058,42.629 68.071,42.259C68.071,42.259 68.071,42.259 68.071,42.259C67.432,42.028 66.778,41.806 66.109,41.616C65.449,41.429 64.777,41.269 64.099,41.144C63.556,41.045 63.009,40.971 62.461,40.921C61.631,40.846 60.8,40.827 59.979,40.875C59.143,40.924 58.318,41.039 57.516,41.24C55.655,41.707 53.922,42.603 52.44,44.078C52.411,44.104 52.407,44.151 52.431,44.183C52.455,44.214 52.499,44.219 52.528,44.192Z" style="fill:#8d6b63;fill-opacity:0.62;"/></g><defs><radialGradient id="_Radial1" cx="0" cy="0" r="1" gradientUnits="userSpaceOnUse" gradientTransform="matrix(4.69041,-2.22045e-16,0,5.56174,64.1537,73.078)"><stop offset="0" style="stop-color:#e1e8a2;stop-opacity:1"/><stop offset="1" style="stop-color:#ffecb3;stop-opacity:1"/></radialGradient></defs></svg>