<?xml version="1.0" encoding="UTF-8" standalone="no"?><!DOCTYPE svg PUBLIC "-//W3C//DTD SVG 1.1//EN" "http://www.w3.org/Graphics/SVG/1.1/DTD/svg11.dtd"><svg width="128px" height="128px" version="1.1" xmlns="http://www.w3.org/2000/svg" xmlns:xlink="http://www.w3.org/1999/xlink" xml:space="preserve" xmlns:serif="http://www.serif.com/" style="fill-rule:evenodd;clip-rule:evenodd;stroke-linecap:round;stroke-linejoin:round;stroke-miterlimit:1.5;"><g transform="matrix(1.5099,0.399975,-0.435429,1.38696,15.5733,-46.2661)"><path d="M67.113,52.163C69.076,52.694 73.15,53.156 74.607,54.824C75.204,55.508 74.92,56.457 74.627,57.22C73.996,58.864 72.744,61.122 71.059,61.859C67.614,63.364 63.167,60.46 60.927,57.953" style="fill:#ffcc80;"/></g><g transform="matrix(1.3984,0.658491,-0.716859,1.28454,40.494,-65.0304)"><path d="M72.028,74.799C70.793,73.93 69.41,72.708 68.712,71.349C68.032,70.025 70.602,68.101 71.649,68.095C73.888,68.083 76.066,70.75 76.7,72.671" style="fill:#ffe0b2;"/></g><g transform="matrix(1.13468,0.998634,-1.08715,1.0423,83.0767,-56.94)"><path d="M49.15,82.463C45.423,80.167 41.589,77.082 38.104,74.463C36.591,73.326 35.045,71.955 33.101,71.709C28.397,71.111 26.09,76.455 26.741,80.454C27.209,83.322 29.538,85.899 31.66,87.741C32.874,88.796 34.238,89.81 35.802,90.271C37.384,90.738 39.055,90.575 40.677,90.755C43.232,91.038 48.319,91.629 50.454,93.057" style="fill:#ffe0b2;"/></g><g transform="matrix(1.3984,0.658491,-0.716859,1.28454,40.494,-65.0304)"><path d="M58.731,77.273C59.599,75.557 61.338,72.657 63.379,72.056C66.305,71.194 69.117,75.843 68.808,78.263C68.449,81.068 64.334,83.065 61.88,83.545" style="fill:url(#_Radial1);"/></g><g transform="matrix(1.5099,0.399975,-0.435429,1.38696,15.5733,-46.2661)"><path d="M51.869,53.459C54.066,51.03 60.069,45.996 61.973,43.436C62.984,42.077 64.437,41.09 66.128,40.849C66.584,40.784 67.448,41.34 67.867,41.514C70.523,42.619 71.407,44.342 70.509,47.206C69.296,51.074 65.833,54.596 62.68,57.001C61.524,57.882 55.729,65.677 54.441,66.981" style="fill:#ffe0b2;"/></g><g transform="matrix(1.3984,0.658491,-0.716859,1.28454,40.494,-65.0304)"><path d="M64,86.819C67.3,84.924 69.665,83.7 70.648,80.076C71.268,77.792 71.289,74.331 73.744,73.108C78.867,70.555 82.948,77.95 82.609,82.057C82.393,84.677 80.189,86.721 78.476,88.492C74.618,92.48 70.016,96.663 64,96.792" style="fill:#ffcc80;"/></g><g transform="matrix(1.19053,0.560608,-0.586499,1.05095,41.6199,-47.2715)"><path d="M42.991,50.734C41.568,46.983 40.687,42.118 36.878,40.041C32.422,37.611 27.471,46.081 30.021,50.352C31.157,52.256 33.227,53.129 35.007,54.304C36.873,55.537 39.302,59.169 41.063,60.526" style="fill:#ffe0b2;"/></g><g transform="matrix(1.3984,0.658491,-0.716859,1.28454,40.4883,-64.8985)"><path d="M54.595,111.527C59.953,108.36 63.886,99.996 64.425,94.214C64.601,92.315 64.876,90.295 64.456,88.41C63.727,85.131 61.669,82.089 60.22,79.094C58.117,74.751 56.466,70.052 55.948,65.24C55.73,63.211 55.576,61.184 55.777,59.148C55.973,57.152 56.582,55.21 56.655,53.195C56.73,51.137 57.172,51.887 57.205,49.816C57.252,46.814 60.433,43.182 54.901,40.154C51.012,38.025 48.007,41.011 46.116,44.206C44.376,47.147 43.431,47.826 43.037,51.077C42.808,52.974 41.952,54.742 41.571,56.611C41.085,59.001 41.145,61.61 41.389,64.027C41.799,68.099 43.396,72.079 45.212,75.713C46.764,78.818 48.687,81.927 48.853,85.48C49.007,88.786 48.445,96.18 44.268,99.488" style="fill:#ffcc80;"/></g><g transform="matrix(1.3984,0.658491,-0.716859,1.28454,40.4883,-64.8985)"><path d="M54.595,111.527C59.953,108.36 63.886,99.996 64.425,94.214C64.601,92.315 64.876,90.295 64.456,88.41C63.727,85.131 61.669,82.089 60.22,79.094C58.117,74.751 56.466,70.052 55.948,65.24C55.73,63.211 55.576,61.184 55.777,59.148C55.973,57.152 56.582,55.21 56.655,53.195C56.73,51.137 57.172,51.887 57.205,49.816C57.252,46.814 60.433,43.182 54.901,40.154C51.012,38.025 48.007,41.011 46.116,44.206C44.376,47.147 43.431,47.826 43.037,51.077C42.808,52.974 41.952,54.742 41.571,56.611C41.085,59.001 41.145,61.61 41.389,64.027C41.799,68.099 43.396,72.079 45.212,75.713C46.764,78.818 48.687,81.927 48.853,85.48C49.007,88.786 48.445,96.18 44.268,99.488" style="fill:#a1867f;fill-opacity:0.3;"/></g><g transform="matrix(1.35554,0.63831,-0.701582,1.25716,41.1906,-60.8014)"><path d="M48.229,99.2C47.506,99.043 46.761,98.887 46.018,98.961C42.407,99.318 41.572,103 42.248,106.103C42.921,109.193 45.697,111.782 48.678,112.609C52.462,113.658 57.295,111.199 56.359,106.779C55.634,103.355 51.445,100.296 48.229,99.2Z" style="fill:#fff7b3;stroke:#ffcc80;stroke-width:0.71px;"/></g><g transform="matrix(1,0,0,0.918579,-0.156761,5.1725)"><path d="M52.781,111.848C53.836,109.871 54.75,107.503 54.826,105.237C54.981,100.602 52.135,95.097 49.234,91.583" style="fill:none;stroke:#8d6b63;stroke-opacity:0.72;stroke-width:1.04px;"/></g><g transform="matrix(1,0,0,0.918579,-0.156761,5.1725)"><path d="M62.843,101.888C62.843,100.071 62.885,98.196 62.468,96.414C61.671,93.005 59.61,89.707 57.242,87.155" style="fill:none;stroke:#8d6b63;stroke-opacity:0.72;stroke-width:1.04px;"/></g><g transform="matrix(1,0,0,0.918579,-0.156761,5.1725)"><path d="M50.951,78.714C54.371,79.206 58.657,79.506 61.266,82.022" style="fill:none;stroke:#8d6b63;stroke-opacity:0.72;stroke-width:1.04px;"/></g><g transform="matrix(1,0,0,0.918579,-0.156761,5.1725)"><path d="M66.908,72.209C64.214,69.877 60.561,68.278 57.076,67.609" style="fill:none;stroke:#8d6b63;stroke-opacity:0.72;stroke-width:1.04px;"/></g><g transform="matrix(1,0,0,0.918579,-0.156761,5.1725)"><path d="M50.24,59.81C53.577,58.907 56.617,59.517 59.812,60.603" style="fill:none;stroke:#8d6b63;stroke-opacity:0.72;stroke-width:1.04px;"/></g><g transform="matrix(1,0,0,0.918579,-0.156761,5.1725)"><path d="M54,59.2C56.524,58.836 58.879,57.678 61.341,57.061" style="fill:none;stroke:#8d6b63;stroke-opacity:0.72;stroke-width:1.04px;"/></g><g transform="matrix(1,0,0,0.918579,-0.156761,5.1725)"><path d="M73.413,51.577C72.755,50.629 72.113,49.614 71.216,48.872C68.657,46.754 64.747,46.082 61.518,46.218" style="fill:none;stroke:#8d6b63;stroke-opacity:0.72;stroke-width:1.04px;"/></g><g transform="matrix(1,0,0,0.918579,-0.156761,5.1725)"><path d="M61.013,38.669C64.684,38.669 68.807,37.988 72.083,39.969" style="fill:none;stroke:#8d6b63;stroke-opacity:0.72;stroke-width:1.04px;"/></g><g transform="matrix(1,0,0,0.918579,-0.156761,5.1725)"><path d="M61.826,29.826C66.522,29.715 71.861,28.484 75.873,31.493" style="fill:none;stroke:#8d6b63;stroke-opacity:0.72;stroke-width:1.04px;"/></g><g transform="matrix(1,0,0,0.918579,-0.156761,5.1725)"><path d="M77.275,23.118C80.202,25.299 83.282,27.294 84.294,30.994C84.583,32.049 84.826,33.229 84.473,34.304" style="fill:none;stroke:#8d6b63;stroke-opacity:0.72;stroke-width:1.04px;"/></g><g transform="matrix(1,0,0,0.918579,-0.156761,5.1725)"><path d="M67.721,29.928C69.061,31.963 70.435,33.694 72.736,34.684" style="fill:none;stroke:#8d6b63;stroke-opacity:0.72;stroke-width:1.04px;"/></g><g transform="matrix(1,0,0,0.918579,-0.156761,5.1725)"><path d="M67.018,94.547C66.84,91.688 65.901,88.338 63.829,86.249C61.901,84.306 59.181,83.682 56.583,83.199C54.406,82.794 52.169,82.001 49.933,82.162C48.103,82.293 46.306,83.297 44.736,84.177" style="fill:none;stroke:#8d6b63;stroke-opacity:0.62;stroke-width:1.04px;"/></g><g transform="matrix(1,0,0,0.918579,-0.156761,5.1725)"><path d="M68.949,68.325C67.67,67.088 66.704,65.58 65.228,64.543C61.99,62.27 57.539,62 53.888,63.224C52.01,63.854 49.542,64.445 49.213,66.741" style="fill:none;stroke:#8d6b63;stroke-opacity:0.62;stroke-width:1.04px;"/></g><g transform="matrix(1,0,0,0.918579,-0.156761,5.1725)"><path d="M52.484,44.135C56.777,40.251 62.882,41.028 67.946,42.707C69.603,43.257 71.491,43.742 72.797,44.968C73.696,45.812 74.074,46.919 74.541,48.022" style="fill:none;stroke:#8d6b63;stroke-opacity:0.62;stroke-width:1.04px;"/></g><defs><radialGradient id="_Radial1" cx="0" cy="0" r="1" gradientUnits="userSpaceOnUse" gradientTransform="matrix(4.69041,-2.22045e-16,0,5.56174,64.1537,73.078)"><stop offset="0" style="stop-color:#e1e8a2;stop-opacity:1"/><stop offset="1" style="stop-color:#ffecb3;stop-opacity:1"/></radialGradient></defs></svg>