<?xml version="1.0" encoding="UTF-8" standalone="no"?><!DOCTYPE svg PUBLIC "-//W3C//DTD SVG 1.1//EN" "http://www.w3.org/Graphics/SVG/1.1/DTD/svg11.dtd"><svg width="128px" height="128px" version="1.1" xmlns="http://www.w3.org/2000/svg" xmlns:xlink="http://www.w3.org/1999/xlink" xml:space="preserve" xmlns:serif="http://www.serif.com/" style="fill-rule:evenodd;clip-rule:evenodd;stroke-linecap:round;stroke-linejoin:round;stroke-miterlimit:1.5;"><g id="comb" transform="matrix(0.942809,0.942809,-1.20513,1.20513,65.6368,-58.3164)"><g transform="matrix(1,0,0,2.75,20,-86.25)"><path d="M64,51L64,39" style="fill:none;stroke:#6593a2;stroke-width:0.87px;"/></g><g transform="matrix(1,0,0,2.75,16,-86.25)"><path d="M64,51L64,39" style="fill:none;stroke:#6593a2;stroke-width:0.87px;"/></g><g transform="matrix(1,0,0,2.75,12,-86.25)"><path d="M64,51L64,39" style="fill:none;stroke:#6593a2;stroke-width:0.87px;"/></g><g transform="matrix(1,0,0,2.75,8,-86.25)"><path d="M64,51L64,39" style="fill:none;stroke:#6593a2;stroke-width:0.87px;"/></g><g transform="matrix(1,0,0,2.75,4,-86.25)"><path d="M64,51L64,39" style="fill:none;stroke:#6593a2;stroke-width:0.87px;"/></g><g transform="matrix(1,0,0,2.75,-7.10543e-15,-86.25)"><path d="M64,51L64,39" style="fill:none;stroke:#6593a2;stroke-width:0.87px;"/></g><g transform="matrix(1,0,0,2.75,-4,-86.25)"><path d="M64,51L64,39" style="fill:none;stroke:#6593a2;stroke-width:0.87px;"/></g><g transform="matrix(1,0,0,2.75,-8,-86.25)"><path d="M64,51L64,39" style="fill:none;stroke:#6593a2;stroke-width:0.87px;"/></g><g transform="matrix(1,0,0,2.75,-12,-86.25)"><path d="M64,51L64,39" style="fill:none;stroke:#6593a2;stroke-width:0.87px;"/></g><g transform="matrix(1,0,0,2.75,-16,-86.25)"><path d="M64,51L64,39" style="fill:none;stroke:#6593a2;stroke-width:0.87px;"/></g><g transform="matrix(1,0,0,2.75,-20,-86.25)"><path d="M64,51L64,39" style="fill:none;stroke:#6593a2;stroke-width:0.87px;"/></g></g><g transform="matrix(0.51939,0.51939,-1.15579,1.15579,96.2595,-23.2045)"><path d="M97.08,51.416C67.623,54.028 38.165,54.018 8.707,51.416C8.787,58 13.828,62.878 19.787,65C25.815,67.146 37.787,67 38.165,77.887C38.165,80.368 36.952,82.875 34.872,84.437C32.761,86.022 30.8,86.986 28.281,89.089C25.996,90.997 23.436,96.086 52.894,96.086C82.352,96.086 79.791,90.997 77.506,89.089C74.987,86.986 73.026,86.022 70.916,84.437C68.836,82.875 67.623,80.368 67.623,77.887C68,67 79.972,67.146 86,65C91.959,62.878 97,58 97.08,51.416Z" style="fill:#6593a2;stroke:#6593a2;stroke-width:2.37px;"/></g><g transform="matrix(0.942809,0.942809,-3.10698,3.10698,140.117,-178.051)"><path d="M64,51L64,39" style="fill:none;stroke:#6593a2;stroke-width:1.23px;"/></g><g transform="matrix(0.942809,0.942809,-3.10698,3.10698,185.372,-132.796)"><path d="M64,51L64,39" style="fill:none;stroke:#6593a2;stroke-width:1.23px;"/></g></svg>