<?xml version="1.0" encoding="UTF-8" standalone="no"?><!DOCTYPE svg PUBLIC "-//W3C//DTD SVG 1.1//EN" "http://www.w3.org/Graphics/SVG/1.1/DTD/svg11.dtd"><svg width="128px" height="128px" version="1.1" xmlns="http://www.w3.org/2000/svg" xmlns:xlink="http://www.w3.org/1999/xlink" xml:space="preserve" xmlns:serif="http://www.serif.com/" style="fill-rule:evenodd;clip-rule:evenodd;stroke-linejoin:round;stroke-miterlimit:2;"><g transform="matrix(1.47371,0,0,1.47371,-24.5151,-34.253)"><path d="M45.423,66.794C43.912,67.898 42.643,70.495 42.133,73.823C41.302,79.239 41.849,86.568 42.396,88.392C42.681,89.342 42.865,90.329 42.978,91.328C43.098,92.396 43.152,93.472 43.177,94.527C43.202,95.654 42.93,96.708 42.493,97.719C41.225,100.654 38.881,103.297 37.608,106.101C37.177,106.991 37.55,108.063 38.439,108.494C39.329,108.925 40.401,108.552 40.832,107.663C42.26,104.889 44.753,102.327 46.181,99.42C46.933,97.892 47.398,96.275 47.443,94.533C47.443,94.533 47.443,94.533 47.443,94.533C47.48,93.106 47.468,91.643 47.335,90.199C47.242,89.176 47.077,88.165 46.834,87.18C46.834,87.18 46.834,87.18 46.834,87.18C46.539,85.986 46.456,82.104 46.806,78.303C46.977,76.444 47.272,74.607 47.729,73.122C47.973,72.329 48.156,71.637 48.585,71.355C49.844,70.483 50.158,68.752 49.285,67.494C48.412,66.235 46.682,65.921 45.423,66.794Z" style="fill:#f193b3;"/></g><g transform="matrix(1.47371,0,0,1.47371,-27.9213,-34.253)"><path d="M54.134,71.838C53.868,73.059 53.697,74.299 53.612,75.548C53.53,76.743 53.51,77.943 53.536,79.134C53.59,81.69 53.912,83.502 54.354,84.869C54.84,86.373 55.437,87.383 56.015,88.22C56.347,88.701 56.687,89.078 56.895,89.547C56.895,89.547 56.895,89.547 56.896,89.548C57.223,90.283 57.45,91.09 57.572,91.916C57.702,92.792 57.742,93.683 57.685,94.529C57.625,95.426 57.472,96.104 57.191,96.701C56.652,97.848 55.817,98.763 54.837,100.161C54.837,100.161 54.837,100.161 54.837,100.161C54.235,101.019 53.238,102.683 52.58,104.314C52.031,105.676 51.722,107.023 51.845,107.992C51.943,108.976 52.821,109.695 53.805,109.596C54.789,109.498 55.508,108.62 55.409,107.636C55.362,106.99 55.83,106.108 56.286,105.232C56.859,104.129 57.566,103.09 58.015,102.515C59.246,100.94 60.238,99.891 60.938,98.581C61.469,97.59 61.833,96.46 62.017,94.934C62.017,94.934 62.017,94.934 62.017,94.933C62.154,93.787 62.165,92.572 62.05,91.371C61.931,90.12 61.647,88.891 61.212,87.76C60.746,86.543 59.684,85.703 59.089,83.472C58.812,82.436 58.677,81.068 58.736,79.16C58.768,78.126 58.838,77.087 58.963,76.055C59.082,75.076 59.265,74.107 59.524,73.158C59.889,71.671 58.977,70.167 57.489,69.803C56.002,69.438 54.498,70.35 54.134,71.838Z" style="fill:#f193b3;"/></g><g transform="matrix(1.47371,0,0,1.47371,-37.6988,-34.253)"><path d="M69.853,69.261C70.33,74.45 71,78.735 71.754,82.098C72.747,86.527 73.907,89.45 74.906,90.856C75.336,91.461 75.689,92.101 75.948,92.779C76.216,93.478 76.407,94.207 76.51,94.962C76.51,94.963 76.51,94.963 76.51,94.963C76.651,95.998 76.515,96.986 76.24,97.947C75.728,99.735 74.831,101.445 74.154,103.166C73.827,103.995 73.477,104.829 73.251,105.689C73.072,106.371 72.953,107.064 72.957,107.782C72.939,108.77 73.727,109.587 74.716,109.605C75.704,109.623 76.521,108.835 76.539,107.846C76.556,107.452 76.653,107.076 76.77,106.706C76.994,105.996 77.331,105.318 77.638,104.637C77.638,104.637 77.638,104.637 77.639,104.636C78.452,102.833 79.481,101.045 80.121,99.16C80.626,97.673 80.88,96.129 80.739,94.493C80.644,93.399 80.421,92.337 80.085,91.313C79.744,90.268 79.262,89.274 78.656,88.327C78.656,88.327 78.656,88.326 78.656,88.326C77.909,87.159 77.217,84.73 76.594,81.136C76.035,77.916 75.602,73.825 75.39,68.888C75.287,67.36 73.963,66.203 72.435,66.306C70.907,66.409 69.75,67.733 69.853,69.261Z" style="fill:#f193b3;"/></g><g transform="matrix(1.47371,0,0,1.47371,-40.1617,-34.2761)"><path d="M80.123,70.983C80.406,72.705 80.294,75.389 82.004,80.527C82.798,82.916 83.978,85.839 85.796,89.443C86.65,91.137 87.126,92.781 87.372,94.281C87.734,96.482 87.654,98.375 87.623,99.659C87.583,101.292 87.826,102.901 88.364,104.512C88.83,105.906 89.497,107.308 90.37,108.729C90.866,109.584 91.963,109.875 92.818,109.379C93.673,108.883 93.965,107.786 93.469,106.931C92.813,105.732 92.32,104.559 91.996,103.4C91.665,102.213 91.543,101.039 91.632,99.858C91.742,98.391 91.926,96.23 91.64,93.691C91.425,91.779 90.926,89.671 89.956,87.476C88.443,84.055 87.482,81.295 86.859,79.047C85.534,74.267 85.799,71.811 85.62,70.222C85.41,68.705 84.008,67.644 82.491,67.854C80.974,68.064 79.913,69.466 80.123,70.983Z" style="fill:#f193b3;"/></g><g transform="matrix(1.47371,0,0,1.57673,-33.4607,-42.8799)"><path d="M38.509,69.316C37.001,64.766 35.912,60.688 35.568,56.967C34.957,50.36 35.791,43.964 41,38C46.902,31.242 57.047,27.903 66.101,27.903C75.155,27.903 85.829,30.867 91.202,38C99.687,49.265 97.595,62.891 94.827,69.444L38.509,69.316Z" style="fill:#eb7aa4;"/></g><g transform="matrix(1.37055,0,0,1.21479,-19.5407,-15.8439)"><path d="M62.917,66.501C58.165,66.501 53.422,66.325 48.671,66.26C45.902,66.222 43.132,66.216 40.362,66.211C37.46,66.206 34.198,65.8 31.607,67.281C28.061,69.308 31.992,73.753 34.661,74.075C39.012,74.601 43.58,74.013 47.92,73.677C56.211,73.035 64.631,73.17 72.937,73.43C76.267,73.534 88.33,74.054 91.491,73C94.491,72 95.491,67 90.491,66C84.843,64.87 68.604,67.119 62.917,66.501Z" style="fill:#d7598b;"/></g><g transform="matrix(1.47371,0,0,1.47371,-32.695,-33.3611)"><path d="M56,28C52.433,29.783 43.827,33.65 40.394,39.59C38.9,42.173 36.893,48.14 41.093,48.923C43.626,49.395 45.6,47.238 46.473,45.822C48.52,42.503 56,33 60,31C63.061,29.469 60,26 56,28Z" style="fill:#f4a4bf;fill-opacity:0.68;"/></g></svg>