<?xml version="1.0" encoding="UTF-8" standalone="no"?><!DOCTYPE svg PUBLIC "-//W3C//DTD SVG 1.1//EN" "http://www.w3.org/Graphics/SVG/1.1/DTD/svg11.dtd"><svg width="128px" height="128px" version="1.1" xmlns="http://www.w3.org/2000/svg" xmlns:xlink="http://www.w3.org/1999/xlink" xml:space="preserve" xmlns:serif="http://www.serif.com/" style="fill-rule:evenodd;clip-rule:evenodd;stroke-linejoin:round;stroke-miterlimit:2;"><g transform="matrix(0.326732,0,0,0.327007,14.5001,2.75802)"><path d="M114.877,309.764C132.923,298.769 153.833,293.798 185.311,273.346C211.691,256.205 233.561,244.03 260.529,195.059C287.007,146.976 269.835,109.538 254.25,88.974C253.026,87.396 253.12,85.166 254.474,83.697C255.827,82.228 258.044,81.95 259.719,83.039C279.166,96.011 304.169,120.702 302.958,161.539C300.988,227.984 270.964,257.525 256.582,273.346C241.382,290.065 232.536,318.613 234.212,319.73C234.212,319.73 204.654,295.364 196.272,288.454C194.957,287.371 193.109,287.215 191.63,288.061C166.981,302.098 142.145,311.423 117.703,325.823C116.129,326.756 115.366,328.618 115.833,330.386C117.049,335.06 117.821,344.19 107.164,348.117C98.006,351.492 93.204,349.439 90.73,344.237C87.902,338.294 89.84,325.017 114.877,309.764Z" style="fill:#40c0e7;fill-rule:nonzero;"/></g><g transform="matrix(0.326732,0,0,0.327007,14.5001,2.75802)"><path d="M188.123,309.764C170.077,298.769 149.167,293.798 117.689,273.346C91.308,256.205 69.438,244.03 42.471,195.059C15.993,146.976 33.165,109.538 48.75,88.974C49.974,87.396 49.88,85.166 48.526,83.697C47.173,82.228 44.956,81.95 43.281,83.039C23.834,96.011 -1.169,120.702 0.042,161.539C2.012,227.984 32.036,257.525 46.418,273.346C61.618,290.065 70.464,318.613 68.788,319.73C68.788,319.73 98.346,295.364 106.728,288.454C108.043,287.371 109.891,287.215 111.37,288.061C136.019,302.098 160.855,311.423 185.297,325.823C186.871,326.756 187.634,328.618 187.167,330.386C185.951,335.06 185.179,344.19 195.836,348.117C204.994,351.492 209.795,349.439 212.27,344.237C215.098,338.294 213.159,325.017 188.123,309.764Z" style="fill:#40c0e7;fill-rule:nonzero;"/></g><g transform="matrix(0.326732,0,0,0.327007,14.5001,2.75802)"><path d="M151.5,44.183C99.097,44.183 56.552,86.727 56.552,139.131C56.552,191.534 99.097,234.079 151.5,234.079C203.903,234.079 246.448,191.534 246.448,139.131C246.448,86.727 203.903,44.183 151.5,44.183ZM151.5,62.361C193.87,62.361 228.27,96.76 228.27,139.131C228.27,181.501 193.87,215.901 151.5,215.901C109.13,215.901 74.73,181.501 74.73,139.131C74.73,96.76 109.13,62.361 151.5,62.361Z" style="fill:#40c0e7;fill-rule:nonzero;"/></g><g transform="matrix(0.326732,0,0,0.327007,14.5001,2.75802)"><path d="M139.943,260.95C130.827,254.254 119.653,248.285 107.726,242.392C106.722,241.894 105.965,241.008 105.633,239.938C105.3,238.869 105.421,237.71 105.966,236.732C139.66,175.907 137.671,111.512 106.675,45.819C105.78,43.927 106.46,41.665 108.25,40.578C125.368,30.086 139.689,16.927 151.185,1.07C151.275,0.946 151.437,0.898 151.581,0.952C151.647,1.05 151.71,1.138 151.71,1.138C163.196,16.964 177.503,30.101 194.598,40.576C196.388,41.664 197.067,43.928 196.171,45.82C165.175,111.513 163.186,175.908 196.874,236.736C197.419,237.712 197.539,238.869 197.207,239.937C196.874,241.004 196.119,241.889 195.116,242.385C183.931,247.922 173.405,253.515 164.62,259.715C163.544,260.483 162.905,261.723 162.905,263.045C162.903,274.164 162.903,326.195 162.903,337.074C162.904,338.325 163.478,339.507 164.46,340.283C168.745,343.752 171.443,348.938 171.443,354.719C171.443,365.262 162.472,373.821 151.423,373.821C140.374,373.821 131.403,365.261 131.403,354.719C131.403,348.937 134.101,343.752 138.359,340.248C139.33,339.481 139.897,338.311 139.897,337.074C139.943,324.877 139.943,260.951 139.943,260.951L139.943,260.95Z" style="fill:#40c0e7;fill-rule:nonzero;"/></g></svg>