<?xml version="1.0" encoding="UTF-8" standalone="no"?><!DOCTYPE svg PUBLIC "-//W3C//DTD SVG 1.1//EN" "http://www.w3.org/Graphics/SVG/1.1/DTD/svg11.dtd"><svg width="128px" height="128px" version="1.1" xmlns="http://www.w3.org/2000/svg" xmlns:xlink="http://www.w3.org/1999/xlink" xml:space="preserve" xmlns:serif="http://www.serif.com/" style="fill-rule:evenodd;clip-rule:evenodd;stroke-linejoin:round;stroke-miterlimit:2;"><g id="Maraca" transform="matrix(0.866025,0.5,-0.5,0.866025,63.6282,-28.1575)"><g transform="matrix(0.66993,0,0,1,33.1966,8.73945)"><path d="M57.965,45.261C57.922,52.261 57.919,54.633 58.615,59.304C59.241,63.506 61.922,76.261 62.322,82.268C62.921,91.261 59.414,101.261 54.936,101.261C50.458,101.261 46.951,91.261 47.55,82.268C47.951,76.261 50.631,63.506 51.257,59.304C51.953,54.633 51.951,52.261 51.907,45.261" style="fill:#8d6b63;"/></g><g transform="matrix(1,0,0,1,8,8)"><path d="M66.993,49C66.993,47.896 66.097,47 64.993,47L59.007,47C57.903,47 57.007,47.896 57.007,49C57.007,50.104 57.903,51 59.007,51L64.993,51C66.097,51 66.993,50.104 66.993,49Z" style="fill:#6d4a41;"/></g><g transform="matrix(1.21055,0,0,1,-5.03619,8)"><path d="M61.985,49C66.702,49 68.247,45.564 69.42,44C72.42,40 74.463,29.779 74.364,25.977C74,12 69.115,5 61.985,5C54.855,5 49.97,12 49.606,25.977C49.507,29.779 51.55,40 54.55,44C55.723,45.564 57.268,49 61.985,49Z" style="fill:#ed6c30;"/></g></g><g id="Maraca1" serif:id="Maraca" transform="matrix(0.707107,-0.707107,0.707107,0.707107,-50.822,78.5104)"><g transform="matrix(0.66993,0,0,1,33.1966,8.73945)"><path d="M57.965,45.261C57.922,52.261 57.919,54.633 58.615,59.304C59.241,63.506 61.922,76.261 62.322,82.268C62.921,91.261 59.414,101.261 54.936,101.261C50.458,101.261 46.951,91.261 47.55,82.268C47.951,76.261 50.631,63.506 51.257,59.304C51.953,54.633 51.951,52.261 51.907,45.261" style="fill:#a1867f;"/></g><g transform="matrix(1,0,0,1,8,8)"><path d="M66.993,49C66.993,47.896 66.097,47 64.993,47L59.007,47C57.903,47 57.007,47.896 57.007,49C57.007,50.104 57.903,51 59.007,51L64.993,51C66.097,51 66.993,50.104 66.993,49Z" style="fill:#855c52;"/></g><g transform="matrix(1.21055,0,0,1,-5.03619,8)"><path d="M61.985,49C66.702,49 68.247,45.564 69.42,44C72.42,40 74.463,29.779 74.364,25.977C74,12 69.115,5 61.985,5C54.855,5 49.97,12 49.606,25.977C49.507,29.779 51.55,40 54.55,44C55.723,45.564 57.268,49 61.985,49Z" style="fill:#40c0e7;"/></g></g></svg>