<?xml version="1.0" encoding="UTF-8" standalone="no"?><!DOCTYPE svg PUBLIC "-//W3C//DTD SVG 1.1//EN" "http://www.w3.org/Graphics/SVG/1.1/DTD/svg11.dtd"><svg width="128px" height="128px" version="1.1" xmlns="http://www.w3.org/2000/svg" xmlns:xlink="http://www.w3.org/1999/xlink" xml:space="preserve" xmlns:serif="http://www.serif.com/" style="fill-rule:evenodd;clip-rule:evenodd;stroke-linejoin:round;stroke-miterlimit:2;"><g transform="matrix(0.802643,0,0,0.802643,12.6329,14.4619)"><g transform="matrix(0.769761,0.444422,-0.444422,0.769761,47.9834,-11.0984)"><path d="M43.12,56.15C36.8,56.89 34.69,50.98 29.61,48.48C23.45,45.45 15.65,45.47 9.12,46.98C6.05,47.46 11.56,64.18 19.12,67.86C23.27,69.88 27.85,69.16 32.27,68.9C36.16,68.68 39.54,69.3 43.14,70.77" style="fill:#855c52;fill-rule:nonzero;"/></g><g transform="matrix(0.769761,-0.444422,0.444422,0.769761,-18.518,45.7875)"><path d="M84.88,56.15C91.2,56.89 93.31,50.98 98.39,48.48C104.55,45.45 112.35,45.47 118.88,46.98C121.95,47.46 116.44,64.18 108.88,67.86C104.73,69.88 100.15,69.16 95.73,68.9C91.84,68.68 88.46,69.3 84.86,70.77" style="fill:#855c52;fill-rule:nonzero;"/><path d="M114.92,50.51C113.04,49.2 107.47,52.96 103.07,56.24C100.95,57.82 97.73,59.55 95.27,60.56C92.63,61.64 90.65,62.05 90.68,65.39C90.8,67.85 101.95,64.67 106.24,62.67C111.63,60.15 116.05,51.95 114.92,50.51Z" style="fill:#855c52;fill-rule:nonzero;"/></g></g><g transform="matrix(0.711094,0,0,0.711094,18.4913,20.3292)"><ellipse cx="46.94" cy="75.42" rx="3.17" ry="3.63" style="fill:#2f2f2f;"/></g><g transform="matrix(0.711094,0,0,0.711094,18.4913,20.3292)"><ellipse cx="81.06" cy="75.42" rx="3.17" ry="3.63" style="fill:#2f2f2f;"/></g><g transform="matrix(0.711094,0,0,0.711094,18.4913,20.3292)"><path d="M45.568,112.92C49.168,120.76 57.11,124.89 64.01,124.89C70.9,124.89 78.818,120.77 82.428,112.92C84.528,108.34 89.908,104.75 90.678,95.95L90.678,95.99C90.958,91.18 92.278,80.55 94.788,76.31C97.248,72.16 97.75,64.57 93.43,58.85C90.24,54.62 86.17,52.34 80.84,50.3C77.17,48.89 67.96,48.05 64.01,48.09C60.06,48.05 50.85,48.89 47.18,50.3C41.85,52.35 37.78,54.63 34.59,58.85C30.27,64.57 30.748,72.16 33.208,76.31C35.728,80.57 37.048,91.2 37.328,96.02L37.328,95.95C38.078,104.75 43.458,108.34 45.568,112.92Z" style="fill:#8d6b63;fill-rule:nonzero;"/></g><g transform="matrix(1.08465,0,0,1.08465,-5.41821,-2.44047)"><g id="Ebene2" transform="matrix(0.890538,-0.238619,0.238619,0.890538,-11.9239,21.2541)"><g transform="matrix(0.960939,0,0,0.960939,2.93528,5.25854)"><path d="M57.79,52.43C57.79,52.43 56.84,46.98 54.43,42.53C52.02,38.08 48.16,34.83 46.66,30.92C46.12,29.19 45.12,27.27 44.8,24.27C44.74,23.61 44.47,22.39 43.63,22.39C42.84,22.39 42.57,23.68 42.58,24.18C42.59,24.67 42.46,27.91 43.73,31.34C45,34.78 48.13,38.74 50.37,43.67C52.61,48.6 53.44,53.7 53.44,53.7L57.79,52.43Z" style="fill:#c96;fill-rule:nonzero;"/></g><g transform="matrix(0.960939,0,0,0.960939,2.93528,5.25854)"><path d="M57.79,52.43L58.657,52.312C58.647,52.262 57.68,46.72 55.18,42.09C53.92,39.77 52.32,37.8 50.87,35.96C49.42,34.11 48.14,32.38 47.46,30.6L46.66,30.94L47.48,30.66C46.89,28.81 45.96,27.03 45.65,24.19L44.79,24.29L45.65,24.2C45.61,23.8 45.52,23.25 45.27,22.7C45.14,22.43 44.97,22.14 44.69,21.91C44.42,21.67 44.02,21.5 43.61,21.5C43.19,21.5 42.8,21.69 42.54,21.93C42.15,22.3 41.98,22.73 41.86,23.12C41.74,23.51 41.7,23.86 41.69,24.17L41.69,24.55C41.69,25.63 41.75,28.56 42.9,31.69C43.58,33.53 44.71,35.41 45.93,37.45C47.15,39.49 48.48,41.68 49.57,44.08C50.66,46.48 51.41,48.94 51.89,50.79C52.13,51.72 52.3,52.49 52.41,53.04C52.47,53.31 52.5,53.52 52.53,53.67L52.56,53.83L52.57,53.88C52.61,54.13 52.75,54.36 52.96,54.49C53.17,54.63 53.42,54.67 53.66,54.6L58.01,53.32C58.44,53.19 58.737,52.772 58.657,52.312L57.79,52.43L57.56,51.56L53.21,52.84L53.44,53.71L54.29,53.56C54.28,53.52 53.45,48.36 51.15,43.29C50,40.76 48.64,38.51 47.42,36.47C46.2,34.44 45.12,32.62 44.54,31.02C43.51,28.22 43.44,25.53 43.45,24.54L43.45,24.17C43.44,24.07 43.5,23.69 43.6,23.48C43.65,23.37 43.7,23.3 43.71,23.29L43.71,23.28L43.71,23.29L43.71,23.28L43.71,23.29L43.63,23.16L43.63,23.31L43.71,23.29L43.63,23.16L43.63,23.31L43.63,23.3L43.63,23.31L43.63,23.3L43.63,23.31L43.64,23.24L43.6,23.3L43.62,23.31L43.63,23.24L43.6,23.3L43.61,23.31C43.65,23.34 43.75,23.5 43.81,23.72C43.88,23.93 43.92,24.19 43.94,24.37L43.94,24.38C44.28,27.54 45.35,29.6 45.84,31.21L45.86,31.27C46.68,33.4 48.08,35.24 49.54,37.11C51,38.98 52.53,40.86 53.68,42.99C54.83,45.12 55.66,47.54 56.18,49.42C56.44,50.36 56.63,51.16 56.76,51.73C56.82,52.01 56.87,52.24 56.9,52.39L56.93,52.56L56.94,52.61L57.79,52.43L57.56,51.56L57.79,52.43Z" style="fill:#c96;fill-rule:nonzero;"/></g><g transform="matrix(0.960939,0,0,0.960939,2.93528,5.25854)"><path d="M51.29,44.76C51.29,44.76 48.75,41.41 45.34,40.25C41.93,39.09 38.48,36.89 37.06,35.39C35.63,33.89 34.59,32.26 34.37,31.05C34.15,29.84 33.5,29.41 33.02,29.61C32.57,29.8 32.37,30.63 32.59,31.91C32.83,33.31 34.46,36.61 35.61,37.82C38.97,41.34 41.91,41.82 44.08,43.41C46.25,45 48.82,47.26 49.61,48.48L51.29,44.76Z" style="fill:#c96;fill-rule:nonzero;"/></g><g transform="matrix(0.960939,0,0,0.960939,2.93528,5.25854)"><path d="M51.29,44.76L51.97,44.2C51.95,44.17 51.28,43.3 50.17,42.27C49.05,41.24 47.49,40.04 45.61,39.4C43.98,38.84 42.31,38.03 40.89,37.17C39.47,36.32 38.29,35.42 37.67,34.76C37.036,34.106 36.47,33.389 35.98,32.62C35.55,31.94 35.29,31.31 35.21,30.88C35.09,30.25 34.88,29.73 34.55,29.33C34.23,28.93 33.76,28.66 33.24,28.66C32.817,28.662 32.415,28.849 32.14,29.17C31.92,29.42 31.8,29.71 31.73,30.01C31.65,30.31 31.62,30.62 31.62,30.96C31.62,31.31 31.65,31.68 31.72,32.08C31.8,32.54 31.96,33.05 32.18,33.61C32.51,34.45 32.96,35.39 33.45,36.26C33.94,37.13 34.46,37.92 34.98,38.47C36.73,40.31 38.41,41.37 39.88,42.16C41.35,42.94 42.6,43.46 43.56,44.17C44.62,44.94 45.79,45.89 46.77,46.79C47.26,47.24 47.71,47.67 48.07,48.06C48.43,48.44 48.71,48.79 48.86,49.01C49.03,49.28 49.33,49.43 49.64,49.41C49.95,49.39 50.22,49.19 50.36,48.9L52.05,45.18C52.19,44.87 52.15,44.5 51.95,44.22L51.29,44.76L50.51,44.37L48.82,48.09L49.6,48.48L50.32,47.97C50.07,47.58 49.74,47.19 49.33,46.75C48.11,45.46 46.24,43.88 44.57,42.66C43.36,41.78 42.06,41.26 40.68,40.52C39.3,39.78 37.83,38.85 36.22,37.17C36,36.94 35.7,36.54 35.4,36.07C34.95,35.36 34.49,34.49 34.12,33.68C33.76,32.88 33.49,32.11 33.43,31.74C33.38,31.43 33.35,31.16 33.35,30.94C33.35,30.66 33.39,30.46 33.42,30.39L33.43,30.36L33.4,30.34L33.43,30.37L33.4,30.35L33.43,30.38L33.22,30.2L33.32,30.46L33.43,30.38L33.22,30.2L33.32,30.46L33.24,30.25L33.24,30.47L33.32,30.45L33.24,30.24L33.24,30.46L33.24,30.33L33.18,30.45L33.24,30.46L33.24,30.33L33.18,30.45C33.18,30.45 33.23,30.48 33.3,30.6C33.37,30.72 33.45,30.92 33.51,31.21C33.66,32 34.03,32.79 34.53,33.6C35.086,34.467 35.726,35.278 36.44,36.02C37.25,36.86 38.5,37.81 40.02,38.72C41.53,39.63 43.29,40.49 45.07,41.1C46.6,41.62 48.01,42.68 49.02,43.61C49.52,44.08 49.93,44.51 50.2,44.82C50.34,44.98 50.44,45.1 50.51,45.19L50.59,45.29L50.61,45.31L51.29,44.76L50.51,44.37L51.29,44.76Z" style="fill:#c96;fill-rule:nonzero;"/></g><g transform="matrix(0.960939,0,0,0.960939,2.93528,5.25854)"><path d="M44.1,42.89C44.1,42.89 33.54,40.96 27.78,36C22.03,31.05 21.23,24.13 23.56,17.04C23.99,15.97 24.45,15.27 23.94,14.68C23.43,14.09 22.64,15.05 22.24,15.52C21.84,15.99 15.74,22.79 21.39,35.07C24.54,42.18 35.44,45.18 39.89,46.07C44.34,46.96 50.37,49.38 50.82,54.51L55.49,53.83L53.27,45.55L44.1,42.89Z" style="fill:#c96;fill-rule:nonzero;"/></g><g transform="matrix(0.960939,0,0,0.960939,2.93528,5.25854)"><path d="M44.1,42.89L44.25,42L44.14,41.98C43.57,41.87 40.9,41.32 37.73,40.23C34.56,39.15 30.88,37.51 28.33,35.3C26.52,33.74 25.25,32 24.42,30.13C23.59,28.26 23.21,26.24 23.21,24.12C23.21,21.95 23.62,19.66 24.38,17.34L23.56,17.04L24.35,17.4C24.49,17.06 24.64,16.74 24.77,16.41C24.9,16.08 25.02,15.73 25.03,15.28C25.04,14.87 24.88,14.4 24.58,14.07C24.46,13.92 24.3,13.8 24.12,13.71C23.94,13.62 23.74,13.58 23.57,13.58C23.26,13.58 23.01,13.68 22.8,13.79C22.5,13.96 22.27,14.17 22.07,14.38C21.87,14.58 21.71,14.78 21.59,14.91C21.57,14.94 21.47,15.04 21.36,15.19C20.53,16.21 18.14,19.61 18.14,25.16C18.14,28.05 18.79,31.5 20.61,35.45L21.39,35.06L20.61,35.44C21.47,37.38 22.84,39 24.45,40.36C29.28,44.42 36.33,46.26 39.74,46.95C41.89,47.38 44.43,48.19 46.42,49.46C47.41,50.09 48.26,50.84 48.88,51.69C49.49,52.54 49.88,53.48 49.98,54.58C50,54.83 50.12,55.05 50.3,55.21C50.49,55.36 50.72,55.43 50.96,55.4L55.63,54.72C55.88,54.68 56.1,54.54 56.23,54.32C56.37,54.1 56.41,53.831 56.34,53.58L54.12,45.3C54.044,45 53.816,44.761 53.52,44.67L44.35,42.02L44.25,42L44.1,42.89L43.87,43.76L52.57,46.27L54.39,53.06L50.7,53.6L50.82,54.5L51.68,54.42C51.559,53.037 51.057,51.715 50.23,50.6C49.05,48.98 47.35,47.82 45.54,46.95C43.72,46.09 41.77,45.52 40.05,45.18C37.87,44.74 34.09,43.78 30.51,42.08C28.72,41.23 26.98,40.19 25.53,38.96C24.07,37.73 22.89,36.31 22.18,34.69L22.17,34.68C20.45,30.94 19.87,27.78 19.87,25.17C19.87,22.32 20.57,20.13 21.29,18.62C21.65,17.86 22.02,17.27 22.31,16.86C22.46,16.65 22.58,16.49 22.68,16.37C22.78,16.25 22.84,16.18 22.88,16.13C23.03,15.95 23.23,15.72 23.4,15.56C23.48,15.48 23.56,15.43 23.6,15.41L23.62,15.4L23.55,15.18L23.55,15.41L23.62,15.4L23.55,15.18L23.55,15.41L23.55,15L23.39,15.38L23.55,15.42L23.55,15.01L23.39,15.39L23.52,15.1L23.29,15.32L23.39,15.39L23.52,15.1L23.29,15.32L23.3,15.33L23.36,15.29L23.3,15.31L23.31,15.33L23.37,15.29L23.31,15.31L23.37,15.29L23.31,15.3L23.31,15.31L23.37,15.29L23.31,15.3L23.31,15.31C23.31,15.34 23.29,15.5 23.18,15.75C23.08,16 22.93,16.33 22.77,16.72L22.75,16.78C21.93,19.26 21.48,21.74 21.48,24.16C21.48,26.51 21.91,28.8 22.85,30.93C23.79,33.06 25.24,35.03 27.23,36.74C30.26,39.35 34.42,41.08 37.83,42.21C41.24,43.33 43.92,43.82 43.94,43.82L44.1,42.89L43.87,43.76L44.1,42.89Z" style="fill:#c96;fill-rule:nonzero;"/></g><g transform="matrix(0.960939,0,0,0.960939,2.93528,5.25854)"><path d="M20.56,30.17C20.56,30.17 16.83,27.04 15.7,18.6C14.57,10.17 17.49,5.99 17.86,4.97C18.23,3.95 17.74,3.22 17.46,3.17C16.73,3.05 16.3,4 15.73,4.97C14.22,7.59 12.88,11.14 12.63,13.65C12.12,18.88 12.53,30.12 24.86,39.56L20.56,30.17Z" style="fill:#c96;fill-rule:nonzero;"/></g><g transform="matrix(0.960939,0,0,0.960939,2.93528,5.25854)"><path d="M21.115,29.486L21.12,29.48L21.11,29.47L20.983,29.639L20.56,30.17L19.78,30.56L20.56,30.17L20.02,30.88L19.845,30.702L19.78,30.56L20.56,30.17L21.099,29.461L20.97,29.34C20.3,28.67 17.52,25.55 16.57,18.48C16.39,17.17 16.32,15.97 16.32,14.88C16.32,12.01 16.83,9.87 17.36,8.33C17.63,7.56 17.9,6.94 18.14,6.46C18.26,6.22 18.36,6.01 18.45,5.82C18.54,5.63 18.62,5.48 18.68,5.29C18.81,4.93 18.86,4.58 18.86,4.25C18.86,3.77 18.74,3.35 18.55,3.02C18.45,2.85 18.34,2.71 18.2,2.58C18.05,2.45 17.88,2.33 17.6,2.28C17.52,2.27 17.44,2.26 17.35,2.26C17,2.26 16.66,2.39 16.42,2.57C16.05,2.84 15.81,3.17 15.6,3.5C15.39,3.83 15.2,4.18 15.01,4.51C14.22,5.87 13.49,7.46 12.92,9.04C12.35,10.62 11.93,12.19 11.79,13.57C11.308,18.326 12.059,23.128 13.97,27.51C15.81,31.72 19,36.2 24.37,40.31C24.69,40.56 25.13,40.54 25.43,40.27C25.73,40 25.83,39.55 25.66,39.18L21.35,29.79L21.115,29.486Z" style="fill:#c96;"/></g><g transform="matrix(0.960939,0,0,0.960939,2.93528,5.25854)"><path d="M17.33,4.06L17.33,4.07L17.32,4.07L17.06,3.96L17.04,3.94C17.06,3.96 17.11,4.07 17.11,4.25L17.073,4.441L16.47,5.44C15.75,6.69 15.06,8.19 14.52,9.67C13.98,11.15 13.61,12.61 13.5,13.74C13.42,14.49 13.37,15.36 13.37,16.34C13.362,19.919 14.097,23.46 15.53,26.74C16.887,29.841 19.029,33.122 22.412,36.293L24.09,39.95L24.87,39.56L25.38,38.83C24.293,37.999 23.303,37.155 22.412,36.293L19.845,30.702C19.025,29.938 15.867,26.422 14.84,18.73C14.65,17.33 14.57,16.05 14.57,14.87C14.57,12.17 15,10.01 15.5,8.37C16,6.73 16.6,5.59 16.88,4.99C16.96,4.82 17.02,4.69 17.03,4.66L17.073,4.441L17.17,4.28C17.26,4.16 17.34,4.09 17.37,4.07L17.38,4.06L17.35,4L17.37,4.06L17.33,4.06Z" style="fill:#c96;"/></g></g><g id="Ebene1" transform="matrix(0.889651,0.238381,-0.238381,0.889651,26.0185,-9.23466)"><g transform="matrix(0.960939,-3.01052e-17,3.01052e-17,0.960939,2.05821,5.26233)"><path d="M70.014,53.33C70.014,53.33 72.15,46.98 74.32,42.98C75.47,40.85 77,38.97 78.46,37.1C79.92,35.23 81.32,33.39 82.14,31.26L82.16,31.2C82.65,29.59 83.72,27.53 84.06,24.37L84.06,24.36C84.08,24.1 84.16,23.71 84.27,23.48C84.32,23.36 84.38,23.3 84.39,23.29L84.36,23.23L84.38,23.29L84.4,23.28L84.37,23.22L84.39,23.28L84.38,23.25L84.38,23.28L84.39,23.28L84.38,23.25L84.38,23.28L84.38,23.12L84.32,23.27L84.38,23.28L84.38,23.12L84.32,23.27L84.35,23.19L84.3,23.26L84.32,23.27L84.35,23.19L84.3,23.26C84.31,23.26 84.42,23.42 84.48,23.62C84.54,23.82 84.57,24.07 84.57,24.14L84.57,24.52C84.57,25.51 84.51,28.21 83.48,31C82.89,32.6 81.82,34.42 80.6,36.45C79.38,38.49 78.02,40.74 76.87,43.27C74.57,48.34 73.74,53.5 73.73,53.54L74.58,53.69L74.81,52.82L70.126,51.485L70.014,53.33L74.33,54.58C74.56,54.65 74.82,54.61 75.03,54.47C75.24,54.33 75.381,54.109 75.42,53.86L75.43,53.81C75.52,53.28 76.38,48.56 78.42,44.07C79.51,41.67 80.83,39.47 82.06,37.44C83.28,35.4 84.41,33.52 85.09,31.68C86.24,28.55 86.3,25.62 86.3,24.54L86.3,24.17C86.29,23.76 86.22,23.26 85.99,22.72C85.87,22.45 85.71,22.18 85.45,21.93C85.2,21.69 84.8,21.49 84.38,21.5C83.97,21.5 83.57,21.67 83.3,21.91C82.89,22.27 82.7,22.71 82.56,23.11C82.43,23.51 82.37,23.9 82.34,24.2L83.2,24.29L82.34,24.19C82.03,27.02 81.1,28.8 80.51,30.66L81.33,30.94L80.53,30.6C79.85,32.38 78.57,34.12 77.12,35.96C75.67,37.81 74.07,39.77 72.81,42.09C70.31,46.72 69.37,52.23 69.35,52.27C69.27,52.73 69.584,53.2 70.014,53.33Z" style="fill:#c96;fill-rule:nonzero;"/></g><g transform="matrix(0.960939,-3.01052e-17,3.01052e-17,0.960939,2.05821,5.26233)"><path d="M76.71,44.76C76.71,44.76 79.25,41.41 82.66,40.25C86.07,39.09 89.52,36.89 90.94,35.39C92.37,33.89 93.41,32.26 93.63,31.05C93.85,29.84 94.5,29.41 94.98,29.61C95.43,29.8 95.63,30.63 95.41,31.91C95.17,33.31 93.54,36.61 92.39,37.82C89.03,41.34 86.09,41.82 83.92,43.41C81.75,45 79.18,47.26 78.39,48.48L76.71,44.76Z" style="fill:#c96;fill-rule:nonzero;"/></g><g transform="matrix(0.960939,-3.01052e-17,3.01052e-17,0.960939,2.05821,5.26233)"><path d="M76.71,44.76L77.39,45.32C77.44,45.25 78.07,44.44 79.07,43.53C80.07,42.62 81.44,41.61 82.92,41.11C84.69,40.5 86.45,39.64 87.97,38.73C89.49,37.82 90.74,36.87 91.55,36.03C92.264,35.288 92.904,34.477 93.46,33.61C93.97,32.8 94.33,32.01 94.48,31.22C94.55,30.82 94.67,30.6 94.75,30.51L94.81,30.45L94.75,30.33L94.75,30.46L94.81,30.45L94.75,30.33L94.75,30.46L94.75,30.24L94.67,30.45L94.75,30.47L94.75,30.25L94.67,30.46L94.77,30.19L94.56,30.39L94.67,30.47L94.77,30.2L94.56,30.4L94.63,30.33L94.55,30.39L94.56,30.4L94.63,30.33L94.55,30.39C94.55,30.39 94.58,30.44 94.6,30.54C94.62,30.64 94.64,30.79 94.64,30.97C94.64,31.19 94.62,31.46 94.56,31.77C94.52,32.01 94.39,32.44 94.2,32.93C93.91,33.67 93.49,34.55 93.05,35.35C92.61,36.14 92.12,36.85 91.78,37.2C90.18,38.88 88.7,39.81 87.32,40.55C85.94,41.29 84.64,41.81 83.43,42.69C82.268,43.543 81.15,44.454 80.08,45.42C79.56,45.89 79.08,46.35 78.68,46.78C78.27,47.21 77.94,47.61 77.69,48L78.41,48.51L79.19,48.12L77.5,44.4L76.71,44.76L77.39,45.32L76.71,44.76L75.93,45.15L77.62,48.87C77.75,49.17 78.03,49.36 78.34,49.38C78.65,49.4 78.95,49.25 79.12,48.98C79.26,48.76 79.54,48.41 79.91,48.03C81,46.87 82.84,45.31 84.43,44.15C85.39,43.44 86.64,42.92 88.11,42.14C89.58,41.36 91.26,40.29 93.01,38.45C93.36,38.08 93.7,37.61 94.04,37.07C94.55,36.27 95.04,35.33 95.44,34.45C95.84,33.55 96.14,32.74 96.26,32.05C96.33,31.65 96.36,31.28 96.36,30.93C96.36,30.48 96.31,30.07 96.16,29.69C96.08,29.5 95.98,29.31 95.84,29.15C95.565,28.829 95.163,28.642 94.74,28.64C94.22,28.64 93.75,28.92 93.43,29.31C93.1,29.71 92.89,30.23 92.77,30.86C92.7,31.29 92.43,31.92 92,32.6C91.57,33.28 90.99,34.02 90.31,34.74C89.69,35.39 88.51,36.3 87.09,37.15C85.67,38 84,38.82 82.37,39.38C80.5,40.02 78.93,41.22 77.81,42.25C76.7,43.28 76.03,44.16 76.01,44.18C75.8,44.45 75.76,44.82 75.91,45.14L76.71,44.76Z" style="fill:#c96;fill-rule:nonzero;"/></g><g transform="matrix(0.960939,-3.01052e-17,3.01052e-17,0.960939,2.05821,5.26233)"><path d="M83.9,42.89C83.9,42.89 94.46,40.96 100.22,36C105.97,31.05 106.77,24.13 104.44,17.04C104.01,15.97 103.55,15.27 104.06,14.68C104.57,14.09 105.36,15.05 105.76,15.52C106.16,15.99 112.26,22.79 106.61,35.07C103.46,42.18 92.56,45.18 88.11,46.07C83.66,46.96 77.63,49.38 77.18,54.51L72.51,53.83L74.73,45.55L83.9,42.89Z" style="fill:#c96;fill-rule:nonzero;"/></g><g transform="matrix(0.960939,-3.01052e-17,3.01052e-17,0.960939,2.05821,5.26233)"><path d="M83.9,42.89L84.05,43.78C84.07,43.78 86.75,43.29 90.16,42.17C93.58,41.05 97.73,39.31 100.76,36.7C102.75,34.99 104.2,33.02 105.14,30.89C106.08,28.76 106.51,26.47 106.51,24.12C106.51,21.71 106.06,19.23 105.24,16.74L105.22,16.68C105.06,16.29 104.91,15.96 104.81,15.71C104.71,15.46 104.68,15.3 104.68,15.27L104.6,15.26L104.67,15.3L104.68,15.28L104.6,15.27L104.67,15.31L104.66,15.3L104.67,15.31L104.66,15.3L104.67,15.31L104.68,15.3L104.45,15.08L104.58,15.37L104.68,15.3L104.45,15.08L104.58,15.37L104.42,14.99L104.42,15.4L104.58,15.36L104.42,14.98L104.42,15.39L104.42,15.14L104.35,15.38L104.42,15.39L104.42,15.14L104.35,15.38C104.38,15.39 104.53,15.49 104.67,15.64C104.82,15.79 104.97,15.96 105.1,16.12C105.14,16.17 105.21,16.24 105.3,16.36C105.97,17.2 108.11,20.18 108.11,25.16C108.11,27.76 107.53,30.93 105.81,34.67L105.8,34.68C105.08,36.3 103.91,37.72 102.45,38.95C98.08,42.66 91.19,44.53 87.92,45.17C85.62,45.63 82.93,46.47 80.67,47.92C79.54,48.64 78.52,49.52 77.74,50.6C76.917,51.717 76.415,53.038 76.29,54.42L77.15,54.5L77.27,53.6L73.58,53.06L75.4,46.27L84.1,43.76L83.9,42.89L84.05,43.78L83.9,42.89L83.67,42.02L74.5,44.67C74.202,44.758 73.973,44.998 73.9,45.3L71.68,53.58C71.61,53.831 71.65,54.1 71.79,54.32C71.93,54.54 72.15,54.69 72.39,54.72L77.06,55.4C77.3,55.43 77.53,55.37 77.72,55.21C77.91,55.06 78.02,54.83 78.04,54.58C78.14,53.48 78.53,52.54 79.14,51.69C80.06,50.42 81.52,49.38 83.17,48.59C84.82,47.8 86.65,47.27 88.27,46.95C90.54,46.49 94.43,45.51 98.2,43.72C100.09,42.82 101.94,41.72 103.55,40.36C105.16,39 106.53,37.38 107.39,35.44L106.61,35.06L107.39,35.45C109.21,31.5 109.86,28.04 109.86,25.16C109.86,21.99 109.08,19.52 108.25,17.79C107.84,16.93 107.41,16.25 107.07,15.77C106.9,15.53 106.75,15.33 106.63,15.19C106.55,15.099 106.473,15.006 106.4,14.91C106.25,14.73 106.01,14.44 105.71,14.17C105.56,14.04 105.39,13.9 105.19,13.79C104.99,13.68 104.74,13.58 104.42,13.58C104.24,13.58 104.05,13.62 103.87,13.71C103.69,13.8 103.53,13.92 103.41,14.07C103.12,14.4 102.95,14.87 102.96,15.28C102.96,15.73 103.09,16.08 103.22,16.41C103.35,16.74 103.5,17.06 103.64,17.4L104.43,17.04L103.61,17.34C104.37,19.66 104.78,21.95 104.78,24.12C104.78,26.24 104.39,28.26 103.57,30.13C102.74,32 101.47,33.74 99.66,35.3C96.94,37.65 92.94,39.36 89.64,40.44C87.99,40.98 86.51,41.37 85.45,41.63C84.92,41.76 84.49,41.85 84.2,41.91C84.05,41.94 83.94,41.96 83.87,41.98L83.75,42L83.67,42.02L83.9,42.89Z" style="fill:#c96;fill-rule:nonzero;"/></g><g transform="matrix(0.960939,-3.01052e-17,3.01052e-17,0.960939,2.05821,5.26233)"><path d="M107.44,30.17C107.44,30.17 111.17,27.04 112.3,18.6C113.43,10.17 110.51,5.99 110.14,4.97C109.77,3.95 110.26,3.22 110.54,3.17C111.26,3.06 111.7,4 112.26,4.97C113.77,7.59 115.11,11.14 115.36,13.65C115.87,18.88 115.46,30.12 103.13,39.56L107.44,30.17Z" style="fill:#c96;fill-rule:nonzero;"/></g><g transform="matrix(0.960939,-3.01052e-17,3.01052e-17,0.960939,2.05821,5.26233)"><path d="M107.44,30.17L107.98,30.88C108.11,30.78 112,27.42 113.16,18.73C113.35,17.34 113.43,16.05 113.43,14.87C113.43,11.78 112.88,9.41 112.28,7.7C111.948,6.773 111.557,5.868 111.11,4.99C111.03,4.82 110.97,4.69 110.96,4.66C110.9,4.49 110.88,4.36 110.88,4.25C110.88,4.1 110.92,3.99 110.94,3.95L110.95,3.94L110.79,3.8L110.91,3.98L110.96,3.94L110.8,3.8L110.92,3.98L110.6,3.5L110.68,4.08C110.81,4.06 110.88,4.01 110.91,3.99L110.59,3.51L110.67,4.09L110.66,4.01L110.66,4.09L110.67,4.09L110.66,4.01L110.66,4.09L110.66,3.94L110.62,4.06L110.66,4.07L110.66,3.94L110.62,4.06L110.63,4.02L110.61,4.06L110.62,4.02L110.6,4.06L110.7,4.14C110.89,4.33 111.18,4.85 111.51,5.44C112.24,6.69 112.93,8.19 113.46,9.67C114,11.15 114.37,12.61 114.48,13.74C114.55,14.49 114.61,15.36 114.61,16.34C114.61,19.15 114.16,22.81 112.45,26.74C110.73,30.67 107.75,34.89 102.6,38.83L103.11,39.56L103.89,39.95L108.2,30.56L107.44,30.17L107.98,30.88L107.44,30.17L106.66,29.78L102.35,39.17C102.18,39.55 102.27,39.99 102.58,40.26C102.89,40.53 103.32,40.54 103.64,40.3C109.01,36.2 112.2,31.71 114.04,27.5C115.88,23.29 116.36,19.36 116.36,16.34C116.36,15.29 116.3,14.36 116.22,13.56C116.08,12.19 115.67,10.62 115.09,9.03C114.52,7.45 113.79,5.86 113,4.5C112.74,4.06 112.5,3.59 112.18,3.16C112.02,2.95 111.83,2.74 111.59,2.56C111.319,2.363 110.995,2.255 110.66,2.25C110.58,2.25 110.49,2.26 110.41,2.27C110.13,2.32 109.95,2.44 109.81,2.57C109.6,2.76 109.44,3 109.33,3.28C109.22,3.56 109.15,3.89 109.15,4.24C109.15,4.57 109.21,4.92 109.33,5.28C109.4,5.46 109.47,5.62 109.56,5.81C109.87,6.45 110.39,7.44 110.85,8.93C111.3,10.41 111.69,12.37 111.69,14.87C111.69,15.96 111.62,17.16 111.44,18.47C110.89,22.57 109.72,25.34 108.7,27.08C108.19,27.95 107.72,28.56 107.39,28.94C107.22,29.13 107.09,29.27 107,29.36L106.9,29.45L106.88,29.47L107.19,29.86L106.89,29.46L107.2,29.85L106.9,29.45C106.8,29.54 106.72,29.64 106.66,29.76L107.44,30.17Z" style="fill:#c96;fill-rule:nonzero;"/></g><g transform="matrix(0.960939,-3.01052e-17,3.01052e-17,0.960939,2.05821,5.26233)"><path d="M70.21,52.43C70.21,52.43 71.16,46.98 73.57,42.53C75.98,38.08 79.84,34.83 81.34,30.92C81.88,29.19 82.88,27.27 83.2,24.27C83.26,23.61 83.53,22.39 84.37,22.39C85.16,22.39 85.43,23.68 85.42,24.18C85.41,24.67 85.54,27.91 84.27,31.34C83,34.78 79.87,38.74 77.63,43.67C75.39,48.6 74.56,53.7 74.56,53.7L70.21,52.43Z" style="fill:#c96;"/></g></g></g><g transform="matrix(1.00153,0,0,1.09487,-0.0969357,-19.1245)"><path d="M64,108.78L53.43,107.99C54.32,110.86 55.62,112.13 57.39,113.63C58.67,114.72 60.93,115.91 64,115.91C67.24,115.91 69.32,114.72 70.61,113.63C72.38,112.13 73.68,110.86 74.57,107.99L64,108.78Z" style="fill:#616161;fill-rule:nonzero;"/></g><g transform="matrix(0.82963,0,0,0.9241,10.9048,0.669391)"><path d="M75.95,95.98C71.47,92 69.98,88.83 64,88.83C58.36,88.83 56.53,91.99 52.05,95.98C48.68,98.97 48.79,106.84 54.36,108.89C57.35,109.99 60.88,109.75 64,109.6C67.13,109.75 70.66,109.99 73.64,108.89C79.22,106.84 79.32,98.97 75.95,95.98Z" style="fill:#424242;fill-rule:nonzero;"/></g><g transform="matrix(0.184045,-0.686864,0.686864,0.184045,-11.1648,62.1842)"><ellipse cx="6.526" cy="90.431" rx="4.596" ry="5.244" style="fill:#212121;"/></g><g transform="matrix(0.686864,-0.184045,0.184045,0.686864,76.1003,-3.28319)"><ellipse cx="-28.646" cy="105.575" rx="5.244" ry="4.596" style="fill:#212121;"/></g></svg>