<?xml version="1.0" encoding="UTF-8" standalone="no"?><!DOCTYPE svg PUBLIC "-//W3C//DTD SVG 1.1//EN" "http://www.w3.org/Graphics/SVG/1.1/DTD/svg11.dtd"><svg width="128px" height="128px" version="1.1" xmlns="http://www.w3.org/2000/svg" xmlns:xlink="http://www.w3.org/1999/xlink" xml:space="preserve" xmlns:serif="http://www.serif.com/" style="fill-rule:evenodd;clip-rule:evenodd;stroke-linejoin:round;stroke-miterlimit:2;"><g transform="matrix(-1.35923,0,0,1.35923,174.361,-24.5035)"><path d="M61.282,106.784C68.1,107.413 75.07,108.244 81.016,108.525C84.222,108.677 87.077,108.89 89.08,106.015C89.465,105.462 89.751,104.843 89.986,104.214C90.661,102.408 90.882,100.393 91.048,98.483C91.245,96.212 91.79,93.305 90.484,91.246C89.438,89.597 87.658,89.034 85.863,88.574C83.336,87.926 77.729,89.533 76.205,80.389C75.389,75.488 74.175,70.559 72.46,63.145C71.32,58.22 70.815,53.227 69.947,48.259C69.252,44.283 68.255,40.37 67.659,36.376C67.096,32.596 66.839,28.852 66.692,25.036C66.62,23.189 66.79,20.874 65.138,19.598C64.687,19.249 63.921,19.384 63.406,19.48C61.447,19.847 60.237,21.297 59.531,23.098C58.832,24.88 58.945,26.835 59.058,28.706C59.271,32.223 59.989,35.675 60.283,39.182C60.671,43.827 60.917,48.023 61.377,52.512" style="fill:#bf8f68;"/></g><g transform="matrix(-1.35923,0,0,1.35923,174.361,-24.5035)"><path d="M56.72,61.472C56.517,57.212 57.387,41.928 57.333,37.664C57.305,35.42 57.02,32.642 57.119,30.396C57.307,26.15 60.245,24.168 62.074,24.803C62.931,25.101 63.518,26.422 63.741,27.884C64.04,29.835 64.544,33.513 64.65,36.941C64.749,40.092 64.976,44.386 65.327,47.522C65.619,50.12 66.647,61.497 67.453,63.973" style="fill:#bf8f68;"/></g><g transform="matrix(-1.35923,0,0,1.35923,174.361,-24.5035)"><path d="M73.276,101.869C71.15,104.71 66.979,107.09 61.244,106.785C59.789,106.708 59.688,104.014 58.621,101.148C56.542,95.558 56.012,88.984 54.609,82.619C53.002,75.33 52.788,74.498 52.755,71.632C52.732,69.634 53.375,65.484 54.616,63.565C55.873,61.62 59.52,59.101 61.36,60.982C62.619,62.269 62.675,64.088 62.71,65.778C62.77,68.637 62.652,71.509 62.773,74.365C63.077,81.553 67.186,77.739 67.459,88.512" style="fill:#bf8f68;"/></g><g transform="matrix(-1.35923,0,0,1.35923,174.361,-24.5035)"><path d="M58.621,26.152C59.164,25.427 59.825,24.938 60.487,24.687C61.063,24.468 61.639,24.439 62.15,24.584C62.614,24.717 63.026,25.106 63.365,25.655C63.724,26.236 63.989,27.005 64.154,27.821C64.272,28.426 64.424,29.193 64.565,30.073C64.678,30.771 64.786,31.537 64.88,32.342C65.05,33.801 65.168,35.388 65.22,36.923C65.261,38.494 65.337,40.35 65.435,42.205C65.534,44.056 65.654,45.905 65.813,47.467C65.872,48.074 65.966,49.062 66.065,50.29C66.163,51.511 66.271,52.968 66.376,54.522C66.618,58.124 66.847,62.237 67.014,65.113C66.658,62.254 66.124,58.171 65.679,54.589C65.488,53.044 65.314,51.594 65.171,50.379C65.027,49.16 64.918,48.178 64.842,47.576C64.649,46.002 64.481,44.138 64.353,42.27C64.225,40.406 64.138,38.539 64.081,36.959C64.045,35.761 63.951,34.533 63.852,33.359C63.772,32.407 63.682,31.491 63.6,30.655C63.496,29.589 63.41,28.655 63.329,27.948C63.252,27.208 63.083,26.504 62.817,25.955C62.602,25.51 62.34,25.163 61.997,25.023C61.478,24.807 60.848,24.824 60.209,25.065C59.662,25.272 59.115,25.634 58.621,26.152Z" style="fill:#99674f;"/></g><g transform="matrix(-1.35923,0,0,1.35923,174.966,-24.3658)"><path d="M57,61.482C57.599,60.957 58.592,60.461 59.533,60.283C60.346,60.129 61.099,60.263 61.585,60.672C61.95,60.99 62.241,61.415 62.469,61.897C62.605,62.182 62.712,62.489 62.8,62.804C63.167,64.119 63.174,65.575 63.195,66.237C63.23,67.928 63.197,70.451 63.462,72.801C63.635,74.33 63.926,75.786 64.486,76.863C65.086,78.036 65.632,79.147 66.095,80.232C66.432,81.022 66.728,81.794 66.992,82.557C67.342,83.567 67.633,84.553 67.886,85.537C68.145,86.55 68.351,87.551 68.537,88.568C68.22,87.632 67.875,86.718 67.504,85.791C67.263,85.189 67.013,84.587 66.746,83.976C66.458,83.316 66.148,82.653 65.824,81.971C65.618,81.537 65.406,81.097 65.188,80.647C64.68,79.603 64.136,78.515 63.514,77.378C62.882,76.203 62.512,74.614 62.31,72.936C62.023,70.548 62.067,67.98 62.031,66.261C62.025,65.647 62.025,64.304 61.749,63.07C61.674,62.732 61.586,62.403 61.462,62.099C61.337,61.79 61.194,61.504 60.99,61.275C60.625,60.849 59.901,60.78 59.15,60.853C58.362,60.93 57.554,61.166 57,61.482Z" style="fill:#99674f;"/></g><g transform="matrix(-0.606285,0,0,1,121.743,0)"><path d="M50.601,120.641C44.492,120.426 40,111.897 39.159,109.348C37.607,104.649 37.701,99.843 39.978,97.816" style="fill:#bf8f68;"/></g><g transform="matrix(-1,0,0,1,141.939,0)"><path d="M51.256,120.678C55.928,120.646 60.016,118.349 61.549,116.54C62.406,115.528 64.671,112.694 65.187,112.785C66.02,112.931 63.298,117.398 62.389,118.414C60.951,120.021 59.029,120.967 57.731,121.792" style="fill:#99674f;fill-opacity:0.6;"/></g><g transform="matrix(-1,0,0,1,141.548,0)"><path d="M79.408,95.373C83.98,95.827 98.228,96.251 103.377,96.333C106.657,96.386 112.857,96.496 114.483,98.697C116.569,101.522 117.332,120.168 113.43,122.071C111.576,122.976 89.779,123.334 85.782,123.26C83.19,123.213 74.265,123.003 71.71,122.518" style="fill:#bf8f68;"/></g></svg>