<?xml version="1.0" encoding="UTF-8" standalone="no"?><!DOCTYPE svg PUBLIC "-//W3C//DTD SVG 1.1//EN" "http://www.w3.org/Graphics/SVG/1.1/DTD/svg11.dtd"><svg width="128px" height="128px" version="1.1" xmlns="http://www.w3.org/2000/svg" xmlns:xlink="http://www.w3.org/1999/xlink" xml:space="preserve" xmlns:serif="http://www.serif.com/" style="fill-rule:evenodd;clip-rule:evenodd;stroke-linejoin:round;stroke-miterlimit:2;"><g transform="matrix(0.801503,0,0,0.800882,25.5038,12.6955)"><path d="M64,9.62C1.59,9.62 0.12,79.58 0.12,93.42C0.12,107.28 28.71,118.5 64,118.5C99.28,118.5 127.88,107.28 127.88,93.42C127.88,79.58 126.4,9.62 64,9.62Z" style="fill:#fcc21b;fill-opacity:0.8;fill-rule:nonzero;"/></g><g transform="matrix(0.801503,0,0,0.800882,-0.0961803,12.6955)"><path d="M64,9.62C1.59,9.62 0.12,79.58 0.12,93.42C0.12,107.28 28.71,118.5 64,118.5C99.28,118.5 127.88,107.28 127.88,93.42C127.88,79.58 126.4,9.62 64,9.62Z" style="fill:#fcc21b;fill-opacity:0.8;fill-rule:nonzero;"/></g><g id="Face" transform="matrix(0.801503,0,0,0.800882,-0.0961803,12.6955)"><g opacity="0.33"><path d="M41.99,65.06C37.5,65.1 33.82,60.79 33.77,55.44C33.72,50.07 37.32,45.69 41.81,45.65C46.29,45.61 49.98,49.92 50.03,55.29C50.08,60.65 46.47,65.02 41.99,65.06ZM86.1,65.06C90.58,65.05 94.21,60.7 94.2,55.35C94.19,49.98 90.54,45.65 86.06,45.66C81.57,45.67 77.93,50.02 77.94,55.39C77.95,60.74 81.61,65.07 86.1,65.06Z" style="fill:#2f2f2f;fill-rule:nonzero;"/><path d="M73.34,92.15C73.34,97.65 69.16,99.97 64,99.97C58.84,99.97 54.66,97.65 54.66,92.15C54.66,86.65 58.84,80.05 64,80.05C69.16,80.05 73.34,86.65 73.34,92.15Z" style="fill:#ed6c30;fill-rule:nonzero;"/></g></g><g id="Face1" serif:id="Face" transform="matrix(0.801503,0,0,0.800882,25.5038,12.6955)"><g opacity="0.6"><path d="M41.99,65.06C37.5,65.1 33.82,60.79 33.77,55.44C33.72,50.07 37.32,45.69 41.81,45.65C46.29,45.61 49.98,49.92 50.03,55.29C50.08,60.65 46.47,65.02 41.99,65.06ZM86.1,65.06C90.58,65.05 94.21,60.7 94.2,55.35C94.19,49.98 90.54,45.65 86.06,45.66C81.57,45.67 77.93,50.02 77.94,55.39C77.95,60.74 81.61,65.07 86.1,65.06Z" style="fill:#2f2f2f;fill-rule:nonzero;"/><path d="M73.34,92.15C73.34,97.65 69.16,99.97 64,99.97C58.84,99.97 54.66,97.65 54.66,92.15C54.66,86.65 58.84,80.05 64,80.05C69.16,80.05 73.34,86.65 73.34,92.15Z" style="fill:#ed6c30;fill-rule:nonzero;"/></g></g></svg>