<?xml version="1.0" encoding="UTF-8" standalone="no"?><!DOCTYPE svg PUBLIC "-//W3C//DTD SVG 1.1//EN" "http://www.w3.org/Graphics/SVG/1.1/DTD/svg11.dtd"><svg width="128px" height="128px" version="1.1" xmlns="http://www.w3.org/2000/svg" xmlns:xlink="http://www.w3.org/1999/xlink" xml:space="preserve" xmlns:serif="http://www.serif.com/" style="fill-rule:evenodd;clip-rule:evenodd;stroke-linecap:round;stroke-linejoin:round;stroke-miterlimit:1.5;"><g transform="matrix(1.23245,0,0,1.23245,-18.033,-19.2499)"><path d="M41.738,101.402C48.712,103.646 42,108.166 33.95,105.803C29.252,104.424 27.249,103.839 25.251,102.273C24.992,103.479 21.967,105.595 18.984,106.009C18.619,106.056 18.263,105.874 18.087,105.551C17.911,105.228 17.951,104.83 18.188,104.548C22.178,99.276 30.406,85.986 34,77C34.045,76.887 43.6,55.247 47.926,45.451C49.181,42.589 51.926,40.664 55.045,40.461C60.616,40.149 69.295,39.593 73,39C87.412,36.695 100.321,32.492 109,29C108.851,29.173 113.37,28.875 113.829,29.951C115.119,32.974 111.279,36.034 111.453,36.393C111.895,37.308 114.976,38.186 115.107,39.515C115.389,42.379 110.134,42.88 110.317,43.598C111.026,46.377 113.284,45.772 113.45,47.989C113.706,51.409 107.934,53.092 107.934,53.092L109.743,55.163L109.503,59.424L101.35,62.273L101.238,66.575L92.997,68.174L93.303,72.379L86.856,74.514L87.683,79.019L78.681,80.74L79.064,82.479L77.538,85.927L70.034,86.648L69.367,88.115L68.045,90.628L58.202,92.08L57.93,95.875L52.529,96.982C52.529,96.982 54.112,102.817 48.275,101.542C48.275,101.542 44.059,101.922 41.738,101.402Z" style="fill:#ecf0f1;"/></g><g transform="matrix(1.23245,0,0,1.23245,-18.033,-19.2499)"><path d="M41.569,101.613C48.543,103.857 42,108.166 33.95,105.803C29.252,104.424 27.249,103.839 25.251,102.273C24.992,103.479 21.967,105.595 18.984,106.009C18.619,106.056 18.263,105.874 18.087,105.551C17.911,105.228 17.951,104.83 18.188,104.548C22.178,99.276 30.406,85.986 34,77C34.045,76.887 43.6,55.247 47.926,45.451C49.181,42.589 51.926,40.664 55.045,40.461C60.616,40.149 69.295,39.593 73,39C87.412,36.695 100.321,32.492 109,29" style="fill:none;stroke:#6593a2;stroke-width:1.62px;"/></g><g transform="matrix(1.23245,0,0,0.960449,-9.71472,2.2472)"><path d="M25.251,102.273C28.841,105.702 33.288,108.235 38.186,108.613C50.251,109.545 47.269,101.787 41.229,100.645" style="fill:none;stroke:#6593a2;stroke-width:1.81px;"/></g><g transform="matrix(1.35803,0,0,0.892258,-6.54265,2.64726)"><path d="M25.251,102.273C28.875,105.53 33.359,107.827 38.186,108.613C47.259,110.09 45.844,104.212 41.571,100.863" style="fill:none;stroke:#6593a2;stroke-width:1.74px;"/></g><g transform="matrix(1.49641,0,0,0.969881,-1.00004,-11.5719)"><path d="M25.251,102.273C28.875,105.53 33.388,107.636 38.186,108.613C45,110 48.394,103.761 43.637,101.5" style="fill:none;stroke:#6593a2;stroke-width:1.59px;"/></g><g transform="matrix(1.64888,0,0,1.10652,4.51247,-32.7523)"><path d="M25.251,102.273C28.875,105.53 33.406,107.485 38.186,108.613C46.182,110.5 47.014,102.843 43.44,101.415" style="fill:none;stroke:#6593a2;stroke-width:1.42px;"/></g><g transform="matrix(1.81689,0,0,1.11365,9.50661,-41.104)"><path d="M25.251,102.273C28.875,105.53 33.388,107.636 38.186,108.613C45,110 46.188,103.045 42.201,101.617" style="fill:none;stroke:#6593a2;stroke-width:1.33px;"/></g><g transform="matrix(1.81689,0,0,1.11365,16.5938,-48.9198)"><path d="M25.251,102.273C28.875,105.53 33.388,107.636 38.186,108.613C45,110 46.293,103.31 42.305,101.882" style="fill:none;stroke:#6593a2;stroke-width:1.33px;"/></g><g transform="matrix(2.00064,-0.0746194,0.0376043,1.00822,15.0996,-41.9571)"><path d="M25.251,102.273C28.875,105.53 33.388,107.636 38.186,108.613C45,110 45.705,102.405 41.407,101.301" style="fill:none;stroke:#6593a2;stroke-width:1.26px;"/></g><g transform="matrix(2.19944,-0.170209,0.0950918,1.22878,10.7266,-69.7089)"><path d="M25.251,102.273C28.875,105.53 33.388,107.636 38.186,108.613C45,110 46.209,100.649 41.063,100.317" style="fill:none;stroke:#6593a2;stroke-width:1.12px;"/></g><g transform="matrix(2.16029,-0.446882,0.249661,1.2069,0.317082,-67.3871)"><path d="M25.251,102.273C28.875,105.53 33.388,107.636 38.186,108.613C45,110 46.706,100.558 39.264,100.326" style="fill:none;stroke:#6593a2;stroke-width:1.12px;"/></g><g transform="matrix(2.08647,-0.716384,0.400226,1.16566,-9.71543,-63.7679)"><path d="M25.251,102.273C28.875,105.53 33.388,107.636 38.186,108.613C45,110 45.565,103.012 39.263,102.257" style="fill:none;stroke:#6593a2;stroke-width:1.12px;"/></g><g transform="matrix(1.97917,-0.974393,0.544369,1.10571,-19.5769,-56.2796)"><path d="M25.251,102.273C28.875,105.53 33.388,107.636 38.186,108.613C45,110 43.189,101.644 40.691,101.672" style="fill:none;stroke:#6593a2;stroke-width:1.12px;"/></g></svg>