<?xml version="1.0" encoding="UTF-8" standalone="no"?><!DOCTYPE svg PUBLIC "-//W3C//DTD SVG 1.1//EN" "http://www.w3.org/Graphics/SVG/1.1/DTD/svg11.dtd"><svg width="128px" height="128px" version="1.1" xmlns="http://www.w3.org/2000/svg" xmlns:xlink="http://www.w3.org/1999/xlink" xml:space="preserve" xmlns:serif="http://www.serif.com/" style="fill-rule:evenodd;clip-rule:evenodd;stroke-linecap:round;stroke-linejoin:round;stroke-miterlimit:1.5;"><path d="M17,106C20.262,102.331 30,87 34,77C34.058,76.854 49.882,40.778 50.011,40.73C50.303,40.621 67.33,39.907 73,39C87.412,36.695 100.321,32.492 109,29" style="fill:none;stroke:#000;stroke-width:1px;"/><path d="M25.251,102.273C27.249,103.839 29.252,104.424 33.95,105.803C42,108.166 48.543,103.857 41.569,101.613" style="fill:none;stroke:#000;stroke-width:1px;"/><g transform="matrix(1,0,0,0.7793,6.74938,17.4426)"><path d="M25.251,102.273C28.841,105.702 33.288,108.235 38.186,108.613C50.251,109.545 47.269,101.787 41.229,100.645" style="fill:none;stroke:#000;stroke-width:1.12px;"/></g><g transform="matrix(1.10189,0,0,0.72397,9.32317,17.7672)"><path d="M25.251,102.273C28.875,105.53 33.359,107.827 38.186,108.613C47.259,110.09 45.844,104.212 41.571,100.863" style="fill:none;stroke:#000;stroke-width:1.07px;"/></g><g transform="matrix(1.21417,0,0,0.786953,13.8204,6.22987)"><path d="M25.251,102.273C28.875,105.53 33.388,107.636 38.186,108.613C45,110 48.394,103.761 43.637,101.5" style="fill:none;stroke:#000;stroke-width:0.98px;"/></g><g transform="matrix(1.33789,0,0,0.897822,18.2932,-10.9557)"><path d="M25.251,102.273C28.875,105.53 33.406,107.485 38.186,108.613C46.182,110.5 47.014,102.843 43.44,101.415" style="fill:none;stroke:#000;stroke-width:0.88px;"/></g><g transform="matrix(1.47421,0,0,0.903607,22.3454,-17.7322)"><path d="M25.251,102.273C28.875,105.53 33.388,107.636 38.186,108.613C45,110 46.188,103.045 42.201,101.617" style="fill:none;stroke:#000;stroke-width:0.82px;"/></g><g transform="matrix(1.47421,0,0,0.903607,28.0959,-24.0739)"><path d="M25.251,102.273C28.875,105.53 33.388,107.636 38.186,108.613C45,110 46.293,103.31 42.305,101.882" style="fill:none;stroke:#000;stroke-width:0.82px;"/></g><g transform="matrix(1.6233,-0.0605455,0.0305118,0.81806,26.8835,-18.4244)"><path d="M25.251,102.273C28.875,105.53 33.388,107.636 38.186,108.613C45,110 45.705,102.405 41.407,101.301" style="fill:none;stroke:#000;stroke-width:0.78px;"/></g><g transform="matrix(1.78461,-0.138106,0.0771566,0.997019,23.3353,-40.942)"><path d="M25.251,102.273C28.875,105.53 33.388,107.636 38.186,108.613C45,110 46.209,100.649 41.063,100.317" style="fill:none;stroke:#000;stroke-width:0.69px;"/></g><g transform="matrix(1.75284,-0.362596,0.202573,0.979267,14.8891,-39.0581)"><path d="M25.251,102.273C28.875,105.53 33.388,107.636 38.186,108.613C45,110 46.706,100.558 39.264,100.326" style="fill:none;stroke:#000;stroke-width:0.69px;"/></g><g transform="matrix(1.69294,-0.581268,0.32474,0.945803,6.74881,-36.1215)"><path d="M25.251,102.273C28.875,105.53 33.388,107.636 38.186,108.613C45,110 45.565,103.012 39.263,102.257" style="fill:none;stroke:#000;stroke-width:0.69px;"/></g><g transform="matrix(1.60588,-0.790614,0.441696,0.897165,-1.25265,-30.0456)"><path d="M25.251,102.273C28.875,105.53 33.388,107.636 38.186,108.613C45,110 43.189,101.644 40.691,101.672" style="fill:none;stroke:#000;stroke-width:0.69px;"/></g><path d="M17,106C20.46,106.597 24.933,103.751 25.251,102.273" style="fill:none;stroke:#000;stroke-width:1px;"/></svg>